<svg width="25" height="21" viewBox="0 0 25 21" fill="none" xmlns="http://www.w3.org/2000/svg">
<path d="M22.9167 3.20831H17.7083V2.1666C17.7083 1.01763 16.774 0.083252 15.625 0.083252H9.375C8.22603 0.083252 7.29165 1.01758 7.29165 2.1666V3.20826H2.08335C0.934326 3.20831 0 4.14263 0 5.29161V8.41661C0 9.56564 0.934326 10.5 2.08335 10.5H10.4167V9.97911C10.4167 9.69122 10.6497 9.45826 10.9375 9.45826H14.0625C14.3504 9.45826 14.5834 9.69122 14.5834 9.97911V10.5H22.9167C24.0657 10.5 25 9.56564 25 8.41661V5.29161C25 4.14263 24.0657 3.20831 22.9167 3.20831ZM15.625 3.20831H9.375V2.1666H15.625V3.20831Z" fill="#FFBB38" style="fill:#FFBB38;fill:color(display-p3 1.0000 0.7333 0.2196);fill-opacity:1;"/>
<path d="M24.7111 11.0618C24.5336 10.9739 24.3215 10.9942 24.1648 11.1132C23.7945 11.3935 23.3632 11.5415 22.9166 11.5415H14.5833V13.104C14.5833 13.3919 14.3504 13.6248 14.0625 13.6248H10.9375C10.6496 13.6248 10.4167 13.3919 10.4167 13.104V11.5415H2.08335C1.63677 11.5415 1.20547 11.3935 0.835156 11.1132C0.677979 10.9932 0.466406 10.9728 0.288867 11.0618C0.111914 11.1499 0 11.3304 0 11.5283V18.8332C0 19.9822 0.934326 20.9165 2.08335 20.9165H22.9167C24.0657 20.9165 25 19.9822 25 18.8332V11.5283C25 11.3304 24.8881 11.1499 24.7111 11.0618Z" fill="#FFBB38" style="fill:#FFBB38;fill:color(display-p3 1.0000 0.7333 0.2196);fill-opacity:1;"/>
</svg>
