<svg width="23" height="25" viewBox="0 0 23 25" fill="none" xmlns="http://www.w3.org/2000/svg">
<path d="M11.1328 25H9.17969C8.2104 25 7.42188 24.2115 7.42188 23.2422V11.1328C7.42188 10.1635 8.2104 9.375 9.17969 9.375H11.1328C12.1021 9.375 12.8906 10.1635 12.8906 11.1328V23.2422C12.8906 24.2115 12.102 25 11.1328 25Z" fill="#FF82AC" style="fill:#FF82AC;fill:color(display-p3 1.0000 0.5098 0.6745);fill-opacity:1;"/>
<path d="M3.71094 25H1.75782C0.788527 25 0 24.2115 0 23.2422V15.0391C0 14.0698 0.788527 13.2812 1.75782 13.2812H3.71094C4.68023 13.2812 5.46876 14.0698 5.46876 15.0391V23.2422C5.46876 24.2115 4.68018 25 3.71094 25Z" fill="#FF82AC" style="fill:#FF82AC;fill:color(display-p3 1.0000 0.5098 0.6745);fill-opacity:1;"/>
<path d="M18.555 25H16.6019C15.6326 25 14.8441 24.2115 14.8441 23.2422V7.03125H13.7709C13.2691 7.03125 12.8271 6.74805 12.6174 6.29219C12.4078 5.83633 12.4804 5.3165 12.8069 4.9355C12.8107 4.93115 12.8145 4.92681 12.8183 4.92256L16.9966 0.259863C17.1448 0.0944824 17.3564 0 17.5785 0C17.8006 0 18.0121 0.0944824 18.1603 0.259863L22.3387 4.92256C22.3426 4.92681 22.3463 4.93115 22.35 4.9355C22.6766 5.31646 22.7492 5.83633 22.5395 6.29219C22.3299 6.74805 21.8879 7.03125 21.3861 7.03125H20.3129V23.2422C20.3129 24.2115 19.5243 25 18.555 25V25Z" fill="#FF82AC" style="fill:#FF82AC;fill:color(display-p3 1.0000 0.5098 0.6745);fill-opacity:1;"/>
</svg>
