<svg width="20" height="20" viewBox="0 0 20 20" fill="none" xmlns="http://www.w3.org/2000/svg">
<path d="M16.7549 0C15.6109 0 14.6836 0.927344 14.6836 2.07129V8.25156H18.2402C18.5638 8.25156 18.8262 7.98922 18.8262 7.66563V2.07129C18.8262 0.927344 17.8988 0 16.7549 0V0Z" fill="#FF82AC"/>
<path d="M7.08441 14.7266C7.08441 11.187 9.96375 8.27176 13.5507 8.28152V2.32367C13.5507 1.43238 13.8862 0.618086 14.4373 0H4.10273C2.48789 0 1.17383 1.31406 1.17383 2.92891V19.4035C1.17383 19.9306 1.81863 20.1896 2.1832 19.8086L2.93281 19.0258L3.72461 19.818C3.95312 20.0465 4.32422 20.0465 4.55312 19.818L5.30352 19.068L6.06133 19.8195C6.28984 20.0461 6.6582 20.0461 6.88672 19.8195L7.65664 19.0562L8.42695 19.8195C8.65508 20.0461 9.02305 20.0461 9.25156 19.8199L9.40078 19.6723C7.94797 18.4576 7.08441 16.6616 7.08441 14.7266ZM5.91391 4.72656H7.07031V3.57016C7.07031 3.24656 7.33266 2.98422 7.65625 2.98422C7.97984 2.98422 8.24219 3.24656 8.24219 3.57016V4.72656H9.39859C9.72219 4.72656 9.98453 4.98891 9.98453 5.3125C9.98453 5.63609 9.72219 5.89844 9.39859 5.89844H8.24219V7.05484C8.24219 7.37844 7.97984 7.64078 7.65625 7.64078C7.33266 7.64078 7.07031 7.37844 7.07031 7.05484V5.89844H5.91391C5.59031 5.89844 5.32797 5.63609 5.32797 5.3125C5.32797 4.98891 5.59031 4.72656 5.91391 4.72656ZM4.14059 8.83008H8.08594C8.40953 8.83008 8.67188 9.09242 8.67188 9.41602C8.67188 9.73961 8.40953 10.002 8.08594 10.002H4.14059C3.81699 10.002 3.55465 9.73961 3.55465 9.41602C3.55465 9.09242 3.81699 8.83008 4.14059 8.83008ZM6.09566 14.6855H4.13668C3.81309 14.6855 3.55074 14.4232 3.55074 14.0996C3.55074 13.776 3.81309 13.5137 4.13668 13.5137H6.09566C6.41926 13.5137 6.6816 13.776 6.6816 14.0996C6.6816 14.4232 6.41926 14.6855 6.09566 14.6855ZM6.48633 12.3457H4.13859C3.815 12.3457 3.55266 12.0834 3.55266 11.7598C3.55266 11.4362 3.815 11.1738 4.13859 11.1738H6.48633C6.80992 11.1738 7.07227 11.4362 7.07227 11.7598C7.07227 12.0834 6.80992 12.3457 6.48633 12.3457Z" fill="#FF82AC"/>
<path d="M13.5298 9.45312C10.622 9.45312 8.25635 11.8188 8.25635 14.7266C8.25635 17.6343 10.622 20 13.5298 20C16.4376 20 18.8032 17.6343 18.8032 14.7266C18.8032 11.8188 16.4376 9.45312 13.5298 9.45312ZM14.1176 16.9832V17.0389C14.1176 17.3625 13.8552 17.6248 13.5316 17.6248C13.208 17.6248 12.9457 17.3625 12.9457 17.0389V17.0289C12.6832 16.9664 12.4397 16.863 12.2466 16.7367C11.9758 16.5595 11.8999 16.1964 12.0771 15.9255C12.2542 15.6547 12.6174 15.5788 12.8882 15.756C13.128 15.9129 13.5233 15.9725 13.7176 15.8811C13.8435 15.8218 13.9409 15.6954 13.9545 15.5736C13.9835 15.3141 13.577 15.1694 13.3343 15.0735C12.9671 14.9285 12.5099 14.7479 12.2446 14.2689C11.8663 13.5861 12.1976 12.6858 12.9457 12.3779V12.3484C12.9457 12.0248 13.208 11.7625 13.5316 11.7625C13.852 11.7625 14.112 12.0198 14.1171 12.3389C14.328 12.4048 14.5223 12.5103 14.6778 12.6538C14.9157 12.8732 14.9307 13.2439 14.7113 13.4818C14.4919 13.7197 14.1212 13.7346 13.8833 13.5152C13.7869 13.4263 13.4899 13.3904 13.3608 13.4771C13.274 13.5354 13.2399 13.6473 13.2697 13.7009C13.3934 13.9243 14.0415 14.0009 14.5319 14.3831C15.5338 15.1638 15.1852 16.5736 14.1176 16.9832Z" fill="#FF82AC"/>
</svg>
