<svg width="20" height="20" viewBox="0 0 20 20" fill="none" xmlns="http://www.w3.org/2000/svg">
<g clip-path="url(#clip0_152_763)">
<path d="M18.6545 9.57696H17.465C17.1942 8.81946 16.7579 8.14125 16.1994 7.58684L18.0339 6.77699C18.296 6.66129 18.4395 6.37215 18.365 6.09558C18.1438 5.2746 17.397 4.67065 16.5098 4.67065H14.9968C14.1267 4.67065 13.392 5.25179 13.1553 6.04871H11.5573C10.9571 8.26579 8.9297 9.90153 6.52751 9.90153C5.06113 9.90153 3.73453 9.29188 2.78683 8.31278C2.51991 8.6936 2.30128 9.11102 2.14015 9.55622C1.66151 9.45149 1.26796 9.0729 1.15792 8.57985C1.08745 8.26399 0.774048 8.06489 0.458422 8.13563C0.142601 8.20614 -0.0563065 8.5193 0.0142016 8.83512C0.134046 9.37212 0.435649 9.8597 0.863424 10.2079C1.1562 10.4463 1.50046 10.6122 1.86522 10.6954C1.83683 10.9188 1.82214 11.1464 1.82214 11.3774V11.9456C1.82214 14.0989 3.09347 15.9536 4.92305 16.7941V18.0853C4.92305 18.7881 5.49278 19.3578 6.19555 19.3578C6.89833 19.3578 7.46806 18.7881 7.46806 18.0853V17.2743H12.235V18.0853C12.235 18.7881 12.8047 19.3578 13.5075 19.3578C14.2102 19.3578 14.78 18.7881 14.78 18.0853V16.7444C16.1177 16.0937 17.1422 14.895 17.5645 13.4385H18.6544C19.3976 13.4385 20.0001 12.8333 20.0001 12.0866V10.9288C20.0001 10.1822 19.3977 9.57696 18.6545 9.57696ZM14.3309 9.91524C14.0085 9.91524 13.7471 9.65388 13.7471 9.33141C13.7471 9.00895 14.0085 8.74758 14.3309 8.74758C14.6534 8.74758 14.9148 9.00895 14.9148 9.33141C14.9148 9.65388 14.6534 9.91524 14.3309 9.91524Z" fill="#16DBCC"/>
<path d="M6.5275 0.642334C4.3005 0.642334 2.48877 2.45633 2.48877 4.68598C2.48877 6.91568 4.30054 8.72967 6.5275 8.72967C8.75446 8.72967 10.5662 6.91568 10.5662 4.68598C10.5662 2.45625 8.75438 0.642334 6.5275 0.642334ZM6.15246 4.06813H6.90254C7.74864 4.06813 8.43696 4.75696 8.43696 5.60364C8.43696 6.37865 7.86004 7.02103 7.11344 7.12423V7.34431C7.11344 7.66791 6.85109 7.93025 6.5275 7.93025C6.2039 7.93025 5.94156 7.66791 5.94156 7.34431V7.13908H5.79207C5.14472 7.13908 4.618 6.61212 4.618 5.96439C4.618 5.64079 4.88034 5.37845 5.20394 5.37845C5.52753 5.37845 5.78988 5.64079 5.78988 5.96439L6.9025 5.9672C7.10242 5.9672 7.26504 5.80407 7.26504 5.6036C7.26504 5.40313 7.10242 5.24001 6.9025 5.24001H6.15242C5.30632 5.24001 4.618 4.55122 4.618 3.70453C4.618 2.92949 5.19491 2.28711 5.94156 2.1839V2.02769C5.94156 1.7041 6.2039 1.44175 6.5275 1.44175C6.85109 1.44175 7.11344 1.7041 7.11344 2.02769V2.16902H7.26289C7.91024 2.16902 8.43696 2.69601 8.43696 3.34375C8.43696 3.66735 8.17462 3.92969 7.85102 3.92969C7.52743 3.92969 7.26508 3.66735 7.26508 3.34375C7.26508 3.34281 7.265 3.34242 7.265 3.34242L6.15246 3.3409C5.95254 3.3409 5.78992 3.50402 5.78992 3.70453C5.78992 3.905 5.95254 4.06813 6.15246 4.06813Z" fill="#16DBCC"/>
</g>
<defs>
<clipPath id="clip0_152_763">
<rect width="20" height="20" fill="white"/>
</clipPath>
</defs>
</svg>
