<svg width="20" height="20" viewBox="0 0 20 20" fill="none" xmlns="http://www.w3.org/2000/svg">
<g clip-path="url(#clip0_192_119)">
<path d="M17.6382 13.7617C17.0131 13.3864 15.7129 12.6051 15.7129 10.5728C15.7129 8.85752 16.8608 7.99188 17.4773 7.52684L17.4902 7.51708C17.7378 7.33044 17.7967 6.98294 17.6249 6.72484C16.2474 4.65659 13.8816 4.59685 13.4217 4.60544H13.4189C13.1034 4.60583 12.8024 4.64215 12.517 4.69954C12.6224 4.6152 12.7247 4.5254 12.8231 4.43013C13.8086 3.47663 14.3502 2.06981 14.3084 0.569287C14.2994 0.252626 14.0402 0 13.7231 0C12.6572 0 11.4452 0.636836 10.56 1.66218C9.6682 2.69533 9.25158 3.93308 9.41753 5.05759C9.43119 5.15091 9.46712 5.23603 9.51866 5.30905C9.36247 5.25673 9.19731 5.19581 9.0341 5.13568C8.41405 4.90727 7.71084 4.64839 7.05253 4.64839C7.03925 4.64839 5.70077 4.65815 4.36423 5.48827C3.1952 6.21491 1.80127 7.72715 1.80127 10.8075C1.80127 12.4095 2.42717 14.6523 3.3959 16.5218C4.06514 17.8134 5.454 19.9813 7.23761 19.9914H7.25674C8.55735 19.9914 9.63501 19.2234 10.3679 19.2234C11.6197 19.2234 12.0652 20 13.4189 20C14.6325 20 15.8085 19.0781 16.9147 17.2606C17.3208 16.5929 17.6367 15.9326 17.8299 15.4961C18.1989 14.6644 18.1989 14.5535 18.1989 14.4723C18.1989 14.0986 17.9139 13.9272 17.6382 13.7617ZM11.4467 2.42747C11.9274 1.87068 12.533 1.45758 13.1066 1.27523C12.9969 2.18461 12.6126 3.00418 12.0086 3.5883C11.5853 3.99789 11.0774 4.26418 10.5616 4.35594C10.6162 3.71247 10.9239 3.03307 11.4467 2.42747ZM15.8573 16.7436C15.0214 18.0883 14.1553 18.8286 13.4189 18.8286C12.4057 18.8286 11.9321 18.052 10.3679 18.052C9.3125 18.052 8.30551 18.8255 7.24424 18.82C6.41647 18.8154 5.34037 17.7283 4.43607 15.983C3.547 14.2677 2.97264 12.2361 2.97264 10.8075C2.97264 8.7849 3.63759 7.33747 4.94796 6.50502C5.96823 5.85725 7.01192 5.82094 7.05604 5.81977C7.97049 5.82211 9.23987 6.63153 10.1649 6.63153C10.9977 6.63153 12.1129 5.77681 13.4232 5.77681H13.4447C13.7625 5.77057 15.2631 5.8061 16.3173 6.95014C15.5723 7.5776 14.5415 8.70603 14.5415 10.5728C14.5415 13.1084 16.1451 14.2216 16.9026 14.6859C16.714 15.1427 16.3544 15.9443 15.8573 16.7436Z" fill="#16DBCC"/>
</g>
<defs>
<clipPath id="clip0_192_119">
<rect width="20" height="20" fill="white"/>
</clipPath>
</defs>
</svg>
