<svg width="20" height="20" viewBox="0 0 20 20" fill="none" xmlns="http://www.w3.org/2000/svg">
<g clip-path="url(#clip0_185_336)">
<path d="M18.7938 10.4423C18.4726 10.4038 18.181 10.6333 18.1426 10.9546C17.661 14.9893 14.2248 18.032 10.1497 18.032C6.48442 18.032 3.33673 15.5707 2.38994 12.1402L3.09092 12.5252C3.37457 12.681 3.73086 12.5772 3.8865 12.2937C4.04229 12.0101 3.93868 11.6538 3.65503 11.498L1.85696 10.5105C1.57361 10.3548 1.21762 10.4581 1.06168 10.7413L0.0727752 12.5371C-0.0833198 12.8206 0.0199806 13.1769 0.303332 13.333C0.595991 13.4699 0.930459 13.4026 1.09922 13.1024L1.3284 12.6863C2.48943 16.4949 6.0349 19.2039 10.1497 19.2039C14.8179 19.2039 18.7543 15.7171 19.306 11.0935C19.3445 10.7721 19.115 10.4806 18.7938 10.4423Z" fill="#16DBCC"/>
<path d="M19.6455 5.78517C19.3486 5.65715 19.0037 5.79402 18.8755 6.09126L18.6909 6.51911C18.114 5.10845 17.1881 3.84611 15.9955 2.8688C14.3535 1.52285 12.2774 0.781738 10.1496 0.781738C8.02183 0.781738 5.94575 1.52285 4.30362 2.8688C2.68423 4.19599 1.55571 6.04838 1.12603 8.08448C1.05919 8.4011 1.26183 8.71192 1.57844 8.77875C1.8946 8.84558 2.20587 8.6431 2.27255 8.32648C2.64746 6.55024 3.63255 4.9339 5.04641 3.77501C6.47949 2.60041 8.2919 1.9536 10.1496 1.9536C12.0072 1.9536 13.8196 2.60041 15.2527 3.77501C16.3542 4.67771 17.1953 5.85826 17.6906 7.17568L16.9487 6.85663C16.6515 6.72891 16.3068 6.86609 16.1789 7.16332C16.051 7.46056 16.1884 7.8051 16.4856 7.93297L18.3703 8.74365C18.6911 8.87625 19.0034 8.74075 19.14 8.43741L19.9516 6.55512C20.0797 6.25803 19.9427 5.91334 19.6455 5.78517Z" fill="#16DBCC"/>
<path d="M13.7609 5.68234C13.929 5.34314 13.9548 4.95863 13.8338 4.5999C13.7128 4.24117 13.4594 3.95111 13.1202 3.78296C12.4198 3.43598 11.5679 3.72345 11.2208 4.42366C11.1449 4.57686 11.0983 4.73921 11.0809 4.90431C10.6283 4.86265 10.1682 4.90477 9.72239 5.03309C8.83495 5.28821 8.08011 5.86224 7.59702 6.64912L6.01487 9.22599C5.80353 9.18815 5.58503 9.20386 5.37599 9.27436C5.049 9.38468 4.78457 9.61569 4.63153 9.92468L4.52716 10.1351C4.211 10.7732 4.47284 11.5497 5.1111 11.8659L8.53604 13.5629C8.19882 14.2645 8.34988 15.0529 9.22511 15.4933C9.99246 15.8085 10.8466 15.4997 11.1784 14.8723L11.5404 15.0516C11.7214 15.1413 11.9164 15.1866 12.1126 15.1866C12.2516 15.1866 12.3913 15.1639 12.5268 15.1181C12.8536 15.0079 13.118 14.7769 13.2712 14.4678L13.3754 14.2573C13.5286 13.9482 13.5523 13.598 13.442 13.271C13.3715 13.062 13.2515 12.8786 13.0935 12.7333L14.1854 9.91369C14.5188 9.0525 14.5181 8.10418 14.1837 7.2436C14.0157 6.81117 13.7705 6.41964 13.4633 6.08471C13.584 5.97088 13.685 5.83554 13.7609 5.68234ZM12.4898 4.80528C12.6258 4.80528 12.736 4.91545 12.736 5.05125C12.736 5.1872 12.6258 5.29722 12.4898 5.29722C12.354 5.29722 12.2439 5.18705 12.2439 5.05125C12.2439 4.91545 12.354 4.80528 12.4898 4.80528ZM9.97751 14.4589C9.90061 14.485 9.81821 14.4794 9.74543 14.4433C9.67264 14.4073 9.61832 14.3451 9.59238 14.2682C9.57209 14.2081 9.57133 14.1444 9.58918 14.0849L10.1254 14.3506C10.0886 14.4008 10.0376 14.4388 9.97751 14.4589ZM13.0925 9.49057L11.9031 12.5618C11.7358 12.9413 11.8958 13.3905 12.271 13.5767H12.2712C12.3324 13.6093 12.3548 13.6765 12.3255 13.7372L12.2211 13.9476C12.1862 14.0086 12.1239 14.0286 12.0608 14.0016L5.63142 10.8159C5.57221 10.7866 5.5478 10.7146 5.5771 10.6556L5.68147 10.4451C5.70969 10.3931 5.76447 10.3562 5.84199 10.391C6.0289 10.4836 6.24069 10.4978 6.43844 10.4313C6.62505 10.3682 6.7781 10.2402 6.87255 10.0689L8.59554 7.26237C8.92528 6.72526 9.44056 6.33342 10.0463 6.15917C10.6519 5.98492 11.2966 6.04305 11.8612 6.3229C11.8613 6.3229 11.8613 6.3229 11.8615 6.32305C11.8616 6.32305 11.8616 6.32305 11.8618 6.3232C12.4265 6.60304 12.8632 7.08064 13.0915 7.66809C13.3197 8.25555 13.32 8.90281 13.0925 9.49057Z" fill="#16DBCC"/>
</g>
<defs>
<clipPath id="clip0_185_336">
<rect width="20" height="20" fill="white"/>
</clipPath>
</defs>
</svg>
