<svg width="20" height="16" viewBox="0 0 20 16" fill="none" xmlns="http://www.w3.org/2000/svg">
<path d="M17.6621 3.51034V3.23675C17.6621 1.97905 16.6389 0.955811 15.3812 0.955811H2.28094C1.0232 0.95585 0 1.97905 0 3.23675V3.51034H17.6621Z" fill="#396AFF"/>
<path d="M10.4347 10.8476C10.4347 9.6644 10.8152 8.53983 11.5178 7.61304H0V10.7948C0 12.0525 1.0232 13.0757 2.28094 13.0757H10.9162C10.601 12.3852 10.4347 11.6292 10.4347 10.8476ZM8.83109 10.1562H6.8625V8.98437H8.83109V10.1562ZM2.62727 8.98437H5.69062V10.1562H2.62727V8.98437Z" fill="#396AFF"/>
<path d="M12.7344 6.441C13.6281 5.81572 14.6898 5.47885 15.8033 5.47885C16.4478 5.47885 17.0748 5.59201 17.6621 5.8083V4.68213H0V6.441H12.7344Z" fill="#396AFF"/>
<path d="M19.9999 10.8476C19.9999 8.52979 18.1209 6.65088 15.8032 6.65088C13.4854 6.65088 11.6064 8.52979 11.6064 10.8476C11.6064 13.1653 13.4854 15.0442 15.8032 15.0442C18.1209 15.0442 19.9999 13.1653 19.9999 10.8476ZM16.3689 13.0896V13.5665H15.7829V13.5665V13.5665H15.197V13.0931C14.8427 12.9731 14.5529 12.7621 14.2698 12.5551L14.9616 11.6092C15.3419 11.8873 15.5365 12.021 15.8032 12.021C15.9539 12.021 16.076 11.9492 16.1218 11.8337C16.1772 11.6938 16.0989 11.565 15.9123 11.489C15.9123 11.489 15.0747 11.2097 14.6875 10.8149C14.3626 10.4837 14.2593 10.0169 14.3627 9.57291C14.4668 9.12584 14.7687 8.77627 15.197 8.6017V8.12857H16.3689V8.58209C16.6665 8.66475 16.9184 8.7869 17.0632 8.86553L16.5041 9.89541C16.1334 9.6942 15.7924 9.63381 15.6597 9.6792C15.5309 9.72318 15.5113 9.80717 15.5039 9.83881C15.4935 9.88361 15.4879 9.95236 15.5596 10.0322C15.6285 10.109 16.3541 10.4037 16.3541 10.4037C17.137 10.7224 17.5054 11.5228 17.2112 12.2654C17.0584 12.6513 16.7507 12.9437 16.3689 13.0896Z" fill="#396AFF"/>
</svg>
