<svg width="18" height="18" viewBox="0 0 18 18" fill="none" xmlns="http://www.w3.org/2000/svg">
<g clip-path="url(#clip0_158_1343)">
<path d="M16.5 3.75004H12.75V3.00001C12.75 2.17275 12.0773 1.5 11.25 1.5H6.75C5.92274 1.5 5.24999 2.17272 5.24999 3.00001V3.75H1.50001C0.672715 3.75004 0 4.42275 0 5.25002V7.50002C0 8.32732 0.672715 9.00003 1.50001 9.00003H7.50002V8.62502C7.50002 8.41774 7.66775 8.25001 7.87504 8.25001H10.125C10.3323 8.25001 10.5 8.41774 10.5 8.62502V9.00003H16.5001C17.3273 9.00003 18 8.32732 18 7.50002V5.25002C18 4.42275 17.3273 3.75004 16.5 3.75004ZM11.25 3.75004H6.75V3.00001H11.25V3.75004Z" fill="#FFBB38"/>
<path d="M17.792 9.40459C17.6642 9.34124 17.5115 9.3559 17.3987 9.44158C17.1321 9.64338 16.8215 9.74993 16.5 9.74993H10.5V10.8749C10.5 11.0822 10.3323 11.2499 10.125 11.2499H7.875C7.66772 11.2499 7.49999 11.0822 7.49999 10.8749V9.74993H1.50001C1.17847 9.74993 0.867938 9.64338 0.601313 9.44158C0.488145 9.35516 0.335812 9.3405 0.207984 9.40459C0.0805781 9.46798 0 9.59795 0 9.74044V15C0 15.8272 0.672715 16.5 1.50001 16.5H16.5C17.3273 16.5 18 15.8273 18 15V9.74044C18 9.59795 17.9194 9.46798 17.792 9.40459Z" fill="#FFBB38"/>
</g>
<defs>
<clipPath id="clip0_158_1343">
<rect width="18" height="18" fill="white"/>
</clipPath>
</defs>
</svg>
