<svg width="26" height="20" viewBox="0 0 26 20" fill="none" xmlns="http://www.w3.org/2000/svg">
<path d="M22.9608 4.16342V3.80775C22.9608 2.17274 21.6306 0.842529 19.9956 0.842529H2.96522C1.33016 0.84258 0 2.17274 0 3.80775V4.16342H22.9608Z" fill="#B1B1B1"/>
<path d="M13.5651 13.7017C13.5651 12.1636 14.0598 10.7017 14.9731 9.49683H0V13.6331C0 15.2681 1.33016 16.5983 2.96522 16.5983H14.1911C13.7813 15.7007 13.5651 14.7179 13.5651 13.7017ZM11.4804 12.803H8.92125V11.2796H11.4804V12.803ZM3.41545 11.2796H7.39781V12.803H3.41545V11.2796Z" fill="#B1B1B1"/>
<path d="M16.5547 7.97342C17.7165 7.16056 19.0967 6.72262 20.5443 6.72262C21.3822 6.72262 22.1973 6.86974 22.9608 7.15091V5.68689H0V7.97342H16.5547Z" fill="#B1B1B1"/>
<path d="M26 13.7018C26 10.6887 23.5573 8.24609 20.5442 8.24609C17.5311 8.24609 15.0885 10.6887 15.0885 13.7018C15.0885 16.7149 17.5311 19.1575 20.5442 19.1575C23.5573 19.1575 26 16.7149 26 13.7018ZM21.2796 16.6164V17.2364H20.5179V17.2364V17.2364H19.7562V16.6209C19.2957 16.465 18.9189 16.1906 18.5509 15.9215L19.4503 14.6919C19.9446 15.0534 20.1976 15.2272 20.5442 15.2272C20.7402 15.2272 20.8989 15.1339 20.9585 14.9838C21.0305 14.802 20.9287 14.6345 20.6861 14.5357C20.6861 14.5357 19.5973 14.1726 19.0939 13.6593C18.6715 13.2288 18.5372 12.622 18.6716 12.0447C18.807 11.4635 19.1994 11.0091 19.7562 10.7822V10.1671H21.2796V10.7567C21.6665 10.8641 21.994 11.0229 22.1823 11.1251L21.4555 12.464C20.9736 12.2024 20.5303 12.1239 20.3577 12.1829C20.1903 12.2401 20.1648 12.3493 20.1552 12.3904C20.1417 12.4486 20.1344 12.538 20.2276 12.6418C20.3172 12.7417 21.2605 13.1248 21.2605 13.1248C22.2782 13.5391 22.7572 14.5795 22.3747 15.5449C22.176 16.0467 21.776 16.4267 21.2796 16.6164Z" fill="#B1B1B1"/>
</svg>
