<svg width="18" height="18" viewBox="0 0 18 18" fill="none" xmlns="http://www.w3.org/2000/svg">
<path d="M17.9862 3.13469C17.9097 2.26465 16.8535 1.87726 16.2352 2.49559L15.3521 3.37868C15.1547 3.57612 14.8305 3.57935 14.6295 3.38585C14.4209 3.18507 14.4317 2.83917 14.6367 2.63414L15.5053 1.76557C16.123 1.14791 15.7372 0.091322 14.8665 0.0146462C12.4998 -0.193444 10.6226 2.00758 11.2502 4.34154L0.499329 15.0925C-0.16639 15.7581 -0.166496 16.8357 0.499329 17.5015C1.16354 18.1657 2.2442 18.1658 2.90841 17.5015L13.6566 6.75336C15.9626 7.38041 18.1965 5.52293 17.9862 3.13469Z" fill="#16DBCC"/>
<path d="M1.12489 4.12945C1.1501 4.17916 1.183 4.22458 1.22241 4.26399L2.74848 5.79002C2.95442 5.99597 3.2883 5.99593 3.49421 5.79002L4.27028 5.01395L5.7524 6.49606L4.16787 8.08056C3.75728 8.49188 3.75764 9.16087 4.16823 9.57181L4.33451 9.7381L9.74271 4.33026L9.57642 4.16397C9.16368 3.75198 8.49775 3.75138 8.08446 4.16397L6.49814 5.75029L5.01602 4.26818L5.79209 3.4921C5.99804 3.28619 5.99804 2.95228 5.79209 2.74637L4.26607 1.22031C4.22623 1.18044 4.18025 1.14725 4.12991 1.12197L2.17937 0.142099C1.97616 0.0400055 1.73056 0.0796266 1.56976 0.240431L0.236984 1.57317C0.075757 1.7344 0.0364171 1.98095 0.13946 2.18436L1.12489 4.12945Z" fill="#16DBCC"/>
<path d="M12.8295 9.07202L9.07568 12.8258L13.3867 17.1379C14.4238 18.175 16.1028 18.1753 17.1401 17.1379C18.1751 16.103 18.1751 14.419 17.1401 13.3844L12.8295 9.07202ZM15.9185 15.9152C15.7139 16.1205 15.3792 16.1215 15.1729 15.9152L12.1798 12.9222C11.9738 12.7161 11.9738 12.3822 12.1798 12.1765C12.3859 11.9705 12.7198 11.9705 12.9255 12.1765L15.9185 15.1696C16.1245 15.3756 16.1245 15.7092 15.9185 15.9152Z" fill="#16DBCC"/>
</svg>
