<svg width="18" height="18" viewBox="0 0 18 18" fill="none" xmlns="http://www.w3.org/2000/svg">
<g clip-path="url(#clip0_152_973)">
<path d="M15.8743 12.3855C15.3117 12.0478 14.1415 11.3446 14.1415 9.51552C14.1415 7.97177 15.1747 7.19269 15.7296 6.77416L15.7412 6.76537C15.964 6.5974 16.017 6.28464 15.8624 6.05236C14.6226 4.19093 12.4934 4.13717 12.0795 4.1449H12.077C11.7931 4.14525 11.5221 4.17793 11.2652 4.22959C11.3601 4.15368 11.4522 4.07286 11.5407 3.98711C12.4277 3.12897 12.9151 1.86283 12.8775 0.512358C12.8694 0.227363 12.6361 0 12.3507 0C11.3914 0 10.3006 0.573152 9.50396 1.49596C8.70133 2.42579 8.32638 3.53977 8.47573 4.55183C8.48803 4.63582 8.52036 4.71243 8.56674 4.77814C8.42618 4.73105 8.27753 4.67623 8.13064 4.62212C7.5726 4.41654 6.93971 4.18355 6.34723 4.18355C6.33528 4.18355 5.13064 4.19234 3.92776 4.93944C2.87563 5.59342 1.62109 6.95443 1.62109 9.72672C1.62109 11.1686 2.18441 13.1871 3.05626 14.8696C3.65858 16.0321 4.90855 17.9831 6.5138 17.9923H6.53102C7.70157 17.9923 8.67146 17.301 9.33106 17.301C10.4577 17.301 10.8586 18 12.077 18C13.1692 18 14.2276 17.1703 15.2232 15.5345C15.5886 14.9336 15.8729 14.3393 16.0469 13.9465C16.379 13.198 16.379 13.0982 16.379 13.0251C16.379 12.6888 16.1224 12.5345 15.8743 12.3855ZM10.302 2.18473C10.7346 1.68361 11.2796 1.31182 11.7959 1.14771C11.6971 1.96615 11.3513 2.70376 10.8077 3.22947C10.4268 3.5981 9.96958 3.83776 9.50536 3.92035C9.55456 3.34122 9.83147 2.72976 10.302 2.18473ZM14.2716 15.0692C13.5192 16.2795 12.7398 16.9458 12.077 16.9458C11.1651 16.9458 10.7388 16.2468 9.33106 16.2468C8.3812 16.2468 7.47491 16.943 6.51977 16.938C5.77478 16.9338 4.80629 15.9555 3.99242 14.3847C3.19225 12.8409 2.67533 11.0125 2.67533 9.72672C2.67533 7.90641 3.27378 6.60373 4.45312 5.85452C5.37136 5.27152 6.31068 5.23884 6.35039 5.23779C7.1734 5.2399 8.31583 5.96837 9.14833 5.96837C9.89789 5.96837 10.9015 5.19913 12.0809 5.19913H12.1002C12.3862 5.19351 13.7367 5.22549 14.6855 6.25513C14.015 6.81984 13.0873 7.83542 13.0873 9.51552C13.0873 11.7976 14.5305 12.7995 15.2123 13.2173C15.0426 13.6284 14.7189 14.3499 14.2716 15.0692Z" fill="#16DBCC"/>
</g>
<defs>
<clipPath id="clip0_152_973">
<rect width="18" height="18" fill="white"/>
</clipPath>
</defs>
</svg>
