<svg width="60" height="60" viewBox="0 0 60 60" fill="none" xmlns="http://www.w3.org/2000/svg">
<rect width="60" height="60" rx="20" fill="#E7EDFF"/>
<path d="M42.5021 30.7851C42.5032 29.9333 42.4311 29.083 42.2868 28.2435H30.499V33.0576H37.2505C37.1124 33.8265 36.82 34.5594 36.3909 35.2122C35.9619 35.8651 35.4051 36.4243 34.7541 36.8561V39.981H38.7835C41.1428 37.8057 42.5021 34.5888 42.5021 30.7851Z" fill="#4471FF"/>
<path d="M30.4991 43C33.8722 43 36.7124 41.8924 38.7835 39.9827L34.7542 36.8578C33.6327 37.6182 32.1883 38.0523 30.4991 38.0523C27.2388 38.0523 24.4715 35.8544 23.482 32.8927H19.3311V36.1131C20.3714 38.1833 21.9667 39.9236 23.9388 41.1397C25.9109 42.3558 28.1822 42.9999 30.4991 43Z" fill="#4471FF"/>
<path d="M23.4819 32.8926C22.9587 31.3407 22.9587 29.66 23.4819 28.1081V24.8877H19.331C18.4558 26.6292 18 28.5513 18 30.5004C18 32.4494 18.4558 34.3715 19.331 36.113L23.4819 32.8926Z" fill="#4471FF"/>
<path d="M30.4991 22.9486C32.2816 22.9195 34.0041 23.593 35.2941 24.8235L38.8617 21.2559C36.5994 19.1311 33.6025 17.9646 30.4991 18.0008C28.1822 18.0009 25.9109 18.645 23.9388 19.8611C21.9667 21.0772 20.3714 22.8175 19.3311 24.8877L23.482 28.1081C24.4715 25.1464 27.2388 22.9486 30.4991 22.9486Z" fill="#4471FF"/>
</svg>
