<svg width="20" height="20" viewBox="0 0 20 20" fill="none" xmlns="http://www.w3.org/2000/svg">
<path d="M11.7915 9.89534C14.5197 9.89534 16.7388 7.67581 16.7388 4.94767C16.7388 2.21954 14.5197 0 11.7915 0C9.06341 0 6.84387 2.21954 6.84387 4.94767C6.84387 7.67581 9.06341 9.89534 11.7915 9.89534ZM11.2056 2.03946V1.90508C11.2056 1.58125 11.4677 1.31914 11.7915 1.31914C12.115 1.31914 12.3775 1.58125 12.3775 1.90508V2.04024C13.0748 2.18985 13.5994 2.81095 13.5994 3.55236C13.5994 3.87579 13.3369 4.13829 13.0134 4.13829C12.6896 4.13829 12.4275 3.87579 12.4275 3.55236C12.4275 3.34571 12.2591 3.17735 12.0525 3.17735H11.5271C11.3204 3.17735 11.1521 3.34571 11.1521 3.55236C11.1521 3.67071 11.2087 3.78322 11.304 3.85353L11.7915 4.21447L12.9759 5.09103C13.365 5.37892 13.5994 5.83947 13.6025 6.32385V6.32932C13.6052 6.7426 13.447 7.13244 13.1564 7.42659C12.9408 7.64495 12.6712 7.79143 12.3775 7.85315V7.99026C12.3775 8.31409 12.115 8.5762 11.7915 8.5762C11.4677 8.5762 11.2056 8.31409 11.2056 7.99026V7.8551C10.9197 7.79417 10.6568 7.65354 10.4443 7.44338C10.1501 7.15315 9.98685 6.76565 9.98451 6.35236C9.98255 6.02892 10.2431 5.76486 10.5665 5.76291H10.5704C10.8923 5.76291 11.1544 6.02307 11.1564 6.34533C11.1572 6.54756 11.3199 6.71799 11.5333 6.71799C11.8571 6.71604 11.7365 6.71674 12.058 6.71486C12.2659 6.71322 12.4322 6.54443 12.4306 6.33713V6.33166C12.4298 6.21447 12.3732 6.10275 12.2787 6.03283L11.7915 5.67228L10.6068 4.79572C10.2146 4.50509 9.98021 4.04025 9.98021 3.55236C9.98021 2.80938 10.5064 2.1879 11.2056 2.03946Z" fill="#396AFF"/>
<path d="M3.775 12.7108C3.62481 12.4504 3.29117 12.3598 3.02918 12.511L0.273001 14.102C0.012024 14.2531 -0.0775075 14.5868 0.073157 14.8482L2.89012 19.7272C3.0409 19.9881 3.3745 20.0777 3.63594 19.927L6.39212 18.3356C6.65349 18.1849 6.74267 17.8511 6.59197 17.5898L3.775 12.7108Z" fill="#396AFF"/>
<path d="M19.5677 11.7367C19.3025 11.3684 18.7892 11.2852 18.4212 11.5504C17.3048 12.3547 15.161 13.8992 14.9907 14.0223C14.9122 14.0891 14.8298 14.1496 14.7439 14.2031C14.4067 14.4152 14.0157 14.5285 13.6075 14.5285H10.8009C10.4774 14.5285 10.2149 14.2664 10.2149 13.9426C10.2149 13.6184 10.4778 13.3566 10.8009 13.3566H13.8024C14.2435 13.3566 14.5966 12.9895 14.5782 12.5477C14.561 12.1285 14.2032 11.8035 13.7837 11.8035H11.4989C11.3442 11.6398 11.1747 11.4898 10.9931 11.3559C10.3684 10.8953 9.59657 10.623 8.76102 10.623C7.27547 10.623 5.79734 11.559 5.18445 12.8082L7.58133 16.9594H12.0774C12.9603 16.9594 13.8298 16.7336 14.595 16.2934C14.8603 16.141 15.1442 15.9578 15.4521 15.7367C16.7419 14.8102 19.379 12.8852 19.381 12.884C19.7497 12.6191 19.8333 12.1051 19.5677 11.7367Z" fill="#396AFF"/>
</svg>
