<svg width="18" height="18" viewBox="0 0 18 18" fill="none" xmlns="http://www.w3.org/2000/svg">

<g clip-path="url(#clip0_158_1281)">
<path d="M8.8716 8.67065C10.0628 8.67065 11.0943 8.24342 11.937 7.4005C12.7798 6.55771 13.2071 5.52651 13.2071 4.33519C13.2071 3.14427 12.7798 2.11294 11.9369 1.26988C11.094 0.427229 10.0626 0 8.8716 0C7.68027 0 6.64907 0.427229 5.80628 1.27001C4.9635 2.1128 4.53613 3.14414 4.53613 4.33519C4.53613 5.52651 4.9635 6.55785 5.80642 7.40064C6.64935 8.24328 7.68068 8.67065 8.8716 8.67065Z" fill="#396AFF"/>
<path d="M16.4576 13.841C16.4333 13.4902 16.3841 13.1076 16.3118 12.7036C16.2387 12.2966 16.1446 11.9118 16.032 11.5601C15.9157 11.1966 15.7575 10.8376 15.5619 10.4936C15.359 10.1365 15.1206 9.82562 14.8531 9.56977C14.5733 9.30212 14.2308 9.08693 13.8348 8.92996C13.4401 8.77382 13.0027 8.69472 12.5348 8.69472C12.3511 8.69472 12.1734 8.77011 11.8302 8.99354C11.619 9.13128 11.3719 9.29059 11.0962 9.46678C10.8604 9.61702 10.5409 9.75778 10.1464 9.88522C9.76146 10.0098 9.37062 10.0729 8.98486 10.0729C8.59911 10.0729 8.20841 10.0098 7.82306 9.88522C7.42893 9.75791 7.10951 9.61715 6.87399 9.46692C6.60084 9.29237 6.35365 9.13307 6.13928 8.99341C5.79651 8.76997 5.61867 8.69458 5.43492 8.69458C4.96691 8.69458 4.52965 8.77382 4.13511 8.9301C3.73933 9.08679 3.39669 9.30198 3.11668 9.56991C2.8493 9.82589 2.61076 10.1367 2.40806 10.4936C2.21264 10.8376 2.05444 11.1964 1.93799 11.5602C1.82551 11.9119 1.73144 12.2966 1.65839 12.7036C1.58601 13.1071 1.53685 13.4898 1.51254 13.8414C1.48865 14.1858 1.47656 14.5433 1.47656 14.9043C1.47656 15.8439 1.77525 16.6046 2.36425 17.1656C2.94598 17.7191 3.7157 18 4.65174 18H13.3188C14.2548 18 15.0243 17.7193 15.6062 17.1656C16.1953 16.605 16.494 15.8442 16.494 14.9042C16.4939 14.5415 16.4816 14.1837 16.4576 13.841Z" fill="#396AFF"/>
</g>
<defs>
<clipPath id="clip0_158_1281">
<rect width="17.9999" height="18" fill="white"/>
</clipPath>
</defs>
</svg>
