<svg width="60" height="60" viewBox="0 0 60 60" fill="none" xmlns="http://www.w3.org/2000/svg">
<rect width="60" height="60" rx="20" fill="#FFF5D9"/>
<path d="M29.555 42.9999L33.0675 23.2457C36.4155 23.2457 37.4715 23.6129 37.624 25.1114C37.624 25.1114 39.8699 24.274 41.0027 22.5732C36.5823 20.5249 32.1409 20.4325 32.1409 20.4325L29.5492 23.5891L29.555 23.5887L26.9634 20.432C26.9634 20.432 22.5218 20.5245 18.1021 22.5728C19.2338 24.2736 21.4806 25.111 21.4806 25.111C21.634 23.6124 22.6887 23.2453 26.0143 23.2429L29.555 42.9999Z" fill="#FFBB38"/>
<path d="M29.5536 19.5208C33.1268 19.4935 37.2168 20.0735 41.4037 21.8984C41.9633 20.8912 42.1071 20.446 42.1071 20.446C37.5302 18.6352 33.244 18.0155 29.5531 18C25.8623 18.0155 21.5763 18.6353 17 20.446C17 20.446 17.2042 20.9943 17.703 21.8984C21.8891 20.0735 25.9797 19.4935 29.5531 19.5208H29.5536Z" fill="#FFBB38"/>
</svg>
