<svg width="20" height="20" viewBox="0 0 20 20" fill="none" xmlns="http://www.w3.org/2000/svg">
<g clip-path="url(#clip0_192_2)">
<path d="M3.36713 17.2183C3.69073 17.2183 3.95306 16.9559 3.95306 16.6323C3.95306 16.3087 3.69073 16.0464 3.36713 16.0464C3.04352 16.0464 2.78119 16.3087 2.78119 16.6323C2.78119 16.9559 3.04352 17.2183 3.36713 17.2183Z" fill="#396AFF"/>
<path d="M15.8669 9.62938C16.9016 9.47716 17.8405 9.00478 18.582 8.26329C19.2879 7.55743 19.7525 6.66634 19.9256 5.68637C20.0946 4.72919 19.9757 3.75563 19.5818 2.87094C19.4147 2.49571 18.9224 2.40469 18.6322 2.69497L16.2319 5.0952C16.1328 5.19426 15.9716 5.19426 15.8725 5.0952L14.9047 4.12743C14.8058 4.02852 14.8058 3.86758 14.9047 3.76868L17.3053 1.36813C17.5958 1.07766 17.5043 0.585552 17.1293 0.418598C16.2446 0.0246138 15.271 -0.0942925 14.3138 0.0747701C13.3338 0.247817 12.4427 0.712427 11.7368 1.41833C10.9953 2.15977 10.5229 3.0986 10.3707 4.13329C10.245 4.98719 10.3453 5.84153 10.6604 6.63083L8.9027 8.07462L4.97758 4.14966L5.66813 3.45915C5.91559 3.21172 5.89223 2.80305 5.61762 2.58555L2.9609 0.481333C2.72773 0.296684 2.39313 0.315981 2.18277 0.526333L0.525508 2.18352C0.315156 2.39383 0.295781 2.7284 0.480508 2.96161L2.58481 5.61821C2.8023 5.89278 3.2107 5.91645 3.45844 5.66872L4.14895 4.97821L7.99285 8.82196L0.777578 14.7488C-0.183008 15.5085 -0.265899 16.9379 0.599922 17.8037L2.19602 19.3997C3.06172 20.2654 4.49109 20.1828 5.25109 19.2221L11.1781 12.0071L11.7735 12.6025L10.9171 13.4588C10.697 13.6789 10.6874 14.0327 10.8952 14.2643L15.3602 19.2422C16.2384 20.2169 17.7532 20.2574 18.6817 19.3288L19.3286 18.682C20.2591 17.7515 20.215 16.2258 19.2315 15.3508C19.2311 15.3504 19.2307 15.3501 19.2303 15.3497L14.2294 10.9247C13.9975 10.7195 13.6459 10.7302 13.4268 10.9492L12.6021 11.7739L11.9254 11.0973L13.3693 9.33966C14.1586 9.65478 15.013 9.75501 15.8669 9.62938ZM3.09496 4.37497L1.72313 2.64309L2.64234 1.72391L4.3743 3.09567L3.09496 4.37497ZM13.8657 12.1676L18.453 16.2265C18.6853 16.4334 18.8182 16.7185 18.8273 17.0295C18.8364 17.3406 18.7202 17.6332 18.5 17.8534L17.8532 18.5002C17.634 18.7194 17.3427 18.8359 17.0331 18.8276C16.7233 18.8195 16.4385 18.6882 16.2318 18.4588L12.1381 13.895L13.8657 12.1676ZM12.7497 8.24778L10.6814 10.7656C10.6811 10.7659 10.6809 10.7662 10.6806 10.7665L4.34188 18.4828C4.33918 18.4861 4.33648 18.4894 4.33383 18.4928C4.00902 18.9064 3.39738 18.9438 3.02465 18.5711L1.42855 16.9751C1.05668 16.6033 1.09238 15.9915 1.50695 15.666C1.51031 15.6634 1.51363 15.6607 1.51695 15.6579L9.23355 9.31935C9.23379 9.31915 9.23398 9.31899 9.23422 9.3188L11.7523 7.2504C11.9661 7.07481 12.0279 6.7736 11.9005 6.52802C11.1621 5.10348 11.4293 3.38305 12.5654 2.24692C13.2651 1.54727 14.2123 1.17547 15.1702 1.17547C15.3765 1.17547 15.5834 1.19274 15.7884 1.2277L14.076 2.94005C13.5203 3.49583 13.5203 4.40016 14.0761 4.95598L15.0439 5.92376C15.5998 6.4797 16.5045 6.47977 17.0605 5.92376L18.7726 4.21176C18.9698 5.36809 18.6038 6.5843 17.7534 7.4347C16.6171 8.57079 14.8967 8.83794 13.4721 8.09954C13.2266 7.9722 12.9253 8.03399 12.7497 8.24778Z" fill="#396AFF"/>
</g>
<defs>
<clipPath id="clip0_192_2">
<rect width="20" height="20" fill="white"/>
</clipPath>
</defs>
</svg>
