<svg width="25" height="25" viewBox="0 0 25 25" fill="none" xmlns="http://www.w3.org/2000/svg">
<g clip-path="url(#clip0_101_732)">
<path d="M14.4926 15.3372C18.6876 15.3372 22.1004 11.8971 22.1004 7.66863C22.1004 3.44019 18.6876 0 14.4926 0C10.2976 0 6.88477 3.44014 6.88477 7.66858C6.88477 11.897 10.2976 15.3372 14.4926 15.3372ZM12.048 10.0616C12.2693 9.72331 12.7229 9.62835 13.0612 9.84975C13.5542 10.1722 13.7401 10.2019 14.3905 10.1973C15.0254 10.1931 15.3938 9.71994 15.4674 9.28202C15.5032 9.06901 15.5169 8.54886 14.8723 8.32097C14.1162 8.05365 13.3423 7.74812 12.8039 7.32586C12.2656 6.9036 12.0191 6.17464 12.1606 5.42358C12.3141 4.60936 12.8821 3.96121 13.6429 3.73205C13.6498 3.73 13.6566 3.72835 13.6634 3.7263V3.44882C13.6634 3.04457 13.9912 2.71684 14.3954 2.71684C14.7997 2.71684 15.1274 3.04457 15.1274 3.44882V3.68018C15.6246 3.79886 15.9718 4.02631 16.1128 4.13167C16.4365 4.37376 16.5028 4.83242 16.2608 5.15625C16.0187 5.48009 15.5601 5.54635 15.2362 5.30421C15.0862 5.19207 14.6717 4.95101 14.0652 5.13376C13.7108 5.24053 13.6189 5.59013 13.5992 5.6947C13.5605 5.9002 13.604 6.09281 13.7074 6.17391C14.0806 6.46661 14.7523 6.72578 15.3602 6.94064C16.4811 7.33684 17.1043 8.37529 16.9111 9.5247C16.8163 10.0887 16.5326 10.6119 16.1122 10.9981C15.8258 11.2613 15.4925 11.4488 15.1274 11.556V11.8883C15.1274 12.2926 14.7997 12.6203 14.3954 12.6203C13.9912 12.6203 13.6634 12.2926 13.6634 11.8883V11.629C13.1901 11.5716 12.7928 11.4236 12.2597 11.0748C11.9215 10.8535 11.8266 10.3999 12.048 10.0616Z" fill="#1814F3"/>
<path d="M2.77455 17.7968H1.10552C0.70127 17.7968 0.373535 18.1245 0.373535 18.5287V24.267C0.373535 24.6713 0.70127 24.999 1.10552 24.999H2.7746V17.7968H2.77455Z" fill="#1814F3"/>
<path d="M24.4118 17.7457C23.0399 16.3737 20.8075 16.3736 19.4356 17.7457L17.2428 19.9384L16.3441 20.8371C15.9809 21.2003 15.4882 21.4044 14.9746 21.4044H10.6044C10.2097 21.4044 9.87009 21.101 9.85149 20.7068C9.83168 20.2859 10.1671 19.9384 10.5837 19.9384H15.0257C15.9188 19.9384 16.6934 19.3025 16.8469 18.4227C16.8822 18.2207 16.9006 18.0129 16.9006 17.801C16.9007 17.396 16.5725 17.0674 16.1676 17.0674H13.7337C12.9382 17.0674 12.1744 16.7065 11.3656 16.3244C10.5174 15.9238 9.64024 15.5094 8.61463 15.4412C7.71761 15.3814 6.81853 15.4796 5.94225 15.7327C5.00399 16.0036 4.32954 16.8372 4.24775 17.7996C4.24463 17.7993 4.24145 17.7993 4.23828 17.7991V24.9965L16.8493 25C17.7163 25 18.5316 24.6623 19.1448 24.0491L24.4117 18.7823C24.6981 18.4961 24.6981 18.0319 24.4118 17.7457Z" fill="#1814F3"/>
</g>
<defs>
<clipPath id="clip0_101_732">
<rect width="25" height="25" fill="white"/>
</clipPath>
</defs>
</svg>
