<svg width="25" height="25" viewBox="0 0 25 25" fill="none" xmlns="http://www.w3.org/2000/svg">
<g clip-path="url(#clip0_112_950)">
<path d="M24.7857 1.25045L23.75 0.214663C23.5341 -0.00135204 23.2068 -0.0605316 22.9291 0.0654447L17.3659 2.52135C17.147 2.62096 16.9911 2.8213 16.9482 3.05743C16.9056 3.2942 16.981 3.53638 17.151 3.70636L21.2941 7.84946C21.4641 8.01943 21.7062 8.09477 21.943 8.05224C22.1791 8.00933 22.3795 7.85351 22.4791 7.63452L24.9349 2.07125C25.0609 1.79357 25.0017 1.46637 24.7857 1.25045Z" fill="#1814F3"/>
<path d="M4.73145 16.1255L0.642589 20.2143C-0.214196 21.0711 -0.214196 22.4649 0.642589 23.3217L1.67833 24.3574C2.53512 25.2142 3.92891 25.2142 4.78565 24.3574L8.87451 20.2685L4.73145 16.1255ZM4.27496 21.7711C3.98868 22.0574 3.52535 22.0574 3.23912 21.7711C2.95294 21.4848 2.95294 21.0215 3.23912 20.7353L5.25645 18.718C5.54273 18.4317 6.00601 18.4317 6.29219 18.718C6.57847 19.0043 6.57847 19.4675 6.29219 19.7538L4.27496 21.7711Z" fill="#1814F3"/>
<path d="M11.9818 17.1612L7.83868 13.0181C7.26763 12.4471 6.33814 12.4471 5.76715 13.0181C5.19611 13.5892 5.19611 14.5187 5.76715 15.0897L9.91026 19.2328C10.4812 19.8038 11.4107 19.8038 11.9818 19.2328C12.5528 18.6619 12.5528 17.7323 11.9818 17.1612Z" fill="#1814F3"/>
<path d="M19.2217 7.84941L17.1501 5.77783L11.4635 11.4644C10.8915 10.8924 9.96406 10.8924 9.39194 11.4644L8.87402 11.9824L13.0171 16.1255L13.5351 15.6075C14.1071 15.0354 14.1071 14.1081 13.5351 13.536L19.2217 7.84941Z" fill="#1814F3"/>
<path d="M23.7144 17.4979C22.5254 16.3089 21.0956 16.0532 19.4551 16.3464L16.1253 13.017L15.3302 13.8121C15.592 14.796 15.3374 15.8762 14.5706 16.6431L14.0537 17.1599L16.3453 19.4513C16.1142 20.7442 16.1359 21.8409 16.9389 23.0303C17.8656 24.4034 19.4874 25.1839 21.1865 24.95C21.4674 24.9114 21.702 24.7166 21.7923 24.4478C21.8826 24.1791 21.813 23.8823 21.6125 23.6818L20.6053 22.6763V20.605H22.6787L23.6804 21.6067C23.8813 21.8076 24.1788 21.8767 24.4478 21.7857C24.7168 21.6947 24.911 21.459 24.9488 21.1774C25.1277 19.8452 24.6918 18.4749 23.7144 17.4979Z" fill="#1814F3"/>
<path d="M8.64437 5.53236C8.93504 3.90898 8.69969 2.48085 7.49286 1.27314C6.67172 0.45205 5.57308 0 4.39936 0C4.20175 0 4.00624 0.0128906 3.81327 0.0384277C3.53149 0.0758299 3.2956 0.270263 3.20448 0.53955C3.11337 0.808739 3.18295 1.10639 3.38393 1.30737L4.39545 2.30883V4.39447H2.31376L1.30976 3.37641C1.10922 3.17587 0.812204 3.10649 0.543357 3.19697C0.274607 3.28745 0.0802229 3.52231 0.0415999 3.80331C-0.181544 5.42816 0.522507 7.07889 1.95898 8.04862C3.15292 8.85301 4.25614 8.87293 5.53944 8.64159L7.84027 10.9462L8.35731 10.4291C9.1242 9.66224 10.2043 9.40779 11.1882 9.66951L11.983 8.87469L8.64437 5.53236Z" fill="#1814F3"/>
</g>
<defs>
<clipPath id="clip0_112_950">
<rect width="25" height="25" fill="white"/>
</clipPath>
</defs>
</svg>
