<svg width="70" height="70" viewBox="0 0 70 70" fill="none" xmlns="http://www.w3.org/2000/svg">
<circle cx="35" cy="35" r="35" fill="#FFF5D9"/>
<path d="M45.969 45.9125L44.3697 28.3531C44.3265 27.8694 43.9215 27.5 43.4359 27.5H40.6234V25.625C40.6234 24.1175 40.0384 22.7037 38.979 21.6444C37.9365 20.6 36.4853 20 34.9984 20C31.8972 20 29.3734 22.5237 29.3734 25.625V27.5H26.5609C26.0753 27.5 25.6703 27.8694 25.6272 28.3531L24.0315 45.9106C23.9359 46.9587 24.2884 48.0031 24.9972 48.7794C25.7059 49.5556 26.7147 50 27.7665 50H42.2322C43.2822 50 44.2909 49.5556 44.9997 48.7812C45.7103 48.005 46.0609 46.9587 45.969 45.9125ZM38.7484 27.5H31.2484V25.625C31.2484 23.5569 32.9303 21.875 34.9984 21.875C35.9922 21.875 36.9597 22.2725 37.6534 22.9681C38.3603 23.675 38.7484 24.6181 38.7484 25.625V27.5Z" fill="#FFBB38"/>
</svg>
