<svg width="25" height="25" viewBox="0 0 25 25" fill="none" xmlns="http://www.w3.org/2000/svg">
<g clip-path="url(#clip0_78_425)">
<path d="M24.3254 10.8738C24.3248 10.8732 24.3243 10.8727 24.3237 10.8721L14.1257 0.674438C13.691 0.239563 13.1131 0 12.4983 0C11.8836 0 11.3057 0.239372 10.8708 0.674248L0.678111 10.8667C0.674678 10.8702 0.671244 10.8738 0.667811 10.8772C-0.224828 11.775 -0.223302 13.2317 0.672198 14.1272C1.08132 14.5365 1.62168 14.7736 2.19941 14.7984C2.22287 14.8006 2.24652 14.8018 2.27037 14.8018H2.67682V22.3066C2.67682 23.7917 3.88513 25 5.37057 25H9.36036C9.76472 25 10.0928 24.6721 10.0928 24.2676V18.3838C10.0928 17.7061 10.644 17.1549 11.3217 17.1549H13.675C14.3527 17.1549 14.9039 17.7061 14.9039 18.3838V24.2676C14.9039 24.6721 15.2318 25 15.6363 25H19.6261C21.1115 25 22.3198 23.7917 22.3198 22.3066V14.8018H22.6967C23.3113 14.8018 23.8892 14.5624 24.3243 14.1275C25.2207 13.2305 25.2211 11.7714 24.3254 10.8738Z" fill="#2D60FF"/>
</g>
<defs>
<clipPath id="clip0_78_425">
<rect width="25" height="25" fill="white"/>
</clipPath>
</defs>
</svg>
