<svg width="24" height="20" viewBox="0 0 24 20" fill="none" xmlns="http://www.w3.org/2000/svg">
<path d="M6.91985 4V4.75C7.16577 4.75 7.39607 4.62944 7.5362 4.42733L6.91985 4ZM8.38237 1.8906L7.76602 1.46326V1.46326L8.38237 1.8906ZM15.8573 1.8906L16.4737 1.46326L15.8573 1.8906ZM17.3198 4L16.7035 4.42733C16.8436 4.62944 17.0739 4.75 17.3198 4.75V4ZM14.4898 11.5C14.4898 12.7152 13.4568 13.75 12.1198 13.75V15.25C14.2292 15.25 15.9898 13.5985 15.9898 11.5H14.4898ZM12.1198 13.75C10.7829 13.75 9.74985 12.7152 9.74985 11.5H8.24985C8.24985 13.5985 10.0105 15.25 12.1198 15.25V13.75ZM9.74985 11.5C9.74985 10.2848 10.7829 9.25 12.1198 9.25V7.75C10.0105 7.75 8.24985 9.40148 8.24985 11.5H9.74985ZM12.1198 9.25C13.4568 9.25 14.4898 10.2848 14.4898 11.5H15.9898C15.9898 9.40148 14.2292 7.75 12.1198 7.75V9.25ZM7.5362 4.42733L8.99871 2.31793L7.76602 1.46326L6.3035 3.57267L7.5362 4.42733ZM10.113 1.75H14.1267V0.25H10.113V1.75ZM15.241 2.31793L16.7035 4.42733L17.9362 3.57267L16.4737 1.46326L15.241 2.31793ZM14.1267 1.75C14.5842 1.75 14.9998 1.97011 15.241 2.31793L16.4737 1.46326C15.9433 0.698299 15.0601 0.25 14.1267 0.25V1.75ZM8.99871 2.31793C9.23988 1.97011 9.65552 1.75 10.113 1.75V0.25C9.17963 0.25 8.29639 0.698298 7.76602 1.46326L8.99871 2.31793ZM21.7698 8V15H23.2698V8H21.7698ZM18.3598 18.25H5.87985V19.75H18.3598V18.25ZM2.46985 15V8H0.969849V15H2.46985ZM5.87985 18.25C3.96856 18.25 2.46985 16.7675 2.46985 15H0.969849C0.969849 17.6508 3.19613 19.75 5.87985 19.75V18.25ZM21.7698 15C21.7698 16.7675 20.2711 18.25 18.3598 18.25V19.75C21.0436 19.75 23.2698 17.6508 23.2698 15H21.7698ZM18.3598 4.75C20.2711 4.75 21.7698 6.23253 21.7698 8H23.2698C23.2698 5.3492 21.0436 3.25 18.3598 3.25V4.75ZM5.87985 3.25C3.19613 3.25 0.969849 5.3492 0.969849 8H2.46985C2.46985 6.23253 3.96856 4.75 5.87985 4.75V3.25ZM5.87985 4.75H6.91985V3.25H5.87985V4.75ZM18.3598 3.25H17.3198V4.75H18.3598V3.25Z" fill="#000E08"/>
</svg>
