<svg width="21" height="22" viewBox="0 0 21 22" fill="none" xmlns="http://www.w3.org/2000/svg">
<path d="M5.00009 17L5.00009 9C5.00009 6.79086 6.86259 5 9.16009 5L15.4001 5M5.00009 17C5.00009 19.2091 6.86258 21 9.16009 21H11.597C12.7003 21 13.7584 20.5786 14.5385 19.8284L18.3417 16.1716C19.1218 15.4214 19.5601 14.404 19.5601 13.3431V9C19.5601 6.79086 17.6976 5 15.4001 5M5.00009 17C2.70258 17 0.840088 15.2091 0.840088 13L0.840088 5C0.840088 2.79086 2.70258 1 5.00009 1L11.2401 1C13.5376 1 15.4001 2.79086 15.4001 5M13.3201 21V19C13.3201 16.7909 15.1826 15 17.4801 15H19.5601" stroke="#797C7B" stroke-width="1.5" stroke-linejoin="round"/>
</svg>
