<svg width="45" height="45" viewBox="0 0 45 45" fill="none" xmlns="http://www.w3.org/2000/svg">
<rect width="45" height="45" rx="15" fill="#FFF5D9"/>
<g clip-path="url(#clip0_158_600)">
<path d="M30.6621 18.5101V18.2365C30.6621 16.9788 29.6389 15.9556 28.3812 15.9556H15.2809C14.0232 15.9556 13 16.9788 13 18.2365V18.5101H30.6621Z" fill="#FFBB38"/>
<path d="M23.4347 25.8473C23.4347 24.6642 23.8152 23.5396 24.5178 22.6128H13V25.7945C13 27.0522 14.0232 28.0754 15.2809 28.0754H23.9162C23.601 27.385 23.4347 26.629 23.4347 25.8473ZM21.8311 25.156H19.8625V23.9841H21.8311V25.156ZM15.6273 23.9841H18.6906V25.156H15.6273V23.9841Z" fill="#FFBB38"/>
<path d="M25.7344 21.441C26.6281 20.8157 27.6898 20.4788 28.8033 20.4788C29.4478 20.4788 30.0748 20.592 30.6621 20.8083V19.6821H13V21.441H25.7344Z" fill="#FFBB38"/>
<path d="M32.9999 25.8471C32.9999 23.5293 31.1209 21.6504 28.8032 21.6504C26.4854 21.6504 24.6064 23.5293 24.6064 25.8471C24.6064 28.1648 26.4854 30.0438 28.8032 30.0438C31.1209 30.0438 32.9999 28.1648 32.9999 25.8471ZM29.3689 28.0891V28.566H28.7829V28.566V28.566H28.197V28.0926C27.8427 27.9726 27.5529 27.7616 27.2698 27.5546L27.9616 26.6087C28.3419 26.8868 28.5365 27.0205 28.8032 27.0205C28.9539 27.0205 29.076 26.9487 29.1218 26.8332C29.1772 26.6934 29.0989 26.5645 28.9123 26.4886C28.9123 26.4886 28.0747 26.2092 27.6875 25.8144C27.3626 25.4832 27.2593 25.0164 27.3627 24.5724C27.4668 24.1254 27.7687 23.7758 28.197 23.6012V23.1281H29.3689V23.5816C29.6665 23.6643 29.9184 23.7864 30.0632 23.865L29.5041 24.8949C29.1334 24.6937 28.7924 24.6333 28.6597 24.6787C28.5309 24.7227 28.5113 24.8067 28.5039 24.8383C28.4935 24.8831 28.4879 24.9519 28.5596 25.0317C28.6285 25.1086 29.3541 25.4032 29.3541 25.4032C30.137 25.7219 30.5054 26.5223 30.2112 27.2649C30.0584 27.6509 29.7507 27.9432 29.3689 28.0891Z" fill="#FFBB38"/>
</g>
<defs>
<clipPath id="clip0_158_600">
<rect width="20" height="20" fill="white" transform="translate(13 13)"/>
</clipPath>
</defs>
</svg>
