<svg width="45" height="45" viewBox="0 0 45 45" fill="none" xmlns="http://www.w3.org/2000/svg">
<rect width="45" height="45" rx="15" fill="#E7EDFF"/>
<g clip-path="url(#clip0_158_568)">
<path d="M30.6621 18.5103V18.2367C30.6621 16.9791 29.6389 15.9558 28.3812 15.9558H15.2809C14.0232 15.9558 13 16.9791 13 18.2367V18.5103H30.6621Z" fill="#396AFF"/>
<path d="M23.4347 25.8476C23.4347 24.6644 23.8152 23.5398 24.5178 22.613H13V25.7948C13 27.0525 14.0232 28.0757 15.2809 28.0757H23.9162C23.601 27.3852 23.4347 26.6292 23.4347 25.8476ZM21.8311 25.1562H19.8625V23.9844H21.8311V25.1562ZM15.6273 23.9844H18.6906V25.1562H15.6273V23.9844Z" fill="#396AFF"/>
<path d="M25.7344 21.441C26.6281 20.8157 27.6898 20.4788 28.8033 20.4788C29.4478 20.4788 30.0748 20.592 30.6621 20.8083V19.6821H13V21.441H25.7344Z" fill="#396AFF"/>
<path d="M32.9999 25.8476C32.9999 23.5298 31.1209 21.6509 28.8032 21.6509C26.4854 21.6509 24.6064 23.5298 24.6064 25.8476C24.6064 28.1653 26.4854 30.0442 28.8032 30.0442C31.1209 30.0442 32.9999 28.1653 32.9999 25.8476ZM29.3689 28.0896V28.5665H28.7829V28.5665V28.5665H28.197V28.0931C27.8427 27.9731 27.5529 27.7621 27.2698 27.5551L27.9616 26.6092C28.3419 26.8873 28.5365 27.021 28.8032 27.021C28.9539 27.021 29.076 26.9492 29.1218 26.8337C29.1772 26.6938 29.0989 26.565 28.9123 26.489C28.9123 26.489 28.0747 26.2097 27.6875 25.8149C27.3626 25.4837 27.2593 25.0169 27.3627 24.5729C27.4668 24.1258 27.7687 23.7763 28.197 23.6017V23.1286H29.3689V23.5821C29.6665 23.6647 29.9184 23.7869 30.0632 23.8655L29.5041 24.8954C29.1334 24.6942 28.7924 24.6338 28.6597 24.6792C28.5309 24.7232 28.5113 24.8072 28.5039 24.8388C28.4935 24.8836 28.4879 24.9524 28.5596 25.0322C28.6285 25.109 29.3541 25.4037 29.3541 25.4037C30.137 25.7224 30.5054 26.5228 30.2112 27.2654C30.0584 27.6513 29.7507 27.9437 29.3689 28.0896Z" fill="#396AFF"/>
</g>
<defs>
<clipPath id="clip0_158_568">
<rect width="20" height="20" fill="white" transform="translate(13 13)"/>
</clipPath>
</defs>
</svg>
