<svg width="69" height="89" viewBox="0 0 69 89" fill="none" xmlns="http://www.w3.org/2000/svg">
<path d="M0.583313 62.3653C0.672858 62.0751 0.762403 61.785 0.846681 61.4948C1.12478 60.5757 1.60735 59.7877 2.23161 59.2332C2.85587 58.6788 3.5929 58.3836 4.34683 58.3861C6.3774 58.3861 8.4106 58.4413 10.4385 58.3653C11.8923 58.3135 13.1433 58.766 14.1099 60.3066L16.1009 59.3463C15.8191 57.8403 15.482 56.4033 15.2871 54.9353C13.8939 44.393 16.0193 35.2462 21.708 27.5675C24.5103 23.792 27.3784 20.1029 30.2333 16.3931C30.3757 16.2458 30.4752 16.0388 30.515 15.8067C30.5548 15.5746 30.5325 15.3316 30.4518 15.1185C29.6117 12.0512 28.7768 8.97691 28.0078 5.87502C27.8119 5.11974 27.7782 4.30834 27.9104 3.52961C28.3344 1.49507 30.2491 0.735142 31.558 1.98211C32.7906 3.15309 33.0302 3.13928 34.1917 1.85085C35.2968 0.623803 36.7047 -0.0336357 38.1524 0.00132599C39.6001 0.0362877 40.9886 0.761265 42.0585 2.04084C42.9381 3.07711 43.4517 3.07711 44.3761 2.12029C44.7806 1.66424 45.2894 1.39797 45.8222 1.36356C46.3549 1.32916 46.8812 1.52857 47.3179 1.9303C48.216 2.74895 48.5558 4.13064 48.1686 5.62286C47.3548 8.7662 46.5305 11.9061 45.6745 15.0287C45.5829 15.2645 45.5567 15.5349 45.6004 15.7933C45.6441 16.0517 45.7551 16.2821 45.9142 16.4449C48.2423 19.4535 50.5415 22.4967 52.8565 25.5192C53.27 26.0649 53.5492 26.6591 53.3833 27.4535C53.3256 27.7429 53.2117 28.0076 53.0526 28.2218C52.8935 28.4361 52.6947 28.5924 52.4757 28.6757C52.2567 28.7589 52.0249 28.7661 51.8031 28.6966C51.5814 28.627 51.3772 28.4832 51.2105 28.2791C50.6337 27.6055 50.107 26.8594 49.5618 26.1444C47.5945 23.5641 45.6376 20.963 43.6492 18.4207C43.3848 18.103 43.0436 17.9171 42.6853 17.8957C39.5951 17.8542 36.5049 17.8542 33.4147 17.8957C33.0771 17.913 32.7552 18.0868 32.5061 18.3862C29.5064 22.2722 26.5119 26.1651 23.5516 30.1064C19.235 35.8645 17.2308 42.8144 17.5547 50.8697C17.6445 53.2959 18.0203 55.6893 18.6688 57.9646C20.0251 57.5087 21.3025 56.9767 22.6193 56.6589C26.1563 55.7954 29.5511 56.4897 32.7932 58.4966C35.8193 60.3722 38.8507 62.2755 41.853 64.1753C44.1127 65.6019 45.1135 67.861 44.9687 71.1528C44.9687 71.3428 44.9687 71.5328 44.9687 71.9887C45.7404 71.2392 46.4225 70.6692 47.023 69.9784C50.4344 66.036 53.8319 62.074 57.2153 58.0924C57.4314 57.8141 57.59 57.4682 57.6762 57.0873C58.9125 51.8587 58.9024 46.2598 57.6472 41.039C57.6024 40.8455 57.5498 40.6555 57.5076 40.4586C57.2785 39.3947 57.613 38.4863 58.353 38.1616C58.5212 38.085 58.6997 38.0552 58.8772 38.0738C59.0546 38.0925 59.2272 38.1593 59.3839 38.2701C59.5407 38.3808 59.6782 38.5331 59.7877 38.7171C59.8972 38.9012 59.9764 39.1132 60.0201 39.3395C60.4024 41.0262 60.7197 42.737 60.9709 44.4655C61.3678 47.5761 61.3749 50.7509 60.992 53.8645C61.5187 53.6814 62.0139 53.4569 62.5143 53.3498C63.5757 53.1119 64.6674 53.325 65.63 53.9583C66.5926 54.5915 67.3757 55.6116 67.865 56.8697C68.3543 58.1279 68.5243 59.5582 68.3501 60.952C68.1759 62.3458 67.6667 63.6301 66.8967 64.6174C63.9241 68.4539 60.9332 72.2674 57.9237 76.0578C55.9011 78.6001 53.9285 81.2391 51.7504 83.5293C48.8218 86.6174 45.3716 88.2616 41.6266 88.7901C41.455 88.8298 41.286 88.8863 41.1209 88.9593H3.63048C2.89863 88.7011 2.23161 88.1944 1.69665 87.4904C1.16168 86.7863 0.777664 85.9097 0.583313 84.949V62.3653ZM14.8868 85.4913H38.9428C44.1285 85.4913 48.5847 83.1355 52.2982 78.3687C55.2479 74.5691 58.2161 70.8247 61.1763 67.0527C62.4431 65.4361 63.7231 63.8437 64.9636 62.196C66.2804 60.4448 65.8274 57.6572 64.1076 56.9249C63.1147 56.5 62.2641 56.8904 61.495 57.7954C57.3997 62.5967 53.2832 67.3705 49.1826 72.1684C47.8052 73.7815 46.3119 75.1424 44.5605 75.968C42.0927 77.1148 39.6197 77.5639 37.0782 76.2582C35.872 75.6399 34.6104 75.2219 33.3752 74.6899C30.9233 73.6537 28.4687 72.645 26.0194 71.6019C25.7167 71.5009 25.4506 71.2636 25.2677 70.9315C25.0848 70.5994 24.9966 70.1936 25.0186 69.785C25.0396 69.391 25.163 69.0184 25.3681 68.7293C25.5732 68.4401 25.8477 68.2519 26.1458 68.196C26.4742 68.1805 26.8017 68.2498 27.1097 68.3998C31.0945 70.0475 35.0766 71.7193 39.064 73.3601C40.4256 73.9231 41.6977 73.1494 42.1691 71.5432C42.6405 69.9369 42.1164 68.2582 40.8233 67.443C37.6286 65.4223 34.4471 63.3705 31.2209 61.4396C28.4134 59.7574 25.4268 59.2565 22.4428 60.3066C20.0725 61.1391 17.7839 62.3791 15.4478 63.4154C14.9816 63.6192 14.8737 63.9301 14.8763 64.5276C14.8921 70.6347 14.8763 76.7418 14.8763 82.835L14.8868 85.4913ZM12.2531 73.6537C12.2531 70.3514 12.2531 67.0515 12.2531 63.7539C12.2531 62.4137 11.8239 61.8644 10.7941 61.861C8.76264 61.861 6.73208 61.861 4.70239 61.861C3.67525 61.861 3.24596 62.4137 3.24596 63.7539C3.24596 70.3515 3.24596 76.9502 3.24596 83.55C3.24596 84.9317 3.66736 85.4878 4.73926 85.4913H10.6966C11.8581 85.4913 12.2558 84.9732 12.2558 83.4637C12.2488 80.1822 12.2444 76.9064 12.2426 73.6364L12.2531 73.6537ZM30.76 5.64013C31.5211 8.49677 32.227 11.198 32.9776 13.875C33.0538 14.0099 33.1525 14.1201 33.2661 14.1974C33.3798 14.2746 33.5054 14.3167 33.6333 14.3206C36.591 14.3482 39.5486 14.3206 42.5062 14.3517C42.6765 14.3818 42.849 14.3241 42.9875 14.1907C43.1261 14.0574 43.2197 13.8587 43.2489 13.6367C43.8731 11.2014 44.5262 8.78002 45.1636 6.35171C45.211 6.13111 45.2497 5.90743 45.2795 5.68159C43.3516 6.78348 41.7161 6.41042 40.2123 4.59696C39.6384 3.87253 38.8749 3.46383 38.0784 3.45484C37.282 3.44584 36.5132 3.83724 35.9299 4.54861C34.3997 6.3897 32.7537 6.77657 30.7495 5.62286L30.76 5.64013Z" fill="#083E9E"/>
<path d="M38.1931 35.0539C38.2049 36.4294 37.7742 37.1094 37.0831 37.1559C36.392 37.2025 35.8997 36.6281 35.8263 35.6531C35.7482 34.7217 35.353 34.2094 34.6927 33.9734C34.3862 33.863 34.0621 33.8682 33.7577 33.9885C33.4534 34.1087 33.1811 34.3392 32.9721 34.6534C32.8687 34.8046 32.7914 34.9832 32.7454 35.1771C32.6993 35.3709 32.6856 35.5755 32.7051 35.777C32.7247 35.9784 32.777 36.172 32.8586 36.3445C32.9402 36.5171 33.0491 36.6646 33.178 36.7771C33.5601 37.0883 33.9952 37.2697 34.4442 37.305C36.2713 37.4447 37.812 39.0655 38.1576 41.301C38.4913 43.4744 37.5564 45.592 35.8453 46.629C35.6592 46.7634 35.5188 46.9853 35.4524 47.25C35.2678 48.0759 34.8252 48.5758 34.217 48.5541C33.6087 48.5323 33.2466 48.0386 33.0644 47.2252C32.9738 46.9389 32.805 46.7075 32.591 46.5762C31.2396 45.71 30.397 44.3842 30.3118 42.3598C30.2692 41.3786 30.7047 40.6831 31.3627 40.6024C31.5262 40.5764 31.6921 40.5955 31.8498 40.6584C32.0074 40.7214 32.1532 40.8268 32.278 40.9679C32.4028 41.1091 32.5037 41.2829 32.5743 41.4782C32.6449 41.6735 32.6837 41.886 32.6881 42.102C32.7031 42.4937 32.8159 42.8681 33.0093 43.1672C33.2026 43.4663 33.4657 43.6736 33.7578 43.757C34.0606 43.8954 34.3882 43.9101 34.6975 43.7992C35.0068 43.6884 35.2832 43.4571 35.4903 43.136C35.6154 42.9662 35.7074 42.7593 35.7584 42.5328C35.8094 42.3064 35.818 42.0671 35.7834 41.8354C35.7487 41.6037 35.6719 41.3863 35.5595 41.2019C35.4471 41.0175 35.3023 40.8715 35.1376 40.7763C34.7814 40.5585 34.3945 40.4401 34.0016 40.4285C32.262 40.3074 30.6882 38.637 30.3592 36.5132C30.016 34.2901 30.9201 32.1663 32.6076 31.1448C32.817 31.0089 32.9781 30.7719 33.0573 30.4835C33.2348 29.6855 33.6347 29.1949 34.2264 29.1825C34.5061 29.1594 34.7823 29.2738 35.0011 29.5034C35.2199 29.7331 35.3656 30.0615 35.4098 30.4245C35.4595 30.8809 35.6323 31.0082 35.8973 31.1665C37.289 32.0111 38.0724 33.3959 38.1931 35.0539Z" fill="#083E9E"/>
<path d="M49.2456 29.4495C49.2488 29.2426 49.284 29.0387 49.349 28.8501C49.4141 28.6616 49.5076 28.4923 49.6241 28.3527C49.7405 28.213 49.8773 28.1058 50.0263 28.0377C50.1752 27.9695 50.3332 27.9417 50.4906 27.9561C50.8044 27.9729 51.1003 28.1527 51.3131 28.4558C51.5259 28.7589 51.6383 29.1604 51.6254 29.5722C51.6125 29.9839 51.4755 30.3721 51.2445 30.6513C51.0135 30.9305 50.7074 31.0779 50.3935 31.061C50.2366 31.0579 50.0817 31.0134 49.9382 30.93C49.7947 30.8465 49.6655 30.726 49.5583 30.5756C49.4512 30.4251 49.3682 30.2478 49.3145 30.0543C49.2608 29.8609 49.2374 29.6552 49.2456 29.4495Z" fill="#083E9E"/>
</svg>
