<svg width="79" height="96" viewBox="0 0 79 96" fill="none" xmlns="http://www.w3.org/2000/svg">
<path d="M47.4648 0C49.4243 0.84514 50.136 2.53293 50.0374 4.87256C49.9624 6.5678 50.0224 8.27047 50.0224 9.98801C53.101 9.28166 55.7294 11.9038 55.2191 15.7677C58.1553 15.9248 61.0507 16.6261 63.7946 17.8446C69.6387 20.442 74.4452 24.4868 77.0265 31.3123C79.8499 38.7723 78.7887 45.7392 74.2052 51.7741C69.1971 58.3642 62.8041 62.2404 55.2877 63.5887C50.404 64.4661 45.9212 63.4078 42.0129 59.8042C38.2719 56.3542 36.2803 51.6973 35.6264 46.3067C34.7238 38.8516 36.2309 31.9443 39.5475 25.5252C39.6418 25.3418 39.7233 25.1534 39.8412 24.9081L38.6385 23.9985C37.4122 25.6954 36.1824 27.3964 34.9489 29.1016C33.2874 31.4065 31.6474 33.7337 29.9559 36.0114C29.4453 36.688 29.1789 37.5654 29.2119 38.4625C29.227 54.6912 29.212 70.9298 29.2377 87.1485C29.2377 90.0607 28.4509 92.4424 26.2984 94.0361C25.6146 94.5318 24.7977 94.7994 24.041 95.1712H21.9421C20.5379 94.6755 19.2451 93.9518 18.2483 92.549C17.2364 93.9989 15.9457 94.678 14.5608 95.1712H12.4748C8.72737 93.9815 7.17306 90.8761 7.25239 86.3183C7.39388 78.3873 7.29312 70.4564 7.29312 62.5255V61.4647C7.16617 61.4713 7.03994 61.4904 6.9158 61.5217C3.8072 62.9146 0.344866 60.1412 0.417757 55.8982C0.520663 49.9252 0.434909 43.9473 0.445629 37.9693C0.459642 34.6686 1.36626 31.4555 3.03853 28.7801C4.7108 26.1047 7.06498 24.1009 9.77142 23.0493C10.3846 22.8014 11.0106 22.6279 11.7009 22.3925C10.1873 20.6824 9.15184 18.722 8.85814 16.4022C8.66788 14.6226 8.60192 12.8282 8.6609 11.0364C8.71879 7.38073 10.0373 4.42645 12.5434 2.181C13.8147 1.04093 15.2962 0.495683 16.814 0L19.7018 0C19.84 0.0775427 19.9834 0.142195 20.1306 0.193324C23.7151 1.15743 26.1998 3.61601 27.3597 7.65831C28.2022 10.5903 28.0285 13.6437 27.6105 16.65C27.3318 18.6327 26.4271 20.3156 25.4002 21.9588C25.9217 21.7047 26.393 21.3302 26.7851 20.8583C28.9132 17.9636 31.0192 15.0448 33.1031 12.1021C33.1898 11.9653 33.2512 11.8093 33.2837 11.6439C33.3161 11.4785 33.3189 11.3072 33.2917 11.1405C33.1306 10.5332 33.097 9.89019 33.1935 9.26483C33.2901 8.63947 33.5141 8.04969 33.847 7.5443C35.8601 4.39175 38.4456 2.14382 41.6699 0.939314C42.7247 0.545246 43.8138 0.309802 44.8986 0L47.4648 0ZM38.0597 42.8543C38.1561 43.801 38.2076 45.36 38.4884 46.8619C40.1113 55.6627 45.6854 61.7175 54.2737 60.5303C61.2155 59.5687 67.1368 55.918 71.9176 49.9872C74.1666 47.2014 75.5386 43.8779 75.7166 40.0016C75.9738 34.4698 73.98 29.9913 70.627 26.3084C66.4079 21.6738 61.2391 19.4828 55.4957 18.9549C53.9231 18.7751 52.3411 19.1667 50.97 20.0752C48.7468 21.5424 46.4229 22.8014 44.1547 24.1918C43.7548 24.4353 43.4035 24.773 43.1235 25.1832C39.7769 30.2069 38.2119 35.937 38.0597 42.8543ZM13.0751 25.4831C7.50108 26.0705 3.23265 31.5552 3.19621 38.1651C3.16619 44.0489 3.19621 49.9351 3.19621 55.8214C3.19526 56.1921 3.23343 56.5617 3.30984 56.9218C3.425 57.4328 3.68769 57.8831 4.05443 58.198C4.42117 58.5128 4.86995 58.6734 5.32643 58.6532C5.78291 58.633 6.21972 58.4331 6.56452 58.0867C6.90931 57.7402 7.14142 57.268 7.22238 56.7483C7.27851 56.3202 7.3036 55.8875 7.29741 55.4546C7.29741 49.7872 7.29741 44.1183 7.29741 38.4477C7.29741 37.2085 7.8248 36.4649 8.66734 36.4649C9.50988 36.4649 10.0458 37.2332 10.0566 38.4477C10.0566 38.6955 10.0566 38.9433 10.0566 39.1912V87.0519C10.0566 87.4236 10.0458 87.7954 10.0566 88.1672C10.1895 90.6852 12.3762 92.5168 14.4279 91.8327C15.9136 91.3371 16.8354 89.8277 16.8376 87.8078C16.8376 79.9397 16.8376 72.0707 16.8376 64.2009C16.8234 63.7697 16.866 63.3384 16.9641 62.922C17.0583 62.618 17.2317 62.3552 17.4604 62.1698C17.6891 61.9845 17.962 61.8857 18.2413 61.887C18.5207 61.8884 18.7928 61.9899 19.0202 62.1774C19.2475 62.365 19.419 62.6295 19.511 62.9344C19.6062 63.3514 19.6481 63.7822 19.6353 64.2133C19.6353 71.8964 19.6353 79.5794 19.6353 87.2625C19.6353 87.6963 19.6353 88.13 19.6611 88.5612C19.8326 90.7918 21.8328 92.4226 23.7108 91.8674C25.4045 91.3718 26.4249 89.7732 26.4249 87.5971C26.4249 71.1801 26.4206 54.7623 26.4121 38.3436C26.3781 36.7576 26.861 35.2149 27.7648 34.0212C30.8241 29.8401 33.8405 25.6144 36.8655 21.3986C37.0456 21.1508 37.2772 20.8261 37.2772 20.5386C37.2772 19.0194 37.8217 17.8124 38.7779 16.7194L35.4677 13.8791C35.1269 14.3426 34.8246 14.7391 34.5437 15.1406C32.655 17.7529 30.7577 20.3577 28.8797 22.9774C27.7091 24.6082 26.2041 25.3814 24.3947 25.4285C24.0817 25.4285 23.7665 25.4285 23.5372 25.4285C22.5831 28.3456 22.3173 31.1735 22.8383 34.1575C23.2842 36.7276 23.4493 39.3622 23.7151 41.9744C23.8502 43.3029 23.3656 44.3215 22.4288 45.0576C21.5884 45.7144 20.7437 46.3687 19.8904 47.0056C18.7885 47.8334 17.6823 47.8086 16.5889 46.9709C15.875 46.4232 15.1847 45.8309 14.445 45.3327C13.0987 44.4207 12.6185 43.1021 12.8372 41.34C13.1609 38.7699 13.4567 36.1948 13.7461 33.6197C13.8791 32.4251 14.1492 31.2033 14.0356 30.0334C13.8791 28.5018 13.4138 27.0321 13.0751 25.4831ZM25.1793 12.6399H25.0421C25.0421 11.9286 25.0807 11.2124 25.0421 10.506C24.7913 6.54054 22.2058 3.58627 18.692 3.20955C15.5491 2.87497 12.3526 5.45747 11.703 9.15775C11.3772 11.0066 11.4179 12.9745 11.4887 14.8779C11.6537 18.6526 14.3036 21.8175 17.4186 22.1298C20.9795 22.4991 24.0345 20.1099 24.8363 16.2212C25.0807 15.0589 25.0743 13.832 25.1793 12.6399ZM47.3083 7.62361H47.2268C47.2268 6.50832 47.2032 5.39304 47.2268 4.28023C47.2525 3.41774 46.9245 3.13024 46.2128 3.17485C42.0751 3.43756 38.7243 5.40542 36.1902 9.2321C35.7915 9.83187 35.8322 10.2235 36.3703 10.6795C37.9568 11.9906 39.5111 13.3611 41.1082 14.645C41.248 14.7282 41.4018 14.7749 41.5589 14.7818C41.716 14.7886 41.8725 14.7555 42.0172 14.6846C43.6251 13.7825 45.2202 12.8407 46.7873 11.8468C46.925 11.7312 47.0398 11.583 47.1241 11.412C47.2084 11.2411 47.2602 11.0514 47.2761 10.8555C47.3469 9.79222 47.3083 8.7042 47.3083 7.62113V7.62361ZM18.2976 31.7584C17.976 31.7584 17.6544 31.7857 17.3371 31.7584C16.8655 31.7089 16.694 31.922 16.6425 32.4772C16.3166 35.5727 15.9436 38.6732 15.6199 41.7588C15.6164 41.9096 15.6412 42.0595 15.6927 42.1981C15.7441 42.3368 15.8209 42.4608 15.9179 42.5618C18.1668 44.5322 18.1732 44.5223 20.4993 42.6833C20.5443 42.6486 20.6086 42.6263 20.6279 42.5767C20.7308 42.3289 20.9238 42.081 20.9002 41.8332C20.6144 39.0425 20.3114 36.2543 19.9912 33.4685C19.7811 31.7559 19.7575 31.7584 18.2976 31.7584ZM52.4857 15.044C52.5221 13.4479 51.5038 12.7068 50.4748 13.3091C47.2647 15.1844 44.066 17.0845 40.8788 19.0095C40.1135 19.468 39.8777 20.3032 40.2078 21.1037C40.538 21.9042 41.3119 22.2537 42.1051 21.7853C45.3209 19.9042 48.5153 18.0082 51.6925 16.0626C52.0848 15.8247 52.327 15.2547 52.4857 15.044ZM15.9393 25.4608C16.1408 26.4174 16.2866 27.2626 16.5117 28.078C16.5733 28.1959 16.6579 28.2954 16.7588 28.3686C16.8597 28.4418 16.9741 28.4865 17.0927 28.4993C17.8624 28.5489 18.6384 28.5439 19.4102 28.4993C19.6075 28.4993 19.929 28.3283 19.9719 28.1622C20.1992 27.2948 20.3535 26.405 20.5443 25.4558L15.9393 25.4608Z" fill="#083E9E"/>
<path d="M61.2562 47.6798C61.4706 48.1928 61.7064 48.6711 61.8994 49.1866C62.2595 50.1086 62.013 51.0182 61.3162 51.4172C61.1562 51.5177 60.9796 51.5782 60.798 51.5949C60.6165 51.6115 60.4339 51.5839 60.2621 51.5138C60.0904 51.4437 59.9332 51.3327 59.8009 51.188C59.6686 51.0433 59.564 50.8681 59.494 50.6737C59.0823 49.5039 58.4735 49.1866 57.3908 49.2263C55.4271 49.2932 53.9264 48.1457 52.8887 46.2274C52.357 45.236 52.4878 44.2942 53.1867 43.7787C53.8856 43.2632 54.6317 43.4937 55.2062 44.5049C55.8494 45.64 56.7455 46.2572 57.9139 46.0688C59.0823 45.8804 59.9013 45.0626 60.2143 43.687C60.344 43.1618 60.3442 42.6051 60.2151 42.0797C60.0859 41.5542 59.8325 41.0809 59.4832 40.7129C58.7736 39.9 57.9011 39.5654 56.9106 39.9025C56.1967 40.1503 55.5128 40.5444 54.7882 40.703C53.6777 40.9455 52.5295 40.783 51.5023 40.2381C50.4752 39.6931 49.6199 38.7926 49.0549 37.6612C48.4898 36.5297 48.2429 35.2232 48.3482 33.9224C48.4536 32.6216 48.906 31.3908 49.6429 30.4002C50.0438 29.8575 50.1253 29.4535 49.7694 28.8834C49.6062 28.6005 49.4777 28.2927 49.3878 27.9689C49.2669 27.604 49.2687 27.2 49.393 26.8365C49.5172 26.4731 49.7548 26.1768 50.0588 26.006C50.6591 25.6541 51.4909 25.773 51.7439 26.5017C52.2306 27.902 52.9745 28.2366 54.2544 28.2143C56.0552 28.2143 57.4916 29.3494 58.4735 31.1438C59.0416 32.1872 58.9194 33.1265 58.1734 33.6544C57.4594 34.1501 56.7241 33.8725 56.1495 32.8861C55.3949 31.5874 54.2394 31.057 53.0302 31.4511C52.4833 31.6585 52.0068 32.0599 51.6685 32.5982C51.3302 33.1366 51.1473 33.7845 51.1458 34.45C51.1458 35.8329 51.8811 37.1291 53.0752 37.3919C53.8257 37.5373 54.5963 37.4412 55.3027 37.1143C58.6128 35.5553 62.1502 37.553 62.9241 41.5754C63.34 43.7416 62.8405 45.6772 61.5349 47.3204C61.4384 47.4295 61.3548 47.5484 61.2562 47.6798Z" fill="#083E9E"/>
</svg>
