<svg width="69" height="89" viewBox="0 0 69 89" fill="none" xmlns="http://www.w3.org/2000/svg">
<path d="M10.9558 88.7027C10.5381 88.4922 10.1297 88.2536 9.7323 87.9878C8.32688 86.9259 7.71144 85.3042 7.71144 83.2798C7.71144 81.4036 7.7298 79.5273 7.6949 77.6534C7.6831 77.2054 7.56822 76.7714 7.36421 76.4041C5.67772 73.5909 4.79221 70.4653 4.86386 66.9187C4.90612 64.5821 4.91163 62.2431 4.86386 59.9065C4.79773 56.8017 5.18904 53.8751 6.84247 51.1521C6.21233 51.1521 5.72916 51.1521 5.24599 51.1521C4.62688 51.1521 4.00775 51.1683 3.39047 51.1244C2.02915 51.0272 0.818478 49.7108 0.654972 48.022C0.559447 46.9921 0.559447 45.9517 0.654972 44.9219C0.794595 43.3949 1.90423 41.9397 3.10021 41.8171C4.30971 41.6848 5.52644 41.6972 6.73408 41.8541C8.09907 42.0439 8.92028 42.8212 10.3918 44.7854C10.5039 44.5147 10.6104 44.2671 10.7078 44.015C12.1959 40.1236 13.6473 36.2138 15.1776 32.3456C16.3681 29.3172 18.4201 27.9985 21.0436 27.9893C25.0541 27.9777 29.0664 27.9893 33.0769 27.9893H33.9661C32.252 21.0811 32.8748 14.6727 36.1559 8.81492C38.5148 4.60202 41.7445 1.87439 45.7091 0.618158C53.6088 -1.88737 61.8263 3.41981 65.0616 12.9862C68.4254 22.9343 65.2765 34.9437 56.743 40.1213C57.3713 41.7015 57.9977 43.2816 58.6665 44.9658L59.0449 44.3828C60.0094 42.9068 61.2366 42.0415 62.7614 41.9235C63.5826 41.8611 64.4149 41.8541 65.2324 41.8588C65.5535 41.861 65.8727 41.921 66.1804 42.0369C67.911 42.7009 68.7046 44.9612 68.3225 48.0798C68.0855 50 66.8197 51.2863 65.1516 51.2909C64.1228 51.2909 63.094 51.2909 61.9935 51.2909C62.0359 51.4363 62.0875 51.5771 62.1478 51.712C63.2703 53.7201 63.9299 55.948 63.9593 58.4027C63.996 61.8058 63.996 65.2113 63.9244 68.6145C63.8619 71.5365 62.9268 74.0767 61.5195 76.374C61.2972 76.7544 61.1693 77.2093 61.1521 77.6812C61.1117 79.532 61.1411 81.3828 61.1337 83.2197C61.1337 85.9427 60.0939 87.7033 58.0216 88.5593C57.962 88.5969 57.9075 88.6461 57.86 88.705H51.7974C51.7505 88.6455 51.6966 88.5955 51.6376 88.557C49.5285 87.6778 48.5309 85.9496 48.5236 83.1457C48.5236 82.4377 48.5236 81.7298 48.5236 80.9918H20.2977C20.2977 81.9172 20.3234 82.8056 20.2977 83.6893C20.2334 85.5401 19.5794 87.0023 18.3154 87.974C17.8957 88.255 17.4611 88.4993 17.0147 88.705L10.9558 88.7027ZM34.5907 51.7351C26.408 51.7351 18.226 51.729 10.0446 51.7166C9.77453 51.6958 9.50467 51.7615 9.26019 51.9076C9.01572 52.0536 8.80461 52.2752 8.64655 52.5518C7.53516 54.3012 6.93979 56.4818 6.96188 58.7219C6.96188 61.5213 6.938 64.3206 6.9729 67.12C6.98926 68.0693 7.07785 69.0145 7.23745 69.9425C7.8731 73.7436 10.5976 78.322 15.1758 78.0212C17.2334 77.8847 19.302 77.9981 21.3633 77.9981C32.2747 77.9981 43.1849 77.9981 54.0938 77.9981C55.6297 77.9981 57.0332 77.5747 58.3045 76.4666C61.0419 74.0698 61.9494 70.5301 62.0835 66.5833C62.1717 63.9921 62.1056 61.3917 62.0982 58.7937C62.1284 56.4933 61.5064 54.2548 60.3438 52.4801C60.1989 52.2289 60.0066 52.027 59.7844 51.8925C59.5622 51.7581 59.3169 51.6952 59.0706 51.7097C50.9125 51.739 42.7525 51.7475 34.5907 51.7351ZM35.3843 20.9331C35.3678 30.8997 41.7868 39.0085 49.7361 39.0664C57.6358 39.1219 64.1944 30.9043 64.1907 20.9377C64.1871 10.9711 57.6744 2.83912 49.7177 2.79285C41.8327 2.74658 35.4045 10.8809 35.388 20.9331H35.3843ZM54.6266 40.9357C51.9909 42.0025 49.1808 42.1922 46.4697 41.4863C41.5535 40.2216 37.8179 36.8577 35.2631 31.3948C35.1907 31.2486 35.0941 31.1238 34.98 31.0288C34.8659 30.9338 34.7369 30.8708 34.6017 30.8442C29.8582 30.8187 25.1129 30.7909 20.3694 30.858C18.9143 30.8789 17.8249 31.8806 17.1415 33.5163C16.9578 33.9489 16.8163 34.407 16.6473 34.8465C14.8396 39.5568 13.0294 44.2702 11.2167 48.9867H57.7387L54.6266 40.9357ZM18.1611 80.7142C15.3025 80.6401 12.466 81.1236 9.8462 79.0068C9.8462 80.5962 9.83517 81.975 9.8462 83.3516C9.86089 84.8322 10.6288 85.8756 11.8101 85.9172C13.2798 85.9704 14.7495 85.9658 16.2192 85.9172C17.3362 85.8848 18.1078 84.9016 18.1611 83.5043C18.1887 82.6182 18.1611 81.7298 18.1611 80.7142ZM59.1 79.1572C56.4876 81.2833 53.6217 80.7442 50.7998 80.8506C50.7998 81.7992 50.7741 82.6297 50.7998 83.458C50.8531 84.9155 51.6045 85.8825 52.7619 85.9196C54.2316 85.9658 55.6903 85.9612 57.1527 85.9196C58.1521 85.8918 59.0247 85.0057 59.0761 83.8767C59.1515 82.3706 59.1 80.853 59.1 79.1572ZM6.02862 48.3597C6.80757 48.3597 7.58835 48.3759 8.3673 48.3597C8.96621 48.3435 9.22156 47.7397 8.93497 47.0757C8.07886 45.0931 6.74877 44.3389 4.96858 44.3342C2.6005 44.3342 2.8081 44.7854 2.81544 47.196C2.81544 47.9849 3.15348 48.3528 3.75974 48.3528C4.5148 48.3644 5.27171 48.3574 6.02862 48.3597ZM62.8166 48.3597C63.5716 48.3597 64.3267 48.3597 65.0818 48.3597C65.8717 48.3597 66.1308 48.0104 66.1436 46.9994C66.1436 46.5112 66.1436 46.0208 66.1436 45.5326C66.1436 44.79 65.813 44.4175 65.2563 44.3759C64.8007 44.3388 64.3377 44.3967 63.8839 44.3597C62.1386 44.2116 60.9059 45.1879 60.0609 47.0595C59.7302 47.7929 59.9506 48.3435 60.623 48.3597C61.3542 48.3736 62.0854 48.3597 62.8166 48.3597Z" fill="#083E9E"/>
<path d="M52.2732 66.0164C50.8035 66.0164 49.3337 66.0858 47.8824 65.991C46.826 65.9239 46.3208 65.0656 46.3337 63.7214C46.3613 61.0516 47.6693 59.0389 49.793 58.4374C51.6651 57.9076 53.5463 57.424 55.4165 56.8827C57.4374 56.2974 59.0394 57.9723 58.8299 60.3529C58.7528 61.2367 58.8299 62.1413 58.8153 63.0343C58.7969 64.7787 58.1043 65.8661 56.7338 65.9771C55.253 66.0951 53.7613 66.0025 52.275 66.0025L52.2732 66.0164ZM48.6687 63.4392H50.0962C52.0619 63.4392 54.0277 63.4253 55.9934 63.3998C56.2855 63.3998 56.686 63.5132 56.6842 62.8654C56.6842 61.9169 56.708 60.9637 56.6511 60.0198C56.6401 59.8255 56.2837 59.4738 56.1404 59.5108C54.0865 60.0383 52.0362 60.5912 49.997 61.202C49.207 61.438 48.7367 62.3079 48.6687 63.4392Z" fill="#083E9E"/>
<path d="M17.0551 66.4028C15.3907 66.2755 13.7152 66.2616 12.0673 65.984C10.6619 65.7527 10.1493 64.7856 10.1419 62.9765C10.1419 61.9955 10.1291 61.0146 10.1419 60.036C10.175 57.9029 11.4849 56.4408 13.1493 56.8364C15.3025 57.35 17.4501 57.9284 19.5683 58.6294C21.422 59.2448 22.6915 61.6508 22.618 64.0962C22.5849 65.3039 22.0668 66.0881 21.0362 66.1622C19.7135 66.2547 18.3834 66.183 17.057 66.183L17.0551 66.4028ZM20.4593 63.3212C20.2095 61.9886 19.7061 61.2575 18.8059 61.0077C16.8732 60.4524 14.9277 59.962 12.995 59.4021C12.398 59.2309 12.2602 59.5363 12.2602 60.1864C12.2905 60.9339 12.2905 61.6829 12.2602 62.4305C12.2106 63.1847 12.4163 63.4392 13.0226 63.4299C15.2621 63.3952 17.5015 63.4299 19.7429 63.4114C19.9633 63.4045 20.1838 63.3559 20.4593 63.3212Z" fill="#083E9E"/>
<path d="M34.5484 64.8412C36.8387 64.8412 39.1297 64.8412 41.4212 64.8412C41.6722 64.8367 41.9229 64.8662 42.1689 64.9291C42.3977 64.9846 42.6032 65.1412 42.7484 65.3707C42.8935 65.6002 42.9689 65.8875 42.9607 66.1807C42.9887 66.4888 42.9271 66.7992 42.7872 67.0545C42.6474 67.3097 42.4388 67.4925 42.2001 67.5688C41.9113 67.659 41.6138 67.6972 41.3165 67.6822C36.7591 67.6822 32.2005 67.6822 27.6408 67.6822C26.5072 67.6822 25.9873 67.2496 25.9873 66.2941C25.9873 65.3386 26.5568 64.8389 27.6775 64.8389L34.5484 64.8412Z" fill="#083E9E"/>
<path d="M34.4455 73.3202C32.0407 73.3202 29.6359 73.3202 27.2292 73.3202C26.2206 73.3202 25.6235 72.1796 26.1802 71.2635C26.3265 71.0581 26.5036 70.8911 26.7013 70.772C26.8989 70.6529 27.1133 70.5841 27.3321 70.5694C29.5771 70.5023 31.8221 70.537 34.0671 70.537C36.6097 70.537 39.1523 70.507 41.6931 70.5694C41.9075 70.5918 42.1161 70.6694 42.3057 70.7976C42.4953 70.9257 42.662 71.1016 42.7953 71.3144C42.9662 71.6336 42.9092 72.4017 42.7053 72.7164C42.4775 73.068 41.9704 73.2924 41.5846 73.3017C39.2111 73.3456 36.8283 73.3202 34.4455 73.3202Z" fill="#083E9E"/>
<path d="M50.7924 11.6421C50.7924 14.2679 50.7925 16.8058 50.8071 19.3414C50.8275 19.4682 50.8714 19.5872 50.9352 19.6885C50.9991 19.7899 51.0811 19.8707 51.1746 19.9244C53.7741 21.1043 55.1832 23.3947 55.1869 26.4832C55.1906 29.5718 53.6878 31.9639 51.0882 33.0652L50.7943 33.1808C50.7943 33.625 50.7943 34.1062 50.7943 34.5874C50.7759 35.7211 50.4048 36.3249 49.7177 36.3503C49.0306 36.3758 48.5603 35.684 48.5456 34.5898C48.5456 34.1271 48.5456 33.6644 48.5456 33.1716C47.3631 32.8682 46.2902 32.0916 45.4868 30.9575C44.7015 29.814 44.235 28.3783 44.1585 26.8696C44.0887 25.8748 44.4341 25.2362 45.0661 25.1321C45.8009 25.0095 46.3153 25.5023 46.3851 26.5619C46.4917 28.1675 47.0649 29.3381 48.2223 30.0321C48.3141 30.075 48.4088 30.1075 48.5052 30.1293C48.5199 29.9466 48.5401 29.8101 48.5401 29.6666C48.5401 27.1588 48.5401 24.6486 48.5401 22.1199C48.1121 21.9256 47.6969 21.7775 47.3092 21.5578C46.3439 21.0084 45.5286 20.1126 44.9656 18.9826C44.4025 17.8526 44.1167 16.5385 44.1438 15.2049C44.1772 13.826 44.5481 12.4937 45.2059 11.3905C45.8636 10.2872 46.7759 9.46687 47.8181 9.04167C48.4225 8.7895 48.6154 8.44479 48.5419 7.69984C48.5098 7.32766 48.5284 6.95131 48.5971 6.58704C48.7165 5.90687 49.0857 5.57141 49.6387 5.57141C49.8816 5.55394 50.1217 5.6441 50.3173 5.82623C50.513 6.00836 50.6518 6.27098 50.7098 6.56853C50.7409 6.6466 50.7554 6.73347 50.752 6.82071C50.4875 8.40546 51.2554 8.85659 52.2548 9.43034C54.1085 10.4922 55.0234 12.5235 55.1593 15.0869C55.2126 16.1141 54.8305 16.748 54.1471 16.8035C53.4912 16.8544 52.9823 16.2506 52.9382 15.2743C52.8703 13.7751 52.3503 12.6392 51.3289 11.8665C51.2497 11.8083 51.1668 11.7588 51.0809 11.7184C50.9859 11.6864 50.8896 11.6609 50.7924 11.6421ZM48.5034 11.6629C47.8687 11.9396 47.3215 12.4658 46.9424 13.1639C46.5633 13.8621 46.3725 14.6952 46.398 15.5403C46.4366 17.1598 47.3643 18.8001 48.5034 19.2096V11.6629ZM50.8457 22.7492V30.2057C52.1721 29.6574 52.9842 28.0703 52.929 26.2195C52.8776 24.5352 52.0288 23.0962 50.8457 22.7492Z" fill="#083E9E"/>
</svg>
