<svg width="1440" height="599" viewBox="0 0 1440 599" fill="none" xmlns="http://www.w3.org/2000/svg">
<path d="M-79.0773 428.227L115.105 436.571" stroke="#083E9E" stroke-width="2.07222"/>
<path d="M-79.0773 428.227L94.6512 544.212" stroke="#083E9E" stroke-width="2.07222"/>
<path d="M-73.8043 570.405L94.6513 544.211" stroke="#083E9E" stroke-width="2.07222"/>
<path d="M-73.8043 570.406L73.1506 686.075" stroke="#083E9E" stroke-width="2.07222"/>
<path d="M-73.8044 570.405L115.105 436.57" stroke="#083E9E" stroke-width="2.07222"/>
<path d="M-54.3214 723.703L94.6513 544.211" stroke="#083E9E" stroke-width="2.07222"/>
<path d="M-54.3214 723.703L115.105 436.57" stroke="#083E9E" stroke-width="2.07222"/>
<path d="M115.105 436.57L213.224 423.856" stroke="#083E9E" stroke-width="2.07222"/>
<path d="M115.105 436.57L94.6512 544.211" stroke="#083E9E" stroke-width="2.07222"/>
<path d="M115.105 436.57L262.165 561.854" stroke="#083E9E" stroke-width="2.07222"/>
<path d="M94.6512 544.211L73.1505 686.075" stroke="#083E9E" stroke-width="2.07222"/>
<path d="M94.6512 544.212L262.165 561.855" stroke="#083E9E" stroke-width="2.07222"/>
<path d="M94.6512 544.212L213.224 423.856" stroke="#083E9E" stroke-width="2.07222"/>
<path d="M213.224 423.856L365.661 412.341" stroke="#083E9E" stroke-width="2.07222"/>
<path d="M262.165 561.854L374.874 552.042" stroke="#083E9E" stroke-width="2.07222"/>
<path d="M262.165 561.854L213.224 423.856" stroke="#083E9E" stroke-width="2.07222"/>
<path d="M224.693 724.433L262.165 561.854" stroke="#083E9E" stroke-width="2.07222"/>
<path d="M365.661 412.341L495.97 434.029" stroke="#083E9E" stroke-width="2.07222"/>
<path d="M365.661 412.341L374.874 552.042" stroke="#083E9E" stroke-width="2.07222"/>
<path d="M365.661 412.341L262.165 561.854" stroke="#083E9E" stroke-width="2.07222"/>
<path d="M374.875 552.042L519.935 602.61" stroke="#083E9E" stroke-width="2.07222"/>
<path d="M374.875 552.042L351.48 703.637" stroke="#083E9E" stroke-width="2.07222"/>
<path d="M374.875 552.042L495.97 434.029" stroke="#083E9E" stroke-width="2.07222"/>
<path d="M374.874 552.042L213.224 423.856" stroke="#083E9E" stroke-width="2.07222"/>
<path d="M495.97 434.029L642.058 451.879" stroke="#083E9E" stroke-width="2.07222"/>
<path d="M519.935 602.61L657.734 594.212" stroke="#083E9E" stroke-width="2.07222"/>
<path d="M519.935 602.609L495.97 434.029" stroke="#083E9E" stroke-width="2.07222"/>
<path d="M679.454 328.803L642.058 451.88" stroke="#083E9E" stroke-width="2.07222"/>
<path d="M679.454 328.803L812.437 270.712" stroke="#083E9E" stroke-width="2.07222"/>
<path d="M679.454 328.803L809.391 200.87" stroke="#083E9E" stroke-width="2.07222"/>
<path d="M679.454 328.803L812.798 471.748" stroke="#083E9E" stroke-width="2.07222"/>
<path d="M679.454 328.803L495.97 434.03" stroke="#083E9E" stroke-width="2.07222"/>
<path d="M679.454 328.803L823.001 547.158" stroke="#083E9E" stroke-width="2.07222"/>
<path d="M642.058 451.88L657.734 594.212" stroke="#083E9E" stroke-width="2.07222"/>
<path d="M642.058 451.88L812.798 471.748" stroke="#083E9E" stroke-width="2.07222"/>
<path d="M642.058 451.88L519.935 602.61" stroke="#083E9E" stroke-width="2.07222"/>
<path d="M657.734 594.212L653.461 742.166" stroke="#083E9E" stroke-width="2.07222"/>
<path d="M657.734 594.212L823.002 547.158" stroke="#083E9E" stroke-width="2.07222"/>
<path d="M809.391 200.87L812.437 270.712" stroke="#083E9E" stroke-width="2.07222"/>
<path d="M809.391 200.87L939.718 197.338" stroke="#083E9E" stroke-width="2.07222"/>
<path d="M812.437 270.712L939.718 197.338" stroke="#083E9E" stroke-width="2.07222"/>
<path d="M812.798 471.748L823.001 547.158" stroke="#083E9E" stroke-width="2.07222"/>
<path d="M812.798 471.748L935.026 461.728" stroke="#083E9E" stroke-width="2.07222"/>
<path d="M812.798 471.748L931.913 562.63" stroke="#083E9E" stroke-width="2.07222"/>
<path d="M823.001 547.158L931.914 562.629" stroke="#083E9E" stroke-width="2.07222"/>
<path d="M823.001 547.158L935.026 461.728" stroke="#083E9E" stroke-width="2.07222"/>
<path d="M796.97 734.165L823.001 547.158" stroke="#083E9E" stroke-width="2.07222"/>
<path d="M939.718 197.338L1105.1 19.3601" stroke="#083E9E" stroke-width="2.07222"/>
<path d="M939.719 197.338L935.026 461.728" stroke="#083E9E" stroke-width="2.07222"/>
<path d="M939.718 197.338L1082.07 432.309" stroke="#083E9E" stroke-width="2.07222"/>
<path d="M935.026 461.728L931.914 562.629" stroke="#083E9E" stroke-width="2.07222"/>
<path d="M935.026 461.728L1082.07 432.308" stroke="#083E9E" stroke-width="2.07222"/>
<path d="M931.914 562.629L1099.96 583.967" stroke="#083E9E" stroke-width="2.07222"/>
<path d="M910.032 724.974L931.913 562.629" stroke="#083E9E" stroke-width="2.07222"/>
<path d="M910.032 724.974L823.001 547.158" stroke="#083E9E" stroke-width="2.07222"/>
<path d="M1105.1 19.3601L1245.31 49.8701" stroke="#083E9E" stroke-width="2.07222"/>
<path d="M1105.1 19.3601L1243.14 201.79" stroke="#083E9E" stroke-width="2.07222"/>
<path d="M1082.07 432.308L1099.96 583.966" stroke="#083E9E" stroke-width="2.07222"/>
<path d="M1082.07 432.309L1244.45 452.483" stroke="#083E9E" stroke-width="2.07222"/>
<path d="M1082.07 432.308L1235.79 333.354" stroke="#083E9E" stroke-width="2.07222"/>
<path d="M1082.07 432.308L931.914 562.629" stroke="#083E9E" stroke-width="2.07222"/>
<path d="M1082.07 432.308L812.798 471.748" stroke="#083E9E" stroke-width="2.07222"/>
<path d="M1099.96 583.967L1113.92 696.14" stroke="#083E9E" stroke-width="2.07222"/>
<path d="M1099.96 583.967L1244.45 452.483" stroke="#083E9E" stroke-width="2.07222"/>
<path d="M1245.31 49.87L1374.32 14.8005" stroke="#083E9E" stroke-width="2.07222"/>
<path d="M1245.31 49.8699L1243.14 201.789" stroke="#083E9E" stroke-width="2.07222"/>
<path d="M1243.14 201.789L1235.79 333.353" stroke="#083E9E" stroke-width="2.07222"/>
<path d="M1243.14 201.789L1377.1 140.508" stroke="#083E9E" stroke-width="2.07222"/>
<path d="M1243.14 201.789L1369.85 332.732" stroke="#083E9E" stroke-width="2.07222"/>
<path d="M1243.14 201.789L1374.32 14.8005" stroke="#083E9E" stroke-width="2.07222"/>
<path d="M1235.79 333.354L1244.45 452.483" stroke="#083E9E" stroke-width="2.07222"/>
<path d="M1235.79 333.354L1369.85 332.732" stroke="#083E9E" stroke-width="2.07222"/>
<path d="M1235.79 333.354L1369.83 431.867" stroke="#083E9E" stroke-width="2.07222"/>
<path d="M1244.45 452.483L1369.83 431.867" stroke="#083E9E" stroke-width="2.07222"/>
<path d="M1244.45 452.483L1369.85 332.732" stroke="#083E9E" stroke-width="2.07222"/>
<path d="M1374.32 14.8005L1496.18 56.2675" stroke="#083E9E" stroke-width="2.07222"/>
<path d="M1374.32 14.8005L1377.1 140.508" stroke="#083E9E" stroke-width="2.07222"/>
<path d="M1374.32 14.8005L1528.91 183.011" stroke="#083E9E" stroke-width="2.07222"/>
<path d="M1377.1 140.508L1496.18 56.2676" stroke="#083E9E" stroke-width="2.07222"/>
<path d="M1377.1 140.508L1528.91 183.011" stroke="#083E9E" stroke-width="2.07222"/>
<path d="M1377.1 140.508L1245.31 49.8699" stroke="#083E9E" stroke-width="2.07222"/>
<path d="M1377.1 140.508L1369.85 332.732" stroke="#083E9E" stroke-width="2.07222"/>
<path d="M1369.85 332.732L1369.83 431.867" stroke="#083E9E" stroke-width="2.07222"/>
<path d="M1369.85 332.732L1541.8 317.072" stroke="#083E9E" stroke-width="2.07222"/>
<path d="M1369.83 431.867L1390.25 585.381" stroke="#083E9E" stroke-width="2.07222"/>
<path d="M1369.83 431.867L1544.75 425.424" stroke="#083E9E" stroke-width="2.07222"/>
<path d="M1390.25 585.381L1495.28 603.88" stroke="#083E9E" stroke-width="2.07222"/>
<path d="M1390.25 585.381L1344.3 677.768" stroke="#083E9E" stroke-width="2.07222"/>
<path d="M1390.25 585.381L1503.95 733.237" stroke="#083E9E" stroke-width="2.07222"/>
<path d="M1390.25 585.381L1258.36 726.488" stroke="#083E9E" stroke-width="2.07222"/>
<path d="M1344.3 677.767L1244.45 452.483" stroke="#083E9E" stroke-width="2.07222"/>
<path d="M1541.8 317.072L1369.83 431.867" stroke="#083E9E" stroke-width="2.07222"/>
<path d="M1541.8 317.071L1377.1 140.508" stroke="#083E9E" stroke-width="2.07222"/>
<path d="M1544.75 425.424L1369.85 332.732" stroke="#083E9E" stroke-width="2.07222"/>
<path d="M1544.75 425.424L1390.25 585.381" stroke="#083E9E" stroke-width="2.07222"/>
<path d="M1495.28 603.88L1369.83 431.867" stroke="#083E9E" stroke-width="2.07222"/>
<path d="M1503.95 733.237L1369.83 431.867" stroke="#083E9E" stroke-width="2.07222"/>
<path d="M115.105 441.076C117.733 441.076 119.864 439.059 119.864 436.57C119.864 434.082 117.733 432.065 115.105 432.065C112.477 432.065 110.346 434.082 110.346 436.57C110.346 439.059 112.477 441.076 115.105 441.076Z" fill="#083E9E"/>
<path d="M94.6512 548.717C97.2795 548.717 99.4101 546.7 99.4101 544.212C99.4101 541.723 97.2795 539.706 94.6512 539.706C92.023 539.706 89.8923 541.723 89.8923 544.212C89.8923 546.7 92.023 548.717 94.6512 548.717Z" fill="#083E9E"/>
<path d="M213.224 428.362C215.852 428.362 217.983 426.345 217.983 423.856C217.983 421.368 215.852 419.351 213.224 419.351C210.596 419.351 208.465 421.368 208.465 423.856C208.465 426.345 210.596 428.362 213.224 428.362Z" fill="#083E9E"/>
<path d="M262.165 566.36C264.793 566.36 266.924 564.343 266.924 561.855C266.924 559.366 264.793 557.349 262.165 557.349C259.536 557.349 257.406 559.366 257.406 561.855C257.406 564.343 259.536 566.36 262.165 566.36Z" fill="#083E9E"/>
<path d="M365.661 416.846C368.289 416.846 370.42 414.829 370.42 412.341C370.42 409.853 368.289 407.835 365.661 407.835C363.033 407.835 360.902 409.853 360.902 412.341C360.902 414.829 363.033 416.846 365.661 416.846Z" fill="#083E9E"/>
<path d="M374.875 556.547C377.503 556.547 379.633 554.53 379.633 552.042C379.633 549.553 377.503 547.536 374.875 547.536C372.246 547.536 370.116 549.553 370.116 552.042C370.116 554.53 372.246 556.547 374.875 556.547Z" fill="#083E9E"/>
<path d="M495.97 438.535C498.598 438.535 500.728 436.518 500.728 434.03C500.728 431.541 498.598 429.524 495.97 429.524C493.341 429.524 491.211 431.541 491.211 434.03C491.211 436.518 493.341 438.535 495.97 438.535Z" fill="#083E9E"/>
<path d="M519.935 607.115C522.564 607.115 524.694 605.098 524.694 602.609C524.694 600.121 522.564 598.104 519.935 598.104C517.307 598.104 515.176 600.121 515.176 602.609C515.176 605.098 517.307 607.115 519.935 607.115Z" fill="#083E9E"/>
<path d="M679.454 333.309C682.082 333.309 684.213 331.291 684.213 328.803C684.213 326.315 682.082 324.298 679.454 324.298C676.826 324.298 674.695 326.315 674.695 328.803C674.695 331.291 676.826 333.309 679.454 333.309Z" fill="#083E9E"/>
<path d="M642.058 456.385C644.687 456.385 646.817 454.368 646.817 451.88C646.817 449.392 644.687 447.375 642.058 447.375C639.43 447.375 637.299 449.392 637.299 451.88C637.299 454.368 639.43 456.385 642.058 456.385Z" fill="#083E9E"/>
<path d="M657.734 598.717C660.363 598.717 662.493 596.7 662.493 594.212C662.493 591.724 660.363 589.707 657.734 589.707C655.106 589.707 652.975 591.724 652.975 594.212C652.975 596.7 655.106 598.717 657.734 598.717Z" fill="#083E9E"/>
<path d="M809.391 205.376C812.019 205.376 814.15 203.359 814.15 200.87C814.15 198.382 812.019 196.365 809.391 196.365C806.763 196.365 804.632 198.382 804.632 200.87C804.632 203.359 806.763 205.376 809.391 205.376Z" fill="#083E9E"/>
<path d="M812.437 275.217C815.065 275.217 817.196 273.2 817.196 270.712C817.196 268.223 815.065 266.206 812.437 266.206C809.808 266.206 807.678 268.223 807.678 270.712C807.678 273.2 809.808 275.217 812.437 275.217Z" fill="#083E9E"/>
<path d="M812.798 476.253C815.427 476.253 817.557 474.236 817.557 471.748C817.557 469.26 815.427 467.243 812.798 467.243C810.17 467.243 808.039 469.26 808.039 471.748C808.039 474.236 810.17 476.253 812.798 476.253Z" fill="#083E9E"/>
<path d="M823.001 551.663C825.63 551.663 827.76 549.646 827.76 547.158C827.76 544.67 825.63 542.653 823.001 542.653C820.373 542.653 818.243 544.67 818.243 547.158C818.243 549.646 820.373 551.663 823.001 551.663Z" fill="#083E9E"/>
<path d="M939.718 201.843C942.347 201.843 944.477 199.826 944.477 197.338C944.477 194.85 942.347 192.833 939.718 192.833C937.09 192.833 934.959 194.85 934.959 197.338C934.959 199.826 937.09 201.843 939.718 201.843Z" fill="#083E9E"/>
<path d="M935.026 466.233C937.654 466.233 939.785 464.216 939.785 461.728C939.785 459.24 937.654 457.223 935.026 457.223C932.398 457.223 930.267 459.24 930.267 461.728C930.267 464.216 932.398 466.233 935.026 466.233Z" fill="#083E9E"/>
<path d="M931.914 567.135C934.542 567.135 936.673 565.118 936.673 562.629C936.673 560.141 934.542 558.124 931.914 558.124C929.285 558.124 927.155 560.141 927.155 562.629C927.155 565.118 929.285 567.135 931.914 567.135Z" fill="#083E9E"/>
<path d="M1105.1 23.8651C1107.73 23.8651 1109.86 21.848 1109.86 19.3598C1109.86 16.8716 1107.73 14.8545 1105.1 14.8545C1102.47 14.8545 1100.34 16.8716 1100.34 19.3598C1100.34 21.848 1102.47 23.8651 1105.1 23.8651Z" fill="#083E9E"/>
<path d="M1082.07 436.814C1084.69 436.814 1086.83 434.797 1086.83 432.309C1086.83 429.82 1084.69 427.803 1082.07 427.803C1079.44 427.803 1077.31 429.82 1077.31 432.309C1077.31 434.797 1079.44 436.814 1082.07 436.814Z" fill="#083E9E"/>
<path d="M1099.96 588.472C1102.59 588.472 1104.72 586.455 1104.72 583.966C1104.72 581.478 1102.59 579.461 1099.96 579.461C1097.33 579.461 1095.2 581.478 1095.2 583.966C1095.2 586.455 1097.33 588.472 1099.96 588.472Z" fill="#083E9E"/>
<path d="M1245.31 54.3754C1247.93 54.3754 1250.07 52.3583 1250.07 49.8701C1250.07 47.3818 1247.93 45.3647 1245.31 45.3647C1242.68 45.3647 1240.55 47.3818 1240.55 49.8701C1240.55 52.3583 1242.68 54.3754 1245.31 54.3754Z" fill="#083E9E"/>
<path d="M1243.14 206.295C1245.76 206.295 1247.9 204.277 1247.9 201.789C1247.9 199.301 1245.76 197.284 1243.14 197.284C1240.51 197.284 1238.38 199.301 1238.38 201.789C1238.38 204.277 1240.51 206.295 1243.14 206.295Z" fill="#083E9E"/>
<path d="M1235.79 337.859C1238.42 337.859 1240.55 335.842 1240.55 333.354C1240.55 330.865 1238.42 328.848 1235.79 328.848C1233.16 328.848 1231.03 330.865 1231.03 333.354C1231.03 335.842 1233.16 337.859 1235.79 337.859Z" fill="#083E9E"/>
<path d="M1244.45 456.989C1247.08 456.989 1249.21 454.972 1249.21 452.484C1249.21 449.995 1247.08 447.978 1244.45 447.978C1241.82 447.978 1239.69 449.995 1239.69 452.484C1239.69 454.972 1241.82 456.989 1244.45 456.989Z" fill="#083E9E"/>
<path d="M1374.32 19.3058C1376.95 19.3058 1379.08 17.2887 1379.08 14.8005C1379.08 12.3123 1376.95 10.2952 1374.32 10.2952C1371.69 10.2952 1369.56 12.3123 1369.56 14.8005C1369.56 17.2887 1371.69 19.3058 1374.32 19.3058Z" fill="#083E9E"/>
<path d="M1377.1 145.013C1379.73 145.013 1381.86 142.996 1381.86 140.508C1381.86 138.02 1379.73 136.003 1377.1 136.003C1374.47 136.003 1372.34 138.02 1372.34 140.508C1372.34 142.996 1374.47 145.013 1377.1 145.013Z" fill="#083E9E"/>
<path d="M1369.85 337.237C1372.48 337.237 1374.61 335.22 1374.61 332.732C1374.61 330.244 1372.48 328.227 1369.85 328.227C1367.22 328.227 1365.09 330.244 1365.09 332.732C1365.09 335.22 1367.22 337.237 1369.85 337.237Z" fill="#083E9E"/>
<path d="M1369.83 436.372C1372.46 436.372 1374.59 434.355 1374.59 431.867C1374.59 429.379 1372.46 427.362 1369.83 427.362C1367.2 427.362 1365.07 429.379 1365.07 431.867C1365.07 434.355 1367.2 436.372 1369.83 436.372Z" fill="#083E9E"/>
<path d="M1390.25 589.886C1392.88 589.886 1395.01 587.869 1395.01 585.381C1395.01 582.893 1392.88 580.876 1390.25 580.876C1387.62 580.876 1385.49 582.893 1385.49 585.381C1385.49 587.869 1387.62 589.886 1390.25 589.886Z" fill="#083E9E"/>
<path d="M-87.2055 693.851L63.785 543.004" stroke="white" stroke-opacity="0.17" stroke-width="2.07222"/>
<path d="M-87.2055 693.851L230.213 544.121" stroke="white" stroke-opacity="0.17" stroke-width="2.07222"/>
<path d="M-87.2055 693.851L375.274 563.332" stroke="white" stroke-opacity="0.17" stroke-width="2.07222"/>
<path d="M643.819 437.427L657.211 543.797" stroke="white" stroke-opacity="0.17" stroke-width="2.07222"/>
<path d="M643.819 437.427L797.256 418.549" stroke="white" stroke-opacity="0.17" stroke-width="2.07222"/>
<path d="M643.819 437.427L808.953 548.951" stroke="white" stroke-opacity="0.17" stroke-width="2.07222"/>
<path d="M643.819 437.427L482.454 586.544" stroke="white" stroke-opacity="0.17" stroke-width="2.07222"/>
<path d="M661.084 725.064L657.211 543.797" stroke="white" stroke-opacity="0.17" stroke-width="2.07222"/>
<path d="M661.084 725.064L482.454 586.543" stroke="white" stroke-opacity="0.17" stroke-width="2.07222"/>
<path d="M661.084 725.064L808.953 548.951" stroke="white" stroke-opacity="0.17" stroke-width="2.07222"/>
<path d="M795.428 676.154L808.953 548.951" stroke="white" stroke-opacity="0.17" stroke-width="2.07222"/>
<path d="M795.428 676.154L922.015 597.275" stroke="white" stroke-opacity="0.17" stroke-width="2.07222"/>
<path d="M978.561 311.972L1099.27 277.74" stroke="white" stroke-opacity="0.17" stroke-width="2.07222"/>
<path d="M978.561 311.971L923.814 438.535" stroke="white" stroke-opacity="0.17" stroke-width="2.07222"/>
<path d="M1245.52 569.946L1223.67 464.531" stroke="white" stroke-opacity="0.17" stroke-width="2.07222"/>
<path d="M1245.52 569.946L1368.26 558.791" stroke="white" stroke-opacity="0.17" stroke-width="2.07222"/>
<path d="M1368.26 558.791L1484.92 561.584" stroke="white" stroke-opacity="0.17" stroke-width="2.07222"/>
<path d="M1368.26 558.791L1396.58 686.634" stroke="white" stroke-opacity="0.17" stroke-width="2.07222"/>
<path d="M1368.26 558.791L1405.09 425.659" stroke="white" stroke-opacity="0.17" stroke-width="2.07222"/>
<path d="M-44.0517 598.96L63.785 543.004" stroke="white" stroke-opacity="0.17" stroke-width="2.07222"/>
<path d="M-44.0517 598.96L123.043 718.775" stroke="white" stroke-opacity="0.17" stroke-width="2.07222"/>
<path d="M-44.0517 598.96L230.213 544.121" stroke="white" stroke-opacity="0.17" stroke-width="2.07222"/>
<path d="M63.785 543.004L230.213 544.121" stroke="white" stroke-opacity="0.17" stroke-width="2.07222"/>
<path d="M123.043 718.775L63.785 543.004" stroke="white" stroke-opacity="0.17" stroke-width="2.07222"/>
<path d="M230.213 544.122L375.274 563.332" stroke="white" stroke-opacity="0.17" stroke-width="2.07222"/>
<path d="M230.213 544.122L260.623 712.936" stroke="white" stroke-opacity="0.17" stroke-width="2.07222"/>
<path d="M230.213 544.122L123.043 718.775" stroke="white" stroke-opacity="0.17" stroke-width="2.07222"/>
<path d="M230.213 544.122L482.454 586.544" stroke="white" stroke-opacity="0.17" stroke-width="2.07222"/>
<path d="M260.623 712.936L375.274 563.332" stroke="white" stroke-opacity="0.17" stroke-width="2.07222"/>
<path d="M375.274 563.332L482.454 586.544" stroke="white" stroke-opacity="0.17" stroke-width="2.07222"/>
<path d="M375.274 563.332L548.727 719.883" stroke="white" stroke-opacity="0.17" stroke-width="2.07222"/>
<path d="M482.454 586.543L548.727 719.883" stroke="white" stroke-opacity="0.17" stroke-width="2.07222"/>
<path d="M482.454 586.544L657.211 543.797" stroke="white" stroke-opacity="0.17" stroke-width="2.07222"/>
<path d="M657.211 543.797L808.953 548.951" stroke="white" stroke-opacity="0.17" stroke-width="2.07222"/>
<path d="M797.256 418.549L923.814 438.535" stroke="white" stroke-opacity="0.17" stroke-width="2.07222"/>
<path d="M797.256 418.549L808.953 548.951" stroke="white" stroke-opacity="0.17" stroke-width="2.07222"/>
<path d="M797.256 418.549L657.211 543.797" stroke="white" stroke-opacity="0.17" stroke-width="2.07222"/>
<path d="M808.953 548.951L922.015 597.275" stroke="white" stroke-opacity="0.17" stroke-width="2.07222"/>
<path d="M923.814 438.535L1068.28 454.267" stroke="white" stroke-opacity="0.17" stroke-width="2.07222"/>
<path d="M923.814 438.535L808.953 548.951" stroke="white" stroke-opacity="0.17" stroke-width="2.07222"/>
<path d="M922.015 597.275L913.154 676.506" stroke="white" stroke-opacity="0.17" stroke-width="2.07222"/>
<path d="M922.015 597.275L1068.58 551.447" stroke="white" stroke-opacity="0.17" stroke-width="2.07222"/>
<path d="M913.154 676.506L808.953 548.951" stroke="white" stroke-opacity="0.17" stroke-width="2.07222"/>
<path d="M1099.27 277.74L1239.26 194.094" stroke="white" stroke-opacity="0.17" stroke-width="2.07222"/>
<path d="M1099.28 277.74L1068.28 454.268" stroke="white" stroke-opacity="0.17" stroke-width="2.07222"/>
<path d="M1099.27 277.74L1223.67 464.531" stroke="white" stroke-opacity="0.17" stroke-width="2.07222"/>
<path d="M1068.28 454.268L1068.58 551.447" stroke="white" stroke-opacity="0.17" stroke-width="2.07222"/>
<path d="M1068.28 454.268L1223.67 464.531" stroke="white" stroke-opacity="0.17" stroke-width="2.07222"/>
<path d="M1068.28 454.267L978.561 311.971" stroke="white" stroke-opacity="0.17" stroke-width="2.07222"/>
<path d="M1068.28 454.268L922.015 597.275" stroke="white" stroke-opacity="0.17" stroke-width="2.07222"/>
<path d="M1095.21 707.304L1068.58 551.447" stroke="white" stroke-opacity="0.17" stroke-width="2.07222"/>
<path d="M1213.14 42.1389L1239.26 194.094" stroke="white" stroke-opacity="0.17" stroke-width="2.07222"/>
<path d="M1213.14 42.1386L1371.55 4.55518" stroke="white" stroke-opacity="0.17" stroke-width="2.07222"/>
<path d="M1213.14 42.1389L1377.33 140.616" stroke="white" stroke-opacity="0.17" stroke-width="2.07222"/>
<path d="M1239.26 194.094L1377.33 140.616" stroke="white" stroke-opacity="0.17" stroke-width="2.07222"/>
<path d="M1257.63 711.737L1245.52 569.946" stroke="white" stroke-opacity="0.17" stroke-width="2.07222"/>
<path d="M1371.55 4.55518L1377.33 140.616" stroke="white" stroke-opacity="0.17" stroke-width="2.07222"/>
<path d="M1371.55 4.55518L1503.13 67.3683" stroke="white" stroke-opacity="0.17" stroke-width="2.07222"/>
<path d="M1371.55 4.55518L1546.89 156.366" stroke="white" stroke-opacity="0.17" stroke-width="2.07222"/>
<path d="M1371.55 4.55518L1239.26 194.094" stroke="white" stroke-opacity="0.17" stroke-width="2.07222"/>
<path d="M1377.33 140.616L1503.13 67.3687" stroke="white" stroke-opacity="0.17" stroke-width="2.07222"/>
<path d="M1377.33 140.616L1546.89 156.367" stroke="white" stroke-opacity="0.17" stroke-width="2.07222"/>
<path d="M1377.33 140.616L1398.88 315.035" stroke="white" stroke-opacity="0.17" stroke-width="2.07222"/>
<path d="M1398.88 315.035L1497.98 330.2" stroke="white" stroke-opacity="0.17" stroke-width="2.07222"/>
<path d="M1398.88 315.035L1405.09 425.658" stroke="white" stroke-opacity="0.17" stroke-width="2.07222"/>
<path d="M1398.88 315.035L1498.93 447.581" stroke="white" stroke-opacity="0.17" stroke-width="2.07222"/>
<path d="M1398.88 315.035L1239.26 194.094" stroke="white" stroke-opacity="0.17" stroke-width="2.07222"/>
<path d="M1405.09 425.659L1498.93 447.582" stroke="white" stroke-opacity="0.17" stroke-width="2.07222"/>
<path d="M1405.09 425.659L1497.98 330.2" stroke="white" stroke-opacity="0.17" stroke-width="2.07222"/>
<path d="M1405.09 425.659L1484.92 561.584" stroke="white" stroke-opacity="0.17" stroke-width="2.07222"/>
<path d="M1405.09 425.659L1223.67 464.531" stroke="white" stroke-opacity="0.17" stroke-width="2.07222"/>
<path d="M1396.58 686.634L1484.92 561.584" stroke="white" stroke-opacity="0.17" stroke-width="2.07222"/>
<path d="M1396.58 686.634L1245.52 569.946" stroke="white" stroke-opacity="0.17" stroke-width="2.07222"/>
<path d="M1396.58 686.634L1498.93 447.582" stroke="white" stroke-opacity="0.17" stroke-width="2.07222"/>
<path d="M1497.98 330.2L1377.33 140.616" stroke="white" stroke-opacity="0.17" stroke-width="2.07222"/>
<path d="M1522.65 740.797L1368.26 558.791" stroke="white" stroke-opacity="0.17" stroke-width="2.07222"/>
<path d="M643.819 459.953C656.961 459.953 667.614 449.867 667.614 437.426C667.614 424.985 656.961 414.9 643.819 414.9C630.678 414.9 620.025 424.985 620.025 437.426C620.025 449.867 630.678 459.953 643.819 459.953Z" fill="url(#paint0_radial_903_495)"/>
<path d="M978.56 334.498C991.702 334.498 1002.35 324.412 1002.35 311.971C1002.35 299.53 991.702 289.445 978.56 289.445C965.419 289.445 954.766 299.53 954.766 311.971C954.766 324.412 965.419 334.498 978.56 334.498Z" fill="url(#paint1_radial_903_495)"/>
<path d="M1245.52 592.472C1258.66 592.472 1269.31 582.387 1269.31 569.946C1269.31 557.505 1258.66 547.419 1245.52 547.419C1232.37 547.419 1221.72 557.505 1221.72 569.946C1221.72 582.387 1232.37 592.472 1245.52 592.472Z" fill="url(#paint2_radial_903_495)"/>
<path d="M1368.26 581.317C1381.4 581.317 1392.05 571.232 1392.05 558.791C1392.05 546.35 1381.4 536.264 1368.26 536.264C1355.12 536.264 1344.46 546.35 1344.46 558.791C1344.46 571.232 1355.12 581.317 1368.26 581.317Z" fill="url(#paint3_radial_903_495)"/>
<path d="M63.785 547.51C66.4133 547.51 68.5439 545.493 68.5439 543.004C68.5439 540.516 66.4133 538.499 63.785 538.499C61.1567 538.499 59.0261 540.516 59.0261 543.004C59.0261 545.493 61.1567 547.51 63.785 547.51Z" fill="white"/>
<path d="M230.213 548.627C232.842 548.627 234.972 546.609 234.972 544.121C234.972 541.633 232.842 539.616 230.213 539.616C227.585 539.616 225.454 541.633 225.454 544.121C225.454 546.609 227.585 548.627 230.213 548.627Z" fill="white"/>
<path d="M375.274 567.837C377.903 567.837 380.033 565.82 380.033 563.332C380.033 560.844 377.903 558.827 375.274 558.827C372.646 558.827 370.515 560.844 370.515 563.332C370.515 565.82 372.646 567.837 375.274 567.837Z" fill="white"/>
<path d="M482.454 591.049C485.083 591.049 487.213 589.032 487.213 586.543C487.213 584.055 485.083 582.038 482.454 582.038C479.826 582.038 477.695 584.055 477.695 586.543C477.695 589.032 479.826 591.049 482.454 591.049Z" fill="white"/>
<path d="M657.211 548.303C659.839 548.303 661.97 546.286 661.97 543.797C661.97 541.309 659.839 539.292 657.211 539.292C654.582 539.292 652.452 541.309 652.452 543.797C652.452 546.286 654.582 548.303 657.211 548.303Z" fill="white"/>
<path d="M797.256 423.055C799.884 423.055 802.015 421.037 802.015 418.549C802.015 416.061 799.884 414.044 797.256 414.044C794.627 414.044 792.497 416.061 792.497 418.549C792.497 421.037 794.627 423.055 797.256 423.055Z" fill="white"/>
<path d="M808.953 553.457C811.581 553.457 813.712 551.439 813.712 548.951C813.712 546.463 811.581 544.446 808.953 544.446C806.325 544.446 804.194 546.463 804.194 548.951C804.194 551.439 806.325 553.457 808.953 553.457Z" fill="white"/>
<path d="M923.814 443.04C926.442 443.04 928.573 441.023 928.573 438.535C928.573 436.047 926.442 434.03 923.814 434.03C921.186 434.03 919.055 436.047 919.055 438.535C919.055 441.023 921.186 443.04 923.814 443.04Z" fill="white"/>
<path d="M922.015 601.781C924.643 601.781 926.774 599.764 926.774 597.275C926.774 594.787 924.643 592.77 922.015 592.77C919.387 592.77 917.256 594.787 917.256 597.275C917.256 599.764 919.387 601.781 922.015 601.781Z" fill="white"/>
<path d="M1099.27 282.245C1101.9 282.245 1104.03 280.228 1104.03 277.74C1104.03 275.251 1101.9 273.234 1099.27 273.234C1096.65 273.234 1094.52 275.251 1094.52 277.74C1094.52 280.228 1096.65 282.245 1099.27 282.245Z" fill="white"/>
<path d="M1068.28 458.773C1070.9 458.773 1073.03 456.756 1073.03 454.267C1073.03 451.779 1070.9 449.762 1068.28 449.762C1065.65 449.762 1063.52 451.779 1063.52 454.267C1063.52 456.756 1065.65 458.773 1068.28 458.773Z" fill="white"/>
<path d="M1068.58 555.953C1071.21 555.953 1073.34 553.936 1073.34 551.447C1073.34 548.959 1071.21 546.942 1068.58 546.942C1065.95 546.942 1063.82 548.959 1063.82 551.447C1063.82 553.936 1065.95 555.953 1068.58 555.953Z" fill="white"/>
<path d="M1213.14 46.644C1215.76 46.644 1217.9 44.6269 1217.9 42.1386C1217.9 39.6504 1215.76 37.6333 1213.14 37.6333C1210.51 37.6333 1208.38 39.6504 1208.38 42.1386C1208.38 44.6269 1210.51 46.644 1213.14 46.644Z" fill="white"/>
<path d="M1239.26 198.6C1241.89 198.6 1244.02 196.583 1244.02 194.094C1244.02 191.606 1241.89 189.589 1239.26 189.589C1236.63 189.589 1234.5 191.606 1234.5 194.094C1234.5 196.583 1236.63 198.6 1239.26 198.6Z" fill="white"/>
<path d="M1223.67 469.036C1226.3 469.036 1228.43 467.019 1228.43 464.53C1228.43 462.042 1226.3 460.025 1223.67 460.025C1221.04 460.025 1218.91 462.042 1218.91 464.53C1218.91 467.019 1221.04 469.036 1223.67 469.036Z" fill="white"/>
<path d="M1371.55 9.06069C1374.18 9.06069 1376.31 7.04359 1376.31 4.55537C1376.31 2.06715 1374.18 0.0500488 1371.55 0.0500488C1368.92 0.0500488 1366.79 2.06715 1366.79 4.55537C1366.79 7.04359 1368.92 9.06069 1371.55 9.06069Z" fill="white"/>
<path d="M1377.33 145.121C1379.96 145.121 1382.09 143.104 1382.09 140.616C1382.09 138.128 1379.96 136.111 1377.33 136.111C1374.7 136.111 1372.57 138.128 1372.57 140.616C1372.57 143.104 1374.7 145.121 1377.33 145.121Z" fill="white"/>
<path d="M1398.88 319.54C1401.5 319.54 1403.63 317.523 1403.63 315.035C1403.63 312.547 1401.5 310.53 1398.88 310.53C1396.25 310.53 1394.12 312.547 1394.12 315.035C1394.12 317.523 1396.25 319.54 1398.88 319.54Z" fill="white"/>
<path d="M1405.09 430.164C1407.72 430.164 1409.85 428.147 1409.85 425.659C1409.85 423.17 1407.72 421.153 1405.09 421.153C1402.46 421.153 1400.33 423.17 1400.33 425.659C1400.33 428.147 1402.46 430.164 1405.09 430.164Z" fill="white"/>
<defs>
<radialGradient id="paint0_radial_903_495" cx="0" cy="0" r="1" gradientUnits="userSpaceOnUse" gradientTransform="translate(643.819 437.426) scale(23.7945 22.5266)">
<stop offset="0.1" stop-color="white"/>
<stop offset="0.2" stop-color="#F7F9FC" stop-opacity="0.12"/>
<stop offset="1" stop-color="#F7F9FC" stop-opacity="0"/>
</radialGradient>
<radialGradient id="paint1_radial_903_495" cx="0" cy="0" r="1" gradientUnits="userSpaceOnUse" gradientTransform="translate(978.56 311.971) scale(23.7946 22.5266)">
<stop offset="0.1" stop-color="white"/>
<stop offset="0.2" stop-color="#F7F9FC" stop-opacity="0.12"/>
<stop offset="1" stop-color="#F7F9FC" stop-opacity="0"/>
</radialGradient>
<radialGradient id="paint2_radial_903_495" cx="0" cy="0" r="1" gradientUnits="userSpaceOnUse" gradientTransform="translate(1245.52 569.946) scale(23.7945 22.5266)">
<stop offset="0.1" stop-color="white"/>
<stop offset="0.2" stop-color="#F7F9FC" stop-opacity="0.12"/>
<stop offset="1" stop-color="#F7F9FC" stop-opacity="0"/>
</radialGradient>
<radialGradient id="paint3_radial_903_495" cx="0" cy="0" r="1" gradientUnits="userSpaceOnUse" gradientTransform="translate(1368.26 558.791) scale(23.7945 22.5266)">
<stop offset="0.1" stop-color="white"/>
<stop offset="0.2" stop-color="#F7F9FC" stop-opacity="0.12"/>
<stop offset="1" stop-color="#F7F9FC" stop-opacity="0"/>
</radialGradient>
</defs>
</svg>
