<svg width="25" height="25" viewBox="0 0 25 25" fill="none" xmlns="http://www.w3.org/2000/svg">
<g clip-path="url(#clip0_105_68)">
<path d="M4.81132 16.6678C5.06271 16.8174 5.27856 17.0121 5.45081 17.2371H8.70598V14.0806L7.16247 13.1236C6.8187 12.9105 6.7128 12.459 6.92592 12.1153C7.13908 11.7716 7.59036 11.6657 7.93427 11.8787L9.43833 12.8112L10.7493 11.9984C8.13445 8.41283 8.73498 3.33221 12.2157 0.464604C6.48221 -1.45611 0.467784 2.8135 0.440638 8.94559C0.426479 12.1976 2.15781 15.0882 4.81132 16.6678Z" fill="currentColor"/>
<path d="M5.90881 18.7017H12.8418V20.3617H5.90881V18.7017Z" fill="currentColor"/>
<path d="M10.1707 14.0807V17.2372H13.2899C13.4556 17.0186 13.6622 16.8313 13.9027 16.6897C14.5683 16.2979 15.1794 15.8201 15.721 15.2731C14.1911 14.9286 12.8172 14.1678 11.7247 13.1165C11.6831 13.1435 11.3828 13.3292 10.1707 14.0807Z" fill="currentColor"/>
<path d="M17.5777 0.00244141C13.7374 0.00244141 10.5959 3.17582 10.5959 7.03303C10.5959 10.6612 13.3811 13.6656 16.9522 13.9862C21.085 14.3554 24.5595 11.0794 24.5595 7.03303C24.5595 3.18329 21.4275 0.00244141 17.5777 0.00244141ZM18.311 10.2073V10.3604C18.311 10.7649 17.9831 11.0928 17.5787 11.0928C17.1742 11.0928 16.8463 10.7649 16.8463 10.3604V10.2901C16.5089 10.231 16.2006 10.1047 15.8112 9.8499C15.4727 9.62849 15.3778 9.17462 15.5992 8.83613C15.8207 8.49759 16.2746 8.40277 16.613 8.62414C16.97 8.85771 17.0857 8.87592 17.5737 8.87255C18.0449 8.86943 18.2326 8.49959 18.2693 8.28159C18.3022 8.08586 18.2652 7.82563 17.9022 7.69737C17.2942 7.4824 16.6707 7.23574 16.229 6.88929C15.2232 6.1004 15.5268 4.29857 16.8464 3.81907V3.71303C16.8464 3.30857 17.1743 2.98068 17.5787 2.98068C17.9832 2.98068 18.3111 3.30857 18.3111 3.71303V3.75365C18.6719 3.8555 18.9625 4.03971 19.1622 4.24272C19.4458 4.53107 19.4419 4.99474 19.1535 5.27836C18.8653 5.56183 18.402 5.55807 18.1184 5.27021C18.0775 5.23032 17.8519 5.0422 17.3635 5.18931C17.1685 5.24804 17.1161 5.45027 17.1047 5.51086C17.0808 5.63731 17.1148 5.72256 17.1329 5.73681C17.4092 5.95349 17.9236 6.15137 18.3904 6.3164C20.3206 6.99866 20.0855 9.56585 18.311 10.2073Z" fill="currentColor"/>
<path d="M7.08057 22.7052C7.08057 23.9705 8.10996 24.9999 9.37527 24.9999C10.6406 24.9999 11.67 23.9705 11.67 22.7052V21.8264H7.08057V22.7052Z" fill="currentColor"/>
</g>
<defs>
<clipPath id="clip0_105_68">
<rect width="25" height="25" fill="white"/>
</clipPath>
</defs>
</svg>
