<svg width="60" height="60" viewBox="0 0 60 60" fill="none" xmlns="http://www.w3.org/2000/svg">
<rect width="60" height="60" rx="20" fill="#E7EDFF"/>
<path d="M37.5312 27.1797H35.7716V23.1646C35.7716 20.3168 33.406 18 30.4982 18C27.5904 18 25.2248 20.3168 25.2248 23.1646V27.1797H23.4688C21.8533 27.1797 20.5391 28.4939 20.5391 30.1094V40.0703C20.5391 41.6857 21.8533 43 23.4688 43H37.5312C39.1467 43 40.4609 41.6857 40.4609 40.0703V30.1094C40.4609 28.4939 39.1467 27.1797 37.5312 27.1797ZM27.1779 23.1646C27.1779 21.3937 28.6674 19.9531 30.4982 19.9531C32.329 19.9531 33.8185 21.3937 33.8185 23.1646V27.1797H27.1779V23.1646ZM38.5078 40.0703C38.5078 40.6088 38.0697 41.0469 37.5312 41.0469H23.4688C22.9303 41.0469 22.4922 40.6088 22.4922 40.0703V30.1094C22.4922 29.5709 22.9303 29.1328 23.4688 29.1328H37.5312C38.0697 29.1328 38.5078 29.5709 38.5078 30.1094V40.0703Z" fill="#396AFF"/>
<path d="M30.5 31.9648C29.5022 31.9648 28.6934 32.7737 28.6934 33.7715C28.6934 34.4086 29.0234 34.9683 29.5216 35.2899V37.4336C29.5216 37.9729 29.9588 38.4102 30.4982 38.4102C31.0375 38.4102 31.4748 37.9729 31.4748 37.4336V35.2922C31.975 34.9709 32.3066 34.4102 32.3066 33.7715C32.3066 32.7737 31.4978 31.9648 30.5 31.9648Z" fill="#396AFF"/>
</svg>
