<svg width="45" height="45" viewBox="0 0 45 45" fill="none" xmlns="http://www.w3.org/2000/svg">
<rect width="45" height="45" rx="15" fill="#DCFAF8"/>
<g clip-path="url(#clip0_0_1)">
<path d="M30.6553 26.3559C30.1178 27.8128 29.3048 29.0796 28.2387 30.1207C27.0251 31.3057 25.4361 32.2473 23.5156 32.919C23.4526 32.941 23.3868 32.959 23.3207 32.9722C23.2335 32.9895 23.1447 32.9988 23.0566 33H23.0394C22.9455 33 22.8512 32.9905 22.7577 32.9722C22.6916 32.959 22.6268 32.941 22.5641 32.9194C20.6413 32.2488 19.0503 31.3077 17.8355 30.1227C16.7689 29.0815 15.9561 27.8155 15.4193 26.3586C14.4432 23.7097 14.4987 20.7916 14.5434 18.4466L14.5442 18.4106C14.5532 18.217 14.559 18.0136 14.5622 17.789C14.5785 16.6862 15.4553 15.7739 16.5582 15.7124C18.8577 15.5841 20.6366 14.8341 22.1565 13.3526L22.1698 13.3404C22.4222 13.1089 22.7401 12.9954 23.0566 13.0001C23.3618 13.0041 23.6657 13.1175 23.9091 13.3404L23.9221 13.3526C25.4423 14.8341 27.2212 15.5841 29.5207 15.7124C30.6236 15.7739 31.5004 16.6862 31.5167 17.789C31.5199 18.0151 31.5257 18.2182 31.5347 18.4106L31.5352 18.4259C31.5797 20.7753 31.635 23.6992 30.6553 26.3559Z" fill="#16DBCC"/>
<path d="M30.6554 26.3557C30.1178 27.8126 29.3048 29.0794 28.2387 30.1205C27.0251 31.3055 25.4361 32.2471 23.5156 32.9188C23.4526 32.9408 23.3868 32.9588 23.3208 32.9721C23.2335 32.9893 23.1447 32.9986 23.0566 32.9999V13C23.3618 13.004 23.6658 13.1173 23.9091 13.3403L23.9221 13.3525C25.4424 14.834 27.2212 15.5839 29.5207 15.7123C30.6236 15.7737 31.5004 16.6861 31.5167 17.7888C31.5199 18.015 31.5257 18.2181 31.5347 18.4105L31.5352 18.4257C31.5797 20.7751 31.635 23.699 30.6554 26.3557Z" fill="#16DBCC"/>
<path d="M28.0237 23.0001C28.0237 25.7425 25.797 27.9749 23.0568 27.9847H23.0393C20.291 27.9847 18.0547 25.7485 18.0547 23.0001C18.0547 20.2518 20.291 18.0156 23.0393 18.0156H23.0568C25.797 18.0254 28.0237 20.2578 28.0237 23.0001Z" fill="white"/>
<path d="M26.1015 22.1975L23.0762 24.8814L22.4225 25.4613C22.2681 25.5983 22.0655 25.6667 21.8632 25.6667C21.6606 25.6667 21.4583 25.5983 21.3037 25.4613L19.8982 24.214C19.5893 23.94 19.5893 23.4962 19.8982 23.2221C20.2066 22.9481 20.7075 22.9481 21.0164 23.2221L21.8632 23.9732L24.9833 21.2056C25.2921 20.9315 25.7931 20.9315 26.1015 21.2056C26.4104 21.4796 26.4104 21.9239 26.1015 22.1975Z" fill="#16DBCC"/>
</g>
<defs>
<clipPath id="clip0_0_1">
<rect width="20" height="20" fill="white" transform="translate(13 13)"/>
</clipPath>
</defs>
</svg>
