<svg width="40" height="40" viewBox="0 0 40 40" fill="none" xmlns="http://www.w3.org/2000/svg">
<circle cx="20" cy="20" r="20" fill="#F5F7FA"/>
<g clip-path="url(#clip0_147_127)">
<path d="M19.2382 29C17.6881 29 16.4257 27.7385 16.4257 26.1875C16.4257 25.877 16.6777 25.625 16.9882 25.625C17.2987 25.625 17.5507 25.877 17.5507 26.1875C17.5507 27.1183 18.3082 27.875 19.2382 27.875C20.1682 27.875 20.9257 27.1183 20.9257 26.1875C20.9257 25.877 21.1777 25.625 21.4882 25.625C21.7987 25.625 22.0507 25.877 22.0507 26.1875C22.0507 27.7385 20.7885 29 19.2382 29Z" fill="#FE5C73"/>
<path d="M25.4257 26.75H13.0507C12.327 26.75 11.7383 26.1613 11.7383 25.4375C11.7383 25.0534 11.9055 24.6898 12.1972 24.44C12.216 24.4235 12.2362 24.4085 12.2572 24.3949C13.3582 23.4342 13.9883 22.052 13.9883 20.5924V18.5C13.9883 15.6051 16.344 13.25 19.2382 13.25C19.3583 13.25 19.488 13.2522 19.6081 13.2725C19.9147 13.3235 20.1218 13.6138 20.0707 13.9198C20.0198 14.2257 19.7242 14.4328 19.4235 14.3817C19.3635 14.372 19.2976 14.375 19.2382 14.375C16.9643 14.375 15.1133 16.2252 15.1133 18.5V20.5924C15.1133 22.4045 14.319 24.119 12.9361 25.2957C12.9248 25.3047 12.9151 25.313 12.903 25.3212C12.8828 25.3468 12.8633 25.3858 12.8633 25.4375C12.8633 25.5394 12.9488 25.625 13.0507 25.625H25.4257C25.5278 25.625 25.6133 25.5394 25.6133 25.4375C25.6133 25.3849 25.5938 25.3468 25.5728 25.3212C25.5616 25.313 25.5518 25.3047 25.5405 25.2957C24.1568 24.1182 23.3633 22.4045 23.3633 20.5924V19.7751C23.3633 19.4646 23.6153 19.2126 23.9258 19.2126C24.2363 19.2126 24.4883 19.4646 24.4883 19.7751V20.5924C24.4883 22.0528 25.1191 23.4357 26.2216 24.3973C26.2417 24.4107 26.2612 24.425 26.2792 24.4408C26.5711 24.6898 26.7383 25.0534 26.7383 25.4375C26.7383 26.1613 26.1496 26.75 25.4257 26.75Z" fill="#FE5C73"/>
<path d="M24.4883 18.5C22.4206 18.5 20.7383 16.8178 20.7383 14.75C20.7383 12.6823 22.4206 11 24.4883 11C26.5561 11 28.2382 12.6823 28.2382 14.75C28.2382 16.8178 26.5561 18.5 24.4883 18.5ZM24.4883 12.125C23.0407 12.125 21.8633 13.3025 21.8633 14.75C21.8633 16.1975 23.0407 17.375 24.4883 17.375C25.9358 17.375 27.1132 16.1975 27.1132 14.75C27.1132 13.3025 25.9358 12.125 24.4883 12.125Z" fill="#FE5C73"/>
</g>
<defs>
<clipPath id="clip0_147_127">
<rect width="18" height="18" fill="white" transform="translate(11 11)"/>
</clipPath>
</defs>
</svg>
