<svg width="40" height="40" viewBox="0 0 40 40" fill="none" xmlns="http://www.w3.org/2000/svg">
<circle cx="20" cy="20" r="20" fill="#F5F7FA"/>
<g clip-path="url(#clip0_147_126)">
<path d="M20.5648 29H19.4351C18.5215 29 17.7781 28.2567 17.7781 27.343V26.9608C17.3896 26.8367 17.0122 26.68 16.6497 26.4924L16.3788 26.7633C15.7229 27.42 14.6721 27.4008 14.0351 26.763L13.2367 25.9646C12.5987 25.3273 12.5803 24.2768 13.2369 23.6209L13.5076 23.3503C13.3199 22.9877 13.1633 22.6104 13.0392 22.2219H12.657C11.7434 22.2219 11 21.4785 11 20.5649V19.4351C11 18.5215 11.7434 17.7781 12.6571 17.7781H13.0392C13.1633 17.3896 13.32 17.0123 13.5076 16.6497L13.2367 16.3789C12.5805 15.7234 12.5986 14.6728 13.237 14.0352L14.0355 13.2367C14.6739 12.5975 15.7244 12.5815 16.3791 13.237L16.6497 13.5076C17.0123 13.32 17.3897 13.1633 17.7781 13.0392V12.657C17.7781 11.7433 18.5215 11 19.4352 11H20.5649C21.4785 11 22.2219 11.7433 22.2219 12.657V13.0392C22.6103 13.1633 22.9877 13.32 23.3503 13.5076L23.6211 13.2367C24.2771 12.58 25.3279 12.5992 25.9648 13.237L26.7633 14.0354C27.4013 14.6727 27.4197 15.7232 26.763 16.3791L26.4924 16.6497C26.68 17.0123 26.8367 17.3896 26.9608 17.7781H27.3429C28.2566 17.7781 29 18.5215 29 19.4351V20.5649C29 21.4785 28.2566 22.2219 27.3429 22.2219H26.9608C26.8367 22.6104 26.68 22.9877 26.4924 23.3503L26.7633 23.6211C27.4195 24.2767 27.4014 25.3272 26.763 25.9648L25.9645 26.7633C25.3261 27.4026 24.2756 27.4185 23.6209 26.7631L23.3503 26.4925C22.9877 26.6801 22.6103 26.8367 22.2219 26.9609V27.3431C22.2219 28.2567 21.4785 29 20.5648 29ZM16.826 25.3849C17.3297 25.6828 17.8718 25.9078 18.4372 26.0537C18.6701 26.1138 18.8328 26.3238 18.8328 26.5643V27.343C18.8328 27.6751 19.1031 27.9453 19.4352 27.9453H20.5649C20.897 27.9453 21.1672 27.6751 21.1672 27.343V26.5643C21.1672 26.3238 21.3299 26.1138 21.5628 26.0537C22.1283 25.9078 22.6704 25.6828 23.174 25.3849C23.3813 25.2623 23.6451 25.2957 23.8154 25.4659L24.3669 26.0175C24.6047 26.2556 24.9866 26.25 25.2186 26.0177L26.0176 25.2188C26.249 24.9877 26.2567 24.6057 26.0178 24.3671L25.466 23.8153C25.2958 23.6451 25.2624 23.3812 25.385 23.174C25.6828 22.6704 25.9078 22.1283 26.0538 21.5628C26.1139 21.3299 26.3239 21.1672 26.5644 21.1672H27.343C27.6751 21.1672 27.9453 20.897 27.9453 20.5649V19.4352C27.9453 19.1031 27.6751 18.8328 27.343 18.8328H26.5644C26.3239 18.8328 26.1139 18.6701 26.0538 18.4373C25.9078 17.8718 25.6828 17.3297 25.385 16.8261C25.2624 16.6188 25.2958 16.355 25.466 16.1847L26.0176 15.6332C26.256 15.395 26.2498 15.0132 26.0178 14.7815L25.2188 13.9826C24.9873 13.7507 24.6053 13.7439 24.3672 13.9824L23.8154 14.5342C23.6452 14.7044 23.3813 14.7377 23.1741 14.6152C22.6704 14.3173 22.1283 14.0923 21.5628 13.9463C21.33 13.8863 21.1673 13.6762 21.1673 13.4357V12.657C21.1673 12.3249 20.897 12.0547 20.5649 12.0547H19.4352C19.1031 12.0547 18.8328 12.3249 18.8328 12.657V13.4357C18.8328 13.6762 18.6701 13.8862 18.4373 13.9463C17.8718 14.0922 17.3297 14.3172 16.826 14.6151C16.6187 14.7376 16.3549 14.7043 16.1847 14.5341L15.6331 13.9825C15.3953 13.7444 15.0134 13.75 14.7815 13.9823L13.9825 14.7812C13.7511 15.0123 13.7434 15.3942 13.9823 15.6329L14.5341 16.1847C14.7043 16.3549 14.7376 16.6188 14.6151 16.826C14.3172 17.3296 14.0922 17.8717 13.9463 18.4372C13.8862 18.6701 13.6762 18.8328 13.4357 18.8328H12.6571C12.3249 18.8328 12.0547 19.103 12.0547 19.4351V20.5649C12.0547 20.897 12.3249 21.1672 12.6571 21.1672H13.4357C13.6762 21.1672 13.8862 21.3299 13.9463 21.5627C14.0922 22.1282 14.3172 22.6703 14.6151 23.174C14.7376 23.3812 14.7043 23.6451 14.534 23.8153L13.9825 24.3669C13.7441 24.605 13.7503 24.9868 13.9823 25.2185L14.7812 26.0174C15.0128 26.2493 15.3947 26.2561 15.6329 26.0177L16.1846 25.4659C16.31 25.3405 16.571 25.2341 16.826 25.3849Z" fill="#718EBF"/>
<path d="M20 23.9163C17.8405 23.9163 16.0836 22.1594 16.0836 19.9999C16.0836 17.8404 17.8405 16.0835 20 16.0835C22.1595 16.0835 23.9164 17.8404 23.9164 19.9999C23.9164 22.1594 22.1595 23.9163 20 23.9163ZM20 17.1382C18.422 17.1382 17.1383 18.4219 17.1383 19.9999C17.1383 21.5779 18.422 22.8616 20 22.8616C21.578 22.8616 22.8617 21.5779 22.8617 19.9999C22.8617 18.4219 21.578 17.1382 20 17.1382Z" fill="#718EBF"/>
</g>
<defs>
<clipPath id="clip0_147_126">
<rect width="18" height="18" fill="white" transform="translate(11 11)"/>
</clipPath>
</defs>
</svg>
