<svg width="30" height="30" viewBox="0 0 30 30" fill="none" xmlns="http://www.w3.org/2000/svg">
<path d="M25.969 25.9125L24.3697 8.35312C24.3265 7.86937 23.9215 7.5 23.4359 7.5H20.6234V5.625C20.6234 4.1175 20.0384 2.70375 18.979 1.64437C17.9365 0.6 16.4853 0 14.9984 0C11.8972 0 9.37341 2.52375 9.37341 5.625V7.5H6.56091C6.07528 7.5 5.67028 7.86937 5.62716 8.35312L4.03153 25.9106C3.93591 26.9587 4.28841 28.0031 4.99716 28.7794C5.70591 29.5556 6.71465 30 7.76653 30H22.2322C23.2822 30 24.2909 29.5556 24.9997 28.7812C25.7103 28.005 26.0609 26.9587 25.969 25.9125ZM18.7484 7.5H11.2484V5.625C11.2484 3.55687 12.9303 1.875 14.9984 1.875C15.9922 1.875 16.9597 2.2725 17.6534 2.96812C18.3603 3.675 18.7484 4.61812 18.7484 5.625V7.5Z" fill="#FFBB38"/>
</svg>
