<svg width="50" height="50" viewBox="0 0 50 50" fill="none" xmlns="http://www.w3.org/2000/svg">
<circle cx="25" cy="25" r="25" fill="#F5F7FA"/>
<path d="M24.442 37C22.289 37 20.5358 35.2479 20.5358 33.0938C20.5358 32.6625 20.8858 32.3125 21.317 32.3125C21.7483 32.3125 22.0983 32.6625 22.0983 33.0938C22.0983 34.3866 23.1504 35.4375 24.442 35.4375C25.7337 35.4375 26.7858 34.3866 26.7858 33.0938C26.7858 32.6625 27.1358 32.3125 27.567 32.3125C27.9983 32.3125 28.3483 32.6625 28.3483 33.0938C28.3483 35.2479 26.5952 37 24.442 37Z" fill="#FE5C73"/>
<path d="M33.0357 33.875H15.8482C14.8431 33.875 14.0254 33.0573 14.0254 32.0521C14.0254 31.5187 14.2577 31.0136 14.6628 30.6666C14.689 30.6438 14.717 30.623 14.7462 30.6041C16.2753 29.2697 17.1504 27.35 17.1504 25.3228V22.4166C17.1504 18.3959 20.4223 15.125 24.442 15.125C24.6087 15.125 24.7889 15.1281 24.9556 15.1563C25.3816 15.227 25.6692 15.6303 25.5982 16.0552C25.5275 16.4802 25.117 16.7678 24.6993 16.6968C24.6159 16.6833 24.5244 16.6875 24.442 16.6875C21.2838 16.6875 18.7129 19.2573 18.7129 22.4166V25.3228C18.7129 27.8396 17.6097 30.2209 15.689 31.8551C15.6733 31.8677 15.6598 31.8792 15.643 31.8906C15.615 31.9261 15.5879 31.9802 15.5879 32.0521C15.5879 32.1937 15.7067 32.3125 15.8482 32.3125H33.0357C33.1775 32.3125 33.2963 32.1937 33.2963 32.0521C33.2963 31.9791 33.2692 31.9261 33.24 31.8906C33.2244 31.8792 33.2108 31.8677 33.1952 31.8551C31.2734 30.2198 30.1713 27.8396 30.1713 25.3228V24.1876C30.1713 23.7563 30.5213 23.4063 30.9525 23.4063C31.3838 23.4063 31.7338 23.7563 31.7338 24.1876V25.3228C31.7338 27.3511 32.6098 29.2718 34.1411 30.6073C34.1691 30.626 34.1962 30.6459 34.2212 30.6678C34.6265 31.0136 34.8588 31.5187 34.8588 32.0521C34.8588 33.0573 34.0411 33.875 33.0357 33.875Z" fill="#FE5C73"/>
<path d="M31.7338 22.4166C28.8619 22.4166 26.5254 20.0803 26.5254 17.2084C26.5254 14.3365 28.8619 12 31.7338 12C34.6057 12 36.942 14.3365 36.942 17.2084C36.942 20.0803 34.6057 22.4166 31.7338 22.4166ZM31.7338 13.5625C29.7233 13.5625 28.0879 15.1979 28.0879 17.2084C28.0879 19.2187 29.7233 20.8541 31.7338 20.8541C33.7441 20.8541 35.3795 19.2187 35.3795 17.2084C35.3795 15.1979 33.7441 13.5625 31.7338 13.5625Z" fill="#FE5C73"/>
</svg>
