<svg width="70" height="70" viewBox="0 0 70 70" fill="none" xmlns="http://www.w3.org/2000/svg">
<circle cx="35" cy="35" r="35" fill="#DCFAF8"/>
<g clip-path="url(#clip0_104_47)">
<path d="M49.977 25.2238C49.8494 23.7738 48.0891 23.1281 47.0587 24.1587L45.5869 25.6305C45.2578 25.9595 44.7175 25.9649 44.3825 25.6424C44.0348 25.3078 44.0529 24.7313 44.3946 24.3896L45.8422 22.942C46.8716 21.9125 46.2287 20.1516 44.7774 20.0238C40.833 19.6769 37.7043 23.3453 38.7504 27.2352L20.8322 45.1534C19.7227 46.2629 19.7225 48.0589 20.8322 49.1686C21.9392 50.2755 23.7403 50.2756 24.8474 49.1686L42.7609 31.255C46.6044 32.3 50.3275 29.2042 49.977 25.2238Z" fill="#16DBCC"/>
<path d="M21.875 26.8825C21.917 26.9654 21.9718 27.0411 22.0375 27.1067L24.581 29.6501C24.9242 29.9934 25.4807 29.9933 25.8238 29.6501L27.1173 28.3567L29.5875 30.8269L26.9466 33.4677C26.2623 34.1532 26.2629 35.2682 26.9472 35.9531L27.2244 36.2303L36.238 27.2172L35.9609 26.94C35.273 26.2534 34.1631 26.2524 33.4743 26.94L30.8304 29.5839L28.3602 27.1137L29.6537 25.8203C29.9969 25.4771 29.9969 24.9205 29.6537 24.5774L27.1103 22.0339C27.0439 21.9675 26.9672 21.9122 26.8833 21.87L23.6324 20.2369C23.2938 20.0668 22.8844 20.1328 22.6164 20.4008L20.3951 22.622C20.1264 22.8907 20.0609 23.3017 20.2326 23.6407L21.875 26.8825Z" fill="#16DBCC"/>
<path d="M41.3823 35.1199L35.126 41.3762L42.311 48.563C44.0394 50.2914 46.8378 50.292 48.5667 48.563C50.2917 46.8381 50.2917 44.0316 48.5667 42.3072L41.3823 35.1199ZM46.5307 46.5252C46.1897 46.8674 45.6318 46.869 45.288 46.5252L40.2996 41.5368C39.9562 41.1934 39.9562 40.6368 40.2996 40.2941C40.6429 39.9507 41.1995 39.9507 41.5423 40.2941L46.5307 45.2825C46.874 45.6259 46.874 46.1818 46.5307 46.5252Z" fill="#16DBCC"/>
</g>
<defs>
<clipPath id="clip0_104_47">
<rect width="30" height="30" fill="white" transform="translate(20 20)"/>
</clipPath>
</defs>
</svg>
