<svg width="70" height="70" viewBox="0 0 70 70" fill="none" xmlns="http://www.w3.org/2000/svg">
<circle cx="35" cy="35" r="35" fill="#E7EDFF"/>
<g clip-path="url(#clip0_104_50)">
<path d="M34.7861 34.4511C36.7714 34.4511 38.4905 33.739 39.8952 32.3342C41.2998 30.9295 42.0118 29.2109 42.0118 27.2253C42.0118 25.2405 41.2998 23.5216 39.8949 22.1165C38.4901 20.712 36.7712 20 34.7861 20C32.8005 20 31.0819 20.712 29.6772 22.1167C28.2726 23.5213 27.5603 25.2402 27.5603 27.2253C27.5603 29.2109 28.2726 30.9298 29.6775 32.3344C31.0823 33.7388 32.8012 34.4511 34.7861 34.4511Z" fill="#396AFF"/>
<path d="M47.4293 43.0685C47.3888 42.484 47.3069 41.8463 47.1863 41.1729C47.0645 40.4945 46.9077 39.8532 46.72 39.267C46.5262 38.6612 46.2625 38.0629 45.9366 37.4896C45.5983 36.8945 45.2009 36.3763 44.7551 35.9499C44.2889 35.5038 43.718 35.1451 43.0579 34.8835C42.4001 34.6233 41.6711 34.4914 40.8913 34.4914C40.5851 34.4914 40.2889 34.6171 39.717 34.9895C39.3649 35.2191 38.9532 35.4846 38.4936 35.7782C38.1006 36.0286 37.5682 36.2632 36.9106 36.4756C36.2691 36.6832 35.6177 36.7885 34.9748 36.7885C34.3318 36.7885 33.6807 36.6832 33.0384 36.4756C32.3816 36.2634 31.8492 36.0288 31.4566 35.7784C31.0014 35.4875 30.5894 35.222 30.2321 34.9893C29.6608 34.6169 29.3644 34.4912 29.0582 34.4912C28.2782 34.4912 27.5494 34.6233 26.8918 34.8837C26.2322 35.1449 25.6612 35.5036 25.1945 35.9501C24.7488 36.3767 24.3513 36.8947 24.0134 37.4896C23.6877 38.0629 23.4241 38.661 23.23 39.2673C23.0425 39.8534 22.8857 40.4945 22.764 41.1729C22.6434 41.8454 22.5614 42.4833 22.5209 43.0692C22.4811 43.6432 22.4609 44.239 22.4609 44.8407C22.4609 46.4067 22.9588 47.6745 23.9404 48.6095C24.91 49.5321 26.1928 50.0002 27.7529 50.0002H42.198C43.7581 50.0002 45.0405 49.5323 46.0103 48.6095C46.9922 47.6752 47.49 46.4072 47.49 44.8405C47.4898 44.236 47.4694 43.6398 47.4293 43.0685Z" fill="#396AFF"/>
</g>
<defs>
<clipPath id="clip0_104_50">
<rect width="29.9999" height="30" fill="white" transform="translate(20 20)"/>
</clipPath>
</defs>
</svg>
