<svg width="70" height="70" viewBox="0 0 70 70" fill="none" xmlns="http://www.w3.org/2000/svg">
<circle cx="35" cy="35" r="35" fill="#FFF5D9"/>
<g clip-path="url(#clip0_104_41)">
<path d="M47.5 26.2501H41.25V25C41.25 23.6213 40.1288 22.5 38.75 22.5H31.25C29.8712 22.5 28.75 23.6212 28.75 25V26.25H22.5C21.1212 26.2501 20 27.3713 20 28.75V32.5C20 33.8789 21.1212 35.0001 22.5 35.0001H32.5V34.375C32.5 34.0296 32.7796 33.75 33.1251 33.75H36.8751C37.2205 33.75 37.5001 34.0296 37.5001 34.375V35.0001H47.5001C48.8788 35.0001 50 33.8789 50 32.5V28.75C50 27.3713 48.8788 26.2501 47.5 26.2501ZM38.75 26.2501H31.25V25H38.75V26.2501Z" fill="#FFBB38"/>
<path d="M49.6533 35.6744C49.4403 35.5688 49.1858 35.5933 48.9978 35.736C48.5534 36.0724 48.0358 36.25 47.4999 36.25H37.5V38.125C37.5 38.4704 37.2205 38.75 36.875 38.75H33.125C32.7795 38.75 32.5 38.4704 32.5 38.125V36.25H22.5C21.9641 36.25 21.4466 36.0724 21.0022 35.736C20.8136 35.592 20.5597 35.5676 20.3466 35.6744C20.1343 35.78 20 35.9967 20 36.2342V45C20 46.3788 21.1212 47.5 22.5 47.5H47.5C48.8788 47.5 50.0001 46.3789 50.0001 45V36.2342C50 35.9967 49.8657 35.78 49.6533 35.6744Z" fill="#FFBB38"/>
</g>
<defs>
<clipPath id="clip0_104_41">
<rect width="30" height="30" fill="white" transform="translate(20 20)"/>
</clipPath>
</defs>
</svg>
