<svg width="30" height="30" viewBox="0 0 30 30" fill="none" xmlns="http://www.w3.org/2000/svg">
<g clip-path="url(#clip0_112_1079)">
<path d="M27.3171 4.09262C23.4209 4.09262 20.4389 3.11615 18.6234 2.29698C16.6498 1.40649 15.5856 0.502868 15.5767 0.495302L15.0018 0L14.426 0.493836C14.4155 0.502868 13.3512 1.40655 11.3776 2.29698C9.56217 3.11615 6.58016 4.09262 2.68395 4.09262H1.8042V16.169L15.0005 29.9999L28.1969 16.1812V4.09262H27.3171ZM24.6778 12.3075C24.6778 13.6718 24.1477 14.9545 23.1849 15.9206L15.0005 24.4225L6.81616 15.9205C5.8533 14.9545 5.32322 13.6717 5.32322 12.3075V11.8501C5.32322 9.02793 7.61926 6.73183 10.4415 6.73183C11.7081 6.73183 12.9241 7.19845 13.8655 8.04571L14.9686 9.03854L15.7762 8.23093C16.743 7.2642 18.0283 6.73177 19.3954 6.73177H19.5595C22.3817 6.73177 24.6778 9.02781 24.6778 11.8501V12.3075H24.6778Z" fill="#396AFF"/>
<path d="M19.5593 8.49151H19.3953C18.4982 8.49151 17.6547 8.84089 17.0202 9.47526L15.0322 11.4633L12.6883 9.35367C12.0704 8.79767 11.2725 8.49146 10.4413 8.49146C8.58925 8.49146 7.08252 9.99818 7.08252 11.8502V12.3076C7.08252 13.2048 7.4319 14.0483 8.06626 14.6826L8.07799 14.6945L15.0003 21.8855L21.9343 14.6826C22.5687 14.0482 22.9181 13.2047 22.9181 12.3075V11.8502C22.9181 9.9983 21.4113 8.49151 19.5593 8.49151ZM17.6396 16.4093H15.8801V18.1688H14.1206V16.4093H12.3611V14.6498H14.1206V12.8903H15.8801V14.6498H17.6396V16.4093Z" fill="#396AFF"/>
</g>
<defs>
<clipPath id="clip0_112_1079">
<rect width="30" height="30" fill="white"/>
</clipPath>
</defs>
</svg>
