<svg width="60" height="60" viewBox="0 0 60 60" fill="none" xmlns="http://www.w3.org/2000/svg">
<rect width="60" height="60" rx="20" fill="#FFE0EB"/>
<g clip-path="url(#clip0_112_1199)">
<path d="M32.4926 33.3372C36.6876 33.3372 40.1004 29.8971 40.1004 25.6686C40.1004 21.4402 36.6876 18 32.4926 18C28.2976 18 24.8848 21.4401 24.8848 25.6686C24.8848 29.897 28.2976 33.3372 32.4926 33.3372ZM30.048 28.0616C30.2693 27.7233 30.7229 27.6283 31.0612 27.8497C31.5542 28.1722 31.7401 28.2019 32.3905 28.1973C33.0254 28.1931 33.3938 27.7199 33.4674 27.282C33.5032 27.069 33.5169 26.5489 32.8723 26.321C32.1162 26.0536 31.3423 25.7481 30.8039 25.3259C30.2656 24.9036 30.0191 24.1746 30.1606 23.4236C30.3141 22.6094 30.8821 21.9612 31.6429 21.7321C31.6498 21.73 31.6566 21.7283 31.6634 21.7263V21.4488C31.6634 21.0446 31.9912 20.7168 32.3954 20.7168C32.7997 20.7168 33.1274 21.0446 33.1274 21.4488V21.6802C33.6246 21.7989 33.9718 22.0263 34.1128 22.1317C34.4365 22.3738 34.5028 22.8324 34.2608 23.1563C34.0187 23.4801 33.5601 23.5464 33.2362 23.3042C33.0862 23.1921 32.6717 22.951 32.0652 23.1338C31.7108 23.2405 31.6189 23.5901 31.5992 23.6947C31.5605 23.9002 31.604 24.0928 31.7074 24.1739C32.0806 24.4666 32.7523 24.7258 33.3602 24.9406C34.4811 25.3368 35.1043 26.3753 34.9111 27.5247C34.8163 28.0887 34.5326 28.6119 34.1122 28.9981C33.8258 29.2613 33.4925 29.4488 33.1274 29.556V29.8883C33.1274 30.2926 32.7997 30.6203 32.3954 30.6203C31.9912 30.6203 31.6634 30.2926 31.6634 29.8883V29.629C31.1901 29.5716 30.7928 29.4236 30.2597 29.0748C29.9215 28.8535 29.8266 28.3999 30.048 28.0616Z" fill="#FF82AC"/>
<path d="M20.7745 35.7966H19.1055C18.7013 35.7966 18.3735 36.1244 18.3735 36.5286V42.2669C18.3735 42.6711 18.7013 42.9989 19.1055 42.9989H20.7746V35.7966H20.7745Z" fill="#FF82AC"/>
<path d="M42.4118 35.7455C41.0399 34.3736 38.8075 34.3735 37.4356 35.7455L35.2428 37.9382L34.3441 38.837C33.9809 39.2002 33.4882 39.4043 32.9746 39.4043H28.6044C28.2097 39.4043 27.8701 39.1009 27.8515 38.7067C27.8317 38.2857 28.1671 37.9382 28.5837 37.9382H33.0257C33.9188 37.9382 34.6934 37.3024 34.8469 36.4226C34.8822 36.2206 34.9006 36.0128 34.9006 35.8008C34.9007 35.3959 34.5725 35.0672 34.1676 35.0672H31.7337C30.9382 35.0672 30.1744 34.7064 29.3656 34.3243C28.5174 33.9236 27.6402 33.5093 26.6146 33.4411C25.7176 33.3813 24.8185 33.4795 23.9422 33.7325C23.004 34.0035 22.3295 34.8371 22.2477 35.7995C22.2446 35.7992 22.2415 35.7992 22.2383 35.799V42.9964L34.8493 42.9999C35.7163 42.9999 36.5316 42.6622 37.1448 42.049L42.4117 36.7821C42.6981 36.496 42.6981 36.0318 42.4118 35.7455Z" fill="#FF82AC"/>
</g>
<defs>
<clipPath id="clip0_112_1199">
<rect width="25" height="25" fill="white" transform="translate(18 18)"/>
</clipPath>
</defs>
</svg>
