<svg width="17" height="20" viewBox="0 0 17 20" fill="none" xmlns="http://www.w3.org/2000/svg">
<path d="M16.4933 15.5861C16.1909 16.2848 15.8328 16.928 15.4181 17.5194C14.8526 18.3255 14.3897 18.8835 14.0329 19.1934C13.4798 19.702 12.8873 19.9625 12.2527 19.9773C11.7972 19.9773 11.2478 19.8477 10.6083 19.5847C9.96673 19.323 9.37712 19.1934 8.83801 19.1934C8.27259 19.1934 7.66617 19.323 7.01757 19.5847C6.36795 19.8477 5.84464 19.9847 5.44452 19.9983C4.83603 20.0242 4.22951 19.7563 3.6241 19.1934C3.23767 18.8563 2.75437 18.2786 2.17536 17.4601C1.55415 16.586 1.04343 15.5725 0.643313 14.417C0.214808 13.1689 0 11.9603 0 10.7902C0 9.44985 0.289623 8.29383 0.869729 7.3251C1.32564 6.54698 1.93216 5.93316 2.69128 5.48257C3.45038 5.03197 4.27061 4.80233 5.15392 4.78766C5.63724 4.78766 6.27104 4.93716 7.05867 5.23097C7.84408 5.52579 8.34838 5.67528 8.56949 5.67528C8.73479 5.67528 9.29503 5.50046 10.2447 5.15196C11.1429 4.82877 11.9009 4.69492 12.5218 4.74765C14.2045 4.88345 15.4687 5.54676 16.3094 6.74179C14.8045 7.65362 14.06 8.93073 14.0749 10.5691C14.0885 11.8452 14.5514 12.9071 15.4612 13.7503C15.8736 14.1417 16.3341 14.4441 16.8464 14.659C16.7353 14.9812 16.618 15.2898 16.4933 15.5861V15.5861ZM12.6342 0.400119C12.6342 1.40034 12.2688 2.33425 11.5404 3.19868C10.6614 4.22631 9.59823 4.82011 8.4453 4.72641C8.42986 4.60066 8.4221 4.47409 8.42208 4.3474C8.42208 3.38719 8.84009 2.35956 9.58243 1.51934C9.95303 1.09392 10.4244 0.740197 10.996 0.45802C11.5663 0.180054 12.1058 0.0263309 12.6132 0C12.628 0.13371 12.6342 0.267436 12.6342 0.400102V0.400119Z" fill="#FF82AC"/>
</svg>
