<svg width="39" height="39" viewBox="0 0 39 39" fill="none" xmlns="http://www.w3.org/2000/svg">
<circle cx="19.3182" cy="19.5911" r="19.3182" fill="#1814F3"/>
<g clip-path="url(#clip0_199_534)">
<path d="M28.8532 16.2386L27.1834 17.9084C27.0132 18.0787 26.7379 18.0787 26.5676 17.9084L22.547 13.8878C22.3768 13.7176 22.3768 13.4423 22.547 13.2721L24.2168 11.6022C24.8942 10.9249 25.9953 10.9249 26.6763 11.6022L28.8532 13.7792C29.5342 14.4565 29.5342 15.5576 28.8532 16.2386ZM21.1127 14.7064L11.6009 24.2182L10.833 28.6192C10.7279 29.2132 11.2459 29.7275 11.8399 29.6261L16.2408 28.8546L25.7526 19.3428C25.9229 19.1726 25.9229 18.8973 25.7526 18.727L21.732 14.7064C21.5582 14.5362 21.2829 14.5362 21.1127 14.7064ZM15.3136 23.4032C15.1144 23.204 15.1144 22.8853 15.3136 22.6861L20.8917 17.1079C21.0909 16.9087 21.4097 16.9087 21.6089 17.1079C21.8081 17.3071 21.8081 17.6259 21.6089 17.8251L16.0308 23.4032C15.8315 23.6025 15.5128 23.6025 15.3136 23.4032ZM14.006 26.4495H15.7446V27.7643L13.4083 28.1736L12.2818 27.0471L12.6911 24.7108H14.006V26.4495Z" fill="white"/>
</g>
<defs>
<clipPath id="clip0_199_534">
<rect width="18.5455" height="18.5455" fill="white" transform="translate(10.8181 11.0908)"/>
</clipPath>
</defs>
</svg>
