<svg width="20" height="20" viewBox="0 0 20 20" fill="none" xmlns="http://www.w3.org/2000/svg">
<path d="M4.16663 18.3334C4.16715 18.7753 4.34291 19.1989 4.65536 19.5113C4.96781 19.8238 5.39143 19.9996 5.83329 20.0001H14.1666C14.6085 19.9996 15.0321 19.8238 15.3446 19.5113C15.657 19.1989 15.8328 18.7753 15.8333 18.3334V17.6042H4.16663V18.3334Z" fill="#B1B1B1"/>
<path d="M15.8333 1.66667C15.8328 1.2248 15.657 0.801181 15.3446 0.488734C15.0321 0.176287 14.6085 0.000523784 14.1666 0L5.83329 0C5.39143 0.000523784 4.96781 0.176287 4.65536 0.488734C4.34291 0.801181 4.16715 1.2248 4.16663 1.66667V2.5H15.8333V1.66667Z" fill="#B1B1B1"/>
<path d="M19.7678 5.36052L17.2678 2.75635L16.0655 3.91051L17.1114 5.0001H15.8333V6.66677H17.2013L16.0901 7.73177L17.2432 8.9351L19.7432 6.53927C19.8223 6.46351 19.8856 6.37291 19.9296 6.27266C19.9737 6.1724 19.9975 6.06445 19.9998 5.95498C20.0021 5.84551 19.9827 5.73667 19.9429 5.63467C19.9031 5.53266 19.8436 5.4395 19.7678 5.36052Z" fill="#B1B1B1"/>
<path d="M13.3333 4.99992H15.8333V3.33325H4.16663V13.3333H6.66663V14.9999H4.16663V16.6666H15.8333V6.66659H13.3333V4.99992ZM12.5 8.33325H9.58329C9.47279 8.33325 9.36681 8.37715 9.28866 8.45529C9.21052 8.53343 9.16663 8.63941 9.16663 8.74992C9.16663 8.86043 9.21052 8.96641 9.28866 9.04455C9.36681 9.12269 9.47279 9.16659 9.58329 9.16659H10.4166C10.9333 9.16607 11.4317 9.35754 11.8151 9.70383C12.1985 10.0501 12.4396 10.5265 12.4915 11.0405C12.5434 11.5546 12.4025 12.0696 12.0961 12.4855C11.7897 12.9015 11.3396 13.1888 10.8333 13.2916V14.1666H9.16663V13.3333H7.49996V11.6666H10.4166C10.5271 11.6666 10.6331 11.6227 10.7113 11.5445C10.7894 11.4664 10.8333 11.3604 10.8333 11.2499C10.8333 11.1394 10.7894 11.0334 10.7113 10.9553C10.6331 10.8772 10.5271 10.8333 10.4166 10.8333H9.58329C9.06665 10.8338 8.56824 10.6423 8.18482 10.296C7.8014 9.94973 7.56034 9.47332 7.50841 8.95929C7.45649 8.44526 7.59742 7.93027 7.90384 7.51431C8.21026 7.09834 8.66031 6.81106 9.16663 6.70825V5.83325H10.8333V6.66659H12.5V8.33325Z" fill="#B1B1B1"/>
<path d="M2.79862 13.3333L3.90987 12.2683L2.75674 11.0649L0.256745 13.4608C0.177692 13.5365 0.114344 13.6271 0.0703209 13.7274C0.0262982 13.8276 0.00246423 13.9356 0.000181182 14.0451C-0.00210186 14.1545 0.0172108 14.2634 0.0570153 14.3654C0.0968199 14.4674 0.156336 14.5605 0.232162 14.6395L2.73216 17.2437L3.93445 16.0895L2.88852 14.9999H4.16664V13.3333H2.79862Z" fill="#B1B1B1"/>
</svg>
