<svg width="20" height="20" viewBox="0 0 20 20" fill="none" xmlns="http://www.w3.org/2000/svg">
<path d="M19.6017 10.2281C19.6026 9.54666 19.545 8.86641 19.4295 8.19482H9.99927V12.0461H15.4005C15.29 12.6612 15.056 13.2475 14.7128 13.7698C14.3695 14.2921 13.9241 14.7394 13.4033 15.0849V17.5848H16.6268C18.5143 15.8446 19.6017 13.271 19.6017 10.2281Z" fill="#4471FF"/>
<path d="M9.99937 19.9999C12.6979 19.9999 14.97 19.1138 16.6269 17.5861L13.4034 15.0862C12.5062 15.6945 11.3507 16.0417 9.99937 16.0417C7.39112 16.0417 5.17731 14.2834 4.38567 11.9141H1.06494V14.4904C1.89723 16.1465 3.17345 17.5388 4.75113 18.5117C6.3288 19.4846 8.14584 19.9998 9.99937 19.9999Z" fill="#4471FF"/>
<path d="M4.38551 11.9142C3.967 10.6726 3.967 9.32812 4.38551 8.08656V5.51025H1.06479C0.364638 6.90348 0 8.44113 0 10.0004C0 11.5596 0.364638 13.0973 1.06479 14.4905L4.38551 11.9142Z" fill="#4471FF"/>
<path d="M9.99937 3.95886C11.4254 3.93556 12.8034 4.47437 13.8354 5.45881L16.6894 2.60474C14.8796 0.904898 12.4821 -0.0283417 9.99937 0.000656072C8.14584 0.000740549 6.3288 0.515993 4.75113 1.48889C3.17345 2.46178 1.89723 3.85403 1.06494 5.5102L4.38567 8.0865C5.17731 5.71713 7.39112 3.95886 9.99937 3.95886Z" fill="#4471FF"/>
</svg>
