<svg width="20" height="20" viewBox="0 0 20 20" fill="none" xmlns="http://www.w3.org/2000/svg">
<g clip-path="url(#clip0_163_357)">
<path d="M18.2112 2.72841C15.6138 2.72841 13.6258 2.07743 12.4154 1.53132C11.0997 0.937663 10.3902 0.335245 10.3843 0.330201L10.001 0L9.61716 0.329224C9.61016 0.335245 8.90061 0.937702 7.58493 1.53132C6.37462 2.07743 4.38661 2.72841 1.78914 2.72841H1.20264V10.7793L10.0002 20L18.7977 10.7874V2.72841H18.2112ZM16.4517 8.20503C16.4517 9.11454 16.0983 9.9697 15.4564 10.6137L10.0002 16.2817L4.54395 10.6137C3.90204 9.96966 3.54865 9.1145 3.54865 8.20499V7.90008C3.54865 6.01862 5.07935 4.48788 6.96085 4.48788C7.80522 4.48788 8.61588 4.79897 9.24348 5.36381L9.97892 6.0257L10.5173 5.48729C11.1618 4.8428 12.0187 4.48785 12.9301 4.48785H13.0395C14.921 4.48785 16.4517 6.01854 16.4517 7.90004V8.20503H16.4517Z" fill="#396AFF"/>
<path d="M13.0395 5.66093H12.9302C12.3321 5.66093 11.7698 5.89385 11.3468 6.31676L10.0215 7.6421L8.45884 6.2357C8.04696 5.86503 7.515 5.66089 6.96087 5.66089C5.72616 5.66089 4.72168 6.66537 4.72168 7.90008V8.20498C4.72168 8.8031 4.9546 9.36544 5.37751 9.78835L5.38533 9.79628L10.0002 14.5902L14.6229 9.78831C15.0458 9.3654 15.2787 8.80306 15.2787 8.20494V7.90004C15.2787 6.66545 14.2742 5.66093 13.0395 5.66093ZM11.7597 10.9395H10.5867V12.1125H9.41371V10.9395H8.2407V9.76645H9.41371V8.59344H10.5867V9.76645H11.7597V10.9395Z" fill="#396AFF"/>
</g>
<defs>
<clipPath id="clip0_163_357">
<rect width="20" height="20" fill="white"/>
</clipPath>
</defs>
</svg>
