<svg width="20" height="20" viewBox="0 0 20 20" fill="none" xmlns="http://www.w3.org/2000/svg">
<g clip-path="url(#clip0_152_1508)">
<path d="M10.5862 10.5855V0C4.91616 0.29741 0.298142 4.91538 0.000732422 10.5855H10.5862ZM8.24258 8.82776H7.07076V7.65594H8.24258V8.82776ZM4.7271 5.31228H5.89893V6.48411H4.7271V5.31228ZM7.65667 5.06967L8.48519 5.8982L5.31301 9.07037L4.48449 8.24185L7.65667 5.06967Z" fill="#FF82AC"/>
<path d="M10.586 11.7573H3.57739C3.86293 15.4914 6.85198 18.4804 10.5861 18.766V11.7573H10.586Z" fill="#FF82AC"/>
<path d="M11.7578 2.34375C11.7578 2.4696 11.7578 20.1376 11.7578 19.9993C16.3308 19.6956 19.9997 15.7616 19.9997 11.113C19.9997 6.46401 16.3319 2.64643 11.7578 2.34375ZM15.2733 10.5856C16.2426 10.5856 17.031 11.3741 17.031 12.3433C17.031 13.1062 16.5397 13.7505 15.8592 13.9932V15.2729H14.6874V13.9932C14.0069 13.7505 13.5156 13.1062 13.5156 12.3433H14.6874C14.6874 12.6666 14.95 12.9293 15.2733 12.9293C15.5966 12.9293 15.8592 12.6666 15.8592 12.3433C15.8592 12.0201 15.5966 11.7574 15.2733 11.7574C14.304 11.7574 13.5156 10.9689 13.5156 9.99969C13.5156 9.23683 14.0069 8.59256 14.6874 8.34987V7.07012H15.8592V8.34987C16.5397 8.59256 17.031 9.23683 17.031 9.99969H15.8592C15.8592 9.67642 15.5966 9.41377 15.2733 9.41377C14.95 9.41377 14.6874 9.67642 14.6874 9.99969C14.6874 10.323 14.95 10.5856 15.2733 10.5856Z" fill="#FF82AC"/>
</g>
<defs>
<clipPath id="clip0_152_1508">
<rect width="20" height="20" fill="white"/>
</clipPath>
</defs>
</svg>
