<svg width="20" height="20" viewBox="0 0 20 20" fill="none" xmlns="http://www.w3.org/2000/svg">
<g clip-path="url(#clip0_152_1527)">
<path d="M19.8174 3.93342L16.0675 0.183539C15.8887 0.00479462 15.62 -0.0489537 15.3863 0.0485433C15.1525 0.14604 15 0.372283 15 0.624775V2.49972H6.87527C3.07789 2.49972 0.000488281 5.57712 0.000488281 9.3745C0.000488281 9.71949 0.280479 9.99948 0.625469 9.99948H3.12539C3.47038 9.99948 3.75037 9.71949 3.75037 9.3745C3.75037 7.64831 5.14908 6.2496 6.87527 6.2496H15V8.12454C15 8.37703 15.1525 8.60578 15.3863 8.70202C15.62 8.79952 15.8887 8.74577 16.0675 8.56703L19.8174 4.81714C20.0611 4.5734 20.0611 4.17716 19.8174 3.93342Z" fill="#396AFF"/>
<path d="M19.3747 9.99951H16.8748C16.5298 9.99951 16.2498 10.2795 16.2498 10.6245C16.2498 12.3507 14.8511 13.7494 13.1249 13.7494H5.00016V11.8745C5.00016 11.622 4.84766 11.3932 4.61392 11.297C4.38018 11.2007 4.11268 11.2545 3.93269 11.4332L0.182807 15.1831C-0.0609356 15.4269 -0.0609356 15.8231 0.182807 16.0668L3.93269 19.8167C4.11143 19.9955 4.38018 20.0492 4.61392 19.9517C4.84766 19.8542 5.00016 19.6267 5.00016 19.3742V17.4993H13.1249C16.9223 17.4993 19.9997 14.4219 19.9997 10.6245C19.9997 10.2795 19.7197 9.99951 19.3747 9.99951Z" fill="#396AFF"/>
</g>
<defs>
<clipPath id="clip0_152_1527">
<rect width="20" height="20" fill="white"/>
</clipPath>
</defs>
</svg>
