<svg width="20" height="20" viewBox="0 0 20 20" fill="none" xmlns="http://www.w3.org/2000/svg">
<g clip-path="url(#clip0_163_392)">
<path d="M17.6553 13.3559C17.1178 14.8128 16.3048 16.0796 15.2387 17.1207C14.0251 18.3057 12.4361 19.2473 10.5156 19.919C10.4526 19.941 10.3868 19.959 10.3207 19.9722C10.2335 19.9895 10.1447 19.9988 10.0566 20H10.0394C9.94553 20 9.85123 19.9905 9.75769 19.9722C9.69162 19.959 9.62677 19.941 9.56406 19.9194C7.6413 19.2488 6.05026 18.3077 4.83551 17.1227C3.76892 16.0815 2.95608 14.8155 2.41928 13.3586C1.44317 10.7097 1.49871 7.79159 1.54342 5.44662L1.54418 5.41061C1.55319 5.21697 1.55898 5.01357 1.56219 4.78896C1.57852 3.68621 2.45529 2.77389 3.55819 2.71239C5.85769 2.58407 7.63657 1.8341 9.1565 0.35262L9.16977 0.340413C9.42215 0.108937 9.74014 -0.00458834 10.0566 0.00014191C10.3618 0.00410921 10.6657 0.117482 10.9091 0.340413L10.9221 0.35262C12.4423 1.8341 14.2212 2.58407 16.5207 2.71239C17.6236 2.77389 18.5004 3.68621 18.5167 4.78896C18.5199 5.0151 18.5257 5.21819 18.5347 5.41061L18.5352 5.42587C18.5797 7.77526 18.635 10.6992 17.6553 13.3559Z" fill="#16DBCC"/>
<path d="M17.6554 13.356C17.1178 14.8129 16.3048 16.0797 15.2387 17.1208C14.0251 18.3058 12.4361 19.2474 10.5156 19.9191C10.4526 19.9411 10.3868 19.9591 10.3208 19.9723C10.2335 19.9896 10.1447 19.9989 10.0566 20.0001V0.000244141C10.3618 0.00421144 10.6658 0.117584 10.9091 0.340515L10.9221 0.352722C12.4424 1.8342 14.2212 2.58417 16.5207 2.7125C17.6236 2.77399 18.5004 3.68631 18.5167 4.78907C18.5199 5.0152 18.5257 5.2183 18.5347 5.41071L18.5352 5.42597C18.5797 7.77537 18.635 10.6993 17.6554 13.356Z" fill="#16DBCC"/>
<path d="M15.0237 10.0001C15.0237 12.7425 12.797 14.9749 10.0568 14.9847H10.0393C7.29101 14.9847 5.05469 12.7485 5.05469 10.0001C5.05469 7.2518 7.29101 5.01562 10.0393 5.01562H10.0568C12.797 5.02539 15.0237 7.25775 15.0237 10.0001Z" fill="white"/>
<path d="M13.1015 9.19753L10.0762 11.8814L9.42252 12.4613C9.26809 12.5983 9.06554 12.6667 8.86319 12.6667C8.66064 12.6667 8.4583 12.5983 8.30366 12.4613L6.89815 11.214C6.58929 10.94 6.58929 10.4962 6.89815 10.2221C7.2066 9.94812 7.70753 9.94812 8.01639 10.2221L8.86319 10.9732L11.9833 8.20561C12.2921 7.93146 12.7931 7.93146 13.1015 8.20561C13.4104 8.47959 13.4104 8.92392 13.1015 9.19753Z" fill="#16DBCC"/>
</g>
<defs>
<clipPath id="clip0_163_392">
<rect width="20" height="20" fill="white"/>
</clipPath>
</defs>
</svg>
