<svg width="21" height="20" viewBox="0 0 21 20" fill="none" xmlns="http://www.w3.org/2000/svg">
<path d="M10.044 20.0002L12.8539 4.19679C15.5323 4.19679 16.3772 4.49049 16.4991 5.6893C16.4991 5.6893 18.2959 5.01936 19.2021 3.65874C15.6658 2.0201 12.1126 1.9462 12.1126 1.9462L10.0393 4.47148L10.044 4.47117L7.97064 1.9458C7.97064 1.9458 4.4174 2.01978 0.881592 3.65842C1.78701 5.01904 3.58446 5.68898 3.58446 5.68898C3.70715 4.4901 4.55095 4.1964 7.21136 4.1945L10.044 20.0002Z" fill="#FFBB38"/>
<path d="M10.0429 1.21662C12.9014 1.19476 16.1734 1.65884 19.5229 3.11871C19.9706 2.31293 20.0857 1.95682 20.0857 1.95682C16.4242 0.508194 12.9952 0.0124355 10.0425 0C7.08984 0.0124355 3.66104 0.508273 0 1.95682C0 1.95682 0.163325 2.39547 0.562372 3.11871C3.91126 1.65884 7.18378 1.19476 10.0425 1.21662H10.0429Z" fill="#FFBB38"/>
</svg>
