<svg width="20" height="20" viewBox="0 0 20 20" fill="none" xmlns="http://www.w3.org/2000/svg">
<path d="M12.6634 4.9429H14.6324L14.5985 3.74355H12.934L14.4984 0.510507L12.7286 0.362413L11.1741 1.55394L11.6925 0.206497L9.87835 0L9.28338 1.68379L8.30568 0.380143L5.61607 0.286802L7.39576 3.74407L5.78919 3.69244V4.94238H7.33735C4.03557 6.8749 1.65674 11.9263 1.65674 14.6551C1.65674 18.0758 5.39237 20 9.99985 20C14.6073 20 18.343 18.0758 18.343 14.6551C18.3435 11.9263 15.9652 6.87542 12.6634 4.9429ZM10.6975 16.2961V17.4803H9.55923V16.3774C8.78123 16.3435 8.02618 16.1329 7.58504 15.8784L7.93336 14.5205C8.42092 14.788 9.10661 15.031 9.86115 15.031C10.5229 15.031 10.976 14.7755 10.976 14.3119C10.976 13.8692 10.6047 13.5902 9.74538 13.3008C8.50226 12.8831 7.65491 12.3017 7.65491 11.1764C7.65491 10.1544 8.37503 9.35235 9.61763 9.10935V8.00594H10.7559V9.028C11.5334 9.06346 12.0569 9.22459 12.4397 9.41075L12.1028 10.7233C11.8009 10.596 11.2664 10.328 10.4306 10.328C9.67551 10.328 9.43147 10.6529 9.43147 10.9777C9.43147 11.3615 9.8382 11.605 10.8253 11.9768C12.2066 12.466 12.7645 13.1032 12.7645 14.1492C12.7651 15.1812 12.033 16.064 10.6975 16.2961Z" fill="#16DBCC"/>
</svg>
