<svg width="26" height="30" viewBox="0 0 26 30" fill="none" xmlns="http://www.w3.org/2000/svg">
<path d="M24.483 20.0338C23.6767 22.2192 22.4572 24.1193 20.858 25.681C19.0377 27.4585 16.6541 28.8709 13.7734 29.8785C13.6789 29.9114 13.5802 29.9384 13.4811 29.9584C13.3502 29.9842 13.217 29.9982 13.0849 30H13.0591C12.9183 30 12.7768 29.9858 12.6365 29.9584C12.5374 29.9384 12.4402 29.9114 12.3461 29.8792C9.46194 28.8732 7.07539 27.4615 5.25326 25.684C3.65338 24.1223 2.43412 22.2233 1.62891 20.0379C0.164756 16.0645 0.248069 11.6874 0.315132 8.16993L0.316276 8.11591C0.32978 7.82546 0.338477 7.52036 0.343284 7.18345C0.367774 5.52932 1.68293 4.16083 3.33729 4.06859C6.78654 3.8761 9.45485 2.75115 11.7347 0.52893L11.7547 0.51062C12.1332 0.163406 12.6102 -0.00688251 13.0849 0.000212866C13.5427 0.00616381 13.9986 0.176223 14.3637 0.51062L14.3831 0.52893C16.6635 2.75115 19.3318 3.8761 22.781 4.06859C24.4354 4.16083 25.7506 5.52932 25.7751 7.18345C25.7799 7.52265 25.7886 7.82729 25.8021 8.11591L25.8027 8.1388C25.8696 11.6629 25.9524 16.0487 24.483 20.0338Z" fill="#16DBCC"/>
<path d="M24.483 20.0338C23.6767 22.2192 22.4572 24.1194 20.858 25.681C19.0377 27.4585 16.6541 28.871 13.7734 29.8785C13.6789 29.9115 13.5803 29.9385 13.4812 29.9584C13.3502 29.9842 13.217 29.9982 13.085 30V0.000244141C13.5427 0.00619509 13.9987 0.176254 14.3637 0.510651L14.3832 0.528962C16.6635 2.75118 19.3318 3.87613 22.7811 4.06862C24.4354 4.16086 25.7506 5.52935 25.7751 7.18348C25.7799 7.52268 25.7886 7.82732 25.8021 8.11594L25.8028 8.13883C25.8696 11.6629 25.9525 16.0488 24.483 20.0338Z" fill="#16DBCC"/>
<path d="M20.5356 15C20.5356 19.1137 17.1955 22.4622 13.0852 22.4769H13.0589C8.93652 22.4769 5.58203 19.1226 5.58203 15C5.58203 10.8776 8.93652 7.52332 13.0589 7.52332H13.0852C17.1955 7.53796 20.5356 10.8865 20.5356 15Z" fill="white"/>
<path d="M17.6525 13.7963L13.1146 17.8221L12.134 18.6919C11.9024 18.8974 11.5986 19 11.295 19C10.9912 19 10.6877 18.8974 10.4557 18.6919L8.34747 16.821C7.88418 16.41 7.88418 15.7444 8.34747 15.3331C8.81015 14.9222 9.56154 14.9222 10.0248 15.3331L11.295 16.4598L15.9752 12.3084C16.4385 11.8972 17.1899 11.8972 17.6525 12.3084C18.1158 12.7194 18.1158 13.3859 17.6525 13.7963Z" fill="#16DBCC"/>
</svg>
