<svg width="22" height="30" viewBox="0 0 22 30" fill="none" xmlns="http://www.w3.org/2000/svg">
<path d="M21.9695 25.9125L20.3701 8.35312C20.327 7.86937 19.922 7.5 19.4364 7.5H16.6239V5.625C16.6239 4.1175 16.0389 2.70375 14.9795 1.64437C13.937 0.6 12.4858 0 10.9989 0C7.89764 0 5.37389 2.52375 5.37389 5.625V7.5H2.56139C2.07577 7.5 1.67077 7.86937 1.62764 8.35312L0.032019 25.9106C-0.063606 26.9587 0.288894 28.0031 0.997644 28.7794C1.70639 29.5556 2.71514 30 3.76702 30H18.2326C19.2826 30 20.2914 29.5556 21.0001 28.7812C21.7108 28.005 22.0614 26.9587 21.9695 25.9125ZM14.7489 7.5H7.24889V5.625C7.24889 3.55687 8.93077 1.875 10.9989 1.875C11.9926 1.875 12.9601 2.2725 13.6539 2.96812C14.3608 3.675 14.7489 4.61812 14.7489 5.625V7.5Z" fill="#FFBB38"/>
</svg>
