<svg width="30" height="30" viewBox="0 0 30 30" fill="none" xmlns="http://www.w3.org/2000/svg">
<g clip-path="url(#clip0_104_26)">
<path d="M29.977 5.22384C29.8494 3.77376 28.0891 3.12811 27.0587 4.15866L25.5869 5.63048C25.2578 5.95954 24.7175 5.96493 24.3825 5.64243C24.0348 5.3078 24.0529 4.7313 24.3946 4.38958L25.8422 2.94196C26.8716 1.91253 26.2287 0.151552 24.7774 0.0237594C20.833 -0.323057 17.7043 3.34532 18.7504 7.23524L0.832214 25.1534C-0.277317 26.2629 -0.277493 28.0589 0.832214 29.1686C1.93923 30.2755 3.74034 30.2756 4.84735 29.1686L22.7609 11.255C26.6044 12.3 30.3275 9.20423 29.977 5.22384Z" fill="#16DBCC"/>
<path d="M1.87498 6.8825C1.91699 6.96535 1.97183 7.04105 2.03752 7.10674L4.58096 9.65012C4.9242 9.99336 5.48066 9.9933 5.82385 9.65012L7.1173 8.35666L9.5875 10.8269L6.94662 13.4677C6.2623 14.1532 6.26289 15.2682 6.94721 15.9531L7.22435 16.2303L16.238 7.21719L15.9609 6.94004C15.273 6.25338 14.1631 6.25238 13.4743 6.94004L10.8304 9.58391L8.36019 7.11371L9.65365 5.82025C9.99689 5.47707 9.99689 4.92055 9.65365 4.57736L7.11027 2.03393C7.04389 1.96748 6.96725 1.91217 6.88334 1.87004L3.63244 0.236913C3.29377 0.0667572 2.88443 0.132792 2.61642 0.4008L0.395135 2.62203C0.126424 2.89074 0.060858 3.30166 0.232596 3.64068L1.87498 6.8825Z" fill="#16DBCC"/>
<path d="M21.3823 15.1199L15.126 21.3762L22.311 28.563C24.0394 30.2914 26.8378 30.292 28.5667 28.563C30.2917 26.8381 30.2917 24.0316 28.5667 22.3072L21.3823 15.1199ZM26.5307 26.5252C26.1897 26.8674 25.6318 26.869 25.288 26.5252L20.2996 21.5368C19.9562 21.1934 19.9562 20.6368 20.2996 20.2941C20.6429 19.9507 21.1995 19.9507 21.5423 20.2941L26.5307 25.2825C26.874 25.6259 26.874 26.1818 26.5307 26.5252Z" fill="#16DBCC"/>
</g>
<defs>
<clipPath id="clip0_104_26">
<rect width="30" height="30" fill="white"/>
</clipPath>
</defs>
</svg>
