<svg width="20" height="20" viewBox="0 0 20 20" fill="none" xmlns="http://www.w3.org/2000/svg">
<g clip-path="url(#clip0_163_738)">
<path d="M9.85722 9.63406C11.1808 9.63406 12.3268 9.15936 13.2633 8.22278C14.1997 7.28635 14.6744 6.14057 14.6744 4.81688C14.6744 3.49364 14.1997 2.34771 13.2631 1.41097C12.3265 0.474699 11.1806 0 9.85722 0C8.53352 0 7.38775 0.474699 6.45132 1.41113C5.51489 2.34756 5.04004 3.49349 5.04004 4.81688C5.04004 6.14057 5.51489 7.2865 6.45147 8.22293C7.38805 9.1592 8.53398 9.63406 9.85722 9.63406Z" fill="#396AFF"/>
<path d="M18.2862 15.3789C18.2592 14.9891 18.2046 14.564 18.1242 14.1151C18.043 13.6629 17.9385 13.2353 17.8134 12.8445C17.6841 12.4406 17.5083 12.0418 17.291 11.6595C17.0655 11.2628 16.8006 10.9174 16.5034 10.6331C16.1926 10.3357 15.812 10.0966 15.372 9.92218C14.9334 9.74869 14.4474 9.6608 13.9276 9.6608C13.7234 9.6608 13.526 9.74457 13.1446 9.99283C12.91 10.1459 12.6355 10.3229 12.3291 10.5186C12.0671 10.6856 11.7121 10.842 11.2738 10.9836C10.8461 11.122 10.4118 11.1922 9.98318 11.1922C9.55456 11.1922 9.12045 11.122 8.69229 10.9836C8.25437 10.8421 7.89945 10.6857 7.63776 10.5188C7.33427 10.3249 7.05961 10.1479 6.82142 9.99267C6.44056 9.74441 6.24296 9.66064 6.0388 9.66064C5.51878 9.66064 5.03295 9.74869 4.59456 9.92233C4.15481 10.0964 3.7741 10.3355 3.46297 10.6332C3.16589 10.9177 2.90084 11.263 2.67562 11.6595C2.45849 12.0418 2.28271 12.4405 2.15332 12.8447C2.02835 13.2355 1.92383 13.6629 1.84265 14.1151C1.76224 14.5634 1.70761 14.9887 1.6806 15.3793C1.65405 15.762 1.64062 16.1592 1.64062 16.5603C1.64062 17.6043 1.9725 18.4495 2.62695 19.0728C3.27331 19.6879 4.12856 20 5.1686 20H14.7987C15.8387 20 16.6937 19.6881 17.3402 19.0728C17.9948 18.45 18.3267 17.6046 18.3267 16.5602C18.3265 16.1572 18.3129 15.7597 18.2862 15.3789Z" fill="#396AFF"/>
</g>
<defs>
<clipPath id="clip0_163_738">
<rect width="19.9999" height="20" fill="white"/>
</clipPath>
</defs>
</svg>
