<svg width="25" height="25" viewBox="0 0 25 25" fill="none" xmlns="http://www.w3.org/2000/svg">
<g clip-path="url(#clip0_101_311)">
<path d="M20.2994 13.265C19.8337 13.265 19.3736 13.3332 18.9314 13.4675L13.2315 15.0454V6.98364C13.2315 6.57978 13.5601 6.25122 13.9639 6.25122C14.3678 6.25122 14.6963 6.57978 14.6963 6.98364V12.6813H15.4288C18.2558 12.6813 20.5557 10.3813 20.5557 7.55435C20.5557 5.2667 19.0191 3.23696 16.8161 2.61753L7.35586 0V12.556L3.55991 13.6067C3.11167 13.7189 2.68198 13.8971 2.28261 14.1366C0.0601037 15.4691 -0.66392 18.3615 0.668697 20.584C1.19648 21.4642 1.97671 22.1334 2.92505 22.5193C3.49038 22.7494 4.09931 22.8661 4.70742 22.866C5.08501 22.866 5.46235 22.821 5.82856 22.7303L7.35586 22.3077V23.5762L12.4991 25L21.6583 22.4646L21.6775 22.459C22.6192 22.1705 23.465 21.576 24.0592 20.7849C24.6741 19.9663 24.9991 18.9911 24.9991 17.9648C24.9991 15.3733 22.8908 13.265 20.2994 13.265ZM7.35581 16.6719L3.50405 17.7381L3.89487 19.1499L7.35581 18.1918V20.7878L5.46694 21.3107C5.20747 21.3742 4.94672 21.405 4.68935 21.405C3.57319 21.4049 2.52182 20.8262 1.925 19.8307C1.00776 18.3009 1.5061 16.3101 3.03588 15.3928C3.31342 15.2264 3.61167 15.103 3.92231 15.026L7.35581 14.0758V16.6719ZM11.7666 6.98364V23.2773L8.8207 22.4618V1.9252L16.4226 4.02856C17.9936 4.47031 19.0909 5.92022 19.0909 7.55439C19.0909 9.3229 17.8306 10.8026 16.1612 11.1429V6.98364C16.1612 5.77207 15.1755 4.78638 13.9639 4.78638C12.7523 4.78638 11.7666 5.77207 11.7666 6.98364ZM21.2573 21.0556L13.2315 23.2773V20.6813L21.4946 18.3938L21.1038 16.9821L13.2315 19.1613V16.5653L19.3314 14.8767L19.3505 14.8711C19.6565 14.7774 19.9758 14.7299 20.2994 14.7299C22.0831 14.7299 23.5343 16.1811 23.5343 17.9647C23.5342 19.3931 22.6195 20.6341 21.2573 21.0556Z" fill="#396AFF"/>
</g>
<defs>
<clipPath id="clip0_101_311">
<rect width="25" height="25" fill="white"/>
</clipPath>
</defs>
</svg>
