<svg width="28" height="30" viewBox="0 0 28 30" fill="none" xmlns="http://www.w3.org/2000/svg">
<path d="M13.7651 30H11.4214C10.2582 30 9.31201 29.0538 9.31201 27.8906V13.3594C9.31201 12.1962 10.2582 11.25 11.4214 11.25H13.7651C14.9283 11.25 15.8745 12.1962 15.8745 13.3594V27.8906C15.8745 29.0538 14.9282 30 13.7651 30Z" fill="#FF82AC"/>
<path d="M4.85889 30H2.51514C1.35199 30 0.405762 29.0538 0.405762 27.8906V18.0469C0.405762 16.8837 1.35199 15.9375 2.51514 15.9375H4.85889C6.02204 15.9375 6.96827 16.8837 6.96827 18.0469V27.8906C6.96827 29.0538 6.02198 30 4.85889 30Z" fill="#FF82AC"/>
<path d="M22.6714 30H20.3276C19.1645 30 18.2182 29.0538 18.2182 27.8906V8.4375H16.9304C16.3282 8.4375 15.7979 8.09766 15.5463 7.55062C15.2946 7.00359 15.3818 6.3798 15.7737 5.9226C15.7781 5.91738 15.7827 5.91217 15.7872 5.90707L20.8013 0.311836C20.9791 0.113379 21.233 0 21.4995 0C21.766 0 22.0198 0.113379 22.1977 0.311836L27.2118 5.90707C27.2164 5.91217 27.2209 5.91738 27.2254 5.9226C27.6172 6.37975 27.7044 7.00359 27.4528 7.55062C27.2012 8.09766 26.6708 8.4375 26.0687 8.4375H24.7808V27.8906C24.7808 29.0538 23.8345 30 22.6714 30Z" fill="#FF82AC"/>
</svg>
