<svg width="28" height="30" viewBox="0 0 28 30" fill="none" xmlns="http://www.w3.org/2000/svg">
<path d="M26.3171 4.09262C22.4209 4.09262 19.4389 3.11615 17.6234 2.29698C15.6498 1.40649 14.5856 0.502868 14.5767 0.495302L14.0018 0L13.426 0.493836C13.4155 0.502868 12.3512 1.40655 10.3776 2.29698C8.56217 3.11615 5.58016 4.09262 1.68395 4.09262H0.804199V16.169L14.0005 29.9999L27.1969 16.1812V4.09262H26.3171ZM23.6778 12.3075C23.6778 13.6718 23.1477 14.9545 22.1849 15.9206L14.0005 24.4225L5.81616 15.9205C4.8533 14.9545 4.32322 13.6717 4.32322 12.3075V11.8501C4.32322 9.02793 6.61926 6.73183 9.44152 6.73183C10.7081 6.73183 11.9241 7.19845 12.8655 8.04571L13.9686 9.03854L14.7762 8.23093C15.743 7.2642 17.0283 6.73177 18.3954 6.73177H18.5595C21.3817 6.73177 23.6778 9.02781 23.6778 11.8501V12.3075H23.6778Z" fill="#396AFF"/>
<path d="M18.5593 8.49151H18.3953C17.4982 8.49151 16.6547 8.84089 16.0202 9.47526L14.0322 11.4633L11.6883 9.35367C11.0704 8.79767 10.2725 8.49146 9.44131 8.49146C7.58925 8.49146 6.08252 9.99818 6.08252 11.8502V12.3076C6.08252 13.2048 6.4319 14.0483 7.06626 14.6826L7.07799 14.6945L14.0003 21.8855L20.9343 14.6826C21.5687 14.0482 21.9181 13.2047 21.9181 12.3075V11.8502C21.9181 9.9983 20.4113 8.49151 18.5593 8.49151ZM16.6396 16.4093H14.8801V18.1688H13.1206V16.4093H11.3611V14.6498H13.1206V12.8903H14.8801V14.6498H16.6396V16.4093Z" fill="#396AFF"/>
</svg>
