<svg width="30px" height="30px" viewBox="0 0 30 30" fill="none" xmlns="http://www.w3.org/2000/svg">
<g clip-path="url(#clip0_104_23)">
<path d="M14.7861 14.4511C16.7714 14.4511 18.4905 13.739 19.8952 12.3342C21.2998 10.9295 22.0118 9.21086 22.0118 7.22531C22.0118 5.24046 21.2998 3.52156 19.8949 2.11646C18.4901 0.712049 16.7712 0 14.7861 0C12.8005 0 11.0819 0.712049 9.67722 2.11669C8.27258 3.52133 7.5603 5.24023 7.5603 7.22531C7.5603 9.21086 8.27258 10.9298 9.67745 12.3344C11.0823 13.7388 12.8012 14.4511 14.7861 14.4511Z" fill="#396AFF"/>
<path d="M27.4293 23.0685C27.3888 22.484 27.3069 21.8463 27.1863 21.1729C27.0645 20.4945 26.9077 19.8532 26.72 19.267C26.5262 18.6612 26.2625 18.0629 25.9366 17.4896C25.5983 16.8945 25.2009 16.3763 24.7551 15.9499C24.2889 15.5038 23.718 15.1451 23.0579 14.8835C22.4001 14.6233 21.6711 14.4914 20.8913 14.4914C20.5851 14.4914 20.2889 14.6171 19.717 14.9895C19.3649 15.2191 18.9532 15.4846 18.4936 15.7782C18.1006 16.0286 17.5682 16.2632 16.9106 16.4756C16.2691 16.6832 15.6177 16.7885 14.9748 16.7885C14.3318 16.7885 13.6807 16.6832 13.0384 16.4756C12.3816 16.2634 11.8492 16.0288 11.4566 15.7784C11.0014 15.4875 10.5894 15.222 10.2321 14.9893C9.66084 14.6169 9.36444 14.4912 9.0582 14.4912C8.27818 14.4912 7.54942 14.6233 6.89184 14.8837C6.23221 15.1449 5.66115 15.5036 5.19446 15.9501C4.74883 16.3767 4.35127 16.8947 4.01344 17.4896C3.68774 18.0629 3.42407 18.661 3.22998 19.2673C3.04252 19.8534 2.88574 20.4945 2.76398 21.1729C2.64336 21.8454 2.56142 22.4833 2.5209 23.0692C2.48108 23.6432 2.46094 24.239 2.46094 24.8407C2.46094 26.4067 2.95875 27.6745 3.94042 28.6095C4.90996 29.5321 6.19284 30.0002 7.75289 30.0002H22.198C23.7581 30.0002 25.0405 29.5323 26.0103 28.6095C26.9922 27.6752 27.49 26.4072 27.49 24.8405C27.4898 24.236 27.4694 23.6398 27.4293 23.0685Z" fill="#396AFF"/>
</g>
<defs>
<clipPath id="clip0_104_23">
<rect width="29.9999" height="30" fill="white"/>
</clipPath>
</defs>
</svg>
