<svg width="60" height="60" viewBox="0 0 60 60" fill="none" xmlns="http://www.w3.org/2000/svg">
<rect width="60" height="60" rx="20" fill="#FFE0EB"/>
<g clip-path="url(#clip0_112_1199)">
<path d="M32.4916 33.3372C36.6866 33.3372 40.0994 29.8971 40.0994 25.6686C40.0994 21.4402 36.6866 18 32.4916 18C28.2966 18 24.8838 21.4401 24.8838 25.6686C24.8838 29.897 28.2966 33.3372 32.4916 33.3372ZM30.047 28.0616C30.2683 27.7233 30.722 27.6283 31.0602 27.8497C31.5532 28.1722 31.7391 28.2019 32.3896 28.1973C33.0244 28.1931 33.3928 27.7199 33.4664 27.282C33.5022 27.069 33.516 26.5489 32.8713 26.321C32.1152 26.0536 31.3413 25.7481 30.803 25.3259C30.2646 24.9036 30.0181 24.1746 30.1597 23.4236C30.3131 22.6094 30.8811 21.9612 31.642 21.7321C31.6489 21.73 31.6556 21.7283 31.6625 21.7263V21.4488C31.6625 21.0446 31.9902 20.7168 32.3945 20.7168C32.7987 20.7168 33.1264 21.0446 33.1264 21.4488V21.6802C33.6236 21.7989 33.9708 22.0263 34.1118 22.1317C34.4356 22.3738 34.5018 22.8324 34.2598 23.1563C34.0178 23.4801 33.5591 23.5464 33.2353 23.3042C33.0853 23.1921 32.6707 22.951 32.0642 23.1338C31.7099 23.2405 31.618 23.5901 31.5982 23.6947C31.5595 23.9002 31.603 24.0928 31.7064 24.1739C32.0796 24.4666 32.7514 24.7258 33.3592 24.9406C34.4801 25.3368 35.1033 26.3753 34.9101 27.5247C34.8153 28.0887 34.5316 28.6119 34.1112 28.9981C33.8249 29.2613 33.4916 29.4488 33.1264 29.556V29.8883C33.1264 30.2926 32.7987 30.6203 32.3945 30.6203C31.9902 30.6203 31.6625 30.2926 31.6625 29.8883V29.629C31.1892 29.5716 30.7918 29.4236 30.2588 29.0748C29.9205 28.8535 29.8257 28.3999 30.047 28.0616Z" fill="#FF82AC"/>
<path d="M20.7741 35.7968H19.105C18.7008 35.7968 18.373 36.1245 18.373 36.5287V42.267C18.373 42.6713 18.7008 42.999 19.105 42.999H20.7741V35.7968H20.7741Z" fill="#FF82AC"/>
<path d="M42.4118 35.7457C41.0399 34.3737 38.8075 34.3736 37.4356 35.7457L35.2428 37.9384L34.3441 38.8371C33.9809 39.2003 33.4882 39.4044 32.9746 39.4044H28.6044C28.2097 39.4044 27.8701 39.101 27.8515 38.7068C27.8317 38.2859 28.1671 37.9384 28.5837 37.9384H33.0257C33.9188 37.9384 34.6934 37.3025 34.8469 36.4227C34.8822 36.2207 34.9006 36.0129 34.9006 35.801C34.9007 35.396 34.5725 35.0674 34.1676 35.0674H31.7337C30.9382 35.0674 30.1744 34.7065 29.3656 34.3244C28.5174 33.9238 27.6402 33.5094 26.6146 33.4412C25.7176 33.3814 24.8185 33.4796 23.9422 33.7327C23.004 34.0036 22.3295 34.8372 22.2477 35.7996C22.2446 35.7993 22.2415 35.7993 22.2383 35.7991V42.9965L34.8493 43C35.7163 43 36.5316 42.6623 37.1448 42.0491L42.4117 36.7823C42.6981 36.4961 42.6981 36.0319 42.4118 35.7457Z" fill="#FF82AC"/>
</g>
<defs>
<clipPath id="clip0_112_1199">
<rect width="25" height="25" fill="white" transform="translate(18 18)"/>
</clipPath>
</defs>
</svg>
