<svg width="20" height="20" viewBox="0 0 20 20" fill="none" xmlns="http://www.w3.org/2000/svg">
<g clip-path="url(#clip0_201_226)">
<path d="M18.3333 4.16655H14.1667V3.33319C14.1667 2.41401 13.4192 1.6665 12.5 1.6665H7.5C6.58082 1.6665 5.83332 2.41397 5.83332 3.33319V4.16651H1.66668C0.747461 4.16655 0 4.91401 0 5.83319V8.33319C0 9.25241 0.747461 9.99988 1.66668 9.99988H8.33336V9.5832C8.33336 9.35288 8.51973 9.16652 8.75004 9.16652H11.25C11.4804 9.16652 11.6667 9.35288 11.6667 9.5832V9.99988H18.3334C19.2525 9.99988 20 9.25241 20 8.33319V5.83319C20 4.91401 19.2525 4.16655 18.3333 4.16655ZM12.5 4.16655H7.5V3.33319H12.5V4.16655Z" fill="#FFBB38"/>
<path d="M19.7689 10.4493C19.6269 10.3789 19.4572 10.3952 19.3318 10.4904C19.0356 10.7146 18.6905 10.833 18.3333 10.833H11.6667V12.083C11.6667 12.3133 11.4803 12.4997 11.25 12.4997H8.75C8.51969 12.4997 8.33332 12.3133 8.33332 12.083V10.833H1.66668C1.30941 10.833 0.964375 10.7146 0.668125 10.4904C0.542383 10.3944 0.373125 10.3781 0.231094 10.4493C0.0895312 10.5197 0 10.6641 0 10.8224V16.6664C0 17.5855 0.747461 18.333 1.66668 18.333H18.3334C19.2525 18.333 20 17.5856 20 16.6664V10.8224C20 10.6641 19.9105 10.5197 19.7689 10.4493Z" fill="#FFBB38"/>
</g>
<defs>
<clipPath id="clip0_201_226">
<rect width="20" height="20" fill="white"/>
</clipPath>
</defs>
</svg>
