<svg width="60" height="60" viewBox="0 0 60 60" fill="none" xmlns="http://www.w3.org/2000/svg">
<rect width="60" height="60" rx="20" fill="#FFF5D9"/>
<g clip-path="url(#clip0_0_1)">
<path d="M40.9167 23.2083H35.7083V22.1666C35.7083 21.0176 34.774 20.0833 33.625 20.0833H27.375C26.226 20.0833 25.2916 21.0176 25.2916 22.1666V23.2083H20.0833C18.9343 23.2083 18 24.1426 18 25.2916V28.4166C18 29.5656 18.9343 30.5 20.0833 30.5H28.4167V29.9791C28.4167 29.6912 28.6497 29.4583 28.9375 29.4583H32.0625C32.3504 29.4583 32.5834 29.6912 32.5834 29.9791V30.5H40.9167C42.0657 30.5 43 29.5656 43 28.4166V25.2916C43 24.1426 42.0657 23.2083 40.9167 23.2083ZM33.625 23.2083H27.375V22.1666H33.625V23.2083Z" fill="#FFBB38"/>
<path d="M42.7111 31.062C42.5336 30.974 42.3215 30.9943 42.1648 31.1133C41.7945 31.3936 41.3632 31.5416 40.9166 31.5416H32.5833V33.1041C32.5833 33.392 32.3504 33.625 32.0625 33.625H28.9375C28.6496 33.625 28.4166 33.392 28.4166 33.1041V31.5416H20.0833C19.6368 31.5416 19.2055 31.3936 18.8352 31.1133C18.678 30.9933 18.4664 30.9729 18.2889 31.062C18.1119 31.15 18 31.3305 18 31.5284V38.8333C18 39.9823 18.9343 40.9167 20.0833 40.9167H40.9167C42.0657 40.9167 43 39.9823 43 38.8333V31.5284C43 31.3305 42.8881 31.15 42.7111 31.062Z" fill="#FFBB38"/>
</g>
<defs>
<clipPath id="clip0_0_1">
<rect width="25" height="25" fill="white" transform="translate(18 18)"/>
</clipPath>
</defs>
</svg>
