<svg width="60" height="60" viewBox="0 0 60 60" fill="none" xmlns="http://www.w3.org/2000/svg">
<rect width="60" height="60" rx="20" fill="#DCFAF8"/>
<g clip-path="url(#clip0_0_1)">
<path d="M40.0692 34.6948C39.3972 36.516 38.381 38.0995 37.0483 39.4008C35.5314 40.8821 33.5451 42.0591 31.1445 42.8987C31.0657 42.9262 30.9835 42.9487 30.9009 42.9653C30.7918 42.9868 30.6808 42.9985 30.5708 43H30.5492C30.4319 43 30.314 42.9882 30.1971 42.9653C30.1145 42.9487 30.0335 42.9262 29.9551 42.8993C27.5516 42.061 25.5628 40.8846 24.0444 39.4033C22.7111 38.1019 21.6951 36.5194 21.0241 34.6983C19.804 31.3871 19.8734 27.7395 19.9293 24.8083L19.9302 24.7633C19.9415 24.5212 19.9487 24.267 19.9527 23.9862C19.9731 22.6078 21.0691 21.4674 22.4477 21.3905C25.3221 21.2301 27.5457 20.2926 29.4456 18.4408L29.4622 18.4255C29.7777 18.1362 30.1752 17.9943 30.5708 18.0002C30.9522 18.0051 31.3322 18.1469 31.6364 18.4255L31.6526 18.4408C33.5529 20.2926 35.7765 21.2301 38.6509 21.3905C40.0295 21.4674 41.1255 22.6078 41.1459 23.9862C41.1499 24.2689 41.1571 24.5227 41.1684 24.7633L41.169 24.7823C41.2246 27.7191 41.2937 31.3739 40.0692 34.6948Z" fill="#16DBCC"/>
<path d="M40.0697 34.6948C39.3977 36.5159 38.3815 38.0994 37.0488 39.4008C35.5319 40.882 33.5456 42.0591 31.145 42.8987C31.0662 42.9261 30.984 42.9486 30.9015 42.9652C30.7924 42.9868 30.6813 42.9984 30.5713 43V18.0001C30.9528 18.0051 31.3327 18.1468 31.6369 18.4255L31.6531 18.4407C33.5534 20.2926 35.777 21.23 38.6514 21.3904C40.03 21.4673 41.126 22.6077 41.1464 23.9861C41.1504 24.2688 41.1576 24.5227 41.1689 24.7632L41.1695 24.7823C41.2252 27.719 41.2942 31.3739 40.0697 34.6948Z" fill="#16DBCC"/>
<path d="M36.7796 30.5C36.7796 33.928 33.9962 36.7185 30.571 36.7307H30.5491C27.1138 36.7307 24.3184 33.9355 24.3184 30.5C24.3184 27.0646 27.1138 24.2694 30.5491 24.2694H30.571C33.9962 24.2816 36.7796 27.0721 36.7796 30.5Z" fill="white"/>
<path d="M34.3768 29.4969L30.5952 32.8518L29.778 33.5766C29.585 33.7478 29.3318 33.8333 29.0789 33.8333C28.8257 33.8333 28.5728 33.7478 28.3795 33.5766L26.6226 32.0175C26.2365 31.675 26.2365 31.1203 26.6226 30.7776C27.0081 30.4351 27.6343 30.4351 28.0204 30.7776L29.0789 31.7165L32.979 28.257C33.3651 27.9143 33.9912 27.9143 34.3768 28.257C34.7629 28.5995 34.7629 29.1549 34.3768 29.4969Z" fill="#16DBCC"/>
</g>
<defs>
<clipPath id="clip0_0_1">
<rect width="25" height="25" fill="white" transform="translate(18 18)"/>
</clipPath>
</defs>
</svg>
