<svg width="60" height="60" viewBox="0 0 60 60" fill="none" xmlns="http://www.w3.org/2000/svg">
<rect width="60" height="60" rx="20" fill="#DCFAF8"/>
<g clip-path="url(#clip0_101_583)">
<path d="M28.9468 25.358C28.9468 25.358 28.9468 25.358 28.9468 25.3579C28.133 25.0582 27.4308 24.812 26.8211 24.8105C26.8193 24.8105 26.8174 24.8105 26.8155 24.8105C26.8183 24.8105 26.818 24.8105 26.8147 24.8106C26.8131 24.8107 26.8107 24.8107 26.8076 24.8108C26.6801 24.8152 25.3254 24.8759 23.9828 25.7098L28.9468 25.358ZM28.9468 25.358L28.9604 25.3629C29.1574 25.4356 29.3733 25.5151 29.5805 25.5845L30.706 25.9615L31.3618 26.1812C31.1301 26.2479 30.9112 26.2894 30.706 26.2894C30.1252 26.2894 29.4358 26.0341 28.7486 25.7797C28.0676 25.5275 27.3888 25.2762 26.8199 25.2747C26.7648 25.2762 25.4602 25.3216 24.1848 26.1313C22.5469 27.1718 21.7157 28.9811 21.7157 31.5093C21.7157 33.2952 22.4336 35.8346 23.545 37.9787L28.9468 25.358ZM31.0209 24.4928L31.4487 25.0988C31.5893 25.047 31.7376 24.9883 31.9036 24.9227C31.9829 24.8913 32.0661 24.8584 32.1546 24.8238C32.5677 24.6623 33.061 24.4778 33.6104 24.3559L33.8432 24.8548C34.1464 24.7938 34.4562 24.7573 34.7741 24.7568L31.0209 24.4928ZM31.0209 24.4928L31.377 24.4295C32.0487 24.31 32.6912 24.0176 33.2539 23.5917M28.7825 24.468C28.7969 24.5657 28.8193 24.66 28.8488 24.7503C28.2557 24.532 27.5082 24.2765 26.8225 24.2747L26.8155 24.2747L26.8079 24.2747L26.7934 24.2751C26.6697 24.2783 25.1836 24.3333 23.7003 25.2547L28.7825 24.468ZM32.044 25.9421C32.1248 25.9107 32.2069 25.8782 32.2902 25.8452C33.0317 25.5518 33.8675 25.221 34.7789 25.221H34.8058L32.044 25.9421Z" fill="#16DBCC" stroke="#16DBCC" stroke-width="2"/>
</g>
<defs>
<clipPath id="clip0_101_583">
<rect width="25" height="25" fill="white" transform="translate(18 18)"/>
</clipPath>
</defs>
</svg>

