<svg width="45" height="45" viewBox="0 0 45 45" fill="none" xmlns="http://www.w3.org/2000/svg">
<rect width="45" height="45" rx="15" fill="#FFF5D9"/>
<path d="M22.044 33.0002L24.8539 17.1968C27.5323 17.1968 28.3772 17.4905 28.4991 18.6893C28.4991 18.6893 30.2959 18.0194 31.2021 16.6587C27.6658 15.0201 24.1126 14.9462 24.1126 14.9462L22.0393 17.4715L22.044 17.4712L19.9706 14.9458C19.9706 14.9458 16.4174 15.0198 12.8816 16.6584C13.787 18.019 15.5845 18.689 15.5845 18.689C15.7072 17.4901 16.5509 17.1964 19.2114 17.1945L22.044 33.0002Z" fill="#FFBB38"/>
<path d="M22.0429 14.2166C24.9014 14.1948 28.1734 14.6588 31.5229 16.1187C31.9706 15.3129 32.0857 14.9568 32.0857 14.9568C28.4242 13.5082 24.9952 13.0124 22.0425 13C19.0898 13.0124 15.661 13.5083 12 14.9568C12 14.9568 12.1633 15.3955 12.5624 16.1187C15.9113 14.6588 19.1838 14.1948 22.0425 14.2166H22.0429Z" fill="#FFBB38"/>
</svg>
