<svg width="45" height="45" viewBox="0 0 45 45" fill="none" xmlns="http://www.w3.org/2000/svg">
<rect width="45" height="45" rx="15" fill="#E7EDFF"/>
<path d="M32.6017 23.2281C32.6026 22.5467 32.545 21.8664 32.4295 21.1948H22.9993V25.0461H28.4005C28.29 25.6612 28.056 26.2475 27.7128 26.7698C27.3695 27.2921 26.9241 27.7394 26.4033 28.0849V30.5848H29.6268C31.5143 28.8446 32.6017 26.271 32.6017 23.2281Z" fill="#4471FF"/>
<path d="M22.9994 32.9999C25.6979 32.9999 27.97 32.1138 29.6269 30.5861L26.4034 28.0862C25.5062 28.6945 24.3507 29.0417 22.9994 29.0417C20.3911 29.0417 18.1773 27.2834 17.3857 24.9141H14.0649V27.4904C14.8972 29.1465 16.1735 30.5388 17.7511 31.5117C19.3288 32.4846 21.1458 32.9998 22.9994 32.9999Z" fill="#4471FF"/>
<path d="M17.3855 24.9142C16.967 23.6726 16.967 22.3281 17.3855 21.0866V18.5103H14.0648C13.3646 19.9035 13 21.4411 13 23.0004C13 24.5596 13.3646 26.0973 14.0648 27.4905L17.3855 24.9142Z" fill="#4471FF"/>
<path d="M22.9994 16.9589C24.4254 16.9356 25.8034 17.4744 26.8354 18.4588L29.6894 15.6047C27.8796 13.9049 25.4821 12.9717 22.9994 13.0007C21.1458 13.0007 19.3288 13.516 17.7511 14.4889C16.1735 15.4618 14.8972 16.854 14.0649 18.5102L17.3857 21.0865C18.1773 18.7171 20.3911 16.9589 22.9994 16.9589Z" fill="#4471FF"/>
</svg>
