<svg width="45" height="45" viewBox="0 0 45 45" fill="none" xmlns="http://www.w3.org/2000/svg">
<rect width="45" height="45" rx="15" fill="#FFE0EB"/>
<path d="M30.4933 28.5861C30.1909 29.2848 29.8328 29.928 29.4181 30.5194C28.8526 31.3255 28.3897 31.8835 28.0329 32.1934C27.4798 32.702 26.8873 32.9625 26.2527 32.9773C25.7972 32.9773 25.2478 32.8477 24.6083 32.5847C23.9667 32.323 23.3771 32.1934 22.838 32.1934C22.2726 32.1934 21.6662 32.323 21.0176 32.5847C20.368 32.8477 19.8446 32.9847 19.4445 32.9983C18.836 33.0242 18.2295 32.7563 17.6241 32.1934C17.2377 31.8563 16.7544 31.2786 16.1754 30.4601C15.5541 29.586 15.0434 28.5725 14.6433 27.417C14.2148 26.1689 14 24.9603 14 23.7902C14 22.4498 14.2896 21.2938 14.8697 20.3251C15.3256 19.547 15.9322 18.9332 16.6913 18.4826C17.4504 18.032 18.2706 17.8023 19.1539 17.7877C19.6372 17.7877 20.271 17.9372 21.0587 18.231C21.8441 18.5258 22.3484 18.6753 22.5695 18.6753C22.7348 18.6753 23.295 18.5005 24.2447 18.152C25.1429 17.8288 25.9009 17.6949 26.5218 17.7477C28.2045 17.8834 29.4687 18.5468 30.3094 19.7418C28.8045 20.6536 28.06 21.9307 28.0749 23.5691C28.0885 24.8452 28.5514 25.9071 29.4612 26.7503C29.8736 27.1417 30.3341 27.4441 30.8464 27.659C30.7353 27.9812 30.618 28.2898 30.4933 28.5861V28.5861ZM26.6342 13.4001C26.6342 14.4003 26.2688 15.3343 25.5404 16.1987C24.6614 17.2263 23.5982 17.8201 22.4453 17.7264C22.4299 17.6007 22.4221 17.4741 22.4221 17.3474C22.4221 16.3872 22.8401 15.3596 23.5824 14.5193C23.953 14.0939 24.4244 13.7402 24.996 13.458C25.5663 13.1801 26.1058 13.0263 26.6132 13C26.628 13.1337 26.6342 13.2674 26.6342 13.4001V13.4001Z" fill="#FF82AC"/>
</svg>
