<svg width="70" height="70" viewBox="0 0 70 70" fill="none" xmlns="http://www.w3.org/2000/svg">
<circle cx="35" cy="35" r="35" fill="#FFF5D9"/>
<g clip-path="url(#clip0_104_41)">
<path d="M47.5 26.2499H41.25V24.9999C41.25 23.6211 40.1288 22.4999 38.75 22.4999H31.25C29.8712 22.4999 28.75 23.6211 28.75 24.9999V26.2499H22.5C21.1212 26.2499 20 27.3711 20 28.7499V32.4999C20 33.8787 21.1212 34.9999 22.5 34.9999H32.5V34.3749C32.5 34.0294 32.7796 33.7499 33.1251 33.7499H36.8751C37.2205 33.7499 37.5001 34.0294 37.5001 34.3749V34.9999H47.5001C48.8788 34.9999 50 33.8787 50 32.4999V28.7499C50 27.3711 48.8788 26.2499 47.5 26.2499ZM38.75 26.2499H31.25V24.9999H38.75V26.2499Z" fill="#FFBB38"/>
<path d="M49.6533 35.6743C49.4403 35.5687 49.1858 35.5931 48.9978 35.7359C48.5534 36.0723 48.0358 36.2498 47.4999 36.2498H37.5V38.1249C37.5 38.4703 37.2205 38.7499 36.875 38.7499H33.125C32.7795 38.7499 32.5 38.4703 32.5 38.1249V36.2498H22.5C21.9641 36.2498 21.4466 36.0723 21.0022 35.7359C20.8136 35.5919 20.5597 35.5675 20.3466 35.6743C20.1343 35.7799 20 35.9965 20 36.234V44.9999C20 46.3787 21.1212 47.4999 22.5 47.4999H47.5C48.8788 47.4999 50.0001 46.3787 50.0001 44.9999V36.234C50 35.9965 49.8657 35.7799 49.6533 35.6743Z" fill="#FFBB38"/>
</g>
<defs>
<clipPath id="clip0_104_41">
<rect width="30" height="30" fill="white" transform="translate(20 20)"/>
</clipPath>
</defs>
</svg>
