<svg viewBox="0 0 45 45" fill="none" xmlns="http://www.w3.org/2000/svg">
<rect width="45" height="45" rx="15" fill="#FFF5D9"/>
<path d="M31.9036 22.2365V16.3049C31.9036 15.087 30.9127 14.0962 29.6949 14.0962H15.2086C13.9908 14.0962 13 15.087 13 16.3049V25.3089C13 26.5268 13.9908 27.5176 15.2086 27.5176H20.9365C21.7011 30.0522 24.057 31.9034 26.8375 31.9034C30.2355 31.9034 32.9999 29.139 32.9999 25.7409C33 24.4399 32.5944 23.2321 31.9036 22.2365ZM23.3331 20.6748H14.3605V18.7461H30.543V20.8202C29.511 20.0411 28.2273 19.5785 26.8375 19.5785C25.5366 19.5784 24.3288 19.984 23.3331 20.6748ZM15.2086 15.4567H29.6949C30.1626 15.4567 30.543 15.8372 30.543 16.3049V17.3856H14.3605V16.3049C14.3605 15.8372 14.741 15.4567 15.2086 15.4567ZM15.2086 26.1571C14.741 26.1571 14.3605 25.7766 14.3605 25.3089V22.0354H21.9168C21.1377 23.0674 20.6751 24.3511 20.6751 25.7409C20.6751 25.8808 20.6802 26.0195 20.6894 26.1571H15.2086V26.1571ZM26.8376 30.5428C24.1898 30.5428 22.0356 28.3887 22.0356 25.7408C22.0356 23.0931 24.1898 20.939 26.8376 20.939C29.4853 20.939 31.6395 23.0931 31.6395 25.7408C31.6395 28.3887 29.4853 30.5428 26.8376 30.5428Z" fill="#FFBB38"/>
<path d="M23.5479 23.9644C23.1723 23.9644 22.8677 24.2689 22.8677 24.6446V26.8375C22.8677 27.2132 23.1723 27.5178 23.5479 27.5178H30.1266C30.5023 27.5178 30.8069 27.2132 30.8069 26.8375V24.6446C30.8069 24.2689 30.5023 23.9644 30.1266 23.9644H23.5479ZM29.4463 26.1573H24.2282V25.325H29.4463V26.1573Z" fill="#FFBB38"/>
</svg>
