<svg width="60" height="60" viewBox="0 0 60 60" fill="none" xmlns="http://www.w3.org/2000/svg">
<rect width="60" height="60" rx="20" fill="#FFE0EB"/>
<g clip-path="url(#clip0_1_643)">
<path d="M32.4923 33.3372C36.6873 33.3372 40.1002 29.8971 40.1002 25.6686C40.1002 21.4402 36.6873 18 32.4923 18C28.2974 18 24.8845 21.4401 24.8845 25.6686C24.8845 29.897 28.2974 33.3372 32.4923 33.3372ZM30.0477 28.0616C30.269 27.7233 30.7227 27.6283 31.061 27.8497C31.5539 28.1722 31.7399 28.2019 32.3903 28.1973C33.0252 28.1931 33.3936 27.7199 33.4672 27.282C33.503 27.069 33.5167 26.5489 32.872 26.321C32.1159 26.0536 31.3421 25.7481 30.8037 25.3259C30.2654 24.9036 30.0188 24.1746 30.1604 23.4236C30.3139 22.6094 30.8818 21.9612 31.6427 21.7321C31.6496 21.73 31.6563 21.7283 31.6632 21.7263V21.4488C31.6632 21.0446 31.9909 20.7168 32.3952 20.7168C32.7994 20.7168 33.1272 21.0446 33.1272 21.4488V21.6802C33.6243 21.7989 33.9715 22.0263 34.1125 22.1317C34.4363 22.3738 34.5026 22.8324 34.2605 23.1563C34.0185 23.4801 33.5598 23.5464 33.236 23.3042C33.086 23.1921 32.6714 22.951 32.0649 23.1338C31.7106 23.2405 31.6187 23.5901 31.599 23.6947C31.5603 23.9002 31.6037 24.0928 31.7072 24.1739C32.0803 24.4666 32.7521 24.7258 33.3599 24.9406C34.4808 25.3368 35.1041 26.3753 34.9109 27.5247C34.8161 28.0887 34.5323 28.6119 34.1119 28.9981C33.8256 29.2613 33.4923 29.4488 33.1272 29.556V29.8883C33.1272 30.2926 32.7994 30.6203 32.3952 30.6203C31.9909 30.6203 31.6632 30.2926 31.6632 29.8883V29.629C31.1899 29.5716 30.7926 29.4236 30.2595 29.0748C29.9213 28.8535 29.8264 28.3999 30.0477 28.0616Z" fill="#FF82AC"/>
<path d="M20.7744 35.7966H19.1054C18.7011 35.7966 18.3734 36.1244 18.3734 36.5286V42.2669C18.3734 42.6711 18.7011 42.9989 19.1054 42.9989H20.7745V35.7966H20.7744Z" fill="#FF82AC"/>
<path d="M42.4118 35.7455C41.0399 34.3736 38.8075 34.3735 37.4356 35.7455L35.2428 37.9382L34.3441 38.837C33.9809 39.2002 33.4882 39.4043 32.9746 39.4043H28.6044C28.2097 39.4043 27.8701 39.1009 27.8515 38.7067C27.8317 38.2857 28.1671 37.9382 28.5837 37.9382H33.0257C33.9188 37.9382 34.6934 37.3024 34.8469 36.4226C34.8822 36.2206 34.9006 36.0128 34.9006 35.8008C34.9007 35.3959 34.5725 35.0672 34.1676 35.0672H31.7337C30.9382 35.0672 30.1744 34.7064 29.3656 34.3243C28.5174 33.9236 27.6402 33.5093 26.6146 33.4411C25.7176 33.3813 24.8185 33.4795 23.9422 33.7325C23.004 34.0035 22.3295 34.8371 22.2477 35.7995C22.2446 35.7992 22.2415 35.7992 22.2383 35.799V42.9964L34.8493 42.9999C35.7163 42.9999 36.5316 42.6622 37.1448 42.049L42.4117 36.7821C42.6981 36.496 42.6981 36.0318 42.4118 35.7455Z" fill="#FF82AC"/>
</g>
<defs>
<clipPath id="clip0_1_643">
<rect width="25" height="25" fill="white" transform="translate(18 18)"/>
</clipPath>
</defs>
</svg>
