<svg viewBox="0 0 45 45" fill="none" xmlns="http://www.w3.org/2000/svg">
<rect width="45" height="45" rx="15" fill="#E7EDFF"/>
<path d="M28.625 20.3438H27.2173V17.1316C27.2173 14.8534 25.3248 13 22.9986 13C20.6723 13 18.7798 14.8534 18.7798 17.1316V20.3438H17.375C16.0827 20.3438 15.0312 21.3952 15.0312 22.6875V30.6562C15.0312 31.9486 16.0827 33 17.375 33H28.625C29.9173 33 30.9688 31.9486 30.9688 30.6562V22.6875C30.9688 21.3952 29.9173 20.3438 28.625 20.3438ZM20.3423 17.1316C20.3423 15.715 21.5339 14.5625 22.9986 14.5625C24.4632 14.5625 25.6548 15.715 25.6548 17.1316V20.3438H20.3423V17.1316ZM29.4062 30.6562C29.4062 31.087 29.0558 31.4375 28.625 31.4375H17.375C16.9442 31.4375 16.5938 31.087 16.5938 30.6562V22.6875C16.5938 22.2567 16.9442 21.9062 17.375 21.9062H28.625C29.0558 21.9062 29.4062 22.2567 29.4062 22.6875V30.6562Z" fill="#396AFF"/>
<path d="M23 24.1719C22.2018 24.1719 21.5547 24.8189 21.5547 25.6172C21.5547 26.1269 21.8187 26.5746 22.2173 26.832V28.5469C22.2173 28.9783 22.5671 29.3281 22.9986 29.3281C23.43 29.3281 23.7798 28.9783 23.7798 28.5469V26.8338C24.18 26.5768 24.4453 26.1281 24.4453 25.6172C24.4453 24.8189 23.7982 24.1719 23 24.1719Z" fill="#396AFF"/>
</svg>
