<svg width="60" height="60" viewBox="0 0 60 60" fill="none" xmlns="http://www.w3.org/2000/svg">
<rect width="60" height="60" rx="20" fill="#FFF5D9"/>
<g clip-path="url(#clip0_42_2)">
<path d="M40.9167 23.2083H35.7083V22.1666C35.7083 21.0176 34.774 20.0833 33.625 20.0833H27.375C26.226 20.0833 25.2916 21.0176 25.2916 22.1666V23.2083H20.0833C18.9343 23.2083 18 24.1426 18 25.2916V28.4166C18 29.5656 18.9343 30.5 20.0833 30.5H28.4167V29.9791C28.4167 29.6912 28.6497 29.4583 28.9375 29.4583H32.0625C32.3504 29.4583 32.5834 29.6912 32.5834 29.9791V30.5H40.9167C42.0657 30.5 43 29.5656 43 28.4166V25.2916C43 24.1426 42.0657 23.2083 40.9167 23.2083ZM33.625 23.2083H27.375V22.1666H33.625V23.2083Z" fill="#FFBB38"/>
<path d="M42.7111 31.0618C42.5336 30.9739 42.3215 30.9942 42.1648 31.1132C41.7945 31.3935 41.3632 31.5415 40.9166 31.5415H32.5833V33.104C32.5833 33.3919 32.3504 33.6248 32.0625 33.6248H28.9375C28.6496 33.6248 28.4166 33.3919 28.4166 33.104V31.5415H20.0833C19.6368 31.5415 19.2055 31.3935 18.8352 31.1132C18.678 30.9932 18.4664 30.9728 18.2889 31.0618C18.1119 31.1499 18 31.3304 18 31.5283V38.8332C18 39.9822 18.9343 40.9165 20.0833 40.9165H40.9167C42.0657 40.9165 43 39.9822 43 38.8332V31.5283C43 31.3304 42.8881 31.1499 42.7111 31.0618Z" fill="#FFBB38"/>
</g>
<defs>
<clipPath id="clip0_42_2">
<rect width="25" height="25" fill="white" transform="translate(18 18)"/>
</clipPath>
</defs>
</svg>
