<svg width="60" height="60" viewBox="0 0 60 60" fill="none" xmlns="http://www.w3.org/2000/svg">
<rect width="60" height="60" rx="20" fill="#E7EDFF"/>
<g clip-path="url(#clip0_43_4)">
<path d="M30.3218 30.0426C31.9762 30.0426 33.4088 29.4492 34.5793 28.2785C35.7499 27.1079 36.3432 25.6757 36.3432 24.0211C36.3432 22.367 35.7499 20.9346 34.5791 19.7637C33.4084 18.5934 31.976 18 30.3218 18C28.6672 18 27.2349 18.5934 26.0644 19.7639C24.8939 20.9344 24.3003 22.3669 24.3003 24.0211C24.3003 25.6757 24.8939 27.1081 26.0646 28.2787C27.2353 29.449 28.6677 30.0426 30.3218 30.0426Z" fill="#396AFF"/>
<path d="M40.8578 37.2237C40.824 36.7366 40.7557 36.2052 40.6552 35.644C40.5537 35.0787 40.4231 34.5443 40.2667 34.0558C40.1051 33.5509 39.8854 33.0523 39.6138 32.5745C39.3319 32.0786 39.0008 31.6468 38.6292 31.2915C38.2407 30.9197 37.765 30.6209 37.2149 30.4028C36.6668 30.186 36.0593 30.0761 35.4095 30.0761C35.1543 30.0761 34.9074 30.1808 34.4308 30.4912C34.1374 30.6825 33.7943 30.9037 33.4113 31.1484C33.0838 31.3571 32.6402 31.5526 32.0922 31.7296C31.5576 31.9026 31.0147 31.9903 30.479 31.9903C29.9432 31.9903 29.4006 31.9026 28.8654 31.7296C28.318 31.5528 27.8743 31.3573 27.5472 31.1486C27.1678 30.9062 26.8245 30.6849 26.5268 30.491C26.0507 30.1806 25.8037 30.0759 25.5485 30.0759C24.8985 30.0759 24.2912 30.186 23.7432 30.403C23.1935 30.6207 22.7176 30.9195 22.3287 31.2917C21.9574 31.6472 21.6261 32.0788 21.3445 32.5745C21.0731 33.0523 20.8534 33.5507 20.6916 34.056C20.5354 34.5444 20.4048 35.0787 20.3033 35.644C20.2028 36.2044 20.1345 36.736 20.1008 37.2243C20.0676 37.7026 20.0508 38.1991 20.0508 38.7005C20.0508 40.0055 20.4656 41.062 21.2837 41.8412C22.0916 42.61 23.1607 43.0001 24.4607 43.0001H36.4984C37.7984 43.0001 38.8671 42.6102 39.6752 41.8412C40.4935 41.0626 40.9083 40.0059 40.9083 38.7004C40.9081 38.1966 40.8912 37.6998 40.8578 37.2237Z" fill="#396AFF"/>
</g>
<defs>
<clipPath id="clip0_43_4">
<rect width="24.9999" height="25" fill="white" transform="translate(18 18)"/>
</clipPath>
</defs>
</svg>
