<svg width="70" height="70" viewBox="0 0 70 70" fill="none" xmlns="http://www.w3.org/2000/svg">
<circle cx="35" cy="35" r="35" fill="#E7EDFF"/>
<g clip-path="url(#clip0_112_1077)">
<path d="M47.3166 24.0926C43.4204 24.0926 40.4384 23.1162 38.6229 22.297C36.6493 21.4065 35.5851 20.5029 35.5762 20.4953L35.0013 20L34.4255 20.4938C34.415 20.5029 33.3507 21.4066 31.3771 22.297C29.5617 23.1162 26.5797 24.0926 22.6835 24.0926H21.8037V36.169L35 49.9999L48.1964 36.1812V24.0926H47.3166ZM44.6773 32.3075C44.6773 33.6718 44.1472 34.9545 43.1844 35.9206L35 44.4225L26.8157 35.9205C25.8528 34.9545 25.3227 33.6717 25.3227 32.3075V31.8501C25.3227 29.0279 27.6188 26.7318 30.441 26.7318C31.7076 26.7318 32.9236 27.1984 33.865 28.0457L34.9681 29.0385L35.7757 28.2309C36.7425 27.2642 38.0278 26.7318 39.3949 26.7318H39.559C42.3812 26.7318 44.6773 29.0278 44.6773 31.8501V32.3075H44.6773Z" fill="#396AFF"/>
<path d="M39.5588 28.4914H39.3948C38.4977 28.4914 37.6542 28.8408 37.0197 29.4751L35.0317 31.4631L32.6878 29.3536C32.0699 28.7975 31.272 28.4913 30.4408 28.4913C28.5888 28.4913 27.082 29.9981 27.082 31.8501V32.3075C27.082 33.2047 27.4314 34.0482 28.0658 34.6825L28.0775 34.6944L34.9998 41.8854L41.9338 34.6825C42.5682 34.0481 42.9176 33.2046 42.9176 32.3074V31.8501C42.9176 29.9982 41.4108 28.4914 39.5588 28.4914ZM37.6391 36.4092H35.8796V38.1687H34.1201V36.4092H32.3606V34.6497H34.1201V32.8902H35.8796V34.6497H37.6391V36.4092Z" fill="#396AFF"/>
</g>
<defs>
<clipPath id="clip0_112_1077">
<rect width="30" height="30" fill="white" transform="translate(20 20)"/>
</clipPath>
</defs>
</svg>
