<svg width="60" height="60" viewBox="0 0 60 60" fill="none" xmlns="http://www.w3.org/2000/svg">
<rect width="60" height="60" rx="20" fill="#DCFAF8"/>
<g clip-path="url(#clip0_43_5)">
<path d="M40.0692 34.6948C39.3972 36.516 38.381 38.0995 37.0483 39.4008C35.5314 40.8821 33.5451 42.0591 31.1445 42.8987C31.0657 42.9262 30.9835 42.9487 30.9009 42.9653C30.7918 42.9868 30.6808 42.9985 30.5708 43H30.5492C30.4319 43 30.314 42.9882 30.1971 42.9653C30.1145 42.9487 30.0335 42.9262 29.9551 42.8993C27.5516 42.061 25.5628 40.8846 24.0444 39.4033C22.7111 38.1019 21.6951 36.5194 21.0241 34.6983C19.804 31.3871 19.8734 27.7395 19.9293 24.8083L19.9302 24.7633C19.9415 24.5212 19.9487 24.267 19.9527 23.9862C19.9731 22.6078 21.0691 21.4674 22.4477 21.3905C25.3221 21.2301 27.5457 20.2926 29.4456 18.4408L29.4622 18.4255C29.7777 18.1362 30.1752 17.9943 30.5708 18.0002C30.9522 18.0051 31.3322 18.1469 31.6364 18.4255L31.6526 18.4408C33.5529 20.2926 35.7765 21.2301 38.6509 21.3905C40.0295 21.4674 41.1255 22.6078 41.1459 23.9862C41.1499 24.2689 41.1571 24.5227 41.1684 24.7633L41.169 24.7823C41.2246 27.7191 41.2937 31.3739 40.0692 34.6948Z" fill="#16DBCC"/>
<path d="M40.0692 34.6949C39.3972 36.516 38.381 38.0995 37.0483 39.4009C35.5314 40.8822 33.5451 42.0592 31.1445 42.8988C31.0658 42.9263 30.9836 42.9488 30.901 42.9654C30.7919 42.9869 30.6809 42.9985 30.5708 43.0001V18.0002C30.9523 18.0052 31.3322 18.1469 31.6364 18.4256L31.6526 18.4408C33.5529 20.2927 35.7765 21.2302 38.6509 21.3906C40.0295 21.4674 41.1255 22.6078 41.1459 23.9863C41.1499 24.2689 41.1572 24.5228 41.1684 24.7633L41.169 24.7824C41.2247 27.7191 41.2937 31.374 40.0692 34.6949Z" fill="#16DBCC"/>
<path d="M36.7794 30.5001C36.7794 33.9282 33.996 36.7186 30.5708 36.7308H30.5488C27.1135 36.7308 24.3181 33.9356 24.3181 30.5001C24.3181 27.0648 27.1135 24.2695 30.5488 24.2695H30.5708C33.996 24.2817 36.7794 27.0722 36.7794 30.5001Z" fill="white"/>
<path d="M34.3771 29.4969L30.5955 32.8518L29.7784 33.5766C29.5854 33.7478 29.3322 33.8333 29.0792 33.8333C28.826 33.8333 28.5731 33.7478 28.3798 33.5766L26.6229 32.0175C26.2369 31.675 26.2369 31.1203 26.6229 30.7776C27.0085 30.4351 27.6347 30.4351 28.0207 30.7776L29.0792 31.7165L32.9793 28.257C33.3654 27.9143 33.9916 27.9143 34.3771 28.257C34.7632 28.5995 34.7632 29.1549 34.3771 29.4969Z" fill="#16DBCC"/>
</g>
<defs>
<clipPath id="clip0_43_5">
<rect width="25" height="25" fill="white" transform="translate(18 18)"/>
</clipPath>
</defs>
</svg>
