<svg width="70" height="70" viewBox="0 0 70 70" fill="none" xmlns="http://www.w3.org/2000/svg">
<circle cx="35" cy="35" r="35" fill="#FFE0EB"/>
<g clip-path="url(#clip0_104_399)">
<path d="M35.8787 35.8783V20C27.3736 20.4461 20.4466 27.3731 20.0005 35.8783H35.8787ZM32.3633 33.2416H30.6055V31.4839H32.3633V33.2416ZM27.09 27.9684H28.8478V29.7262H27.09V27.9684ZM31.4844 27.6045L32.7272 28.8473L27.9689 33.6056L26.7261 32.3628L31.4844 27.6045Z" fill="#FF82AC"/>
<path d="M35.8787 37.636H25.3657C25.794 43.2371 30.2776 47.7207 35.8787 48.149V37.636H35.8787Z" fill="#FF82AC"/>
<path d="M37.6362 23.5155C37.6362 23.7043 37.6362 50.2063 37.6362 49.9988C44.4956 49.5432 49.999 43.6423 49.999 36.6694C49.999 29.6959 44.4973 23.9695 37.6362 23.5155ZM42.9095 35.8783C44.3633 35.8783 45.5461 37.061 45.5461 38.5149C45.5461 39.6592 44.8091 40.6256 43.7883 40.9896V42.9092H42.0306V40.9896C41.0098 40.6256 40.2728 39.6592 40.2728 38.5149H42.0306C42.0306 38.9998 42.4246 39.3938 42.9095 39.3938C43.3944 39.3938 43.7883 38.9998 43.7883 38.5149C43.7883 38.03 43.3944 37.636 42.9095 37.636C41.4556 37.636 40.2728 36.4533 40.2728 34.9994C40.2728 33.8551 41.0098 32.8887 42.0306 32.5247V30.6051H43.7883V32.5247C44.8091 32.8887 45.5461 33.8551 45.5461 34.9994H43.7883C43.7883 34.5145 43.3944 34.1205 42.9095 34.1205C42.4246 34.1205 42.0306 34.5145 42.0306 34.9994C42.0306 35.4843 42.4246 35.8783 42.9095 35.8783Z" fill="#FF82AC"/>
</g>
<defs>
<clipPath id="clip0_104_399">
<rect width="30" height="30" fill="white" transform="translate(20 20)"/>
</clipPath>
</defs>
</svg>
