<svg width="70" height="70" viewBox="0 0 70 70" fill="none" xmlns="http://www.w3.org/2000/svg">
<circle cx="35" cy="35" r="35" fill="#E7EDFF"/>
<g clip-path="url(#clip0_104_401)">
<path d="M49.7258 25.8999L44.101 20.2751C43.8329 20.0069 43.4298 19.9263 43.0791 20.0726C42.7285 20.2188 42.4998 20.5582 42.4998 20.9369V23.7493H30.3127C24.6166 23.7493 20.0005 28.3654 20.0005 34.0615C20.0005 34.579 20.4205 34.999 20.938 34.999H24.6878C25.2053 34.999 25.6253 34.579 25.6253 34.0615C25.6253 31.4722 27.7234 29.3742 30.3127 29.3742H42.4998V32.1866C42.4998 32.5653 42.7285 32.9084 43.0791 33.0528C43.4298 33.199 43.8329 33.1184 44.101 32.8503L49.7258 27.2255C50.0914 26.8599 50.0914 26.2655 49.7258 25.8999Z" fill="#396AFF"/>
<path d="M49.0621 34.9991H45.3122C44.7947 34.9991 44.3747 35.4191 44.3747 35.9366C44.3747 38.5259 42.2766 40.624 39.6874 40.624H27.5002V37.8116C27.5002 37.4328 27.2715 37.0897 26.9209 36.9453C26.5703 36.801 26.169 36.8816 25.899 37.1497L20.2742 42.7745C19.9086 43.1402 19.9086 43.7345 20.2742 44.1001L25.899 49.725C26.1672 49.9931 26.5703 50.0737 26.9209 49.9275C27.2715 49.7812 27.5002 49.44 27.5002 49.0612V46.2488H39.6874C45.3834 46.2488 49.9995 41.6327 49.9995 35.9366C49.9995 35.4191 49.5795 34.9991 49.0621 34.9991Z" fill="#396AFF"/>
</g>
<defs>
<clipPath id="clip0_104_401">
<rect width="30" height="30" fill="white" transform="translate(20 20)"/>
</clipPath>
</defs>
</svg>
