<svg width="70" height="70" viewBox="0 0 70 70" fill="none" xmlns="http://www.w3.org/2000/svg">
<circle cx="35" cy="35" r="35" fill="#DCFAF8"/>
<g clip-path="url(#clip0_112_1087)">
<path d="M46.483 40.0338C45.6767 42.2192 44.4572 44.1193 42.858 45.681C41.0377 47.4585 38.6541 48.8709 35.7734 49.8785C35.6789 49.9114 35.5802 49.9384 35.4811 49.9584C35.3502 49.9842 35.217 49.9982 35.0849 50H35.0591C34.9183 50 34.7768 49.9858 34.6365 49.9584C34.5374 49.9384 34.4402 49.9114 34.3461 49.8792C31.4619 48.8732 29.0754 47.4615 27.2533 45.684C25.6534 44.1223 24.4341 42.2233 23.6289 40.0379C22.1648 36.0645 22.2481 31.6874 22.3151 28.1699L22.3163 28.1159C22.3298 27.8255 22.3385 27.5204 22.3433 27.1834C22.3678 25.5293 23.6829 24.1608 25.3373 24.0686C28.7865 23.8761 31.4548 22.7511 33.7347 20.5289L33.7547 20.5106C34.1332 20.1634 34.6102 19.9931 35.0849 20.0002C35.5427 20.0062 35.9986 20.1762 36.3637 20.5106L36.3831 20.5289C38.6635 22.7511 41.3318 23.8761 44.781 24.0686C46.4354 24.1608 47.7506 25.5293 47.7751 27.1834C47.7799 27.5226 47.7886 27.8273 47.8021 28.1159L47.8027 28.1388C47.8696 31.6629 47.9524 36.0487 46.483 40.0338Z" fill="#16DBCC"/>
<path d="M46.483 40.0338C45.6767 42.2192 44.4572 44.1194 42.858 45.681C41.0377 47.4585 38.6541 48.871 35.7734 49.8785C35.6789 49.9115 35.5803 49.9385 35.4812 49.9584C35.3502 49.9842 35.217 49.9982 35.085 50V20.0002C35.5427 20.0062 35.9987 20.1763 36.3637 20.5107L36.3832 20.529C38.6635 22.7512 41.3318 23.8761 44.7811 24.0686C46.4354 24.1609 47.7506 25.5293 47.7751 27.1835C47.7799 27.5227 47.7886 27.8273 47.8021 28.1159L47.8028 28.1388C47.8696 31.6629 47.9525 36.0488 46.483 40.0338Z" fill="#16DBCC"/>
<path d="M42.5356 35C42.5356 39.1137 39.1955 42.4622 35.0852 42.4769H35.0589C30.9365 42.4769 27.582 39.1226 27.582 35C27.582 30.8776 30.9365 27.5233 35.0589 27.5233H35.0852C39.1955 27.538 42.5356 30.8865 42.5356 35Z" fill="white"/>
<path d="M39.6525 33.7963L35.1146 37.8221L34.134 38.6919C33.9024 38.8974 33.5986 39 33.295 39C32.9912 39 32.6877 38.8974 32.4557 38.6919L30.3475 36.821C29.8842 36.41 29.8842 35.7444 30.3475 35.3331C30.8101 34.9222 31.5615 34.9222 32.0248 35.3331L33.295 36.4598L37.9752 32.3084C38.4385 31.8972 39.1899 31.8972 39.6525 32.3084C40.1158 32.7194 40.1158 33.3859 39.6525 33.7963Z" fill="#16DBCC"/>
</g>
<defs>
<clipPath id="clip0_112_1087">
<rect width="30" height="30" fill="white" transform="translate(20 20)"/>
</clipPath>
</defs>
</svg>
