<svg width="60" height="60" viewBox="0 0 60 60" fill="none" xmlns="http://www.w3.org/2000/svg">
<rect width="60" height="60" rx="20" fill="#FFE0EB"/>
<path d="M30.1328 43H28.1797C27.2104 43 26.4219 42.2115 26.4219 41.2422V29.1328C26.4219 28.1635 27.2104 27.375 28.1797 27.375H30.1328C31.1021 27.375 31.8906 28.1635 31.8906 29.1328V41.2422C31.8906 42.2115 31.102 43 30.1328 43Z" fill="#FF82AC"/>
<path d="M22.7109 43H20.7578C19.7885 43 19 42.2115 19 41.2422V33.0391C19 32.0698 19.7885 31.2812 20.7578 31.2812H22.7109C23.6802 31.2812 24.4688 32.0698 24.4688 33.0391V41.2422C24.4688 42.2115 23.6802 43 22.7109 43Z" fill="#FF82AC"/>
<path d="M37.555 43H35.6019C34.6326 43 33.8441 42.2115 33.8441 41.2422V25.0312H32.7709C32.2691 25.0312 31.8271 24.748 31.6174 24.2922C31.4078 23.8363 31.4804 23.3165 31.8069 22.9355C31.8107 22.9312 31.8145 22.9268 31.8183 22.9226L35.9966 18.2599C36.1448 18.0945 36.3564 18 36.5785 18C36.8006 18 37.0121 18.0945 37.1603 18.2599L41.3387 22.9226C41.3426 22.9268 41.3463 22.9312 41.35 22.9355C41.6766 23.3165 41.7492 23.8363 41.5395 24.2922C41.3299 24.748 40.8879 25.0312 40.3861 25.0312H39.3129V41.2422C39.3129 42.2115 38.5243 43 37.555 43Z" fill="#FF82AC"/>
</svg>
