<svg viewBox="0 0 60 60" fill="none" xmlns="http://www.w3.org/2000/svg">
<rect width="60" height="60" rx="20" fill="#E7EDFF"/>
<path d="M30.3213 29.0426C31.9757 29.0426 33.4083 28.4492 34.5788 27.2785C35.7494 26.1079 36.3428 24.6757 36.3428 23.0211C36.3428 21.367 35.7494 19.9346 34.5787 18.7637C33.4079 17.5934 31.9755 17 30.3213 17C28.6667 17 27.2344 17.5934 26.0639 18.7639C24.8934 19.9344 24.2998 21.3669 24.2998 23.0211C24.2998 24.6757 24.8934 26.1081 26.0641 27.2787C27.2348 28.449 28.6672 29.0426 30.3213 29.0426V29.0426Z" fill="#396AFF"/>
<path d="M40.807 36.1478C40.7732 35.6606 40.7049 35.1292 40.6044 34.5681C40.503 34.0028 40.3723 33.4683 40.2159 32.9799C40.0544 32.475 39.8346 31.9764 39.563 31.4986C39.2811 31.0027 38.95 30.5709 38.5785 30.2155C38.1899 29.8438 37.7142 29.5449 37.1642 29.3269C36.616 29.1101 36.0085 29.0002 35.3587 29.0002C35.1035 29.0002 34.8567 29.1049 34.38 29.4152C34.0867 29.6065 33.7435 29.8278 33.3605 30.0725C33.0331 30.2812 32.5894 30.4767 32.0414 30.6537C31.5068 30.8267 30.964 30.9144 30.4282 30.9144C29.8924 30.9144 29.3498 30.8267 28.8146 30.6537C28.2672 30.4769 27.8235 30.2814 27.4964 30.0727C27.1171 29.8303 26.7737 29.609 26.476 29.415C25.9999 29.1047 25.7529 29 25.4977 29C24.8477 29 24.2404 29.1101 23.6924 29.3271C23.1427 29.5447 22.6668 29.8436 22.2779 30.2157C21.9066 30.5713 21.5753 31.0029 21.2937 31.4986C21.0223 31.9764 20.8026 32.4748 20.6409 32.98C20.4847 33.4685 20.354 34.0028 20.2525 34.5681C20.152 35.1285 20.0837 35.6601 20.05 36.1483C20.0168 36.6267 20 37.1232 20 37.6246C20 38.9296 20.4148 39.9861 21.2329 40.7652C22.0409 41.5341 23.1099 41.9241 24.41 41.9241H36.4476C37.7476 41.9241 38.8163 41.5343 39.6244 40.7652C40.4427 39.9867 40.8575 38.93 40.8575 37.6244C40.8573 37.1207 40.8404 36.6238 40.807 36.1478V36.1478Z" fill="#396AFF"/>
</svg>
