<svg viewBox="0 0 60 60" fill="none" xmlns="http://www.w3.org/2000/svg">
<rect width="60" height="60" rx="20" fill="#FFF5D9"/>
<g clip-path="url(#clip0_392_15)">
<path d="M39.9167 20.1251H34.7083V19.0834C34.7083 17.9344 33.774 17 32.625 17H26.375C25.226 17 24.2917 17.9343 24.2917 19.0834V20.125H19.0833C17.9343 20.1251 17 21.0594 17 22.2084V25.3334C17 26.4824 17.9343 27.4167 19.0833 27.4167H27.4167V26.8959C27.4167 26.608 27.6497 26.375 27.9375 26.375H31.0625C31.3504 26.375 31.5834 26.608 31.5834 26.8959V27.4167H39.9167C41.0657 27.4167 42 26.4824 42 25.3334V22.2084C42 21.0594 41.0657 20.1251 39.9167 20.1251ZM32.625 20.1251H26.375V19.0834H32.625V20.1251Z" fill="#FFBB38"/>
<path d="M41.7111 27.9787C41.5336 27.8907 41.3215 27.9111 41.1648 28.0301C40.7945 28.3104 40.3632 28.4584 39.9166 28.4584H31.5833V30.0209C31.5833 30.3087 31.3504 30.5417 31.0625 30.5417H27.9375C27.6496 30.5417 27.4167 30.3087 27.4167 30.0209V28.4584H19.0833C18.6368 28.4584 18.2055 28.3104 17.8352 28.0301C17.678 27.9101 17.4664 27.8897 17.2889 27.9787C17.1119 28.0667 17 28.2473 17 28.4452V35.7501C17 36.899 17.9343 37.8334 19.0833 37.8334H39.9167C41.0657 37.8334 42 36.8991 42 35.7501V28.4452C42 28.2473 41.8881 28.0667 41.7111 27.9787Z" fill="#FFBB38"/>
</g>
<defs>
<clipPath id="clip0_392_15">
<rect width="25" height="25" fill="white" transform="translate(17 17)"/>
</clipPath>
</defs>
</svg>
