<svg  viewBox="0 0 60 60" fill="none" xmlns="http://www.w3.org/2000/svg">
<rect width="60" height="60" rx="20" fill="#DCFAF8"/>
<path d="M39.1649 33.6948C38.4929 35.516 37.4767 37.0995 36.144 38.4008C34.6271 39.8821 32.6408 41.0591 30.2402 41.8987C30.1614 41.9262 30.0792 41.9487 29.9966 41.9653C29.8875 41.9868 29.7765 41.9985 29.6665 42H29.6449C29.5276 42 29.4097 41.9882 29.2928 41.9653C29.2102 41.9487 29.1292 41.9262 29.0508 41.8993C26.6473 41.061 24.6585 39.8846 23.1401 38.4033C21.8068 37.1019 20.7908 35.5194 20.1198 33.6983C18.8997 30.3871 18.9691 26.7395 19.025 23.8083L19.0259 23.7633C19.0372 23.5212 19.0444 23.267 19.0484 22.9862C19.0688 21.6078 20.1648 20.4674 21.5434 20.3905C24.4178 20.2301 26.6414 19.2926 28.5413 17.4408L28.5579 17.4255C28.8734 17.1362 29.2709 16.9943 29.6665 17.0002C30.0479 17.0051 30.4279 17.1469 30.7321 17.4255L30.7483 17.4408C32.6486 19.2926 34.8722 20.2301 37.7466 20.3905C39.1252 20.4674 40.2212 21.6078 40.2416 22.9862C40.2456 23.2689 40.2528 23.5227 40.2641 23.7633L40.2647 23.7823C40.3204 26.7191 40.3894 30.3739 39.1649 33.6948Z" fill="#16DBCC"/>
<path d="M39.1654 33.6948C38.4934 35.5159 37.4772 37.0994 36.1445 38.4008C34.6276 39.882 32.6413 41.0591 30.2407 41.8987C30.1619 41.9261 30.0797 41.9486 29.9972 41.9652C29.8881 41.9868 29.777 41.9984 29.667 42V17.0001C30.0485 17.0051 30.4284 17.1468 30.7326 17.4255L30.7488 17.4407C32.6491 19.2926 34.8727 20.23 37.7471 20.3904C39.1257 20.4673 40.2217 21.6077 40.2421 22.9861C40.2461 23.2688 40.2533 23.5227 40.2646 23.7632L40.2652 23.7823C40.3209 26.719 40.3899 30.3739 39.1654 33.6948Z" fill="#16DBCC"/>
<path d="M35.8753 29.5C35.8753 32.928 33.0919 35.7185 29.6667 35.7307H29.6448C26.2095 35.7307 23.4141 32.9355 23.4141 29.5C23.4141 26.0646 26.2095 23.2694 29.6448 23.2694H29.6667C33.0919 23.2816 35.8753 26.0721 35.8753 29.5Z" fill="white"/>
<path d="M33.4725 28.4969L29.6909 31.8518L28.8737 32.5766C28.6807 32.7478 28.4275 32.8333 28.1746 32.8333C27.9214 32.8333 27.6685 32.7478 27.4752 32.5766L25.7183 31.0175C25.3322 30.675 25.3322 30.1203 25.7183 29.7776C26.1038 29.4351 26.73 29.4351 27.1161 29.7776L28.1746 30.7165L32.0747 27.257C32.4608 26.9143 33.0869 26.9143 33.4725 27.257C33.8586 27.5995 33.8586 28.1549 33.4725 28.4969Z" fill="#16DBCC"/>
</svg>
