<svg  viewBox="0 0 60 60" fill="none" xmlns="http://www.w3.org/2000/svg">
<rect width="60" height="60" rx="20" fill="#FFE0EB"/>
<path d="M30.1328 42H28.1797C27.2104 42 26.4219 41.2115 26.4219 40.2422V28.1328C26.4219 27.1635 27.2104 26.375 28.1797 26.375H30.1328C31.1021 26.375 31.8906 27.1635 31.8906 28.1328V40.2422C31.8906 41.2115 31.102 42 30.1328 42Z" fill="#FF82AC"/>
<path d="M22.7109 42H20.7578C19.7885 42 19 41.2115 19 40.2422V32.0391C19 31.0698 19.7885 30.2812 20.7578 30.2812H22.7109C23.6802 30.2812 24.4688 31.0698 24.4688 32.0391V40.2422C24.4688 41.2115 23.6802 42 22.7109 42Z" fill="#FF82AC"/>
<path d="M37.5549 42H35.6018C34.6325 42 33.844 41.2115 33.844 40.2422V24.0312H32.7707C32.269 24.0312 31.827 23.748 31.6173 23.2922C31.4077 22.8363 31.4803 22.3165 31.8068 21.9355C31.8105 21.9312 31.8143 21.9268 31.8181 21.9226L35.9965 17.2599C36.1447 17.0945 36.3563 17 36.5784 17C36.8004 17 37.012 17.0945 37.1602 17.2599L41.3386 21.9226C41.3424 21.9268 41.3462 21.9312 41.3499 21.9355C41.6765 22.3165 41.7491 22.8363 41.5394 23.2922C41.3297 23.748 40.8877 24.0312 40.386 24.0312H39.3127V40.2422C39.3127 41.2115 38.5242 42 37.5549 42V42Z" fill="#FF82AC"/>
</svg>
