<svg width="17" height="14" viewBox="0 0 17 14" fill="none" xmlns="http://www.w3.org/2000/svg">
<path d="M16.0963 0.572034C16.1748 0.206511 15.8164 -0.101694 15.4669 0.0316926L0.303581 5.82017C0.121087 5.88985 0.000378397 6.06476 8.88017e-07 6.26009C-0.000376621 6.45546 0.11964 6.63084 0.301883 6.70121L4.56154 8.34637V13.5281C4.56154 13.7467 4.71163 13.9366 4.9243 13.9872C5.13554 14.0374 5.35582 13.9369 5.45485 13.7404L7.2166 10.2445L11.5159 13.4351C11.7774 13.6292 12.1533 13.5058 12.2485 13.1939C16.2627 0.0327312 16.0891 0.605098 16.0963 0.572034ZM12.3532 2.2305L4.96655 7.49106L1.78829 6.26359L12.3532 2.2305ZM5.50531 8.26599L11.944 3.6806C6.4036 9.52539 6.69296 9.21775 6.6688 9.25028C6.6329 9.29857 6.73125 9.11035 5.50531 11.5431V8.26599ZM11.541 12.2785L7.75659 9.46993L14.5993 2.25126L11.541 12.2785Z" fill="white"/>
</svg>
