<svg width="70" height="70" viewBox="0 0 70 70" fill="none" xmlns="http://www.w3.org/2000/svg">
<circle cx="35" cy="35" r="35" fill="#FFE0EB"/>
<g clip-path="url(#clip0_104_44)">
<path d="M34.7651 50H32.4214C31.2582 50 30.312 49.0538 30.312 47.8906V33.3594C30.312 32.1962 31.2582 31.25 32.4214 31.25H34.7651C35.9283 31.25 36.8745 32.1962 36.8745 33.3594V47.8906C36.8745 49.0538 35.9282 50 34.7651 50Z" fill="#FF82AC"/>
<path d="M25.8589 50H23.5151C22.352 50 21.4058 49.0538 21.4058 47.8906V38.0469C21.4058 36.8837 22.352 35.9375 23.5151 35.9375H25.8589C27.022 35.9375 27.9683 36.8837 27.9683 38.0469V47.8906C27.9683 49.0538 27.022 50 25.8589 50Z" fill="#FF82AC"/>
<path d="M43.6714 50H41.3276C40.1645 50 39.2182 49.0538 39.2182 47.8906V28.4375H37.9304C37.3282 28.4375 36.7979 28.0977 36.5463 27.5506C36.2946 27.0036 36.3818 26.3798 36.7737 25.9226C36.7781 25.9174 36.7827 25.9122 36.7872 25.9071L41.8013 20.3118C41.9791 20.1134 42.233 20 42.4995 20C42.766 20 43.0198 20.1134 43.1977 20.3118L48.2118 25.9071C48.2164 25.9122 48.2209 25.9174 48.2254 25.9226C48.6172 26.3797 48.7044 27.0036 48.4528 27.5506C48.2012 28.0977 47.6708 28.4375 47.0687 28.4375H45.7808V47.8906C45.7808 49.0538 44.8345 50 43.6714 50Z" fill="#FF82AC"/>
</g>
<defs>
<clipPath id="clip0_104_44">
<rect width="30" height="30" fill="white" transform="translate(20 20)"/>
</clipPath>
</defs>
</svg>
