<svg width="50" height="50" viewBox="0 0 50 50" fill="none" xmlns="http://www.w3.org/2000/svg">
<circle cx="25" cy="25" r="25" fill="#FFE0EB"/>
<path d="M31.7549 15C30.6109 15 29.6836 15.9273 29.6836 17.0713V23.2516H33.2402C33.5638 23.2516 33.8262 22.9892 33.8262 22.6656V17.0713C33.8262 15.9273 32.8988 15 31.7549 15V15Z" fill="#FF82AC"/>
<path d="M22.0844 29.7266C22.0844 26.187 24.9638 23.2718 28.5507 23.2815V17.3237C28.5507 16.4324 28.8862 15.6181 29.4373 15H19.1027C17.4879 15 16.1738 16.3141 16.1738 17.9289V34.4035C16.1738 34.9306 16.8186 35.1896 17.1832 34.8086L17.9328 34.0258L18.7246 34.818C18.9531 35.0465 19.3242 35.0465 19.5531 34.818L20.3035 34.068L21.0613 34.8195C21.2898 35.0461 21.6582 35.0461 21.8867 34.8195L22.6566 34.0562L23.427 34.8195C23.6551 35.0461 24.023 35.0461 24.2516 34.8199L24.4008 34.6723C22.948 33.4576 22.0844 31.6616 22.0844 29.7266ZM20.9139 19.7266H22.0703V18.5702C22.0703 18.2466 22.3327 17.9842 22.6562 17.9842C22.9798 17.9842 23.2422 18.2466 23.2422 18.5702V19.7266H24.3986C24.7222 19.7266 24.9845 19.9889 24.9845 20.3125C24.9845 20.6361 24.7222 20.8984 24.3986 20.8984H23.2422V22.0548C23.2422 22.3784 22.9798 22.6408 22.6562 22.6408C22.3327 22.6408 22.0703 22.3784 22.0703 22.0548V20.8984H20.9139C20.5903 20.8984 20.328 20.6361 20.328 20.3125C20.328 19.9889 20.5903 19.7266 20.9139 19.7266ZM19.1406 23.8301H23.0859C23.4095 23.8301 23.6719 24.0924 23.6719 24.416C23.6719 24.7396 23.4095 25.002 23.0859 25.002H19.1406C18.817 25.002 18.5546 24.7396 18.5546 24.416C18.5546 24.0924 18.817 23.8301 19.1406 23.8301ZM21.0957 29.6855H19.1367C18.8131 29.6855 18.5507 29.4232 18.5507 29.0996C18.5507 28.776 18.8131 28.5137 19.1367 28.5137H21.0957C21.4193 28.5137 21.6816 28.776 21.6816 29.0996C21.6816 29.4232 21.4193 29.6855 21.0957 29.6855ZM21.4863 27.3457H19.1386C18.815 27.3457 18.5527 27.0834 18.5527 26.7598C18.5527 26.4362 18.815 26.1738 19.1386 26.1738H21.4863C21.8099 26.1738 22.0723 26.4362 22.0723 26.7598C22.0723 27.0834 21.8099 27.3457 21.4863 27.3457Z" fill="#FF82AC"/>
<path d="M28.5298 24.4531C25.622 24.4531 23.2563 26.8188 23.2563 29.7266C23.2563 32.6343 25.622 35 28.5298 35C31.4376 35 33.8032 32.6343 33.8032 29.7266C33.8032 26.8188 31.4376 24.4531 28.5298 24.4531ZM29.1176 31.9832V32.0389C29.1176 32.3625 28.8552 32.6248 28.5316 32.6248C28.208 32.6248 27.9457 32.3625 27.9457 32.0389V32.0289C27.6832 31.9664 27.4397 31.863 27.2466 31.7367C26.9758 31.5595 26.8999 31.1964 27.0771 30.9255C27.2542 30.6547 27.6174 30.5788 27.8882 30.756C28.128 30.9129 28.5233 30.9725 28.7176 30.8811C28.8435 30.8218 28.9409 30.6954 28.9545 30.5736C28.9835 30.3141 28.577 30.1694 28.3343 30.0735C27.9671 29.9285 27.5099 29.7479 27.2446 29.2689C26.8663 28.5861 27.1976 27.6858 27.9457 27.3779V27.3484C27.9457 27.0248 28.208 26.7625 28.5316 26.7625C28.852 26.7625 29.112 27.0198 29.1171 27.3389C29.328 27.4048 29.5223 27.5103 29.6778 27.6538C29.9157 27.8732 29.9307 28.2439 29.7113 28.4818C29.4919 28.7197 29.1212 28.7346 28.8833 28.5152C28.7869 28.4263 28.4899 28.3904 28.3608 28.4771C28.274 28.5354 28.2399 28.6473 28.2697 28.7009C28.3934 28.9243 29.0415 29.0009 29.5319 29.3831C30.5338 30.1638 30.1852 31.5736 29.1176 31.9832Z" fill="#FF82AC"/>
</svg>
