<svg width="50" height="50" viewBox="0 0 50 50" fill="none" xmlns="http://www.w3.org/2000/svg">
<circle cx="25" cy="25" r="25" fill="#E7EDFF"/>
<path d="M26.7915 24.8953C29.5197 24.8953 31.7388 22.6758 31.7388 19.9477C31.7388 17.2195 29.5197 15 26.7915 15C24.0634 15 21.8439 17.2195 21.8439 19.9477C21.8439 22.6758 24.0634 24.8953 26.7915 24.8953ZM26.2056 17.0395V16.9051C26.2056 16.5813 26.4677 16.3191 26.7915 16.3191C27.115 16.3191 27.3775 16.5813 27.3775 16.9051V17.0402C28.0748 17.1899 28.5994 17.8109 28.5994 18.5524C28.5994 18.8758 28.3369 19.1383 28.0134 19.1383C27.6896 19.1383 27.4275 18.8758 27.4275 18.5524C27.4275 18.3457 27.2591 18.1774 27.0525 18.1774H26.5271C26.3204 18.1774 26.1521 18.3457 26.1521 18.5524C26.1521 18.6707 26.2087 18.7832 26.304 18.8535L26.7915 19.2145L27.9759 20.091C28.365 20.3789 28.5994 20.8395 28.6025 21.3238V21.3293C28.6052 21.7426 28.447 22.1324 28.1564 22.4266C27.9408 22.6449 27.6712 22.7914 27.3775 22.8531V22.9903C27.3775 23.3141 27.115 23.5762 26.7915 23.5762C26.4677 23.5762 26.2056 23.3141 26.2056 22.9903V22.8551C25.9197 22.7942 25.6568 22.6535 25.4443 22.4434C25.1501 22.1531 24.9869 21.7656 24.9845 21.3524C24.9826 21.0289 25.2431 20.7649 25.5665 20.7629H25.5704C25.8923 20.7629 26.1544 21.0231 26.1564 21.3453C26.1572 21.5476 26.3199 21.718 26.5333 21.718C26.8571 21.716 26.7365 21.7167 27.058 21.7149C27.2659 21.7132 27.4322 21.5444 27.4306 21.3371V21.3317C27.4298 21.2145 27.3732 21.1028 27.2787 21.0328L26.7915 20.6723L25.6068 19.7957C25.2146 19.5051 24.9802 19.0402 24.9802 18.5524C24.9802 17.8094 25.5064 17.1879 26.2056 17.0395Z" fill="#396AFF"/>
<path d="M18.775 27.7108C18.6248 27.4504 18.2912 27.3598 18.0292 27.511L15.273 29.102C15.012 29.2531 14.9225 29.5868 15.0732 29.8482L17.8901 34.7272C18.0409 34.9881 18.3745 35.0777 18.6359 34.927L21.3921 33.3356C21.6535 33.1849 21.7427 32.8511 21.592 32.5898L18.775 27.7108Z" fill="#396AFF"/>
<path d="M34.5677 26.7367C34.3025 26.3684 33.7892 26.2852 33.4212 26.5504C32.3048 27.3547 30.161 28.8992 29.9907 29.0223C29.9122 29.0891 29.8298 29.1496 29.7439 29.2031C29.4067 29.4152 29.0157 29.5285 28.6075 29.5285H25.8009C25.4774 29.5285 25.2149 29.2664 25.2149 28.9426C25.2149 28.6184 25.4778 28.3566 25.8009 28.3566H28.8024C29.2435 28.3566 29.5966 27.9895 29.5782 27.5477C29.561 27.1285 29.2032 26.8035 28.7837 26.8035H26.4989C26.3442 26.6398 26.1747 26.4898 25.9931 26.3559C25.3684 25.8953 24.5966 25.623 23.761 25.623C22.2755 25.623 20.7973 26.559 20.1844 27.8082L22.5813 31.9594H27.0774C27.9603 31.9594 28.8298 31.7336 29.595 31.2934C29.8603 31.141 30.1442 30.9578 30.4521 30.7367C31.7419 29.8102 34.379 27.8852 34.381 27.884C34.7497 27.6191 34.8333 27.1051 34.5677 26.7367Z" fill="#396AFF"/>
</svg>
