<svg width="50" height="50" viewBox="0 0 50 50" fill="none" xmlns="http://www.w3.org/2000/svg">
<circle cx="25" cy="25" r="25" fill="#DCFAF8"/>
<g clip-path="url(#clip0_152_1488)">
<path d="M33.6545 24.577H32.465C32.1942 23.8195 31.7579 23.1413 31.1994 22.5868L33.0339 21.777C33.296 21.6613 33.4395 21.3721 33.365 21.0956C33.1438 20.2746 32.397 19.6707 31.5098 19.6707H29.9968C29.1267 19.6707 28.392 20.2518 28.1553 21.0487H26.5573C25.9571 23.2658 23.9297 24.9015 21.5275 24.9015C20.0611 24.9015 18.7345 24.2919 17.7868 23.3128C17.5199 23.6936 17.3013 24.111 17.1401 24.5562C16.6615 24.4515 16.268 24.0729 16.1579 23.5798C16.0874 23.264 15.774 23.0649 15.4584 23.1356C15.1426 23.2061 14.9437 23.5193 15.0142 23.8351C15.134 24.3721 15.4356 24.8597 15.8634 25.2079C16.1562 25.4463 16.5005 25.6122 16.8652 25.6954C16.8368 25.9188 16.8221 26.1464 16.8221 26.3774V26.9456C16.8221 29.0989 18.0935 30.9536 19.923 31.7941V33.0853C19.923 33.7881 20.4928 34.3578 21.1956 34.3578C21.8983 34.3578 22.4681 33.7881 22.4681 33.0853V32.2743H27.235V33.0853C27.235 33.7881 27.8047 34.3578 28.5075 34.3578C29.2102 34.3578 29.78 33.7881 29.78 33.0853V31.7444C31.1177 31.0937 32.1422 29.895 32.5645 28.4385H33.6544C34.3976 28.4385 35.0001 27.8333 35.0001 27.0866V25.9288C35.0001 25.1822 34.3977 24.577 33.6545 24.577ZM29.3309 24.9152C29.0085 24.9152 28.7471 24.6539 28.7471 24.3314C28.7471 24.009 29.0085 23.7476 29.3309 23.7476C29.6534 23.7476 29.9148 24.009 29.9148 24.3314C29.9148 24.6539 29.6534 24.9152 29.3309 24.9152Z" fill="#16DBCC"/>
<path d="M21.5275 15.6423C19.3005 15.6423 17.4888 17.4563 17.4888 19.686C17.4888 21.9157 19.3005 23.7297 21.5275 23.7297C23.7545 23.7297 25.5662 21.9157 25.5662 19.686C25.5662 17.4562 23.7544 15.6423 21.5275 15.6423ZM21.1525 19.0681H21.9025C22.7486 19.0681 23.437 19.757 23.437 20.6036C23.437 21.3786 22.86 22.021 22.1134 22.1242V22.3443C22.1134 22.6679 21.8511 22.9303 21.5275 22.9303C21.2039 22.9303 20.9416 22.6679 20.9416 22.3443V22.1391H20.7921C20.1447 22.1391 19.618 21.6121 19.618 20.9644C19.618 20.6408 19.8803 20.3784 20.2039 20.3784C20.5275 20.3784 20.7899 20.6408 20.7899 20.9644L21.9025 20.9672C22.1024 20.9672 22.265 20.8041 22.265 20.6036C22.265 20.4031 22.1024 20.24 21.9025 20.24H21.1524C20.3063 20.24 19.618 19.5512 19.618 18.7045C19.618 17.9295 20.1949 17.2871 20.9416 17.1839V17.0277C20.9416 16.7041 21.2039 16.4418 21.5275 16.4418C21.8511 16.4418 22.1134 16.7041 22.1134 17.0277V17.169H22.2629C22.9102 17.169 23.437 17.696 23.437 18.3438C23.437 18.6673 23.1746 18.9297 22.851 18.9297C22.5274 18.9297 22.2651 18.6673 22.2651 18.3438C22.2651 18.3428 22.265 18.3424 22.265 18.3424L21.1525 18.3409C20.9525 18.3409 20.7899 18.504 20.7899 18.7045C20.7899 18.905 20.9525 19.0681 21.1525 19.0681Z" fill="#16DBCC"/>
</g>
<defs>
<clipPath id="clip0_152_1488">
<rect width="20" height="20" fill="white" transform="translate(15 15)"/>
</clipPath>
</defs>
</svg>
