<svg width="70" height="70" viewBox="0 0 70 70" fill="none" xmlns="http://www.w3.org/2000/svg">
<circle cx="35" cy="35" r="35" fill="#DCFAF8"/>
<path d="M39.6282 27.6615H42.6801L42.6276 25.8025H40.0477L42.4724 20.7913L39.7292 20.5617L37.3198 22.4086L38.1232 20.3201L35.3114 20L34.3892 22.6099L32.8737 20.5892L28.7048 20.4445L31.4633 25.8033L28.9732 25.7233V27.6607H31.3728C26.2551 30.6561 22.5679 38.4857 22.5679 42.7153C22.5679 48.0175 28.3581 51 35.4997 51C42.6413 51 48.4315 48.0175 48.4315 42.7153C48.4323 38.4857 44.7459 30.6569 39.6282 27.6615ZM36.5811 45.2589V47.0945H34.8167V45.385C33.6108 45.3325 32.4405 45.0059 31.7567 44.6115L32.2966 42.5068C33.0523 42.9214 34.1152 43.2981 35.2847 43.2981C36.3104 43.2981 37.0127 42.902 37.0127 42.1835C37.0127 41.4973 36.4372 41.0649 35.1053 40.6163C33.1784 39.9689 31.865 39.0677 31.865 37.3234C31.865 35.7392 32.9812 34.4961 34.9073 34.1195V32.4092H36.6716V33.9934C37.8767 34.0484 38.6882 34.2981 39.2814 34.5867L38.7593 36.6211C38.2913 36.4238 37.4629 36.0084 36.1673 36.0084C34.997 36.0084 34.6187 36.5119 34.6187 37.0155C34.6187 37.6104 35.2491 37.9878 36.7791 38.5641C38.9202 39.3223 39.785 40.31 39.785 41.9313C39.7858 43.5309 38.651 44.8993 36.5811 45.2589Z" fill="#16DBCC"/>
</svg>
