<svg width="60" height="60" viewBox="0 0 60 60" fill="none" xmlns="http://www.w3.org/2000/svg">
<rect width="60" height="60" rx="20" fill="#FFE0EB"/>
<g clip-path="url(#clip0_101_563)">
<path d="M32.0625 29.25V32.375H39.4375C38.6875 36.75 35.1875 39.875 30.8125 39.875C25.6875 39.875 21.4375 35.625 21.4375 30.5C21.4375 25.375 25.6875 21.125 30.8125 21.125C33.4375 21.125 35.6875 22.25 37.3125 24L39.5625 21.75C37.3125 19.5 34.3125 18 30.8125 18C23.9375 18 18.3125 23.625 18.3125 30.5C18.3125 37.375 23.9375 43 30.8125 43C37.6875 43 42.6875 37.375 42.6875 30.5V29.25H32.0625Z" fill="#FF82AC"/>
</g>
<defs>
<clipPath id="clip0_101_563">
<rect width="25" height="25" fill="white" transform="translate(18 18)"/>
</clipPath>
</defs>
</svg>
