<svg width="60" height="60" viewBox="0 0 60 60" fill="none" xmlns="http://www.w3.org/2000/svg">
<rect width="60" height="60" rx="20" fill="#FFF5D9"/>
<path d="M41.6295 29.5458V22.1313C41.6295 20.609 40.3909 19.3705 38.8686 19.3705H20.7608C19.2385 19.3705 18 20.609 18 22.1313V33.3864C18 34.9087 19.2385 36.1473 20.7608 36.1473H27.9206C28.8763 39.3154 31.8212 41.6295 35.2969 41.6295C39.5444 41.6295 42.9999 38.1739 42.9999 33.9264C43 32.3001 42.493 30.7904 41.6295 29.5458ZM30.9164 27.5938H19.7007V25.1829H39.9288V27.7755C38.6387 26.8016 37.0342 26.2234 35.2969 26.2234C33.6708 26.2233 32.1609 26.7303 30.9164 27.5938ZM20.7608 21.0712H38.8686C39.4532 21.0712 39.9288 21.5467 39.9288 22.1313V23.4822H19.7007V22.1313C19.7007 21.5467 20.1763 21.0712 20.7608 21.0712ZM20.7608 34.4466C20.1763 34.4466 19.7007 33.971 19.7007 33.3864V29.2945H29.146C28.1721 30.5845 27.5939 32.1891 27.5939 33.9264C27.5939 34.1013 27.6003 34.2746 27.6118 34.4467H20.7608V34.4466ZM35.297 39.9287C31.9872 39.9287 29.2945 37.2361 29.2945 33.9263C29.2945 30.6166 31.9872 27.9239 35.297 27.9239C38.6066 27.9239 41.2993 30.6166 41.2993 33.9263C41.2993 37.2361 38.6066 39.9287 35.297 39.9287Z" fill="#FFBB38"/>
<path d="M31.1853 31.7054C30.7157 31.7054 30.335 32.0862 30.335 32.5558V35.2969C30.335 35.7665 30.7157 36.1472 31.1853 36.1472H39.4086C39.8782 36.1472 40.259 35.7665 40.259 35.2969V32.5558C40.259 32.0862 39.8782 31.7054 39.4086 31.7054H31.1853ZM38.5583 34.4466H32.0356V33.4062H38.5583V34.4466Z" fill="#FFBB38"/>
</svg>
