<svg width="55" height="55" viewBox="0 0 55 55" fill="none" xmlns="http://www.w3.org/2000/svg">
<circle cx="27.5" cy="27.5" r="27.5" fill="#E7EDFF"/>
<path d="M36.995 22.3826C36.9812 20.8523 36.3641 19.3893 35.2779 18.3113C34.1917 17.2332 32.7241 16.6273 31.1937 16.6251H22.75C22.5402 16.6224 22.3365 16.6951 22.1759 16.83C22.0153 16.9649 21.9085 17.153 21.875 17.3601L18.8825 36.1288C18.8638 36.2531 18.8721 36.38 18.9068 36.5008C18.9415 36.6215 19.0019 36.7334 19.0837 36.8288C19.1651 36.9265 19.2667 37.0052 19.3815 37.0596C19.4963 37.114 19.6217 37.1428 19.7487 37.1438H23.3625L23.17 38.3601C23.1495 38.4861 23.1569 38.6151 23.1917 38.738C23.2264 38.8609 23.2876 38.9747 23.371 39.0715C23.4543 39.1682 23.5579 39.2455 23.6743 39.2979C23.7908 39.3504 23.9173 39.3767 24.045 39.3751H28.1137C28.3222 39.3781 28.5249 39.3066 28.6853 39.1735C28.8457 39.0403 28.9533 38.8543 28.9887 38.6488L29.8637 33.3026H32.62C34.3451 33.2956 35.9974 32.6061 37.2156 31.3846C38.4338 30.1631 39.1189 28.509 39.1212 26.7838V26.5388C39.1203 25.7273 38.9272 24.9276 38.5576 24.2052C38.188 23.4827 37.6525 22.8581 36.995 22.3826ZM23.4937 18.3751H31.1937C32.1117 18.3779 33.0017 18.6917 33.7184 19.2654C34.4351 19.8391 34.9362 20.6387 35.14 21.5338C34.7614 21.445 34.3738 21.401 33.985 21.4026H26.6875C26.4777 21.3999 26.274 21.4726 26.1134 21.6075C25.9528 21.7424 25.846 21.9305 25.8125 22.1376L25.2962 25.3751C25.2591 25.6071 25.3157 25.8444 25.4535 26.0348C25.5914 26.2251 25.7992 26.3529 26.0312 26.3901C26.2633 26.4272 26.5006 26.3706 26.691 26.2328C26.8813 26.0949 27.0091 25.8871 27.0462 25.6551L27.4487 23.1351H34.0025C34.4219 23.1373 34.8373 23.2174 35.2275 23.3713C35.0611 24.7411 34.4003 26.003 33.3691 26.9198C32.3378 27.8366 31.0073 28.3452 29.6275 28.3501H25.5675C25.359 28.347 25.1563 28.4185 24.9959 28.5517C24.8355 28.6848 24.7279 28.8709 24.6925 29.0763L23.625 35.3938H20.7725L23.4937 18.3751ZM37.3712 26.7838C37.3689 28.0448 36.8682 29.2538 35.9781 30.1471C35.0881 31.0404 33.881 31.5456 32.62 31.5526H29.12C28.9115 31.5495 28.7088 31.621 28.5484 31.7542C28.388 31.8873 28.2804 32.0734 28.245 32.2788L27.37 37.6251H25.06L25.2525 36.4088L26.3025 30.1176H29.61C31.2435 30.1128 32.8295 29.5678 34.121 28.5675C35.4124 27.5673 36.3368 26.168 36.75 24.5876C37.1561 25.157 37.3734 25.8394 37.3712 26.5388V26.7838Z" fill="#396AFF"/>
</svg>
