<svg width="45" height="45" viewBox="0 0 45 45" fill="none" xmlns="http://www.w3.org/2000/svg">
<rect width="45" height="45" rx="15" fill="#E7EDFF"/>
<g clip-path="url(#clip0_152_1123)">
<path d="M28.6157 23.5508C28.2805 23.5508 27.9492 23.5999 27.6308 23.6966L23.5269 24.8327V19.0282C23.5269 18.7374 23.7634 18.5009 24.0542 18.5009C24.345 18.5009 24.5816 18.7374 24.5816 19.0282V23.1305H25.1089C27.1444 23.1305 28.8003 21.4746 28.8003 19.4391C28.8003 17.792 27.694 16.3306 26.1078 15.8846L19.2964 14V23.0403L16.5633 23.7969C16.2406 23.8776 15.9312 24.0059 15.6437 24.1783C14.0435 25.1378 13.5222 27.2203 14.4817 28.8205C14.8617 29.4542 15.4234 29.9361 16.1062 30.2139C16.5133 30.3795 16.9517 30.4636 17.3895 30.4635C17.6614 30.4635 17.9331 30.4312 18.1968 30.3658L19.2964 30.0615V30.9748L22.9995 32L29.5942 30.1745L29.608 30.1705C30.286 29.9628 30.895 29.5347 31.3228 28.9651C31.7655 28.3757 31.9995 27.6736 31.9995 26.9347C31.9995 25.0688 30.4816 23.5508 28.6157 23.5508ZM19.2964 26.0037L16.5231 26.7714L16.8045 27.7879L19.2964 27.0981V28.9672L17.9364 29.3437C17.7496 29.3894 17.5618 29.4116 17.3765 29.4116C16.5729 29.4116 15.8159 28.9948 15.3862 28.2781C14.7258 27.1766 15.0846 25.7432 16.186 25.0828C16.3859 24.963 16.6006 24.8741 16.8243 24.8187L19.2964 24.1346V26.0037ZM22.4722 19.0282V30.7597L20.3511 30.1725V15.3861L25.8244 16.9006C26.9556 17.2186 27.7456 18.2626 27.7456 19.4392C27.7456 20.7125 26.8382 21.7779 25.6363 22.0229V19.0282C25.6363 18.1559 24.9266 17.4462 24.0542 17.4462C23.1819 17.4462 22.4722 18.1559 22.4722 19.0282ZM29.3055 29.16L23.5269 30.7597V28.8905L29.4763 27.2436L29.1949 26.2271L23.5269 27.7962V25.927L27.9188 24.7112L27.9326 24.7072C28.1529 24.6397 28.3828 24.6055 28.6158 24.6055C29.9 24.6055 30.9449 25.6504 30.9449 26.9346C30.9448 27.963 30.2863 28.8565 29.3055 29.16Z" fill="#396AFF"/>
</g>
<defs>
<clipPath id="clip0_152_1123">
<rect width="18" height="18" fill="white" transform="translate(14 14)"/>
</clipPath>
</defs>
</svg>
