<svg width="45" height="45" viewBox="0 0 45 45" fill="none" xmlns="http://www.w3.org/2000/svg">
<rect width="45" height="45" rx="15" fill="#DCFAF8"/>
<g clip-path="url(#clip0_152_1068)">
<path d="M29.8743 26.3855C29.3117 26.0478 28.1415 25.3446 28.1415 23.5155C28.1415 21.9718 29.1747 21.1927 29.7296 20.7742L29.7412 20.7654C29.964 20.5974 30.017 20.2846 29.8624 20.0524C28.6226 18.1909 26.4934 18.1372 26.0795 18.1449H26.077C25.7931 18.1453 25.5221 18.1779 25.2652 18.2296C25.3601 18.1537 25.4522 18.0729 25.5407 17.9871C26.4277 17.129 26.9151 15.8628 26.8775 14.5124C26.8694 14.2274 26.6361 14 26.3507 14C25.3914 14 24.3006 14.5732 23.504 15.496C22.7013 16.4258 22.3264 17.5398 22.4757 18.5518C22.488 18.6358 22.5204 18.7124 22.5667 18.7781C22.4262 18.7311 22.2775 18.6762 22.1306 18.6221C21.5726 18.4165 20.9397 18.1836 20.3472 18.1836C20.3353 18.1836 19.1306 18.1923 17.9278 18.9394C16.8756 19.5934 15.6211 20.9544 15.6211 23.7267C15.6211 25.1686 16.1844 27.1871 17.0563 28.8696C17.6586 30.0321 18.9085 31.9831 20.5138 31.9923H20.531C21.7016 31.9923 22.6715 31.301 23.3311 31.301C24.4577 31.301 24.8586 32 26.077 32C27.1692 32 28.2276 31.1703 29.2232 29.5345C29.5886 28.9336 29.8729 28.3393 30.0469 27.9465C30.379 27.198 30.379 27.0982 30.379 27.0251C30.379 26.6888 30.1224 26.5345 29.8743 26.3855ZM24.302 16.1847C24.7346 15.6836 25.2796 15.3118 25.7959 15.1477C25.6971 15.9661 25.3513 16.7038 24.8077 17.2295C24.4268 17.5981 23.9696 17.8378 23.5054 17.9203C23.5546 17.3412 23.8315 16.7298 24.302 16.1847ZM28.2716 29.0692C27.5192 30.2795 26.7398 30.9458 26.077 30.9458C25.1651 30.9458 24.7388 30.2468 23.3311 30.2468C22.3812 30.2468 21.4749 30.943 20.5198 30.938C19.7748 30.9338 18.8063 29.9555 17.9924 28.3847C17.1923 26.8409 16.6753 25.0125 16.6753 23.7267C16.6753 21.9064 17.2738 20.6037 18.4531 19.8545C19.3714 19.2715 20.3107 19.2388 20.3504 19.2378C21.1734 19.2399 22.3158 19.9684 23.1483 19.9684C23.8979 19.9684 24.9015 19.1991 26.0809 19.1991H26.1002C26.3862 19.1935 27.7367 19.2255 28.6855 20.2551C28.015 20.8198 27.0873 21.8354 27.0873 23.5155C27.0873 25.7976 28.5305 26.7995 29.2123 27.2173C29.0426 27.6284 28.7189 28.3499 28.2716 29.0692Z" fill="#16DBCC"/>
</g>
<defs>
<clipPath id="clip0_152_1068">
<rect width="18" height="18" fill="white" transform="translate(14 14)"/>
</clipPath>
</defs>
</svg>
