<svg width="60" height="60" viewBox="0 0 60 60" fill="none" xmlns="http://www.w3.org/2000/svg">
<rect width="60" height="60" rx="20" fill="#DCFAF8"/>
<g clip-path="url(#clip0_101_281)">
<path d="M40.0476 35.2021C39.2662 34.733 37.641 33.7564 37.641 31.216C37.641 29.0719 39.0759 27.9898 39.8466 27.4086L39.8627 27.3964C40.1721 27.1631 40.2458 26.7287 40.0311 26.4061C38.3091 23.8207 35.3519 23.7461 34.777 23.7568H34.7735C34.3792 23.7573 34.0029 23.8027 33.6461 23.8744C33.7779 23.769 33.9058 23.6567 34.0287 23.5377C35.2606 22.3458 35.9376 20.5873 35.8854 18.7116C35.8741 18.3158 35.5501 18 35.1538 18C33.8213 18 32.3063 18.796 31.1999 20.0777C30.0851 21.3692 29.5644 22.9163 29.7718 24.322C29.7889 24.4386 29.8338 24.545 29.8982 24.6363C29.703 24.5709 29.4965 24.4948 29.2925 24.4196C28.5174 24.1341 27.6384 23.8105 26.8155 23.8105C26.7989 23.8105 25.1258 23.8227 23.4552 24.8603C21.9939 25.7686 20.2515 27.6589 20.2515 31.5093C20.2515 33.5119 21.0338 36.3154 22.2447 38.6523C23.0813 40.2668 24.8174 42.9766 27.0469 42.9893H27.0708C28.6966 42.9893 30.0436 42.0292 30.9598 42.0292C32.5245 42.0292 33.0814 43 34.7735 43C36.2905 43 37.7605 41.8477 39.1432 39.5757C39.6508 38.7411 40.0457 37.9158 40.2873 37.3701C40.7485 36.3305 40.7485 36.1919 40.7485 36.0904C40.7485 35.6233 40.3922 35.409 40.0476 35.2021ZM32.3083 21.0343C32.9091 20.3384 33.6661 19.822 34.3831 19.594C34.2459 20.7308 33.7657 21.7552 33.0106 22.4854C32.4816 22.9974 31.8466 23.3302 31.2018 23.4449C31.2702 22.6406 31.6548 21.7913 32.3083 21.0343ZM37.8216 38.9295C36.7766 40.6104 35.694 41.5358 34.7735 41.5358C33.507 41.5358 32.915 40.565 30.9598 40.565C29.6405 40.565 28.3818 41.5319 27.0552 41.525C26.0205 41.5192 24.6753 40.1604 23.545 37.9787C22.4336 35.8346 21.7157 33.2952 21.7157 31.5093C21.7157 28.9811 22.5469 27.1718 24.1848 26.1313C25.4602 25.3216 26.7648 25.2762 26.8199 25.2747C27.963 25.2776 29.5497 26.2894 30.706 26.2894C31.747 26.2894 33.1409 25.221 34.7789 25.221H34.8058C35.203 25.2132 37.0787 25.2576 38.3965 26.6877C37.4653 27.472 36.1768 28.8825 36.1768 31.216C36.1768 34.3855 38.1813 35.777 39.1281 36.3573C38.8924 36.9284 38.4429 37.9304 37.8216 38.9295Z" fill="#16DBCC"/>
</g>
<defs>
<clipPath id="clip0_101_281">
<rect width="25" height="25" fill="white" transform="translate(18 18)"/>
</clipPath>
</defs>
</svg>
