<svg width="45" height="45" viewBox="0 0 45 45" fill="none" xmlns="http://www.w3.org/2000/svg">
<rect width="45" height="45" rx="15" fill="#FFF5D9"/>
<g clip-path="url(#clip0_152_1124)">
<path d="M29.364 25.636C28.3837 24.6558 27.217 23.9301 25.9439 23.4909C27.3074 22.5518 28.2031 20.9802 28.2031 19.2031C28.2031 16.3341 25.869 14 23 14C20.131 14 17.7969 16.3341 17.7969 19.2031C17.7969 20.9802 18.6926 22.5518 20.0561 23.4909C18.7831 23.9301 17.6163 24.6558 16.6361 25.636C14.9362 27.3359 14 29.596 14 32H15.4062C15.4062 27.8128 18.8128 24.4062 23 24.4062C27.1872 24.4062 30.5938 27.8128 30.5938 32H32C32 29.596 31.0638 27.3359 29.364 25.636ZM23 23C20.9064 23 19.2031 21.2968 19.2031 19.2031C19.2031 17.1095 20.9064 15.4062 23 15.4062C25.0936 15.4062 26.7969 17.1095 26.7969 19.2031C26.7969 21.2968 25.0936 23 23 23Z" fill="#FFBB38"/>
</g>
<defs>
<clipPath id="clip0_152_1124">
<rect width="18" height="18" fill="white" transform="translate(14 14)"/>
</clipPath>
</defs>
</svg>
