<svg width="120" height="120" viewBox="0 0 120 120" fill="none" xmlns="http://www.w3.org/2000/svg">
<path d="M120 60C120 52.1207 118.448 44.3185 115.433 37.039C112.417 29.7595 107.998 23.1451 102.426 17.5736C96.8549 12.0021 90.2405 7.58251 82.961 4.56723C75.6815 1.55195 67.8793 -3.44416e-07 60 0L60 7.36255C66.9124 7.36255 73.7572 8.72406 80.1435 11.3693C86.5297 14.0146 92.3325 17.8919 97.2203 22.7797C102.108 27.6675 105.985 33.4702 108.631 39.8565C111.276 46.2428 112.637 53.0876 112.637 60H120Z" fill="#1814F3" fill-opacity="0.5"/>
<path d="M120 60C120 44.8329 114.256 30.2285 103.923 19.1253C93.5908 8.02215 79.4367 1.24409 64.3087 0.154909C49.1808 -0.934273 34.2016 3.74625 22.3851 13.2548C10.5686 22.7633 2.79157 36.3941 0.618835 51.4048L7.90545 52.4595C9.81157 39.2908 16.6343 27.3325 27.0008 18.9908C37.3673 10.6491 50.5084 6.54292 63.78 7.49845C77.0516 8.45398 89.4689 14.4003 98.5336 24.141C107.598 33.8818 112.637 46.694 112.637 60H120Z" fill="#1512E6" fill-opacity="0.35"/>
<path d="M120 60C120 48.1331 116.481 36.5327 109.888 26.6658C103.295 16.7988 93.9246 9.10849 82.961 4.56723C71.9974 0.02597 59.9334 -1.16223 48.2946 1.15288C36.6557 3.468 25.9647 9.18244 17.5736 17.5736C9.18244 25.9647 3.468 36.6557 1.15288 48.2946C-1.16223 59.9334 0.0259702 71.9974 4.56723 82.961C9.10849 93.9246 16.7988 103.295 26.6658 109.888C36.5327 116.481 48.1331 120 60 120L60 112.637C49.5893 112.637 39.4124 109.55 30.7562 103.766C22.1 97.9826 15.3533 89.7617 11.3693 80.1435C7.38533 70.5252 6.34294 59.9416 8.37396 49.7309C10.405 39.5203 15.4182 30.1412 22.7797 22.7797C30.1412 15.4182 39.5203 10.405 49.7309 8.37396C59.9416 6.34294 70.5252 7.38533 80.1435 11.3693C89.7617 15.3533 97.9826 22.1 103.766 30.7562C109.55 39.4124 112.637 49.5893 112.637 60H120Z" fill="#1814F3" fill-opacity="0.09"/>
<path d="M120 60C120 93.1371 93.1371 120 60 120C26.8629 120 0 93.1371 0 60C0 26.8629 26.8629 0 60 0C93.1371 0 120 26.8629 120 60ZM7.36255 60C7.36255 89.0709 30.9291 112.637 60 112.637C89.0709 112.637 112.637 89.0709 112.637 60C112.637 30.9291 89.0709 7.36255 60 7.36255C30.9291 7.36255 7.36255 30.9291 7.36255 60Z" fill="#1814F3" fill-opacity="0.02"/>
</svg>
