<svg width="39" height="29" viewBox="0 0 39 29" fill="none" xmlns="http://www.w3.org/2000/svg">
<path fill-rule="evenodd" clip-rule="evenodd" d="M7.05122 3.20513H33.3333C34.3954 3.20513 35.2564 4.06612 35.2564 5.12821V6.41028H10.8977C9.8356 6.41028 8.97461 7.27127 8.97461 8.33335C8.97461 9.39544 9.8356 10.2564 10.8977 10.2564H35.2564V23.0769C35.2564 24.139 34.3954 25 33.3333 25H7.23536C7.18109 24.434 7.03978 23.4864 6.74364 21.9276C6.3722 19.9724 6.05796 18.5457 5.813 17.4336C5.45076 15.789 5.24004 14.8323 5.21991 13.8716C5.19193 12.5354 5.53266 11.1915 6.3473 7.97838L6.34737 7.97811C6.46881 7.4991 6.60079 6.97856 6.74364 6.4103L7.05164 3.20519L7.05122 3.20513ZM0 5.1282C0 2.29597 2.29598 0 5.1282 0H33.3333C36.1656 0 38.4615 2.29598 38.4615 5.12821V23.0769C38.4615 25.9092 36.1656 28.2051 33.3333 28.2051H5.1282C2.29597 28.2051 0 25.9092 0 23.0769V5.1282ZM20.5132 19.5513C20.5132 18.6662 21.2307 17.9487 22.1157 17.9487H30.4491C31.3342 17.9487 32.0516 18.6662 32.0516 19.5513C32.0516 20.4364 31.3342 21.1539 30.4491 21.1539H22.1157C21.2307 21.1539 20.5132 20.4364 20.5132 19.5513Z" fill="#0023C4"/>
</svg>
