<svg width="25" height="25" viewBox="0 0 25 25" fill="none" xmlns="http://www.w3.org/2000/svg">
<g clip-path="url(#clip0_170_28)">
<path d="M16.6877 -4.16774e-05C15.2698 0.0956613 13.7522 0.939411 12.8127 2.07808C11.9905 3.08004 11.301 4.55074 11.5627 6.07808C11.3284 6.00582 11.1155 5.99801 10.8596 5.90621C10.1624 5.65816 9.36548 5.39058 8.37524 5.39058C6.40845 5.39058 4.39477 6.56051 3.12524 8.51558C1.27759 11.3554 1.64868 16.3535 4.45337 20.625C4.94751 21.375 5.52368 22.1933 6.23462 22.8437C6.94555 23.4941 7.80493 23.9902 8.81274 24C9.67407 24.0097 10.2737 23.7226 10.8127 23.4843C11.3518 23.2461 11.8538 23.0351 12.7971 23.0312C12.803 23.0312 12.8069 23.0312 12.8127 23.0312C13.7522 23.0234 14.2385 23.2304 14.7659 23.4687C15.2932 23.707 15.887 24.0078 16.7502 24C17.7776 23.9921 18.6506 23.4296 19.3752 22.7343C20.0999 22.039 20.6956 21.1855 21.1877 20.4375C21.8928 19.3632 22.176 18.7773 22.719 17.5781C22.7756 17.4531 22.7776 17.3086 22.7229 17.1816C22.6702 17.0546 22.5666 16.955 22.4377 16.9062C20.6604 16.2343 19.6467 14.6621 19.5002 13C19.3538 11.3378 20.0569 9.62691 21.8284 8.65621C21.9592 8.5859 22.051 8.46285 22.0823 8.31832C22.1116 8.17379 22.0764 8.02144 21.9846 7.90621C20.7131 6.32613 18.9241 5.39058 17.1721 5.39058C16.0549 5.39058 15.2346 5.65426 14.5627 5.90621C14.4514 5.94918 14.3694 5.94527 14.2659 5.98433C14.9475 5.62496 15.5491 5.12691 16.0002 4.54683C16.8206 3.4941 17.4534 1.99605 17.219 0.421833C17.1799 0.164021 16.9475 -0.0195729 16.6877 -4.16774e-05ZM16.1565 1.18746C16.1233 2.19722 15.7776 3.18551 15.2034 3.92183C14.6018 4.69527 13.5901 5.23043 12.6096 5.39058C12.6272 4.41988 13.01 3.41402 13.594 2.70308C14.2073 1.9609 15.2229 1.42574 16.1565 1.18746ZM8.37524 6.39058C9.18188 6.39058 9.82837 6.59957 10.5159 6.84371C11.2034 7.08785 11.928 7.37496 12.7815 7.37496C13.6155 7.37496 14.2756 7.0859 14.9221 6.84371C15.5686 6.60152 16.2131 6.39058 17.1721 6.39058C18.4241 6.39058 19.7776 7.04097 20.844 8.17183C19.137 9.37691 18.3381 11.2558 18.5002 13.0781C18.6624 14.9199 19.7717 16.6679 21.594 17.5781C21.1995 18.4375 20.9397 19.0058 20.3596 19.8906C19.8811 20.6191 19.3127 21.416 18.6877 22.0156C18.0627 22.6152 17.4006 22.9941 16.7346 23C16.092 23.0058 15.7268 22.8144 15.1721 22.5625C14.6174 22.3105 13.9006 22.0214 12.7971 22.0312C11.6956 22.0371 10.969 22.3144 10.4065 22.5625C9.84399 22.8105 9.47485 23.0058 8.82837 23C8.14477 22.9941 7.51001 22.6621 6.90649 22.1093C6.30298 21.5566 5.75805 20.8027 5.28149 20.0781C2.65649 16.0781 2.44555 11.3789 3.95337 9.06246C5.05884 7.36129 6.8147 6.39058 8.37524 6.39058Z" fill="#16DBCC"/>
</g>
<defs>
<clipPath id="clip0_170_28">
<rect width="25" height="25" fill="white"/>
</clipPath>
</defs>
</svg>
