<svg width="21" height="25" viewBox="0 0 21 25" fill="none" xmlns="http://www.w3.org/2000/svg">
<path d="M20.0476 17.2021C19.2662 16.733 17.641 15.7564 17.641 13.216C17.641 11.0719 19.0759 9.98985 19.8466 9.40856L19.8627 9.39635C20.1721 9.16306 20.2458 8.72867 20.0311 8.40606C18.3091 5.82074 15.3519 5.74607 14.777 5.7568H14.7735C14.3792 5.75729 14.0029 5.80268 13.6461 5.87443C13.7779 5.76901 13.9058 5.65675 14.0287 5.53766C15.2606 4.34579 15.9376 2.58727 15.8854 0.711608C15.8741 0.315782 15.5501 0 15.1538 0C13.8213 0 12.3063 0.796045 11.1999 2.07772C10.0851 3.36916 9.56436 4.91634 9.77179 6.32199C9.78887 6.43864 9.83377 6.54504 9.8982 6.63631C9.70297 6.57091 9.49652 6.49477 9.2925 6.41961C8.51744 6.13408 7.63843 5.81049 6.81554 5.81049C6.79894 5.81049 5.12583 5.82269 3.45517 6.86033C1.99388 7.76863 0.251465 9.65894 0.251465 13.5093C0.251465 15.5119 1.03384 18.3154 2.24475 20.6523C3.0813 22.2668 4.81737 24.9766 7.04688 24.9893H7.0708C8.69657 24.9893 10.0436 24.0292 10.9598 24.0292C12.5245 24.0292 13.0814 25 14.7735 25C16.2905 25 17.7605 23.8477 19.1432 21.5757C19.6508 20.7411 20.0457 19.9158 20.2873 19.3701C20.7485 18.3305 20.7485 18.1919 20.7485 18.0904C20.7485 17.6233 20.3922 17.409 20.0476 17.2021ZM12.3083 3.03434C12.9091 2.33835 13.6661 1.82197 14.3831 1.59404C14.2459 2.73076 13.7657 3.75522 13.0106 4.48538C12.4816 4.99736 11.8466 5.33023 11.2018 5.44493C11.2702 4.64058 11.6548 3.79134 12.3083 3.03434ZM17.8216 20.9295C16.7766 22.6104 15.694 23.5358 14.7735 23.5358C13.507 23.5358 12.915 22.565 10.9598 22.565C9.6405 22.565 8.38176 23.5319 7.05518 23.525C6.02047 23.5192 4.67534 22.1604 3.54497 19.9787C2.43363 17.8346 1.71568 15.2952 1.71568 13.5093C1.71568 10.9811 2.54686 9.17184 4.18483 8.13127C5.46016 7.32156 6.76478 7.27617 6.81993 7.27471C7.963 7.27764 9.54971 8.28941 10.706 8.28941C11.747 8.28941 13.1409 7.22102 14.7789 7.22102H14.8058C15.203 7.21321 17.0787 7.25762 18.3965 8.68767C17.4653 9.472 16.1768 10.8825 16.1768 13.216C16.1768 16.3855 18.1813 17.777 19.1281 18.3573C18.8924 18.9284 18.4429 19.9304 17.8216 20.9295Z" fill="#16DBCC"/>
</svg>
