<svg width="22" height="25" viewBox="0 0 22 25" fill="none" xmlns="http://www.w3.org/2000/svg">
    <path d="M20.6167 19.4826C20.2386 20.356 19.7911 21.16 19.2726 21.8992C18.5658 22.9069 17.9871 23.6044 17.5411 23.9917C16.8498 24.6275 16.1091 24.9531 15.3159 24.9716C14.7465 24.9716 14.0597 24.8096 13.2604 24.4809C12.4584 24.1537 11.7214 23.9917 11.0475 23.9917C10.3407 23.9917 9.58271 24.1537 8.77196 24.4809C7.95994 24.8096 7.3058 24.9809 6.80565 24.9979C6.04503 25.0303 5.28688 24.6954 4.53012 23.9917C4.04709 23.5704 3.44296 22.8482 2.7192 21.8251C1.94268 20.7325 1.30429 19.4656 0.804141 18.0212C0.26851 16.4611 0 14.9503 0 13.4877C0 11.8123 0.362029 10.3673 1.08716 9.15637C1.65705 8.18372 2.4152 7.41646 3.3641 6.85322C4.31297 6.28996 5.33826 6.00292 6.4424 5.98458C7.04655 5.98458 7.83879 6.17144 8.82334 6.53872C9.80511 6.90723 10.4355 7.0941 10.7119 7.0941C10.9185 7.0941 11.6188 6.87558 12.8059 6.43996C13.9286 6.03596 14.8761 5.86865 15.6523 5.93456C17.7556 6.10431 19.3358 6.93345 20.3867 8.42724C18.5056 9.56702 17.5751 11.1634 17.5936 13.2113C17.6106 14.8065 18.1893 16.1339 19.3266 17.1879C19.842 17.6771 20.4176 18.0552 21.058 18.3237C20.9191 18.7264 20.7725 19.1123 20.6167 19.4826V19.4826ZM15.7927 0.500148C15.7927 1.75042 15.3359 2.91782 14.4255 3.99834C13.3268 5.28288 11.9978 6.02513 10.5566 5.90801C10.5373 5.75083 10.5276 5.59261 10.5276 5.43425C10.5276 4.23398 11.0501 2.94945 11.978 1.89918C12.4413 1.3674 13.0305 0.925246 13.7449 0.572525C14.4579 0.225068 15.1323 0.0329136 15.7665 0C15.785 0.167137 15.7927 0.334296 15.7927 0.500127V0.500148Z" fill="#FF82AC"/>
    </svg>
    