<svg width="25" height="25" viewBox="0 0 25 25" fill="none" xmlns="http://www.w3.org/2000/svg">
<path d="M23.6295 11.5458V4.13134C23.6295 2.60904 22.3909 1.37048 20.8686 1.37048H2.76077C1.23847 1.37048 0 2.60904 0 4.13134V15.3864C0 16.9087 1.23847 18.1473 2.76077 18.1473H9.92062C10.8763 21.3154 13.8212 23.6295 17.2969 23.6295C21.5444 23.6295 24.9999 20.1739 24.9999 15.9264C25 14.3001 24.493 12.7904 23.6295 11.5458ZM12.9164 9.59381H1.70067V7.18286H21.9288V9.77554C20.6387 8.80163 19.0342 8.22335 17.2969 8.22335C15.6708 8.22327 14.1609 8.73025 12.9164 9.59381ZM2.76077 3.07116H20.8686C21.4532 3.07116 21.9288 3.54675 21.9288 4.13134V5.48219H1.70067V4.13134C1.70067 3.54675 2.17626 3.07116 2.76077 3.07116ZM2.76077 16.4466C2.17626 16.4466 1.70067 15.971 1.70067 15.3864V11.2945H11.146C10.1721 12.5845 9.59385 14.1891 9.59385 15.9264C9.59385 16.1013 9.60025 16.2746 9.61178 16.4467H2.76077V16.4466ZM17.297 21.9287C13.9872 21.9287 11.2945 19.2361 11.2945 15.9263C11.2945 12.6166 13.9872 9.92394 17.297 9.92394C20.6066 9.92394 23.2993 12.6166 23.2993 15.9263C23.2993 19.2361 20.6066 21.9287 17.297 21.9287Z" fill="#FFBB38"/>
<path d="M13.1853 13.7054C12.7157 13.7054 12.335 14.0862 12.335 14.5558V17.2969C12.335 17.7665 12.7157 18.1472 13.1853 18.1472H21.4086C21.8782 18.1472 22.259 17.7665 22.259 17.2969V14.5558C22.259 14.0862 21.8782 13.7054 21.4086 13.7054H13.1853ZM20.5583 16.4466H14.0356V15.4062H20.5583V16.4466Z" fill="#FFBB38"/>
</svg>
