<svg width="18" height="18" viewBox="0 0 18 18" fill="none" xmlns="http://www.w3.org/2000/svg">
<g clip-path="url(#clip0_1_11028)">
<path d="M16.5 3.74998H12.75V2.99995C12.75 2.17269 12.0773 1.49994 11.25 1.49994H6.75C5.92274 1.49994 5.24999 2.17265 5.24999 2.99995V3.74994H1.50001C0.672715 3.74998 0 4.42269 0 5.24996V7.49996C0 8.32726 0.672715 8.99997 1.50001 8.99997H7.50002V8.62496C7.50002 8.41768 7.66775 8.24995 7.87504 8.24995H10.125C10.3323 8.24995 10.5 8.41768 10.5 8.62496V8.99997H16.5001C17.3273 8.99997 18 8.32726 18 7.49996V5.24996C18 4.42269 17.3273 3.74998 16.5 3.74998ZM11.25 3.74998H6.75V2.99995H11.25V3.74998Z" fill="#FFBB38"/>
<path d="M17.792 9.40462C17.6642 9.34127 17.5115 9.35593 17.3987 9.44161C17.1321 9.64341 16.8215 9.74996 16.5 9.74996H10.5V10.875C10.5 11.0822 10.3323 11.25 10.125 11.25H7.875C7.66772 11.25 7.49999 11.0822 7.49999 10.875V9.74996H1.50001C1.17847 9.74996 0.867938 9.64341 0.601313 9.44161C0.488145 9.35519 0.335812 9.34053 0.207984 9.40462C0.0805781 9.46801 0 9.59798 0 9.74047V15C0 15.8273 0.672715 16.5 1.50001 16.5H16.5C17.3273 16.5 18 15.8273 18 15V9.74047C18 9.59798 17.9194 9.46801 17.792 9.40462Z" fill="#FFBB38"/>
</g>
<defs>
<clipPath id="clip0_1_11028">
<rect width="18" height="18" fill="white"/>
</clipPath>
</defs>
</svg>
