<svg width="18" height="18" viewBox="0 0 18 18" fill="none" xmlns="http://www.w3.org/2000/svg">
<path d="M17.986 3.1346C17.9094 2.26455 16.8532 1.87717 16.235 2.4955L15.3519 3.37859C15.1545 3.57602 14.8303 3.57926 14.6292 3.38576C14.4206 3.18498 14.4315 2.83908 14.6365 2.63405L15.5051 1.76548C16.1227 1.14782 15.737 0.0912305 14.8662 0.0145547C12.4995 -0.193535 10.6224 2.00749 11.25 4.34145L0.499084 15.0924C-0.166634 15.7581 -0.16674 16.8356 0.499084 17.5015C1.16329 18.1656 2.24396 18.1657 2.90817 17.5015L13.6563 6.75327C15.9624 7.38032 18.1963 5.52284 17.986 3.1346Z" fill="#16DBCC"/>
<path d="M1.12465 4.12936C1.14985 4.17907 1.18276 4.22449 1.22217 4.2639L2.74823 5.78993C2.95418 5.99587 3.28806 5.99584 3.49397 5.78993L4.27004 5.01386L5.75216 6.49597L4.16763 8.08046C3.75704 8.49179 3.75739 9.16078 4.16798 9.57172L4.33427 9.73801L9.74246 4.33017L9.57617 4.16388C9.16344 3.75189 8.49751 3.75129 8.08421 4.16388L6.49789 5.7502L5.01577 4.26809L5.79185 3.49201C5.99779 3.2861 5.99779 2.95219 5.79185 2.74628L4.26582 1.22021C4.22599 1.18035 4.18001 1.14716 4.12966 1.12188L2.17912 0.142008C1.97592 0.0399139 1.73032 0.0795351 1.56951 0.24034L0.236739 1.57308C0.0755128 1.7343 0.036173 1.98086 0.139216 2.18427L1.12465 4.12936Z" fill="#16DBCC"/>
<path d="M12.8292 9.0719L9.07544 12.8257L13.3864 17.1378C14.4235 18.1748 16.1025 18.1752 17.1399 17.1378C18.1749 16.1028 18.1749 14.4189 17.1399 13.3843L12.8292 9.0719ZM15.9183 15.9151C15.7137 16.1204 15.3789 16.1214 15.1727 15.9151L12.1796 12.922C11.9736 12.716 11.9736 12.3821 12.1796 12.1764C12.3856 11.9704 12.7196 11.9704 12.9252 12.1764L15.9183 15.1695C16.1243 15.3755 16.1243 15.7091 15.9183 15.9151Z" fill="#16DBCC"/>
</svg>
