<svg width="28" height="30" viewBox="0 0 28 30" fill="none" xmlns="http://www.w3.org/2000/svg">
<path d="M24.1323 0C22.4164 0 21.0254 1.39102 21.0254 3.10693V12.3773H26.3604C26.8457 12.3773 27.2393 11.9838 27.2393 11.4984V3.10693C27.2393 1.39102 25.8482 0 24.1323 0V0Z" fill="#FF82AC"/>
<path d="M9.62662 22.0898C9.62662 16.7805 13.9456 12.4076 19.3261 12.4223V3.48551C19.3261 2.14857 19.8293 0.927129 20.656 0H5.1541C2.73184 0 0.760742 1.97109 0.760742 4.39336V29.1053C0.760742 29.8959 1.72795 30.2844 2.2748 29.7129L3.39922 28.5387L4.58691 29.727C4.92969 30.0697 5.48633 30.0697 5.82969 29.727L6.95527 28.602L8.09199 29.7293C8.43477 30.0691 8.9873 30.0691 9.33008 29.7293L10.485 28.5844L11.6404 29.7293C11.9826 30.0691 12.5346 30.0691 12.8773 29.7299L13.1012 29.5084C10.922 27.6864 9.62662 24.9923 9.62662 22.0898ZM7.87086 7.08984H9.60547V5.35523C9.60547 4.86984 9.99898 4.47633 10.4844 4.47633C10.9698 4.47633 11.3633 4.86984 11.3633 5.35523V7.08984H13.0979C13.5833 7.08984 13.9768 7.48336 13.9768 7.96875C13.9768 8.45414 13.5833 8.84766 13.0979 8.84766H11.3633V10.5823C11.3633 11.0677 10.9698 11.4612 10.4844 11.4612C9.99898 11.4612 9.60547 11.0677 9.60547 10.5823V8.84766H7.87086C7.38547 8.84766 6.99195 8.45414 6.99195 7.96875C6.99195 7.48336 7.38547 7.08984 7.87086 7.08984ZM5.21088 13.2451H11.1289C11.6143 13.2451 12.0078 13.6386 12.0078 14.124C12.0078 14.6094 11.6143 15.0029 11.1289 15.0029H5.21088C4.72549 15.0029 4.33197 14.6094 4.33197 14.124C4.33197 13.6386 4.72549 13.2451 5.21088 13.2451ZM8.1435 22.0283H5.20502C4.71963 22.0283 4.32611 21.6348 4.32611 21.1494C4.32611 20.664 4.71963 20.2705 5.20502 20.2705H8.1435C8.62889 20.2705 9.0224 20.664 9.0224 21.1494C9.0224 21.6348 8.62889 22.0283 8.1435 22.0283ZM8.72949 18.5186H5.20789C4.7225 18.5186 4.32898 18.125 4.32898 17.6396C4.32898 17.1543 4.7225 16.7607 5.20789 16.7607H8.72949C9.21488 16.7607 9.6084 17.1543 9.6084 17.6396C9.6084 18.125 9.21488 18.5186 8.72949 18.5186Z" fill="#FF82AC"/>
<path d="M19.2947 14.1797C14.933 14.1797 11.3845 17.7282 11.3845 22.0898C11.3845 26.4515 14.933 30 19.2947 30C23.6563 30 27.2048 26.4515 27.2048 22.0898C27.2048 17.7282 23.6563 14.1797 19.2947 14.1797ZM20.1763 25.4747V25.5583C20.1763 26.0437 19.7828 26.4372 19.2974 26.4372C18.812 26.4372 18.4185 26.0437 18.4185 25.5583V25.5434C18.0248 25.4496 17.6596 25.2945 17.3699 25.105C16.9637 24.8392 16.8499 24.2946 17.1156 23.8883C17.3814 23.482 17.926 23.3682 18.3323 23.634C18.692 23.8693 19.285 23.9587 19.5764 23.8216C19.7652 23.7327 19.9114 23.543 19.9317 23.3603C19.9752 22.9712 19.3655 22.7541 19.0015 22.6103C18.4506 22.3927 17.7649 22.1219 17.3669 21.4033C16.7995 20.3791 17.2965 19.0287 18.4185 18.5669V18.5227C18.4185 18.0373 18.812 17.6437 19.2974 17.6437C19.778 17.6437 20.168 18.0296 20.1756 18.5084C20.492 18.6073 20.7834 18.7655 21.0167 18.9807C21.3736 19.3098 21.396 19.8658 21.0669 20.2226C20.7378 20.5795 20.1817 20.6019 19.825 20.2728C19.6804 20.1394 19.2348 20.0856 19.0411 20.2156C18.9109 20.3031 18.8599 20.4709 18.9045 20.5514C19.0901 20.8865 20.0622 21.0013 20.7978 21.5746C22.3007 22.7457 21.7778 24.8604 20.1763 25.4747Z" fill="#FF82AC"/>
</svg>
