<svg width="25" height="25" viewBox="0 0 25 25" fill="none" xmlns="http://www.w3.org/2000/svg">
<g clip-path="url(#clip0_101_565)">
<path d="M14.0625 11.25V14.375H21.4375C20.6875 18.75 17.1875 21.875 12.8125 21.875C7.6875 21.875 3.4375 17.625 3.4375 12.5C3.4375 7.375 7.6875 3.125 12.8125 3.125C15.4375 3.125 17.6875 4.25 19.3125 6L21.5625 3.75C19.3125 1.5 16.3125 0 12.8125 0C5.9375 0 0.3125 5.625 0.3125 12.5C0.3125 19.375 5.9375 25 12.8125 25C19.6875 25 24.6875 19.375 24.6875 12.5V11.25H14.0625Z" fill="#FF82AC"/>
</g>
<defs>
<clipPath id="clip0_101_565">
<rect width="25" height="25" fill="white"/>
</clipPath>
</defs>
</svg>
