<svg width="20" height="20" viewBox="0 0 20 20" fill="none" xmlns="http://www.w3.org/2000/svg">
<g clip-path="url(#clip0_147_80)">
<path d="M19.4602 8.69904C19.4598 8.69858 19.4593 8.69812 19.4588 8.69766L11.3004 0.539551C10.9527 0.19165 10.4903 0 9.99855 0C9.50676 0 9.04442 0.191498 8.69652 0.539398L0.542379 8.69339C0.539632 8.69614 0.536886 8.69904 0.534139 8.70178C-0.179972 9.42001 -0.178751 10.5853 0.537649 11.3017C0.86495 11.6292 1.29723 11.8188 1.75942 11.8387C1.77819 11.8405 1.79711 11.8414 1.81618 11.8414H2.14135V17.8453C2.14135 19.0334 3.10799 20 4.29635 20H7.48818C7.81166 20 8.07412 19.7377 8.07412 19.4141V14.707C8.07412 14.1649 8.51509 13.7239 9.05724 13.7239H10.9399C11.482 13.7239 11.923 14.1649 11.923 14.707V19.4141C11.923 19.7377 12.1853 20 12.5089 20H15.7008C16.8891 20 17.8558 19.0334 17.8558 17.8453V11.8414H18.1573C18.6489 11.8414 19.1113 11.6499 19.4593 11.302C20.1765 10.5844 20.1768 9.41711 19.4602 8.69904V8.69904Z" fill="#B1B1B1"/>
</g>
<defs>
<clipPath id="clip0_147_80">
<rect width="20" height="20" fill="white"/>
</clipPath>
</defs>
</svg>
