<svg width="30" height="30" viewBox="0 0 30 30" fill="none" xmlns="http://www.w3.org/2000/svg">
<path d="M17.6871 14.843C21.7793 14.843 25.1081 11.5137 25.1081 7.42151C25.1081 3.32931 21.7793 0 17.6871 0C13.5949 0 10.2656 3.32931 10.2656 7.42151C10.2656 11.5137 13.5949 14.843 17.6871 14.843ZM16.8082 3.05919V2.85763C16.8082 2.37188 17.2014 1.97872 17.6871 1.97872C18.1723 1.97872 18.566 2.37188 18.566 2.85763V3.06036C19.6119 3.28478 20.3989 4.21642 20.3989 5.32853C20.3989 5.81369 20.0051 6.20744 19.52 6.20744C19.0342 6.20744 18.641 5.81369 18.641 5.32853C18.641 5.01857 18.3885 4.76603 18.0785 4.76603H17.2905C16.9805 4.76603 16.728 5.01857 16.728 5.32853C16.728 5.50607 16.8129 5.67482 16.9559 5.78029L17.6871 6.3217L19.4637 7.63655C20.0473 8.06838 20.3989 8.75921 20.4035 9.48577V9.49397C20.4076 10.1139 20.1703 10.6987 19.7344 11.1399C19.411 11.4674 19.0067 11.6871 18.566 11.7797V11.9854C18.566 12.4711 18.1723 12.8643 17.6871 12.8643C17.2014 12.8643 16.8082 12.4711 16.8082 11.9854V11.7827C16.3793 11.6912 15.985 11.4803 15.6662 11.1651C15.225 10.7297 14.9801 10.1485 14.9766 9.52855C14.9736 9.04339 15.3645 8.64729 15.8496 8.64436H15.8555C16.3383 8.64436 16.7315 9.0346 16.7344 9.518C16.7356 9.82134 16.9796 10.077 17.2998 10.077C17.7855 10.0741 17.6046 10.0751 18.0867 10.0723C18.3987 10.0698 18.6481 9.81665 18.6457 9.50569V9.49749C18.6446 9.32171 18.5596 9.15413 18.4178 9.04925L17.6871 8.50843L15.91 7.19358C15.3217 6.75764 14.9701 6.06037 14.9701 5.32853C14.9701 4.21408 15.7594 3.28185 16.8082 3.05919Z" fill="#396AFF"/>
<path d="M5.66251 19.066C5.43721 18.6754 4.93676 18.5395 4.54377 18.7662L0.409502 21.1528C0.018036 21.3793 -0.116261 21.88 0.109736 22.272L4.33518 29.5905C4.56135 29.9819 5.06174 30.1163 5.45391 29.8903L9.58818 27.5032C9.98024 27.2771 10.114 26.7764 9.88795 26.3844L5.66251 19.066Z" fill="#396AFF"/>
<path d="M29.3515 17.6051C28.9536 17.0525 28.1837 16.9277 27.6318 17.3256C25.9571 18.532 22.7415 20.8488 22.486 21.0334C22.3683 21.1336 22.2446 21.2244 22.1157 21.3047C21.6101 21.6229 21.0235 21.7928 20.4112 21.7928H16.2012C15.7161 21.7928 15.3223 21.3996 15.3223 20.9139C15.3223 20.4276 15.7167 20.035 16.2012 20.035H20.7036C21.3651 20.035 21.8948 19.4842 21.8673 18.8215C21.8415 18.1928 21.3048 17.7053 20.6755 17.7053H17.2483C17.0163 17.4598 16.762 17.2348 16.4895 17.0338C15.5526 16.343 14.3948 15.9346 13.1415 15.9346C10.9131 15.9346 8.69595 17.3385 7.77661 19.2123L11.3719 25.4391H18.1161C19.4403 25.4391 20.7446 25.1004 21.8925 24.4401C22.2903 24.2115 22.7163 23.9367 23.178 23.6051C25.1128 22.2153 29.0685 19.3277 29.0714 19.326C29.6245 18.9287 29.7499 18.1576 29.3515 17.6051Z" fill="#396AFF"/>
</svg>
