<svg width="70" height="70" viewBox="0 0 70 70" fill="none" xmlns="http://www.w3.org/2000/svg">
<circle cx="35" cy="35" r="35" fill="#E7EDFF"/>
<g clip-path="url(#clip0_1_7344)">
<path d="M47.3171 24.0926C43.4209 24.0926 40.4389 23.1162 38.6234 22.297C36.6498 21.4065 35.5856 20.5029 35.5767 20.4953L35.0018 20L34.426 20.4938C34.4155 20.5029 33.3512 21.4066 31.3776 22.297C29.5622 23.1162 26.5802 24.0926 22.684 24.0926H21.8042V36.169L35.0005 49.9999L48.1969 36.1812V24.0926H47.3171ZM44.6778 32.3075C44.6778 33.6718 44.1477 34.9545 43.1849 35.9206L35.0005 44.4225L26.8162 35.9205C25.8533 34.9545 25.3232 33.6717 25.3232 32.3075V31.8501C25.3232 29.0279 27.6193 26.7318 30.4415 26.7318C31.7081 26.7318 32.9241 27.1984 33.8655 28.0457L34.9686 29.0385L35.7762 28.2309C36.743 27.2642 38.0283 26.7318 39.3954 26.7318H39.5595C42.3817 26.7318 44.6778 29.0278 44.6778 31.8501V32.3075H44.6778Z" fill="#396AFF"/>
<path d="M39.5593 28.4915H39.3953C38.4982 28.4915 37.6547 28.8409 37.0202 29.4753L35.0322 31.4633L32.6883 29.3537C32.0704 28.7977 31.2725 28.4915 30.4413 28.4915C28.5892 28.4915 27.0825 29.9982 27.0825 31.8502V32.3076C27.0825 33.2048 27.4319 34.0483 28.0663 34.6826L28.078 34.6945L35.0003 41.8855L41.9343 34.6826C42.5687 34.0482 42.9181 33.2047 42.9181 32.3075V31.8502C42.9181 29.9983 41.4113 28.4915 39.5593 28.4915ZM37.6396 36.4093H35.8801V38.1688H34.1206V36.4093H32.3611V34.6498H34.1206V32.8903H35.8801V34.6498H37.6396V36.4093Z" fill="#396AFF"/>
</g>
<defs>
<clipPath id="clip0_1_7344">
<rect width="30" height="30" fill="white" transform="translate(20 20)"/>
</clipPath>
</defs>
</svg>
