<svg width="25" height="25" viewBox="0 0 25 25" fill="none" xmlns="http://www.w3.org/2000/svg">
<path d="M19.5312 9.17969H17.7716V5.16455C17.7716 2.3168 15.406 0 12.4982 0C9.59043 0 7.22476 2.3168 7.22476 5.16455V9.17969H5.46875C3.85332 9.17969 2.53906 10.4939 2.53906 12.1094V22.0703C2.53906 23.6857 3.85332 25 5.46875 25H19.5312C21.1467 25 22.4609 23.6857 22.4609 22.0703V12.1094C22.4609 10.4939 21.1467 9.17969 19.5312 9.17969ZM9.17788 5.16455C9.17788 3.39375 10.6674 1.95312 12.4982 1.95312C14.329 1.95312 15.8185 3.39375 15.8185 5.16455V9.17969H9.17788V5.16455ZM20.5078 22.0703C20.5078 22.6088 20.0697 23.0469 19.5312 23.0469H5.46875C4.93027 23.0469 4.49219 22.6088 4.49219 22.0703V12.1094C4.49219 11.5709 4.93027 11.1328 5.46875 11.1328H19.5312C20.0697 11.1328 20.5078 11.5709 20.5078 12.1094V22.0703Z" fill="#396AFF"/>
<path d="M12.5 13.9648C11.5022 13.9648 10.6934 14.7737 10.6934 15.7715C10.6934 16.4086 11.0234 16.9683 11.5216 17.2899V19.4336C11.5216 19.9729 11.9588 20.4102 12.4982 20.4102C13.0375 20.4102 13.4748 19.9729 13.4748 19.4336V17.2922C13.975 16.9709 14.3066 16.4102 14.3066 15.7715C14.3066 14.7737 13.4978 13.9648 12.5 13.9648Z" fill="#396AFF"/>
</svg>
