<svg width="32" height="27" viewBox="0 0 32 27" fill="none" xmlns="http://www.w3.org/2000/svg">
<path d="M23.4999 19.8333H26.8333C28.6742 19.8333 30.1666 18.3409 30.1666 16.5V4.83333C30.1666 2.99238 28.6742 1.5 26.8333 1.5H9.33325C7.95254 1.5 6.83325 2.61929 6.83325 4V4" stroke="white" stroke-width="2.08333"/>
<path d="M1.83325 24.8333L1.83325 9.83333L4.74992 10.25L4.54973 12.3333C3.08325 18.1667 3.38066 16.2658 4.54973 22.4196C5.16659 25.6667 4.74992 24.8333 4.74992 24.8333H1.83325Z" fill="#CEE1F2"/>
<rect x="1.20841" y="9.20835" width="22.9167" height="16.25" rx="2.29167" stroke="white" stroke-width="2.08333"/>
<rect x="13.5" y="19.8333" width="7.5" height="2.08333" rx="1.04167" fill="white"/>
<rect x="6" y="12.3333" width="18.3333" height="2.5" rx="1.25" fill="white"/>
</svg>
