<svg width="32" height="27" viewBox="0 0 32 27" fill="none" xmlns="http://www.w3.org/2000/svg">
<path d="M24.5833 19.8333H27.5C29.341 19.8333 30.8333 18.3409 30.8333 16.5V4.83333C30.8333 2.99238 29.341 1.5 27.5 1.5H10C8.61929 1.5 7.5 2.61929 7.5 4V4" stroke="#0023C4" stroke-width="2.08333"/>
<path d="M2.5 24.8333L2.5 9.83333L5.41667 10.25L5.21647 12.3333C3.75 18.1667 4.0474 16.2658 5.21647 22.4196C5.83333 25.6667 5.41667 24.8333 5.41667 24.8333H2.5Z" fill="#CEE1F2"/>
<rect x="1.87492" y="9.20835" width="22.9167" height="16.25" rx="2.29167" stroke="#0023C4" stroke-width="2.08333"/>
<rect x="14.1667" y="19.8333" width="7.5" height="2.08333" rx="1.04167" fill="#FF5CF4"/>
<rect x="6.66675" y="12.3333" width="18.3333" height="2.5" rx="1.25" fill="#0023C4"/>
</svg>
