<svg width="26" height="26" viewBox="0 0 26 26" fill="none" xmlns="http://www.w3.org/2000/svg">
<g clip-path="url(#clip0_212_12)">
<path d="M18.9521 5.6709L24.9482 11.667C25.2998 12.0186 25.5 12.502 25.5 13C25.5 13.498 25.2998 13.9814 24.9482 14.333L18.9521 20.3291C18.6396 20.6416 18.2197 20.8125 17.7803 20.8125C16.8672 20.8125 16.125 20.0703 16.125 19.1572V16.125H9.875C9.01074 16.125 8.3125 15.4268 8.3125 14.5625V11.4375C8.3125 10.5732 9.01074 9.875 9.875 9.875H16.125V6.84277C16.125 5.92969 16.8672 5.1875 17.7803 5.1875C18.2197 5.1875 18.6396 5.36328 18.9521 5.6709ZM8.3125 5.1875H5.1875C4.32324 5.1875 3.625 5.88574 3.625 6.75V19.25C3.625 20.1143 4.32324 20.8125 5.1875 20.8125H8.3125C9.17676 20.8125 9.875 21.5107 9.875 22.375C9.875 23.2393 9.17676 23.9375 8.3125 23.9375H5.1875C2.59961 23.9375 0.5 21.8379 0.5 19.25V6.75C0.5 4.16211 2.59961 2.0625 5.1875 2.0625H8.3125C9.17676 2.0625 9.875 2.76074 9.875 3.625C9.875 4.48926 9.17676 5.1875 8.3125 5.1875Z" fill="#B1B1B1"/>
</g>
<defs>
<clipPath id="clip0_212_12">
<rect width="25" height="25" fill="white" transform="translate(0.5 0.5)"/>
</clipPath>
</defs>
</svg>
