<svg width="26" height="20" viewBox="0 0 26 20" fill="none" xmlns="http://www.w3.org/2000/svg">
<path d="M22.9608 4.16342V3.80775C22.9608 2.17274 21.6306 0.842529 19.9956 0.842529H2.96522C1.33016 0.84258 0 2.17274 0 3.80775V4.16342H22.9608Z" fill="#396AFF"/>
<path d="M13.5651 13.7017C13.5651 12.1636 14.0598 10.7017 14.9731 9.49683H0V13.6331C0 15.2681 1.33016 16.5983 2.96522 16.5983H14.1911C13.7813 15.7007 13.5651 14.7179 13.5651 13.7017ZM11.4804 12.803H8.92125V11.2796H11.4804V12.803ZM3.41545 11.2796H7.39781V12.803H3.41545V11.2796Z" fill="#396AFF"/>
<path d="M16.5547 7.97342C17.7165 7.16056 19.0967 6.72262 20.5443 6.72262C21.3822 6.72262 22.1973 6.86974 22.9608 7.15091V5.68689H0V7.97342H16.5547Z" fill="#396AFF"/>
<path d="M26.0001 13.7018C26.0001 10.6887 23.5575 8.24609 20.5444 8.24609C17.5313 8.24609 15.0886 10.6887 15.0886 13.7018C15.0886 16.7149 17.5312 19.1575 20.5444 19.1575C23.5575 19.1575 26.0001 16.7149 26.0001 13.7018ZM21.2798 16.6164V17.2364H20.518V17.2364V17.2364H19.7563V16.6209C19.2958 16.465 18.919 16.1906 18.551 15.9215L19.4504 14.6919C19.9447 15.0534 20.1977 15.2272 20.5444 15.2272C20.7404 15.2272 20.8991 15.1339 20.9586 14.9838C21.0306 14.802 20.9288 14.6345 20.6862 14.5357C20.6862 14.5357 19.5974 14.1726 19.094 13.6593C18.6716 13.2288 18.5373 12.622 18.6717 12.0447C18.8071 11.4635 19.1996 11.0091 19.7563 10.7822V10.1671H21.2798V10.7567C21.6667 10.8641 21.9942 11.0229 22.1825 11.1251L21.4556 12.464C20.9737 12.2024 20.5304 12.1239 20.3578 12.1829C20.1904 12.2401 20.165 12.3493 20.1554 12.3904C20.1418 12.4486 20.1346 12.538 20.2277 12.6418C20.3173 12.7417 21.2606 13.1248 21.2606 13.1248C22.2783 13.5391 22.7573 14.5795 22.3748 15.5449C22.1761 16.0467 21.7762 16.4267 21.2798 16.6164Z" fill="#396AFF"/>
</svg>
