<svg width="30" height="30" viewBox="0 0 30 30" fill="none" xmlns="http://www.w3.org/2000/svg">
<g clip-path="url(#clip0_152_659)">
<path d="M9.99013 5.625H20.0101L22.1726 3.895C22.9089 3.3075 23.1839 2.35375 22.8726 1.46375C22.5614 0.57375 21.7526 0 20.8126 0H9.18763C8.24763 0 7.43888 0.575 7.12763 1.46375C6.81638 2.3525 7.09138 3.3075 7.82638 3.89375L9.99013 5.625Z" fill="#FFBB38"/>
<path d="M20.1813 7.5H9.81875C6.405 10.8512 3.75 16.7312 3.75 21.5625C3.75 25.7612 5.9725 30 10.9375 30H19.375C23.6162 30 26.25 26.7663 26.25 21.5625C26.25 16.7312 23.595 10.8512 20.1813 7.5ZM14.525 17.8125H15.475C16.9362 17.8125 18.125 19.0013 18.125 20.4625C18.125 21.7763 17.1775 22.8575 15.9375 23.0775V24.0613C15.9375 24.5788 15.5175 24.9988 15 24.9988C14.4825 24.9988 14.0625 24.5788 14.0625 24.0613V23.125H12.8125C12.295 23.125 11.875 22.705 11.875 22.1875C11.875 21.67 12.295 21.25 12.8125 21.25H15.475C15.9025 21.25 16.25 20.9025 16.25 20.475C16.25 20.035 15.9025 19.6875 15.475 19.6875H14.525C13.0638 19.6875 11.875 18.4987 11.875 17.0375C11.875 15.7238 12.8225 14.6425 14.0625 14.4225V13.4375C14.0625 12.92 14.4825 12.5 15 12.5C15.5175 12.5 15.9375 12.92 15.9375 13.4375V14.375H17.1875C17.705 14.375 18.125 14.795 18.125 15.3125C18.125 15.83 17.705 16.25 17.1875 16.25H14.525C14.0975 16.25 13.75 16.5975 13.75 17.025C13.75 17.465 14.0975 17.8125 14.525 17.8125Z" fill="#FFBB38"/>
</g>
<defs>
<clipPath id="clip0_152_659">
<rect width="30" height="30" fill="white"/>
</clipPath>
</defs>
</svg>
