<svg width="21" height="19" viewBox="0 0 21 19" fill="none" xmlns="http://www.w3.org/2000/svg">
<path d="M19.0357 18.875H1.84824C0.843071 18.875 0.0253906 18.0573 0.0253906 17.0521C0.0253906 16.5187 0.257706 16.0136 0.662827 15.6666C0.688957 15.6438 0.716995 15.623 0.746178 15.6041C2.2753 14.2697 3.15039 12.35 3.15039 10.3228V7.4166C3.15039 3.39591 6.42226 0.125 10.442 0.125C10.6087 0.125 10.7889 0.128052 10.9556 0.156281C11.3816 0.227043 11.6692 0.630257 11.5982 1.05521C11.5275 1.48017 11.117 1.7678 10.6993 1.69685C10.6159 1.6833 10.5244 1.6875 10.442 1.6875C7.28381 1.6875 4.71289 4.25727 4.71289 7.4166V10.3228C4.71289 12.8396 3.60968 15.2209 1.68898 16.8551C1.67334 16.8677 1.6598 16.8792 1.64301 16.8906C1.61497 16.9261 1.58789 16.9802 1.58789 17.0521C1.58789 17.1937 1.70672 17.3125 1.84824 17.3125H19.0357C19.1775 17.3125 19.2963 17.1937 19.2963 17.0521C19.2963 16.9791 19.2692 16.9261 19.24 16.8906C19.2244 16.8792 19.2108 16.8677 19.1952 16.8551C17.2734 15.2198 16.1713 12.8396 16.1713 10.3228V9.18758C16.1713 8.75632 16.5213 8.40633 16.9525 8.40633C17.3838 8.40633 17.7338 8.75632 17.7338 9.18758V10.3228C17.7338 12.3511 18.6098 14.2718 20.1411 15.6073C20.1691 15.626 20.1962 15.6459 20.2212 15.6678C20.6265 16.0136 20.8588 16.5187 20.8588 17.0521C20.8588 18.0573 20.0411 18.875 19.0357 18.875Z" fill="#FE5C73"/>
</svg>
