<svg width="27" height="27" viewBox="0 0 27 27" fill="none" xmlns="http://www.w3.org/2000/svg">
<g clip-path="url(#clip0_101_186)">
<path d="M25.3716 14.0972C24.938 14.0453 24.5444 14.3551 24.4925 14.7889C23.8424 20.2357 19.2035 24.3434 13.7021 24.3434C8.75397 24.3434 4.50459 21.0205 3.22642 16.3894L4.17274 16.9092C4.55568 17.1195 5.03666 16.9794 5.24677 16.5967C5.45709 16.2137 5.31722 15.7328 4.93429 15.5224L2.50689 14.1893C2.12437 13.9792 1.64379 14.1186 1.43327 14.5009L0.0982465 16.9252C-0.112482 17.308 0.0269738 17.7889 0.409498 17.9997C0.804588 18.1845 1.25612 18.0936 1.48394 17.6884L1.79334 17.1267C3.36072 22.2682 8.14712 25.9254 13.7021 25.9254C20.0041 25.9254 25.3183 21.2183 26.0631 14.9764C26.1151 14.5425 25.8052 14.1489 25.3716 14.0972Z" fill="#16DBCC"/>
<path d="M26.5214 7.80969C26.1206 7.63686 25.655 7.82164 25.482 8.22291L25.2327 8.8005C24.4539 6.89612 23.2039 5.19196 21.5939 3.87259C19.3772 2.05555 16.5745 1.05505 13.702 1.05505C10.8295 1.05505 8.02676 2.05555 5.80989 3.87259C3.62371 5.6643 2.10021 8.16502 1.52014 10.9138C1.42991 11.3412 1.70347 11.7608 2.1309 11.851C2.55771 11.9412 2.97793 11.6679 3.06795 11.2405C3.57407 8.84252 4.90394 6.66047 6.81265 5.09597C8.74731 3.51025 11.1941 2.63706 13.702 2.63706C16.2097 2.63706 18.6565 3.51025 20.5912 5.09597C22.0782 6.31461 23.2136 7.90836 23.8823 9.68688L22.8807 9.25615C22.4795 9.08374 22.0141 9.26892 21.8415 9.67019C21.6689 10.0715 21.8543 10.5366 22.2556 10.7092L24.7999 11.8036C25.2329 11.9826 25.6546 11.7997 25.839 11.3902L26.9346 8.84912C27.1077 8.44805 26.9227 7.98272 26.5214 7.80969Z" fill="#16DBCC"/>
<path d="M18.5773 7.67111C18.8043 7.2132 18.8391 6.6941 18.6757 6.20982C18.5124 5.72553 18.1702 5.33394 17.7123 5.10694C16.7668 4.63852 15.6168 5.02661 15.1482 5.9719C15.0458 6.17871 14.9827 6.39789 14.9593 6.62077C14.3483 6.56453 13.7272 6.62139 13.1253 6.79462C11.9273 7.13904 10.9083 7.91398 10.2561 8.97627L8.12018 12.455C7.83488 12.404 7.5399 12.4252 7.25769 12.5203C6.81626 12.6693 6.45927 12.9811 6.25267 13.3983L6.11177 13.6823C5.68496 14.5438 6.03844 15.5921 6.90009 16.0189L11.5238 18.3099C11.0685 19.257 11.2724 20.3214 12.454 20.9159C13.4899 21.3415 14.6431 20.9245 15.0909 20.0775L15.5797 20.3195C15.824 20.4407 16.0873 20.5018 16.3522 20.5018C16.5398 20.5018 16.7283 20.4712 16.9112 20.4094C17.3525 20.2606 17.7094 19.9488 17.9163 19.5314L18.0569 19.2474C18.2638 18.83 18.2957 18.3573 18.1468 17.9158C18.0516 17.6336 17.8897 17.386 17.6763 17.1899L19.1503 13.3834C19.6004 12.2208 19.5996 10.9406 19.1481 9.77881C18.9213 9.19503 18.5903 8.66646 18.1756 8.21431C18.3385 8.06064 18.4749 7.87793 18.5773 7.67111ZM16.8614 6.48708C17.0449 6.48708 17.1936 6.6358 17.1936 6.81914C17.1936 7.00267 17.0449 7.15119 16.8614 7.15119C16.678 7.15119 16.5293 7.00247 16.5293 6.81914C16.5293 6.6358 16.678 6.48708 16.8614 6.48708ZM13.4697 19.5195C13.3659 19.5547 13.2547 19.5471 13.1564 19.4985C13.0582 19.4499 12.9848 19.3658 12.9498 19.262C12.9224 19.1808 12.9214 19.0949 12.9455 19.0146L13.6694 19.3732C13.6197 19.441 13.5509 19.4923 13.4697 19.5195ZM17.675 12.8122L16.0693 16.9584C15.8434 17.4707 16.0595 18.0771 16.566 18.3284H16.5662C16.6488 18.3725 16.6791 18.4632 16.6395 18.5451L16.4986 18.8292C16.4515 18.9116 16.3674 18.9386 16.2821 18.9021L7.60252 14.6015C7.5226 14.5619 7.48964 14.4647 7.52919 14.385L7.67009 14.1009C7.70819 14.0307 7.78215 13.9808 7.88679 14.0278C8.13913 14.1528 8.42504 14.172 8.692 14.0822C8.94393 13.9971 9.15054 13.8243 9.27805 13.5929L11.6041 9.80414C12.0492 9.07906 12.7449 8.55007 13.5626 8.31483C14.3802 8.07959 15.2505 8.15807 16.0127 8.53586C16.0129 8.53586 16.0129 8.53586 16.0131 8.53607C16.0133 8.53607 16.0133 8.53607 16.0135 8.53627C16.7759 8.91406 17.3654 9.55881 17.6736 10.3519C17.9818 11.1449 17.9822 12.0187 17.675 12.8122Z" fill="#16DBCC"/>
</g>
<defs>
<clipPath id="clip0_101_186">
<rect width="27" height="27" fill="white"/>
</clipPath>
</defs>
</svg>
