<svg width="25" height="25" viewBox="0 0 25 25" fill="none" xmlns="http://www.w3.org/2000/svg">
<g clip-path="url(#clip0_1_7481)">
<path d="M22.0692 16.6948C21.3972 18.516 20.381 20.0995 19.0483 21.4008C17.5314 22.8821 15.5451 24.0591 13.1445 24.8987C13.0657 24.9262 12.9835 24.9487 12.9009 24.9653C12.7918 24.9868 12.6808 24.9985 12.5708 25H12.5492C12.4319 25 12.314 24.9882 12.1971 24.9653C12.1145 24.9487 12.0335 24.9262 11.9551 24.8993C9.55162 24.061 7.56283 22.8846 6.04438 21.4033C4.71115 20.1019 3.6951 18.5194 3.0241 16.6983C1.80396 13.3871 1.87339 9.73949 1.92928 6.80827L1.93023 6.76326C1.94148 6.52122 1.94873 6.26697 1.95274 5.9862C1.97315 4.60776 3.06911 3.46736 4.44774 3.39049C7.32212 3.23008 9.54571 2.29262 11.4456 0.440775L11.4622 0.425516C11.7777 0.136171 12.1752 -0.00573542 12.5708 0.000177388C12.9522 0.00513651 13.3322 0.146853 13.6364 0.425516L13.6526 0.440775C15.5529 2.29262 17.7765 3.23008 20.6509 3.39049C22.0295 3.46736 23.1255 4.60776 23.1459 5.9862C23.1499 6.26887 23.1571 6.52274 23.1684 6.76326L23.169 6.78233C23.2246 9.71908 23.2937 13.3739 22.0692 16.6948Z" fill="#16DBCC"/>
<path d="M22.0692 16.6948C21.3972 18.5159 20.381 20.0994 19.0483 21.4008C17.5314 22.882 15.5451 24.0591 13.1445 24.8987C13.0658 24.9261 12.9836 24.9486 12.901 24.9652C12.7919 24.9868 12.6809 24.9984 12.5708 25V0.00012207C12.9523 0.00508119 13.3322 0.146797 13.6364 0.425461L13.6526 0.44072C15.5529 2.29257 17.7765 3.23003 20.6509 3.39044C22.0295 3.4673 23.1255 4.60771 23.1459 5.98615C23.1499 6.26882 23.1572 6.52269 23.1684 6.7632L23.169 6.78228C23.2247 9.71902 23.2937 13.3739 22.0692 16.6948Z" fill="#16DBCC"/>
<path d="M18.7791 12.5C18.7791 15.928 15.9958 18.7185 12.5705 18.7307H12.5486C9.11328 18.7307 6.31787 15.9355 6.31787 12.5C6.31787 9.06463 9.11328 6.26941 12.5486 6.26941H12.5705C15.9958 6.28162 18.7791 9.07207 18.7791 12.5Z" fill="white"/>
<path d="M16.3773 11.4969L12.5957 14.8518L11.7785 15.5766C11.5855 15.7478 11.3323 15.8333 11.0794 15.8333C10.8262 15.8333 10.5732 15.7478 10.3799 15.5766L8.62305 14.0175C8.23698 13.675 8.23698 13.1203 8.62305 12.7776C9.00862 12.4351 9.63478 12.4351 10.0209 12.7776L11.0794 13.7165L14.9795 10.257C15.3656 9.91433 15.9917 9.91433 16.3773 10.257C16.7633 10.5995 16.7633 11.1549 16.3773 11.4969Z" fill="#16DBCC"/>
</g>
<defs>
<clipPath id="clip0_1_7481">
<rect width="25" height="25" fill="white"/>
</clipPath>
</defs>
</svg>
