<svg width="23" height="25" viewBox="0 0 23 25" fill="none" xmlns="http://www.w3.org/2000/svg">
<path d="M21.0692 16.6948C20.3972 18.516 19.381 20.0995 18.0483 21.4008C16.5314 22.8821 14.5451 24.0591 12.1445 24.8987C12.0657 24.9262 11.9835 24.9487 11.9009 24.9653C11.7918 24.9868 11.6808 24.9985 11.5708 25H11.5492C11.4319 25 11.314 24.9882 11.1971 24.9653C11.1145 24.9487 11.0335 24.9262 10.9551 24.8993C8.55162 24.061 6.56283 22.8846 5.04438 21.4033C3.71115 20.1019 2.6951 18.5194 2.0241 16.6983C0.803963 13.3871 0.873391 9.73949 0.929276 6.80827L0.93023 6.76326C0.941483 6.52122 0.948731 6.26697 0.952737 5.9862C0.973145 4.60776 2.06911 3.46736 3.44774 3.39049C6.32212 3.23008 8.54571 2.29262 10.4456 0.440775L10.4622 0.425516C10.7777 0.136171 11.1752 -0.00573542 11.5708 0.000177388C11.9522 0.00513651 12.3322 0.146853 12.6364 0.425516L12.6526 0.440775C14.5529 2.29262 16.7765 3.23008 19.6509 3.39049C21.0295 3.46736 22.1255 4.60776 22.1459 5.9862C22.1499 6.26887 22.1571 6.52274 22.1684 6.76326L22.169 6.78233C22.2246 9.71908 22.2937 13.3739 21.0692 16.6948Z" fill="#16DBCC"/>
<path d="M21.0692 16.6948C20.3972 18.5159 19.381 20.0994 18.0483 21.4008C16.5314 22.882 14.5451 24.0591 12.1445 24.8987C12.0658 24.9261 11.9836 24.9486 11.901 24.9652C11.7919 24.9868 11.6809 24.9984 11.5708 25V0.00012207C11.9523 0.00508119 12.3322 0.146797 12.6364 0.425461L12.6526 0.44072C14.5529 2.29257 16.7765 3.23003 19.6509 3.39044C21.0295 3.4673 22.1255 4.60771 22.1459 5.98615C22.1499 6.26882 22.1572 6.52269 22.1684 6.7632L22.169 6.78228C22.2247 9.71902 22.2937 13.3739 21.0692 16.6948Z" fill="#16DBCC"/>
<path d="M17.7791 12.5C17.7791 15.928 14.9958 18.7185 11.5705 18.7307H11.5486C8.11328 18.7307 5.31787 15.9355 5.31787 12.5C5.31787 9.06463 8.11328 6.26941 11.5486 6.26941H11.5705C14.9958 6.28162 17.7791 9.07207 17.7791 12.5Z" fill="white"/>
<path d="M15.3773 11.4969L11.5957 14.8518L10.7785 15.5766C10.5855 15.7478 10.3323 15.8333 10.0794 15.8333C9.82617 15.8333 9.57324 15.7478 9.37994 15.5766L7.62305 14.0175C7.23698 13.675 7.23698 13.1203 7.62305 12.7776C8.00862 12.4351 8.63478 12.4351 9.02085 12.7776L10.0794 13.7165L13.9795 10.257C14.3656 9.91433 14.9917 9.91433 15.3773 10.257C15.7633 10.5995 15.7633 11.1549 15.3773 11.4969Z" fill="#16DBCC"/>
</svg>
