<svg width="20" height="20" viewBox="0 0 20 20" fill="none" xmlns="http://www.w3.org/2000/svg">
<g clip-path="url(#clip0_203_67)">
<path d="M18.1588 7.53125H17.7342C17.5963 7.09961 17.4223 6.68031 17.2138 6.27746L17.5145 5.97676C18.2436 5.24844 18.2241 4.08125 17.5147 3.37266L16.6276 2.48555C15.9194 1.77645 14.752 1.7559 14.0235 2.48527L13.7225 2.78621C13.3197 2.57777 12.9004 2.40371 12.4688 2.26578V1.84113C12.4688 0.825937 11.6428 0 10.6276 0H9.37238C8.35719 0 7.53125 0.825937 7.53125 1.84113V2.26578C7.09965 2.40367 6.68031 2.57773 6.27746 2.78621L5.9768 2.48555C5.24973 1.75762 4.08234 1.77469 3.37273 2.48531L2.48551 3.37246C1.77645 4.08074 1.75594 5.24801 2.48527 5.97656L2.78621 6.2775C2.57773 6.68035 2.40371 7.09961 2.26578 7.53129H1.84117C0.825977 7.53125 0 8.35719 0 9.37238V10.6276C0 11.6428 0.825977 12.4688 1.84117 12.4688H2.26578C2.40371 12.9004 2.57773 13.3197 2.78621 13.7225L2.48551 14.0232C1.75641 14.7516 1.77594 15.9188 2.48527 16.6273L3.37242 17.5145C4.08059 18.2236 5.24801 18.2441 5.97652 17.5147L6.27746 17.2138C6.68031 17.4222 7.09965 17.5963 7.53125 17.7342V18.1589C7.53125 19.1741 8.35723 20 9.37242 20H10.6276C11.6428 20 12.4688 19.1741 12.4688 18.1589V17.7342C12.9004 17.5963 13.3197 17.4223 13.7226 17.2138L14.0232 17.5145C14.7503 18.2424 15.9177 18.2253 16.6273 17.5147L17.5145 16.6275C18.2236 15.9192 18.2441 14.752 17.5148 14.0234L17.2138 13.7225C17.4223 13.3196 17.5963 12.9004 17.7343 12.4687H18.1589C19.1741 12.4687 20 11.6427 20 10.6275V9.3723C20 8.35719 19.174 7.53125 18.1588 7.53125V7.53125ZM10 14.3516C7.60051 14.3516 5.64844 12.3995 5.64844 10C5.64844 7.60055 7.60051 5.64844 10 5.64844C12.3995 5.64844 14.3516 7.60055 14.3516 10C14.3516 12.3995 12.3995 14.3516 10 14.3516Z" fill="#1814F3"/>
</g>
<defs>
<clipPath id="clip0_203_67">
<rect width="20" height="20" fill="white"/>
</clipPath>
</defs>
</svg>
