<svg width="25" height="25" viewBox="0 0 25 25" fill="none" xmlns="http://www.w3.org/2000/svg">
<g clip-path="url(#clip0_101_199)">
<path d="M4.20898 21.5226C4.61349 21.5226 4.94141 21.1947 4.94141 20.7902C4.94141 20.3857 4.61349 20.0577 4.20898 20.0577C3.80448 20.0577 3.47656 20.3857 3.47656 20.7902C3.47656 21.1947 3.80448 21.5226 4.20898 21.5226Z" fill="#396AFF"/>
<path d="M19.8337 12.0366C21.1271 11.8463 22.3007 11.2558 23.2275 10.329C24.1099 9.44667 24.6907 8.3328 24.907 7.10785C25.1183 5.91136 24.9697 4.69442 24.4773 3.58856C24.2684 3.11951 23.653 3.00574 23.2903 3.36859L20.2899 6.36888C20.166 6.49271 19.9646 6.49271 19.8407 6.36888L18.6309 5.15916C18.5073 5.03553 18.5073 4.83436 18.6309 4.71073L21.6317 1.71004C21.9948 1.34695 21.8804 0.731817 21.4117 0.523126C20.3058 0.0306451 19.0888 -0.117988 17.8923 0.0933405C16.6673 0.309649 15.5534 0.890411 14.671 1.77278C13.7442 2.69959 13.1536 3.87313 12.9634 5.16649C12.8063 6.23387 12.9316 7.30179 13.3255 8.28841L11.1284 10.0932L6.222 5.18695L7.08519 4.32381C7.39451 4.01453 7.36531 3.50369 7.02205 3.23182L3.70115 0.601544C3.4097 0.370733 2.99144 0.394854 2.7285 0.657794L0.656915 2.72928C0.393976 2.99217 0.369757 3.41038 0.600665 3.70189L3.23104 7.02264C3.50291 7.36585 4.01341 7.39544 4.32308 7.08578L5.18621 6.22264L9.99109 11.0273L0.972003 18.4358C-0.228729 19.3855 -0.332343 21.1723 0.749933 22.2545L2.74505 24.2496C3.82718 25.3316 5.6139 25.2284 6.5639 24.0275L13.9726 15.0087L14.7169 15.753L13.6464 16.8234C13.3712 17.0985 13.3593 17.5407 13.619 17.8303L19.2003 24.0527C20.298 25.2709 22.1915 25.3216 23.3522 24.1609L24.1607 23.3523C25.3239 22.1893 25.2687 20.2821 24.0394 19.1883C24.0388 19.1879 24.0384 19.1874 24.0379 19.187L17.7868 13.6558C17.4969 13.3993 17.0574 13.4126 16.7835 13.6864L15.7526 14.7172L14.9068 13.8715L16.7117 11.6745C17.6983 12.0683 18.7662 12.1936 19.8337 12.0366ZM3.86873 5.46859L2.15394 3.30374L3.30296 2.15477L5.4679 3.86947L3.86873 5.46859ZM17.3321 15.2093L23.0662 20.2831C23.3566 20.5416 23.5228 20.898 23.5342 21.2867C23.5455 21.6757 23.4002 22.0414 23.125 22.3166L22.3165 23.1251C22.0425 23.3991 21.6784 23.5447 21.2914 23.5343C20.9042 23.5242 20.5481 23.3602 20.2898 23.0734L15.1727 17.3686L17.3321 15.2093ZM15.9372 10.3096L13.3518 13.4568C13.3514 13.4572 13.3511 13.4577 13.3508 13.458L5.42737 23.1034C5.42401 23.1075 5.42064 23.1117 5.41732 23.1159C5.01131 23.6329 4.24676 23.6797 3.78084 23.2138L1.78572 21.2187C1.32088 20.754 1.36551 19.9893 1.88372 19.5824C1.88792 19.5791 1.89207 19.5757 1.89622 19.5723L11.542 11.6491C11.5423 11.6488 11.5425 11.6486 11.5428 11.6484L14.6904 9.06288C14.9576 8.84339 15.0348 8.46688 14.8757 8.1599C13.9526 6.37923 14.2866 4.22869 15.7068 2.80853C16.5814 1.93397 17.7654 1.46922 18.9627 1.46922C19.2207 1.46922 19.4793 1.4908 19.7356 1.5345L17.5951 3.67493C16.9004 4.36966 16.9004 5.50008 17.5951 6.19486L18.8049 7.40457C19.4998 8.0995 20.6307 8.0996 21.3257 7.40457L23.4658 5.26458C23.7123 6.70999 23.2547 8.23026 22.1917 9.29325C20.7715 10.7134 18.6209 11.0473 16.8402 10.1243C16.5332 9.96512 16.1567 10.0424 15.9372 10.3096Z" fill="#396AFF"/>
</g>
<defs>
<clipPath id="clip0_101_199">
<rect width="25" height="25" fill="white"/>
</clipPath>
</defs>
</svg>
