<svg width="26" height="25" viewBox="0 0 26 25" fill="none" xmlns="http://www.w3.org/2000/svg">
<path d="M12.555 24.9999L16.0675 5.24575C19.4155 5.24575 20.4715 5.61287 20.624 7.11138C20.624 7.11138 22.8699 6.27396 24.0027 4.57318C19.5823 2.52488 15.1409 2.4325 15.1409 2.4325L12.5492 5.58911L12.555 5.58871L9.96337 2.43201C9.96337 2.43201 5.52182 2.52448 1.10205 4.57278C2.23382 6.27356 4.48064 7.11098 4.48064 7.11098C4.634 5.61238 5.68875 5.24525 9.01427 5.24288L12.555 24.9999Z" fill="#FFBB38"/>
<path d="M12.5536 1.52078C16.1268 1.49345 20.2168 2.07355 24.4037 3.89838C24.9633 2.89117 25.1071 2.44602 25.1071 2.44602C20.5302 0.635243 16.244 0.0155444 12.5531 0C8.86231 0.0155444 4.5763 0.635341 0 2.44602C0 2.44602 0.204157 2.99433 0.702965 3.89838C4.88907 2.07355 8.97973 1.49345 12.5531 1.52078H12.5536Z" fill="#FFBB38"/>
</svg>
