<svg width="28" height="28" viewBox="0 0 28 28" fill="none" xmlns="http://www.w3.org/2000/svg">
<path d="M22.9948 8.38257C22.981 6.85229 22.3639 5.38927 21.2777 4.31126C20.1915 3.23325 18.7239 2.62731 17.1935 2.62507H8.74979C8.54007 2.62237 8.33634 2.6951 8.17574 2.83001C8.01514 2.96492 7.90834 3.15303 7.87479 3.36007L4.88229 22.1288C4.8636 22.2531 4.8719 22.38 4.90662 22.5008C4.94135 22.6215 5.00169 22.7334 5.08354 22.8288C5.16487 22.9265 5.26648 23.0052 5.38132 23.0596C5.49616 23.114 5.62148 23.1428 5.74854 23.1438H9.36229L9.16979 24.3601C9.14935 24.4861 9.15675 24.6151 9.19147 24.738C9.22619 24.8609 9.28739 24.9747 9.37078 25.0715C9.45416 25.1682 9.55771 25.2455 9.67415 25.2979C9.79059 25.3504 9.9171 25.3767 10.0448 25.3751H14.1135C14.322 25.3781 14.5247 25.3066 14.6851 25.1735C14.8455 25.0403 14.9531 24.8543 14.9885 24.6488L15.8635 19.3026H18.6198C20.3449 19.2956 21.9972 18.6061 23.2154 17.3846C24.4336 16.1631 25.1187 14.509 25.121 12.7838V12.5388C25.1202 11.7273 24.927 10.9276 24.5574 10.2052C24.1878 9.48272 23.6523 8.85813 22.9948 8.38257V8.38257ZM9.49355 4.37507H17.1935C18.1116 4.37789 19.0015 4.69174 19.7182 5.26541C20.4349 5.83908 20.936 6.63871 21.1398 7.53382C20.7613 7.44504 20.3736 7.40099 19.9848 7.40257H12.6873C12.4776 7.39987 12.2738 7.4726 12.1132 7.60751C11.9526 7.74242 11.8458 7.93053 11.8123 8.13757L11.296 11.3751C11.2589 11.6071 11.3155 11.8444 11.4533 12.0348C11.5912 12.2251 11.799 12.3529 12.031 12.3901C12.2631 12.4272 12.5004 12.3706 12.6908 12.2328C12.8811 12.0949 13.0089 11.8871 13.046 11.6551L13.4485 9.13507H20.0023C20.4217 9.13727 20.8371 9.21738 21.2273 9.37132C21.061 10.7411 20.4001 12.003 19.3689 12.9198C18.3377 13.8366 17.0071 14.3452 15.6273 14.3501H11.5673C11.3588 14.347 11.1562 14.4185 10.9957 14.5517C10.8353 14.6848 10.7277 14.8709 10.6923 15.0763L9.62479 21.3938H6.77229L9.49355 4.37507ZM23.371 12.7838C23.3688 14.0448 22.868 15.2538 21.978 16.1471C21.0879 17.0404 19.8808 17.5456 18.6198 17.5526H15.1198C14.9113 17.5495 14.7087 17.621 14.5482 17.7542C14.3878 17.8873 14.2802 18.0734 14.2448 18.2788L13.3698 23.6251H11.0598L11.2523 22.4088L12.3023 16.1176H15.6098C17.2433 16.1128 18.8293 15.5678 20.1208 14.5675C21.4123 13.5673 22.3366 12.168 22.7498 10.5876C23.1559 11.157 23.3732 11.8394 23.371 12.5388V12.7838Z" fill="#396AFF"/>
</svg>
