<svg width="28" height="28" viewBox="0 0 28 28" fill="none" xmlns="http://www.w3.org/2000/svg">
<path d="M14.0002 11.379C14.4963 11.379 14.9015 11.7831 14.9015 12.2792C14.9015 12.7319 15.2694 13.0988 15.7221 13.0988C16.1737 13.0988 16.5417 12.7319 16.5417 12.2792C16.5417 11.1671 15.8172 10.2287 14.8198 9.88557V9.42048C14.8198 8.96884 14.4529 8.59987 14.0002 8.59987C13.5465 8.59987 13.1796 8.96884 13.1796 9.42048V9.88557C12.1823 10.2287 11.4599 11.1671 11.4599 12.2792C11.4599 13.6817 12.5988 14.8206 14.0002 14.8206C14.4963 14.8206 14.9015 15.2257 14.9015 15.7218C14.9015 16.2189 14.4963 16.6231 14.0002 16.6231C13.5041 16.6231 13.1 16.2189 13.1 15.7218C13.1 15.2691 12.7321 14.9012 12.2794 14.9012C11.8257 14.9012 11.4599 15.2691 11.4599 15.7218C11.4599 16.8339 12.1823 17.7713 13.1796 18.1144V18.5795C13.1796 19.0332 13.5465 19.4011 14.0002 19.4011C14.4529 19.4011 14.8198 19.0332 14.8198 18.5795V18.1144C15.8172 17.7713 16.5417 16.8339 16.5417 15.7218C16.5417 14.3204 15.4017 13.1804 14.0002 13.1804C13.5041 13.1804 13.1 12.7763 13.1 12.2792C13.1 11.7831 13.5041 11.379 14.0002 11.379ZM20.8721 18.5547C21.2741 18.7666 21.7692 18.6126 21.98 18.2136C22.6621 16.9248 23.0218 15.4676 23.0218 14C23.0218 9.02671 18.9735 4.97947 14.0002 4.97947C9.02593 4.97947 4.97868 9.02671 4.97868 14C4.97868 18.9743 9.02593 23.0215 14.0002 23.0215C15.4461 23.0215 16.8827 22.6722 18.155 22.0097C18.557 21.802 18.7131 21.3049 18.5043 20.9039C18.2955 20.5039 17.8005 20.3447 17.3974 20.5545C16.3442 21.1044 15.2001 21.3824 14.0002 21.3824C9.93025 21.3824 6.61783 18.071 6.61783 14C6.61783 9.93104 9.93025 6.61862 14.0002 6.61862C18.0702 6.61862 21.3826 9.93104 21.3826 14C21.3826 15.202 21.0871 16.3936 20.531 17.4457C20.3181 17.8467 20.4711 18.3428 20.8721 18.5547V18.5547ZM14.0002 1.69702C11.6242 1.69702 9.31738 2.37707 7.32993 3.66173C6.94856 3.90771 6.84004 4.41517 7.08602 4.7955C7.33303 5.17583 7.83842 5.28332 8.22082 5.03941C9.94059 3.92735 11.9415 3.33824 14.0002 3.33824C19.8799 3.33824 24.662 8.12135 24.662 14C24.662 19.8797 19.8799 24.6628 14.0002 24.6628C8.12057 24.6628 3.33745 19.8797 3.33745 14C3.33745 11.9609 3.91519 9.97755 5.00968 8.26708C5.25359 7.88468 5.14197 7.37722 4.75957 7.13331C4.3782 6.8894 3.87075 7.00102 3.62787 7.38239C2.36492 9.35744 1.69727 11.6477 1.69727 14C1.69727 20.785 7.21521 26.303 14.0002 26.303C20.7842 26.303 26.3032 20.785 26.3032 14C26.3032 7.21703 20.7842 1.69702 14.0002 1.69702V1.69702Z" fill="#16DBCC"/>
</svg>
