<svg width="18" height="18" viewBox="0 0 18 18" fill="none" xmlns="http://www.w3.org/2000/svg">
<g clip-path="url(#clip0_1_11017)">
<path d="M8.8716 8.67065C10.0628 8.67065 11.0943 8.24342 11.937 7.4005C12.7798 6.55771 13.2071 5.52651 13.2071 4.33519C13.2071 3.14427 12.7798 2.11294 11.9369 1.26988C11.094 0.427229 10.0626 0 8.8716 0C7.68027 0 6.64907 0.427229 5.80628 1.27001C4.9635 2.1128 4.53613 3.14414 4.53613 4.33519C4.53613 5.52651 4.9635 6.55785 5.80642 7.40064C6.64935 8.24328 7.68068 8.67065 8.8716 8.67065Z" fill="#396AFF"/>
<path d="M16.4576 13.8411C16.4333 13.4903 16.3841 13.1077 16.3118 12.7037C16.2387 12.2967 16.1446 11.9119 16.032 11.5602C15.9157 11.1967 15.7575 10.8377 15.5619 10.4937C15.359 10.1366 15.1206 9.82571 14.8531 9.56987C14.5733 9.30221 14.2308 9.08702 13.8348 8.93005C13.4401 8.77391 13.0027 8.69481 12.5348 8.69481C12.3511 8.69481 12.1734 8.7702 11.8302 8.99364C11.619 9.13138 11.3719 9.29068 11.0962 9.46687C10.8604 9.61711 10.5409 9.75787 10.1464 9.88531C9.76146 10.0099 9.37062 10.073 8.98486 10.073C8.59911 10.073 8.20841 10.0099 7.82306 9.88531C7.42893 9.75801 7.10951 9.61724 6.87399 9.46701C6.60084 9.29246 6.35365 9.13316 6.13928 8.9935C5.79651 8.77006 5.61867 8.69467 5.43492 8.69467C4.96691 8.69467 4.52965 8.77391 4.13511 8.93019C3.73933 9.08688 3.39669 9.30208 3.11668 9.57C2.8493 9.82598 2.61076 10.1368 2.40806 10.4937C2.21264 10.8377 2.05444 11.1965 1.93799 11.5603C1.82551 11.912 1.73144 12.2967 1.65839 12.7037C1.58601 13.1072 1.53685 13.4899 1.51254 13.8415C1.48865 14.1859 1.47656 14.5434 1.47656 14.9044C1.47656 15.844 1.77525 16.6047 2.36425 17.1656C2.94598 17.7192 3.7157 18 4.65174 18H13.3188C14.2548 18 15.0243 17.7193 15.6062 17.1656C16.1953 16.6051 16.494 15.8443 16.494 14.9043C16.4939 14.5416 16.4816 14.1838 16.4576 13.8411Z" fill="#396AFF"/>
</g>
<defs>
<clipPath id="clip0_1_11017">
<rect width="17.9999" height="18" fill="white"/>
</clipPath>
</defs>
</svg>
