<svg width="25" height="25" viewBox="0 0 25 25" fill="none" xmlns="http://www.w3.org/2000/svg">
<g clip-path="url(#clip0_112_1194)">
<path d="M14.4916 15.3372C18.6866 15.3372 22.0994 11.8971 22.0994 7.66863C22.0994 3.44019 18.6866 0 14.4916 0C10.2966 0 6.88379 3.44014 6.88379 7.66858C6.88379 11.897 10.2966 15.3372 14.4916 15.3372ZM12.047 10.0616C12.2683 9.72331 12.722 9.62835 13.0602 9.84975C13.5532 10.1722 13.7391 10.2019 14.3896 10.1973C15.0244 10.1931 15.3928 9.71994 15.4664 9.28202C15.5022 9.06901 15.516 8.54886 14.8713 8.32097C14.1152 8.05365 13.3413 7.74812 12.803 7.32586C12.2646 6.9036 12.0181 6.17464 12.1597 5.42358C12.3131 4.60936 12.8811 3.96121 13.642 3.73205C13.6489 3.73 13.6556 3.72835 13.6625 3.7263V3.44882C13.6625 3.04457 13.9902 2.71684 14.3945 2.71684C14.7987 2.71684 15.1264 3.04457 15.1264 3.44882V3.68018C15.6236 3.79886 15.9708 4.02631 16.1118 4.13167C16.4356 4.37376 16.5018 4.83242 16.2598 5.15625C16.0178 5.48009 15.5591 5.54635 15.2353 5.30421C15.0853 5.19207 14.6707 4.95101 14.0642 5.13376C13.7099 5.24053 13.618 5.59013 13.5982 5.6947C13.5595 5.9002 13.603 6.09281 13.7064 6.17391C14.0796 6.46661 14.7514 6.72578 15.3592 6.94064C16.4801 7.33684 17.1033 8.37529 16.9101 9.5247C16.8153 10.0887 16.5316 10.6119 16.1112 10.9981C15.8249 11.2613 15.4916 11.4488 15.1264 11.556V11.8883C15.1264 12.2926 14.7987 12.6203 14.3945 12.6203C13.9902 12.6203 13.6625 12.2926 13.6625 11.8883V11.629C13.1892 11.5716 12.7918 11.4236 12.2588 11.0748C11.9205 10.8535 11.8257 10.3999 12.047 10.0616Z" fill="#FF82AC"/>
<path d="M2.77406 17.7968H1.10503C0.700781 17.7968 0.373047 18.1245 0.373047 18.5287V24.267C0.373047 24.6713 0.700781 24.999 1.10503 24.999H2.77411V17.7968H2.77406Z" fill="#FF82AC"/>
<path d="M24.4118 17.7457C23.0399 16.3737 20.8075 16.3736 19.4356 17.7457L17.2428 19.9384L16.3441 20.8371C15.9809 21.2003 15.4882 21.4044 14.9746 21.4044H10.6044C10.2097 21.4044 9.87009 21.101 9.85149 20.7068C9.83168 20.2859 10.1671 19.9384 10.5837 19.9384H15.0257C15.9188 19.9384 16.6934 19.3025 16.8469 18.4227C16.8822 18.2207 16.9006 18.0129 16.9006 17.801C16.9007 17.396 16.5725 17.0674 16.1676 17.0674H13.7337C12.9382 17.0674 12.1744 16.7065 11.3656 16.3244C10.5174 15.9238 9.64024 15.5094 8.61463 15.4412C7.71761 15.3814 6.81853 15.4796 5.94225 15.7327C5.00399 16.0036 4.32954 16.8372 4.24775 17.7996C4.24463 17.7993 4.24145 17.7993 4.23828 17.7991V24.9965L16.8493 25C17.7163 25 18.5316 24.6623 19.1448 24.0491L24.4117 18.7823C24.6981 18.4961 24.6981 18.0319 24.4118 17.7457Z" fill="#FF82AC"/>
</g>
<defs>
<clipPath id="clip0_112_1194">
<rect width="25" height="25" fill="white"/>
</clipPath>
</defs>
</svg>
