<svg width="25" height="25" viewBox="0 0 25 25" fill="none" xmlns="http://www.w3.org/2000/svg">
<g clip-path="url(#clip0_112_1334)">
<path d="M22.9167 5.20831H17.7083V4.1666C17.7083 3.01763 16.774 2.08325 15.625 2.08325H9.375C8.22603 2.08325 7.29165 3.01758 7.29165 4.1666V5.20826H2.08335C0.934326 5.20831 0 6.14263 0 7.29161V10.4166C0 11.5656 0.934326 12.5 2.08335 12.5H10.4167V11.9791C10.4167 11.6912 10.6497 11.4583 10.9375 11.4583H14.0625C14.3504 11.4583 14.5834 11.6912 14.5834 11.9791V12.5H22.9167C24.0657 12.5 25 11.5656 25 10.4166V7.29161C25 6.14263 24.0657 5.20831 22.9167 5.20831ZM15.625 5.20831H9.375V4.1666H15.625V5.20831Z" fill="#FFBB38"/>
<path d="M24.7111 13.062C24.5336 12.974 24.3215 12.9943 24.1648 13.1133C23.7945 13.3936 23.3632 13.5416 22.9166 13.5416H14.5833V15.1041C14.5833 15.392 14.3504 15.625 14.0625 15.625H10.9375C10.6496 15.625 10.4166 15.392 10.4166 15.1041V13.5416H2.08335C1.63677 13.5416 1.20547 13.3936 0.835156 13.1133C0.677979 12.9933 0.466406 12.9729 0.288867 13.062C0.111914 13.15 0 13.3305 0 13.5284V20.8333C0 21.9823 0.934326 22.9167 2.08335 22.9167H22.9167C24.0657 22.9167 25 21.9823 25 20.8333V13.5284C25 13.3305 24.8881 13.15 24.7111 13.062Z" fill="#FFBB38"/>
</g>
<defs>
<clipPath id="clip0_112_1334">
<rect width="25" height="25" fill="white"/>
</clipPath>
</defs>
</svg>
