<svg width="28" height="30" viewBox="0 0 28 30" fill="none" xmlns="http://www.w3.org/2000/svg">
<path d="M26.3166 4.09262C22.4204 4.09262 19.4384 3.11615 17.6229 2.29698C15.6493 1.40649 14.5851 0.502868 14.5762 0.495302L14.0013 0L13.4255 0.493836C13.415 0.502868 12.3507 1.40655 10.3771 2.29698C8.56168 3.11615 5.57967 4.09262 1.68347 4.09262H0.803711V16.169L14 29.9999L27.1964 16.1812V4.09262H26.3166ZM23.6773 12.3075C23.6773 13.6718 23.1472 14.9545 22.1844 15.9206L14 24.4225L5.81568 15.9205C4.85281 14.9545 4.32273 13.6717 4.32273 12.3075V11.8501C4.32273 9.02793 6.61877 6.73183 9.44103 6.73183C10.7076 6.73183 11.9236 7.19845 12.865 8.04571L13.9681 9.03854L14.7757 8.23093C15.7425 7.2642 17.0278 6.73177 18.3949 6.73177H18.559C21.3812 6.73177 23.6773 9.02781 23.6773 11.8501V12.3075H23.6773Z" fill="#396AFF"/>
<path d="M18.5588 8.49139H18.3948C17.4977 8.49139 16.6542 8.84077 16.0197 9.47513L14.0317 11.4631L11.6878 9.35355C11.0699 8.79755 10.272 8.49133 9.44082 8.49133C7.58876 8.49133 6.08203 9.99806 6.08203 11.8501V12.3075C6.08203 13.2047 6.43141 14.0482 7.06577 14.6825L7.0775 14.6944L13.9998 21.8854L20.9338 14.6825C21.5682 14.0481 21.9176 13.2046 21.9176 12.3074V11.8501C21.9176 9.99818 20.4108 8.49139 18.5588 8.49139ZM16.6391 16.4092H14.8796V18.1687H13.1201V16.4092H11.3606V14.6497H13.1201V12.8902H14.8796V14.6497H16.6391V16.4092Z" fill="#396AFF"/>
</svg>
