<svg width="30" height="30" viewBox="0 0 30 30" fill="none" xmlns="http://www.w3.org/2000/svg">
<g clip-path="url(#clip0_112_1089)">
<path d="M26.483 20.0338C25.6767 22.2192 24.4572 24.1193 22.858 25.681C21.0377 27.4585 18.6541 28.8709 15.7734 29.8785C15.6789 29.9114 15.5802 29.9384 15.4811 29.9584C15.3502 29.9842 15.217 29.9982 15.0849 30H15.0591C14.9183 30 14.7768 29.9858 14.6365 29.9584C14.5374 29.9384 14.4402 29.9114 14.3461 29.8792C11.4619 28.8732 9.07539 27.4615 7.25326 25.684C5.65338 24.1223 4.43412 22.2233 3.62891 20.0379C2.16476 16.0645 2.24807 11.6874 2.31513 8.16993L2.31628 8.11591C2.32978 7.82546 2.33848 7.52036 2.34328 7.18345C2.36777 5.52932 3.68293 4.16083 5.33729 4.06859C8.78654 3.8761 11.4548 2.75115 13.7347 0.52893L13.7547 0.51062C14.1332 0.163406 14.6102 -0.00688251 15.0849 0.000212866C15.5427 0.00616381 15.9986 0.176223 16.3637 0.51062L16.3831 0.52893C18.6635 2.75115 21.3318 3.8761 24.781 4.06859C26.4354 4.16083 27.7506 5.52932 27.7751 7.18345C27.7799 7.52265 27.7886 7.82729 27.8021 8.11591L27.8027 8.1388C27.8696 11.6629 27.9524 16.0487 26.483 20.0338Z" fill="#16DBCC"/>
<path d="M26.483 20.0338C25.6767 22.2192 24.4572 24.1194 22.858 25.681C21.0377 27.4585 18.6541 28.871 15.7734 29.8785C15.6789 29.9115 15.5803 29.9385 15.4812 29.9584C15.3502 29.9842 15.217 29.9982 15.085 30V0.000244141C15.5427 0.00619509 15.9987 0.176254 16.3637 0.510651L16.3832 0.528962C18.6635 2.75118 21.3318 3.87613 24.7811 4.06862C26.4354 4.16086 27.7506 5.52935 27.7751 7.18348C27.7799 7.52268 27.7886 7.82732 27.8021 8.11594L27.8028 8.13883C27.8696 11.6629 27.9525 16.0488 26.483 20.0338Z" fill="#16DBCC"/>
<path d="M22.5356 15C22.5356 19.1137 19.1955 22.4622 15.0852 22.4769H15.0589C10.9365 22.4769 7.58203 19.1226 7.58203 15C7.58203 10.8776 10.9365 7.52332 15.0589 7.52332H15.0852C19.1955 7.53796 22.5356 10.8865 22.5356 15Z" fill="white"/>
<path d="M19.6525 13.7963L15.1146 17.8221L14.134 18.6919C13.9024 18.8974 13.5986 19 13.295 19C12.9912 19 12.6877 18.8974 12.4557 18.6919L10.3475 16.821C9.88418 16.41 9.88418 15.7444 10.3475 15.3331C10.8101 14.9222 11.5615 14.9222 12.0248 15.3331L13.295 16.4598L17.9752 12.3084C18.4385 11.8972 19.1899 11.8972 19.6525 12.3084C20.1158 12.7194 20.1158 13.3859 19.6525 13.7963Z" fill="#16DBCC"/>
</g>
<defs>
<clipPath id="clip0_112_1089">
<rect width="30" height="30" fill="white"/>
</clipPath>
</defs>
</svg>
