<svg width="19" height="20" viewBox="0 0 19 20" fill="none" xmlns="http://www.w3.org/2000/svg">
<path d="M8.90625 20H7.34375C6.56832 20 5.9375 19.3692 5.9375 18.5938V8.90625C5.9375 8.13082 6.56832 7.5 7.34375 7.5H8.90625C9.68168 7.5 10.3125 8.13082 10.3125 8.90625V18.5938C10.3125 19.3692 9.68164 20 8.90625 20Z" fill="#FF82AC"/>
<path d="M2.96875 20H1.40625C0.630821 20 0 19.3692 0 18.5938V12.0312C0 11.2558 0.630821 10.625 1.40625 10.625H2.96875C3.74418 10.625 4.37501 11.2558 4.37501 12.0312V18.5938C4.37501 19.3692 3.74415 20 2.96875 20Z" fill="#FF82AC"/>
<path d="M14.8437 20H13.2812C12.5058 20 11.875 19.3692 11.875 18.5938V5.625H11.0164C10.615 5.625 10.2614 5.39844 10.0937 5.03375C9.92593 4.66906 9.98401 4.2532 10.2453 3.9484C10.2482 3.94492 10.2513 3.94145 10.2543 3.93805L13.597 0.207891C13.7156 0.0755859 13.8848 0 14.0625 0C14.2402 0 14.4094 0.0755859 14.528 0.207891L17.8707 3.93805C17.8737 3.94145 17.8768 3.94492 17.8797 3.9484C18.141 4.25316 18.1991 4.66906 18.0313 5.03375C17.8636 5.39844 17.51 5.625 17.1086 5.625H16.25V18.5938C16.25 19.3692 15.6191 20 14.8437 20Z" fill="#FF82AC"/>
</svg>
