<svg width="60" height="60" viewBox="0 0 60 60" fill="none" xmlns="http://www.w3.org/2000/svg">
<rect width="60" height="60" rx="20" fill="#DCFAF8"/>
<g clip-path="url(#clip0_101_281)">
<path d="M40.0481 35.2021C39.2667 34.733 37.6415 33.7564 37.6415 31.216C37.6415 29.0719 39.0764 27.9898 39.847 27.4086L39.8632 27.3964C40.1726 27.1631 40.2463 26.7287 40.0315 26.4061C38.3096 23.8207 35.3524 23.7461 34.7774 23.7568H34.774C34.3797 23.7573 34.0034 23.8027 33.6466 23.8744C33.7784 23.769 33.9062 23.6567 34.0292 23.5377C35.2611 22.3458 35.9381 20.5873 35.8859 18.7116C35.8746 18.3158 35.5506 18 35.1542 18C33.8218 18 32.3068 18.796 31.2004 20.0777C30.0856 21.3692 29.5648 22.9163 29.7723 24.322C29.7894 24.4386 29.8343 24.545 29.8987 24.6363C29.7035 24.5709 29.497 24.4948 29.293 24.4196C28.5179 24.1341 27.6389 23.8105 26.816 23.8105C26.7994 23.8105 25.1263 23.8227 23.4557 24.8603C21.9944 25.7686 20.252 27.6589 20.252 31.5093C20.252 33.5119 21.0343 36.3154 22.2452 38.6523C23.0818 40.2668 24.8179 42.9766 27.0474 42.9893H27.0713C28.6971 42.9893 30.0441 42.0292 30.9602 42.0292C32.525 42.0292 33.0819 43 34.774 43C36.291 43 37.761 41.8477 39.1437 39.5757C39.6513 38.7411 40.0462 37.9158 40.2878 37.3701C40.749 36.3305 40.749 36.1919 40.749 36.0904C40.749 35.6233 40.3927 35.409 40.0481 35.2021ZM32.3088 21.0343C32.9096 20.3384 33.6666 19.822 34.3836 19.594C34.2464 20.7308 33.7662 21.7552 33.0111 22.4854C32.482 22.9974 31.8471 23.3302 31.2023 23.4449C31.2707 22.6406 31.6553 21.7913 32.3088 21.0343ZM37.822 38.9295C36.7771 40.6104 35.6945 41.5358 34.774 41.5358C33.5075 41.5358 32.9155 40.565 30.9602 40.565C29.641 40.565 28.3822 41.5319 27.0557 41.525C26.021 41.5192 24.6758 40.1604 23.5455 37.9787C22.4341 35.8346 21.7162 33.2952 21.7162 31.5093C21.7162 28.9811 22.5474 27.1718 24.1853 26.1313C25.4607 25.3216 26.7653 25.2762 26.8204 25.2747C27.9635 25.2776 29.5502 26.2894 30.7064 26.2894C31.7475 26.2894 33.1414 25.221 34.7794 25.221H34.8062C35.2035 25.2132 37.0792 25.2576 38.397 26.6877C37.4657 27.472 36.1772 28.8825 36.1772 31.216C36.1772 34.3855 38.1817 35.777 39.1286 36.3573C38.8929 36.9284 38.4434 37.9304 37.822 38.9295Z" fill="#16DBCC"/>
</g>
<defs>
<clipPath id="clip0_101_281">
<rect width="25" height="25" fill="white" transform="translate(18 18)"/>
</clipPath>
</defs>
</svg>
