<svg width="25" height="25" viewBox="0 0 25 25" fill="none" xmlns="http://www.w3.org/2000/svg">
<g clip-path="url(#clip0_101_283)">
<path d="M22.0481 17.2021C21.2667 16.733 19.6415 15.7564 19.6415 13.216C19.6415 11.0719 21.0764 9.98985 21.847 9.40856L21.8632 9.39635C22.1726 9.16306 22.2463 8.72867 22.0315 8.40606C20.3096 5.82074 17.3524 5.74607 16.7774 5.7568H16.774C16.3797 5.75729 16.0034 5.80268 15.6466 5.87443C15.7784 5.76901 15.9062 5.65675 16.0292 5.53766C17.2611 4.34579 17.9381 2.58727 17.8859 0.711608C17.8746 0.315782 17.5506 0 17.1542 0C15.8218 0 14.3068 0.796045 13.2004 2.07772C12.0856 3.36916 11.5648 4.91634 11.7723 6.32199C11.7894 6.43864 11.8343 6.54504 11.8987 6.63631C11.7035 6.57091 11.497 6.49477 11.293 6.41961C10.5179 6.13408 9.63892 5.81049 8.81603 5.81049C8.79943 5.81049 7.12632 5.82269 5.45565 6.86033C3.99437 7.76863 2.25195 9.65894 2.25195 13.5093C2.25195 15.5119 3.03433 18.3154 4.24524 20.6523C5.08179 22.2668 6.81786 24.9766 9.04737 24.9893H9.07129C10.6971 24.9893 12.0441 24.0292 12.9602 24.0292C14.525 24.0292 15.0819 25 16.774 25C18.291 25 19.761 23.8477 21.1437 21.5757C21.6513 20.7411 22.0462 19.9158 22.2878 19.3701C22.749 18.3305 22.749 18.1919 22.749 18.0904C22.749 17.6233 22.3927 17.409 22.0481 17.2021ZM14.3088 3.03434C14.9096 2.33835 15.6666 1.82197 16.3836 1.59404C16.2464 2.73076 15.7662 3.75522 15.0111 4.48538C14.482 4.99736 13.8471 5.33023 13.2023 5.44493C13.2707 4.64058 13.6553 3.79134 14.3088 3.03434ZM19.822 20.9295C18.7771 22.6104 17.6945 23.5358 16.774 23.5358C15.5075 23.5358 14.9155 22.565 12.9602 22.565C11.641 22.565 10.3822 23.5319 9.05567 23.525C8.02096 23.5192 6.67583 22.1604 5.54546 19.9787C4.43412 17.8346 3.71617 15.2952 3.71617 13.5093C3.71617 10.9811 4.54735 9.17184 6.18532 8.13127C7.46065 7.32156 8.76527 7.27617 8.82042 7.27471C9.96348 7.27764 11.5502 8.28941 12.7064 8.28941C13.7475 8.28941 15.1414 7.22102 16.7794 7.22102H16.8062C17.2035 7.21321 19.0792 7.25762 20.397 8.68767C19.4657 9.472 18.1772 10.8825 18.1772 13.216C18.1772 16.3855 20.1817 17.777 21.1286 18.3573C20.8929 18.9284 20.4434 19.9304 19.822 20.9295Z" fill="#16DBCC"/>
</g>
<defs>
<clipPath id="clip0_101_283">
<rect width="25" height="25" fill="white"/>
</clipPath>
</defs>
</svg>
