<svg width="70" height="70" viewBox="0 0 70 70" fill="none" xmlns="http://www.w3.org/2000/svg">
<circle cx="35" cy="35" r="35" fill="#FFE0EB"/>
<path d="M45.1323 20C43.4164 20 42.0254 21.391 42.0254 23.1069V32.3773H47.3604C47.8457 32.3773 48.2393 31.9838 48.2393 31.4984V23.1069C48.2393 21.391 46.8482 20 45.1323 20V20Z" fill="#FF82AC"/>
<path d="M30.6266 42.0898C30.6266 36.7805 34.9456 32.4076 40.3261 32.4223V23.4855C40.3261 22.1486 40.8293 20.9271 41.656 20H26.1541C23.7318 20 21.7607 21.9711 21.7607 24.3934V49.1053C21.7607 49.8959 22.7279 50.2844 23.2748 49.7129L24.3992 48.5387L25.5869 49.727C25.9297 50.0697 26.4863 50.0697 26.8297 49.727L27.9553 48.602L29.092 49.7293C29.4348 50.0691 29.9873 50.0691 30.3301 49.7293L31.485 48.5844L32.6404 49.7293C32.9826 50.0691 33.5346 50.0691 33.8773 49.7299L34.1012 49.5084C31.922 47.6864 30.6266 44.9923 30.6266 42.0898ZM28.8709 27.0898H30.6055V25.3552C30.6055 24.8698 30.999 24.4763 31.4844 24.4763C31.9698 24.4763 32.3633 24.8698 32.3633 25.3552V27.0898H34.0979C34.5833 27.0898 34.9768 27.4834 34.9768 27.9688C34.9768 28.4541 34.5833 28.8477 34.0979 28.8477H32.3633V30.5823C32.3633 31.0677 31.9698 31.4612 31.4844 31.4612C30.999 31.4612 30.6055 31.0677 30.6055 30.5823V28.8477H28.8709C28.3855 28.8477 27.992 28.4541 27.992 27.9688C27.992 27.4834 28.3855 27.0898 28.8709 27.0898ZM26.2109 33.2451H32.1289C32.6143 33.2451 33.0078 33.6386 33.0078 34.124C33.0078 34.6094 32.6143 35.0029 32.1289 35.0029H26.2109C25.7255 35.0029 25.332 34.6094 25.332 34.124C25.332 33.6386 25.7255 33.2451 26.2109 33.2451ZM29.1435 42.0283H26.205C25.7196 42.0283 25.3261 41.6348 25.3261 41.1494C25.3261 40.664 25.7196 40.2705 26.205 40.2705H29.1435C29.6289 40.2705 30.0224 40.664 30.0224 41.1494C30.0224 41.6348 29.6289 42.0283 29.1435 42.0283ZM29.7295 38.5186H26.2079C25.7225 38.5186 25.329 38.125 25.329 37.6396C25.329 37.1543 25.7225 36.7607 26.2079 36.7607H29.7295C30.2149 36.7607 30.6084 37.1543 30.6084 37.6396C30.6084 38.125 30.2149 38.5186 29.7295 38.5186Z" fill="#FF82AC"/>
<path d="M40.2949 34.1797C35.9333 34.1797 32.3848 37.7282 32.3848 42.0898C32.3848 46.4515 35.9333 50 40.2949 50C44.6566 50 48.2051 46.4515 48.2051 42.0898C48.2051 37.7282 44.6566 34.1797 40.2949 34.1797ZM41.1766 45.4747V45.5583C41.1766 46.0437 40.7831 46.4372 40.2977 46.4372C39.8123 46.4372 39.4188 46.0437 39.4188 45.5583V45.5434C39.0251 45.4496 38.6598 45.2945 38.3702 45.105C37.9639 44.8392 37.8501 44.2946 38.1158 43.8883C38.3816 43.482 38.9263 43.3682 39.3325 43.634C39.6922 43.8693 40.2852 43.9587 40.5766 43.8216C40.7655 43.7327 40.9116 43.543 40.932 43.3603C40.9755 42.9712 40.3658 42.7541 40.0017 42.6103C39.4508 42.3927 38.7652 42.1219 38.3671 41.4033C37.7998 40.3791 38.2967 39.0287 39.4188 38.5669V38.5227C39.4188 38.0373 39.8123 37.6437 40.2977 37.6437C40.7783 37.6437 41.1682 38.0296 41.1759 38.5084C41.4922 38.6073 41.7837 38.7655 42.017 38.9807C42.3738 39.3098 42.3963 39.8658 42.0671 40.2226C41.738 40.5795 41.182 40.6019 40.8252 40.2728C40.6806 40.1394 40.235 40.0856 40.0414 40.2156C39.9112 40.3031 39.8602 40.4709 39.9047 40.5514C40.0904 40.8865 41.0624 41.0013 41.7981 41.5746C43.3009 42.7457 42.778 44.8604 41.1766 45.4747Z" fill="#FF82AC"/>
</svg>
