<svg width="55" height="55" viewBox="0 0 55 55" fill="none" xmlns="http://www.w3.org/2000/svg">
<rect width="55" height="55" rx="20" fill="#FFE0EB"/>
<g clip-path="url(#clip0_105_390)">
<path d="M36.3389 31.1611C34.9774 29.7997 33.3569 28.7918 31.5888 28.1817C33.4825 26.8775 34.7266 24.6947 34.7266 22.2266C34.7266 18.2418 31.4847 15 27.5 15C23.5153 15 20.2734 18.2418 20.2734 22.2266C20.2734 24.6947 21.5175 26.8775 23.4112 28.1817C21.6432 28.7918 20.0227 29.7997 18.6612 31.1611C16.3002 33.5221 15 36.6611 15 40H16.9531C16.9531 34.1844 21.6844 29.4531 27.5 29.4531C33.3156 29.4531 38.0469 34.1844 38.0469 40H40C40 36.6611 38.6998 33.5221 36.3389 31.1611ZM27.5 27.5C24.5922 27.5 22.2266 25.1344 22.2266 22.2266C22.2266 19.3187 24.5922 16.9531 27.5 16.9531C30.4078 16.9531 32.7734 19.3187 32.7734 22.2266C32.7734 25.1344 30.4078 27.5 27.5 27.5Z" fill="#FF82AC"/>
</g>
<defs>
<clipPath id="clip0_105_390">
<rect width="25" height="25" fill="white" transform="translate(15 15)"/>
</clipPath>
</defs>
</svg>
