<svg width="25" height="25" viewBox="0 0 25 25" fill="none" xmlns="http://www.w3.org/2000/svg">
<g clip-path="url(#clip0_101_311)">
<path d="M20.2996 13.265C19.834 13.265 19.3738 13.3332 18.9317 13.4675L13.2317 15.0454V6.98364C13.2317 6.57978 13.5603 6.25122 13.9642 6.25122C14.368 6.25122 14.6966 6.57978 14.6966 6.98364V12.6813H15.429C18.256 12.6813 20.556 10.3813 20.556 7.55435C20.556 5.2667 19.0194 3.23696 16.8164 2.61753L7.3561 0V12.556L3.56015 13.6067C3.11191 13.7189 2.68222 13.8971 2.28286 14.1366C0.0603478 15.4691 -0.663676 18.3615 0.668942 20.584C1.19672 21.4642 1.97695 22.1334 2.92529 22.5193C3.49062 22.7494 4.09956 22.8661 4.70766 22.866C5.08525 22.866 5.46259 22.821 5.8288 22.7303L7.3561 22.3077V23.5762L12.4993 25L21.6586 22.4646L21.6777 22.459C22.6194 22.1705 23.4652 21.576 24.0594 20.7849C24.6743 19.9663 24.9993 18.9911 24.9993 17.9648C24.9993 15.3733 22.891 13.265 20.2996 13.265ZM7.35605 16.6719L3.50429 17.7381L3.89511 19.1499L7.35605 18.1918V20.7878L5.46718 21.3107C5.20771 21.3742 4.94697 21.405 4.6896 21.405C3.57343 21.4049 2.52207 20.8262 1.92524 19.8307C1.008 18.3009 1.50634 16.3101 3.03613 15.3928C3.31367 15.2264 3.61191 15.103 3.92255 15.026L7.35605 14.0758V16.6719ZM11.7669 6.98364V23.2773L8.82094 22.4618V1.9252L16.4228 4.02856C17.9939 4.47031 19.0911 5.92022 19.0911 7.55439C19.0911 9.3229 17.8309 10.8026 16.1614 11.1429V6.98364C16.1614 5.77207 15.1757 4.78638 13.9642 4.78638C12.7526 4.78638 11.7669 5.77207 11.7669 6.98364ZM21.2576 21.0556L13.2317 23.2773V20.6813L21.4949 18.3938L21.104 16.9821L13.2317 19.1613V16.5653L19.3316 14.8767L19.3507 14.8711C19.6568 14.7774 19.976 14.7299 20.2997 14.7299C22.0833 14.7299 23.5345 16.1811 23.5345 17.9647C23.5345 19.3931 22.6198 20.6341 21.2576 21.0556Z" fill="#396AFF"/>
</g>
<defs>
<clipPath id="clip0_101_311">
<rect width="25" height="25" fill="white"/>
</clipPath>
</defs>
</svg>
