<svg width="55" height="55" viewBox="0 0 55 55" fill="none" xmlns="http://www.w3.org/2000/svg">
<rect width="55" height="55" rx="20" fill="#E7EDFF"/>
<g clip-path="url(#clip0_105_391)">
<path d="M19.209 36.5227C19.6135 36.5227 19.9414 36.1948 19.9414 35.7903C19.9414 35.3858 19.6135 35.0579 19.209 35.0579C18.8045 35.0579 18.4766 35.3858 18.4766 35.7903C18.4766 36.1948 18.8045 36.5227 19.209 36.5227Z" fill="#396AFF"/>
<path d="M34.8332 27.0367C36.1266 26.8464 37.3002 26.256 38.227 25.3291C39.1094 24.4468 39.6902 23.3329 39.9065 22.108C40.1178 20.9115 39.9692 19.6945 39.4768 18.5887C39.2679 18.1196 38.6525 18.0059 38.2898 18.3687L35.2894 21.369C35.1656 21.4928 34.9641 21.4928 34.8402 21.369L33.6304 20.1593C33.5068 20.0357 33.5068 19.8345 33.6304 19.7108L36.6312 16.7102C36.9943 16.3471 36.8799 15.7319 36.4112 15.5232C35.3053 15.0308 34.0883 14.8821 32.8918 15.0935C31.6668 15.3098 30.5529 15.8905 29.6705 16.7729C28.7437 17.6997 28.1532 18.8733 27.9629 20.1666C27.8058 21.234 27.9311 22.3019 28.325 23.2885L26.1279 25.0933L21.2215 20.1871L22.0847 19.3239C22.394 19.0147 22.3648 18.5038 22.0216 18.2319L18.7007 15.6017C18.4092 15.3709 17.9909 15.395 17.728 15.6579L15.6564 17.7294C15.3935 17.9923 15.3693 18.4105 15.6002 18.702L18.2305 22.0228C18.5024 22.366 19.0129 22.3956 19.3226 22.0859L20.1857 21.2228L24.9906 26.0275L15.9715 33.436C14.7708 34.3856 14.6672 36.1724 15.7494 37.2546L17.7446 39.2497C18.8267 40.3318 20.6134 40.2285 21.5634 39.0276L28.9721 30.0089L29.7164 30.7531L28.6459 31.8236C28.3707 32.0986 28.3588 32.5408 28.6185 32.8304L34.1998 39.0528C35.2975 40.2711 37.191 40.3217 38.3517 39.161L39.1602 38.3525C40.3234 37.1894 40.2682 35.2822 39.0389 34.1884C39.0384 34.188 39.0379 34.1876 39.0374 34.1871L32.7863 28.6559C32.4964 28.3994 32.0569 28.4127 31.783 28.6865L30.7521 29.7173L29.9063 28.8716L31.7112 26.6746C32.6978 27.0685 33.7658 27.1938 34.8332 27.0367ZM18.8682 20.4687L17.1534 18.3039L18.3025 17.1549L20.4674 18.8696L18.8682 20.4687ZM32.3316 30.2094L38.0658 35.2832C38.3561 35.5418 38.5223 35.8982 38.5337 36.2868C38.545 36.6758 38.3997 37.0415 38.1245 37.3167L37.316 38.1253C37.042 38.3992 36.6779 38.5448 36.2909 38.5344C35.9037 38.5243 35.5476 38.3603 35.2893 38.0736L30.1722 32.3688L32.3316 30.2094ZM30.9367 25.3097L28.3513 28.4569C28.351 28.4573 28.3506 28.4578 28.3503 28.4582L20.4269 38.1035C20.4235 38.1076 20.4201 38.1118 20.4168 38.116C20.0108 38.633 19.2463 38.6798 18.7804 38.2139L16.7852 36.2189C16.3204 35.7541 16.365 34.9894 16.8832 34.5825C16.8874 34.5792 16.8916 34.5758 16.8957 34.5724L26.5415 26.6492C26.5418 26.6489 26.542 26.6487 26.5423 26.6485L29.6899 24.063C29.9571 23.8435 30.0344 23.467 29.8752 23.16C28.9521 21.3794 29.2861 19.2288 30.7063 17.8086C31.5809 16.9341 32.7649 16.4693 33.9622 16.4693C34.2202 16.4693 34.4788 16.4909 34.7351 16.5346L32.5946 18.6751C31.8999 19.3698 31.8999 20.5002 32.5946 21.195L33.8044 22.4047C34.4993 23.0996 35.6302 23.0997 36.3252 22.4047L38.4653 20.2647C38.7118 21.7101 38.2542 23.2304 37.1912 24.2934C35.771 25.7135 33.6204 26.0474 31.8397 25.1244C31.5327 24.9652 31.1562 25.0425 30.9367 25.3097Z" fill="#396AFF"/>
</g>
<defs>
<clipPath id="clip0_105_391">
<rect width="25" height="25" fill="white" transform="translate(15 15)"/>
</clipPath>
</defs>
</svg>
