<svg width="55" height="55" viewBox="0 0 55 55" fill="none" xmlns="http://www.w3.org/2000/svg">
<rect width="55" height="55" rx="20" fill="#DCFAF8"/>
<g clip-path="url(#clip0_105_392)">
<path d="M39.3716 28.0971C38.938 28.0452 38.5444 28.355 38.4925 28.7888C37.8424 34.2356 33.2035 38.3432 27.7021 38.3432C22.754 38.3432 18.5046 35.0204 17.2264 30.3893L18.1727 30.909C18.5557 31.1194 19.0367 30.9793 19.2468 30.5966C19.4571 30.2136 19.3172 29.7326 18.9343 29.5223L16.5069 28.1891C16.1244 27.979 15.6438 28.1185 15.4333 28.5008L14.0982 30.9251C13.8875 31.3078 14.027 31.7888 14.4095 31.9996C14.8046 32.1843 15.2561 32.0935 15.4839 31.6883L15.7933 31.1266C17.3607 36.2681 22.1471 39.9252 27.7021 39.9252C34.0041 39.9252 39.3183 35.2182 40.0631 28.9762C40.1151 28.5424 39.8052 28.1488 39.3716 28.0971Z" fill="#16DBCC"/>
<path d="M40.5214 21.8098C40.1206 21.637 39.655 21.8218 39.482 22.223L39.2327 22.8006C38.4539 20.8962 37.2039 19.1921 35.5939 17.8727C33.3772 16.0557 30.5745 15.0552 27.702 15.0552C24.8295 15.0552 22.0268 16.0557 19.8099 17.8727C17.6237 19.6644 16.1002 22.1651 15.5201 24.9139C15.4299 25.3413 15.7035 25.7609 16.1309 25.8511C16.5577 25.9414 16.9779 25.668 17.0679 25.2406C17.5741 22.8426 18.9039 20.6606 20.8127 19.0961C22.7473 17.5104 25.1941 16.6372 27.702 16.6372C30.2097 16.6372 32.6565 17.5104 34.5912 19.0961C36.0782 20.3147 37.2136 21.9085 37.8823 23.687L36.8807 23.2563C36.4795 23.0839 36.0141 23.269 35.8415 23.6703C35.6689 24.0716 35.8543 24.5367 36.2556 24.7093L38.7999 25.8038C39.2329 25.9828 39.6546 25.7998 39.839 25.3903L40.9346 22.8492C41.1077 22.4482 40.9227 21.9828 40.5214 21.8098Z" fill="#16DBCC"/>
<path d="M32.5773 21.6711C32.8043 21.2132 32.8391 20.6941 32.6757 20.2098C32.5124 19.7255 32.1702 19.3339 31.7123 19.1069C30.7668 18.6385 29.6168 19.0266 29.1482 19.9719C29.0458 20.1787 28.9827 20.3979 28.9593 20.6208C28.3483 20.5645 27.7272 20.6214 27.1253 20.7946C25.9273 21.139 24.9083 21.914 24.2561 22.9763L22.1202 26.455C21.8349 26.404 21.5399 26.4252 21.2577 26.5203C20.8163 26.6693 20.4593 26.9811 20.2527 27.3983L20.1118 27.6823C19.685 28.5438 20.0384 29.5921 20.9001 30.0189L25.5238 32.3099C25.0685 33.257 25.2724 34.3214 26.454 34.9159C27.4899 35.3415 28.6431 34.9245 29.0909 34.0775L29.5797 34.3195C29.824 34.4407 30.0873 34.5018 30.3522 34.5018C30.5398 34.5018 30.7283 34.4712 30.9112 34.4094C31.3525 34.2606 31.7094 33.9488 31.9163 33.5314L32.0569 33.2474C32.2638 32.83 32.2957 32.3573 32.1468 31.9158C32.0516 31.6336 31.8897 31.386 31.6763 31.1899L33.1503 27.3834C33.6004 26.2208 33.5996 24.9406 33.1481 23.7788C32.9213 23.195 32.5903 22.6665 32.1756 22.2143C32.3385 22.0606 32.4749 21.8779 32.5773 21.6711ZM30.8614 20.4871C31.0449 20.4871 31.1936 20.6358 31.1936 20.8191C31.1936 21.0027 31.0449 21.1512 30.8614 21.1512C30.678 21.1512 30.5293 21.0025 30.5293 20.8191C30.5293 20.6358 30.678 20.4871 30.8614 20.4871ZM27.4697 33.5195C27.3659 33.5547 27.2547 33.5471 27.1564 33.4985C27.0582 33.4499 26.9848 33.3658 26.9498 33.262C26.9224 33.1808 26.9214 33.0949 26.9455 33.0146L27.6694 33.3732C27.6197 33.441 27.5509 33.4923 27.4697 33.5195ZM31.675 26.8122L30.0693 30.9584C29.8434 31.4707 30.0595 32.0771 30.566 32.3284H30.5662C30.6488 32.3725 30.6791 32.4632 30.6395 32.5451L30.4986 32.8292C30.4515 32.9116 30.3674 32.9386 30.2821 32.9021L21.6025 28.6015C21.5226 28.5619 21.4896 28.4647 21.5292 28.385L21.6701 28.1009C21.7082 28.0307 21.7821 27.9808 21.8868 28.0278C22.1391 28.1528 22.425 28.172 22.692 28.0822C22.9439 27.9971 23.1505 27.8243 23.278 27.5929L25.6041 23.8041C26.0492 23.0791 26.7449 22.5501 27.5626 22.3148C28.3802 22.0796 29.2505 22.1581 30.0127 22.5359C30.0129 22.5359 30.0129 22.5359 30.0131 22.5361C30.0133 22.5361 30.0133 22.5361 30.0135 22.5363C30.7759 22.9141 31.3654 23.5588 31.6736 24.3519C31.9818 25.1449 31.9822 26.0187 31.675 26.8122Z" fill="#16DBCC"/>
</g>
<defs>
<clipPath id="clip0_105_392">
<rect width="27" height="27" fill="white" transform="translate(14 14)"/>
</clipPath>
</defs>
</svg>
