<svg width="55" height="55" viewBox="0 0 55 55" fill="none" xmlns="http://www.w3.org/2000/svg">
<circle cx="27.5" cy="27.5" r="27.5" fill="#E7EDFF"/>
<path d="M36.995 22.3825C36.9812 20.8522 36.3642 19.3891 35.278 18.3111C34.1918 17.2331 32.7241 16.6272 31.1938 16.625H22.75C22.5403 16.6223 22.3366 16.695 22.176 16.8299C22.0154 16.9648 21.9086 17.1529 21.875 17.36L18.8825 36.1287C18.8638 36.253 18.8721 36.3798 18.9068 36.5006C18.9416 36.6214 19.0019 36.7333 19.0838 36.8287C19.1651 36.9263 19.2667 37.0051 19.3815 37.0595C19.4964 37.1139 19.6217 37.1426 19.7488 37.1437H23.3625L23.17 38.3599C23.1496 38.486 23.157 38.615 23.1917 38.7379C23.2264 38.8608 23.2876 38.9746 23.371 39.0713C23.4544 39.1681 23.5579 39.2454 23.6744 39.2978C23.7908 39.3503 23.9173 39.3766 24.045 39.375H28.1138C28.3222 39.378 28.5249 39.3065 28.6853 39.1733C28.8457 39.0402 28.9533 38.8541 28.9888 38.6487L29.8638 33.3024H32.62C34.3451 33.2955 35.9974 32.6059 37.2156 31.3844C38.4338 30.1629 39.119 28.5088 39.1213 26.7837V26.5387C39.1204 25.7272 38.9272 24.9275 38.5576 24.205C38.1881 23.4826 37.6525 22.858 36.995 22.3825ZM23.4938 18.375H31.1938C32.1118 18.3778 33.0017 18.6916 33.7184 19.2653C34.4351 19.839 34.9362 20.6386 35.14 21.5337C34.7615 21.4449 34.3738 21.4009 33.985 21.4025H26.6875C26.4778 21.3998 26.2741 21.4725 26.1135 21.6074C25.9528 21.7423 25.8461 21.9304 25.8125 22.1375L25.2963 25.375C25.2591 25.607 25.3157 25.8443 25.4535 26.0347C25.5914 26.225 25.7992 26.3528 26.0313 26.39C26.2633 26.4271 26.5006 26.3705 26.691 26.2327C26.8813 26.0948 27.0091 25.887 27.0463 25.655L27.4488 23.135H34.0025C34.422 23.1372 34.8373 23.2173 35.2275 23.3712C35.0612 24.741 34.4003 26.0028 33.3691 26.9196C32.3379 27.8365 31.0073 28.3451 29.6275 28.3499H25.5675C25.3591 28.3469 25.1564 28.4184 24.996 28.5516C24.8355 28.6847 24.7279 28.8708 24.6925 29.0762L23.625 35.3937H20.7725L23.4938 18.375ZM37.3713 26.7837C37.369 28.0447 36.8682 29.2537 35.9782 30.147C35.0881 31.0403 33.881 31.5455 32.62 31.5524H29.12C28.9116 31.5494 28.7089 31.6209 28.5485 31.7541C28.388 31.8872 28.2804 32.0733 28.245 32.2787L27.37 37.625H25.06L25.2525 36.4087L26.3025 30.1175H29.61C31.2435 30.1126 32.8296 29.5677 34.121 28.5674C35.4125 27.5672 36.3368 26.1678 36.75 24.5875C37.1561 25.1569 37.3734 25.8393 37.3713 26.5387V26.7837Z" fill="#396AFF"/>
</svg>
