<svg width="40" height="40" viewBox="0 0 40 40" fill="none" xmlns="http://www.w3.org/2000/svg">
<rect width="40" height="40" rx="15" fill="#E7EDFF"/>
<g clip-path="url(#clip0_0_1)">
<path d="M14.0304 26.4963C14.3216 26.4963 14.5577 26.2602 14.5577 25.969C14.5577 25.6778 14.3216 25.4417 14.0304 25.4417C13.7392 25.4417 13.5031 25.6778 13.5031 25.969C13.5031 26.2602 13.7392 26.4963 14.0304 26.4963Z" fill="#396AFF"/>
<path d="M25.2803 19.6664C26.2115 19.5294 27.0565 19.1043 27.7238 18.437C28.3591 17.8017 28.7773 16.9997 28.9331 16.1177C29.0852 15.2563 28.9782 14.3801 28.6237 13.5838C28.4733 13.2461 28.0302 13.1642 27.769 13.4255L25.6088 15.5857C25.5196 15.6748 25.3745 15.6748 25.2853 15.5857L24.4143 14.7147C24.3253 14.6257 24.3253 14.4808 24.4143 14.3918L26.5748 12.2313C26.8363 11.9699 26.7539 11.527 26.4164 11.3767C25.6202 11.0222 24.744 10.9151 23.8825 11.0673C23.0005 11.223 22.1985 11.6412 21.5632 12.2765C20.8958 12.9438 20.4706 13.7887 20.3336 14.72C20.2205 15.4885 20.3108 16.2574 20.5944 16.9677L19.0125 18.2672L15.4799 14.7347L16.1013 14.1132C16.3241 13.8906 16.303 13.5227 16.0559 13.327L13.6648 11.4332C13.455 11.267 13.1538 11.2844 12.9645 11.4737L11.473 12.9652C11.2837 13.1545 11.2662 13.4556 11.4325 13.6654L13.3264 16.0564C13.5221 16.3035 13.8897 16.3248 14.1126 16.1018L14.7341 15.4804L18.1936 18.9398L11.6999 24.2739C10.8353 24.9576 10.7607 26.2441 11.54 27.0233L12.9765 28.4598C13.7556 29.2389 15.042 29.1645 15.726 28.2999L21.0603 21.8064L21.5962 22.3422L20.8254 23.113C20.6273 23.311 20.6187 23.6294 20.8057 23.8379L24.8242 28.318C25.6146 29.1952 26.9779 29.2317 27.8136 28.3959L28.3957 27.8138C29.2332 26.9764 29.1935 25.6032 28.3084 24.8157C28.308 24.8154 28.3076 24.815 28.3073 24.8147L23.8065 20.8322C23.5978 20.6476 23.2813 20.6572 23.0842 20.8543L22.3419 21.5965L21.7329 20.9875L23.0324 19.4057C23.7428 19.6893 24.5117 19.7795 25.2803 19.6664ZM13.7855 14.9375L12.5508 13.3788L13.3781 12.5515L14.9369 13.7861L13.7855 14.9375ZM23.4791 21.9508L27.6077 25.6039C27.8168 25.7901 27.9364 26.0467 27.9446 26.3265C27.9528 26.6066 27.8482 26.8699 27.65 27.068L27.0679 27.6502C26.8706 27.8474 26.6084 27.9523 26.3298 27.9448C26.051 27.9375 25.7947 27.8194 25.6087 27.613L21.9243 23.5055L23.4791 21.9508ZM22.4748 18.423L20.6133 20.689C20.6131 20.6893 20.6128 20.6896 20.6126 20.6899L14.9077 27.6345C14.9053 27.6375 14.9029 27.6405 14.9005 27.6435C14.6082 28.0157 14.0577 28.0495 13.7222 27.714L12.2857 26.2776C11.951 25.9429 11.9832 25.3924 12.3563 25.0994C12.3593 25.097 12.3623 25.0946 12.3653 25.0921L19.3102 19.3874C19.3104 19.3872 19.3106 19.3871 19.3108 19.3869L21.5771 17.5254C21.7695 17.3673 21.8251 17.0962 21.7105 16.8752C21.0459 15.5931 21.2864 14.0447 22.3089 13.0222C22.9386 12.3925 23.7911 12.0579 24.6532 12.0579C24.8389 12.0579 25.0251 12.0735 25.2096 12.1049L23.6685 13.646C23.1683 14.1462 23.1683 14.9601 23.6685 15.4604L24.5396 16.3314C25.0399 16.8317 25.8541 16.8318 26.3545 16.3314L27.8954 14.7906C28.0729 15.8313 27.7434 16.9259 26.9781 17.6912C25.9555 18.7137 24.407 18.9541 23.1249 18.2896C22.9039 18.175 22.6328 18.2306 22.4748 18.423Z" fill="#396AFF"/>
</g>
<defs>
<clipPath id="clip0_0_1">
<rect width="18" height="18" fill="white" transform="translate(11 11)"/>
</clipPath>
</defs>
</svg>
