<svg width="40" height="40" viewBox="0 0 40 40" fill="none" xmlns="http://www.w3.org/2000/svg">
<rect width="40" height="40" rx="15" fill="#DCFAF8"/>
<g clip-path="url(#clip0_152_825)">
<path d="M28.7938 20.4423C28.4726 20.4038 28.181 20.6333 28.1426 20.9546C27.661 24.9893 24.2248 28.032 20.1497 28.032C16.4844 28.032 13.3367 25.5707 12.3899 22.1402L13.0909 22.5252C13.3746 22.681 13.7309 22.5772 13.8865 22.2937C14.0423 22.0101 13.9387 21.6538 13.655 21.498L11.857 20.5105C11.5736 20.3548 11.2176 20.4581 11.0617 20.7413L10.0728 22.5371C9.91668 22.8206 10.02 23.1769 10.3033 23.333C10.596 23.4699 10.9305 23.4026 11.0992 23.1024L11.3284 22.6863C12.4894 26.4949 16.0349 29.2039 20.1497 29.2039C24.8179 29.2039 28.7543 25.7171 29.306 21.0935C29.3445 20.7721 29.115 20.4806 28.7938 20.4423Z" fill="#16DBCC"/>
<path d="M29.6455 15.7849C29.3486 15.6569 29.0037 15.7938 28.8755 16.091L28.6909 16.5189C28.114 15.1082 27.1881 13.8459 25.9955 12.8686C24.3535 11.5226 22.2774 10.7815 20.1496 10.7815C18.0218 10.7815 15.9457 11.5226 14.3036 12.8686C12.6842 14.1957 11.5557 16.0481 11.126 18.0842C11.0592 18.4009 11.2618 18.7117 11.5784 18.7785C11.8946 18.8453 12.2059 18.6429 12.2726 18.3262C12.6475 16.55 13.6325 14.9337 15.0464 13.7748C16.4795 12.6002 18.2919 11.9534 20.1496 11.9534C22.0072 11.9534 23.8196 12.6002 25.2527 13.7748C26.3542 14.6775 27.1953 15.858 27.6906 17.1754L26.9487 16.8564C26.6515 16.7287 26.3068 16.8658 26.1789 17.1631C26.051 17.4603 26.1884 17.8049 26.4856 17.9327L28.3703 18.7434C28.6911 18.876 29.0034 18.7405 29.14 18.4372L29.9516 16.5549C30.0797 16.2578 29.9427 15.9131 29.6455 15.7849Z" fill="#16DBCC"/>
<path d="M23.7609 15.6823C23.9291 15.3431 23.9549 14.9586 23.8339 14.5999C23.7129 14.2412 23.4594 13.9511 23.1202 13.783C22.4199 13.436 21.568 13.7234 21.2208 14.4237C21.145 14.5769 21.0983 14.7392 21.0809 14.9043C20.6283 14.8627 20.1683 14.9048 19.7224 15.0331C18.835 15.2882 18.0802 15.8622 17.5971 16.6491L16.0149 19.226C15.8036 19.1881 15.5851 19.2039 15.3761 19.2744C15.0491 19.3847 14.7846 19.6157 14.6316 19.9247L14.5272 20.1351C14.2111 20.7732 14.4729 21.5497 15.1112 21.8659L18.5361 23.5629C18.1989 24.2645 18.3499 25.0529 19.2252 25.4933C19.9925 25.8085 20.8467 25.4997 21.1784 24.8723L21.5405 25.0516C21.7215 25.1413 21.9165 25.1866 22.1127 25.1866C22.2517 25.1866 22.3913 25.1639 22.5268 25.1181C22.8537 25.0079 23.1181 24.7769 23.2713 24.4678L23.3755 24.2573C23.5287 23.9482 23.5523 23.598 23.442 23.271C23.3715 23.062 23.2516 22.8786 23.0935 22.7333L24.1854 19.9137C24.5188 19.0525 24.5182 18.1042 24.1837 17.2436C24.0157 16.8112 23.7705 16.4196 23.4634 16.0847C23.5841 15.9709 23.6851 15.8355 23.7609 15.6823ZM22.4899 14.8053C22.6258 14.8053 22.736 14.9154 22.736 15.0512C22.736 15.1872 22.6258 15.2972 22.4899 15.2972C22.3541 15.2972 22.2439 15.187 22.2439 15.0512C22.2439 14.9154 22.3541 14.8053 22.4899 14.8053ZM19.9776 24.4589C19.9007 24.485 19.8183 24.4794 19.7455 24.4433C19.6727 24.4073 19.6184 24.3451 19.5924 24.2682C19.5722 24.2081 19.5714 24.1444 19.5892 24.0849L20.1254 24.3506C20.0887 24.4008 20.0377 24.4388 19.9776 24.4589ZM23.0926 19.4906L21.9032 22.5618C21.7358 22.9413 21.8959 23.3905 22.2711 23.5767H22.2712C22.3324 23.6093 22.3549 23.6765 22.3256 23.7372L22.2212 23.9476C22.1862 24.0086 22.124 24.0286 22.0608 24.0016L15.6315 20.8159C15.5723 20.7866 15.5479 20.7146 15.5772 20.6556L15.6815 20.4451C15.7098 20.3931 15.7645 20.3562 15.842 20.391C16.029 20.4836 16.2408 20.4978 16.4385 20.4313C16.6251 20.3682 16.7782 20.2402 16.8726 20.0689L18.5956 17.2624C18.9253 16.7253 19.4406 16.3334 20.0464 16.1592C20.652 15.9849 21.2967 16.0431 21.8612 16.3229C21.8614 16.3229 21.8614 16.3229 21.8615 16.323C21.8617 16.323 21.8617 16.323 21.8618 16.3232C22.4266 16.603 22.8633 17.0806 23.0915 17.6681C23.3198 18.2555 23.3201 18.9028 23.0926 19.4906Z" fill="#16DBCC"/>
</g>
<defs>
<clipPath id="clip0_152_825">
<rect width="20" height="20" fill="white" transform="translate(10 10)"/>
</clipPath>
</defs>
</svg>
