<svg width="40" height="40" viewBox="0 0 40 40" fill="none" xmlns="http://www.w3.org/2000/svg">
<rect width="40" height="40" rx="15" fill="#FFE0EB"/>
<g clip-path="url(#clip0_0_1)">
<path d="M26.364 22.636C25.3837 21.6558 24.217 20.9301 22.9439 20.4909C24.3074 19.5518 25.2031 17.9802 25.2031 16.2031C25.2031 13.3341 22.869 11 20 11C17.131 11 14.7969 13.3341 14.7969 16.2031C14.7969 17.9802 15.6926 19.5518 17.0561 20.4909C15.7831 20.9301 14.6163 21.6558 13.6361 22.636C11.9362 24.3359 11 26.596 11 29H12.4062C12.4062 24.8128 15.8128 21.4062 20 21.4062C24.1872 21.4062 27.5938 24.8128 27.5938 29H29C29 26.596 28.0638 24.3359 26.364 22.636ZM20 20C17.9064 20 16.2031 18.2968 16.2031 16.2031C16.2031 14.1095 17.9064 12.4062 20 12.4062C22.0936 12.4062 23.7969 14.1095 23.7969 16.2031C23.7969 18.2968 22.0936 20 20 20Z" fill="#FF82AC"/>
</g>
<defs>
<clipPath id="clip0_0_1">
<rect width="18" height="18" fill="white" transform="translate(11 11)"/>
</clipPath>
</defs>
</svg>
