<svg width="55" height="55" viewBox="0 0 55 55" fill="none" xmlns="http://www.w3.org/2000/svg">
<circle cx="27.5" cy="27.5" r="27.5" fill="#DCFAF8"/>
<path d="M28.0001 25.379C28.4962 25.379 28.9013 25.7831 28.9013 26.2792C28.9013 26.7319 29.2693 27.0988 29.7219 27.0988C30.1736 27.0988 30.5415 26.7319 30.5415 26.2792C30.5415 25.1671 29.817 24.2287 28.8197 23.8856V23.4205C28.8197 22.9688 28.4528 22.5999 28.0001 22.5999C27.5464 22.5999 27.1795 22.9688 27.1795 23.4205V23.8856C26.1822 24.2287 25.4597 25.1671 25.4597 26.2792C25.4597 27.6817 26.5987 28.8206 28.0001 28.8206C28.4962 28.8206 28.9013 29.2257 28.9013 29.7218C28.9013 30.2189 28.4962 30.6231 28.0001 30.6231C27.504 30.6231 27.0999 30.2189 27.0999 29.7218C27.0999 29.2691 26.732 28.9012 26.2793 28.9012C25.8256 28.9012 25.4597 29.2691 25.4597 29.7218C25.4597 30.8339 26.1822 31.7713 27.1795 32.1144V32.5795C27.1795 33.0332 27.5464 33.4011 28.0001 33.4011C28.4528 33.4011 28.8197 33.0332 28.8197 32.5795V32.1144C29.817 31.7713 30.5415 30.8339 30.5415 29.7218C30.5415 28.3204 29.4016 27.1804 28.0001 27.1804C27.504 27.1804 27.0999 26.7763 27.0999 26.2792C27.0999 25.7831 27.504 25.379 28.0001 25.379ZM34.872 32.5547C35.274 32.7666 35.769 32.6126 35.9799 32.2136C36.662 30.9248 37.0217 29.4676 37.0217 28C37.0217 23.0267 32.9734 18.9795 28.0001 18.9795C23.0258 18.9795 18.9786 23.0267 18.9786 28C18.9786 32.9743 23.0258 37.0215 28.0001 37.0215C29.446 37.0215 30.8826 36.6722 32.1548 36.0097C32.5569 35.802 32.7129 35.3049 32.5042 34.9039C32.2954 34.5039 31.8004 34.3447 31.3973 34.5545C30.3441 35.1044 29.2 35.3824 28.0001 35.3824C23.9301 35.3824 20.6177 32.071 20.6177 28C20.6177 23.931 23.9301 20.6186 28.0001 20.6186C32.0701 20.6186 35.3825 23.931 35.3825 28C35.3825 29.202 35.0869 30.3936 34.5309 31.4457C34.318 31.8467 34.471 32.3428 34.872 32.5547ZM28.0001 15.697C25.6241 15.697 23.3173 16.3771 21.3298 17.6617C20.9484 17.9077 20.8399 18.4152 21.0859 18.7955C21.3329 19.1758 21.8383 19.2833 22.2207 19.0394C23.9405 17.9273 25.9414 17.3382 28.0001 17.3382C33.8798 17.3382 38.6619 22.1214 38.6619 28C38.6619 33.8797 33.8798 38.6628 28.0001 38.6628C22.1204 38.6628 17.3373 33.8797 17.3373 28C17.3373 25.9609 17.9151 23.9775 19.0096 22.2671C19.2535 21.8847 19.1419 21.3772 18.7594 21.1333C18.3781 20.8894 17.8706 21.001 17.6278 21.3824C16.3648 23.3574 15.6971 25.6477 15.6971 28C15.6971 34.785 21.2151 40.303 28.0001 40.303C34.7841 40.303 40.3031 34.785 40.3031 28C40.3031 21.217 34.7841 15.697 28.0001 15.697Z" fill="#16DBCC"/>
</svg>
