<svg width="25" height="25" viewBox="0 0 25 25" fill="none" xmlns="http://www.w3.org/2000/svg">
<path d="M5.20834 22.9166C5.209 23.4689 5.4287 23.9984 5.81926 24.389C6.20982 24.7796 6.73934 24.9993 7.29168 24.9999H17.7083C18.2607 24.9993 18.7902 24.7796 19.1808 24.389C19.5713 23.9984 19.791 23.4689 19.7917 22.9166V22.0051H5.20834V22.9166Z" fill="#B1B1B1"/>
<path d="M19.7917 2.08333C19.791 1.531 19.5713 1.00148 19.1808 0.610917C18.7902 0.220358 18.2607 0.00065473 17.7083 0L7.29168 0C6.73934 0.00065473 6.20982 0.220358 5.81926 0.610917C5.4287 1.00148 5.209 1.531 5.20834 2.08333V3.125H19.7917V2.08333Z" fill="#B1B1B1"/>
<path d="M24.7098 6.70052L21.5848 3.44531L20.0819 4.88802L21.3893 6.25H19.7917V8.33333H21.5017L20.1126 9.66459L21.554 11.1688L24.679 8.17396C24.7779 8.07926 24.857 7.96602 24.9121 7.8407C24.9671 7.71538 24.9969 7.58045 24.9997 7.44361C25.0026 7.30677 24.9785 7.17071 24.9287 7.04321C24.8789 6.91571 24.8046 6.79926 24.7098 6.70052Z" fill="#B1B1B1"/>
<path d="M16.6667 6.25008H19.7917V4.16675H5.20834V16.6667H8.33334V18.7501H5.20834V20.8334H19.7917V8.33342H16.6667V6.25008ZM15.625 10.4167H11.9792C11.841 10.4167 11.7086 10.4716 11.6109 10.5693C11.5132 10.667 11.4583 10.7994 11.4583 10.9376C11.4583 11.0757 11.5132 11.2082 11.6109 11.3059C11.7086 11.4035 11.841 11.4584 11.9792 11.4584H13.0208C13.6667 11.4578 14.2897 11.6971 14.7689 12.13C15.2482 12.5628 15.5495 13.1583 15.6144 13.8009C15.6793 14.4434 15.5032 15.0871 15.1202 15.6071C14.7371 16.1271 14.1746 16.4862 13.5417 16.6147V17.7084H11.4583V16.6667H9.37501V14.5834H13.0208C13.159 14.5834 13.2915 14.5285 13.3891 14.4309C13.4868 14.3332 13.5417 14.2007 13.5417 14.0626C13.5417 13.9244 13.4868 13.792 13.3891 13.6943C13.2915 13.5966 13.159 13.5417 13.0208 13.5417H11.9792C11.3334 13.5424 10.7104 13.3031 10.2311 12.8702C9.75182 12.4373 9.45048 11.8418 9.38558 11.1993C9.32067 10.5568 9.49683 9.91303 9.87986 9.39306C10.2629 8.8731 10.8255 8.51401 11.4583 8.3855V7.29175H13.5417V8.33342H15.625V10.4167Z" fill="#B1B1B1"/>
<path d="M3.49831 16.6667L4.88737 15.3355L3.44596 13.8313L0.320962 16.8261C0.222145 16.9208 0.14296 17.034 0.0879316 17.1594C0.0329033 17.2847 0.0031108 17.4196 0.000256995 17.5564C-0.00259681 17.6933 0.021544 17.8293 0.0712997 17.9568C0.121055 18.0843 0.19545 18.2008 0.290233 18.2995L3.41523 21.5547L4.9181 20.112L3.61068 18.75H5.20833V16.6667H3.49831Z" fill="#B1B1B1"/>
</svg>
